<svg width="62" height="63" viewBox="0 0 62 63" fill="none" xmlns="http://www.w3.org/2000/svg">
<path fill-rule="evenodd" clip-rule="evenodd" d="M38.9579 45.3314C39.1045 45.2916 39.2336 45.4886 39.1121 45.5964C38.6148 46.0379 38.2989 46.8605 37.9359 47.4212C37.5907 47.9547 37.258 48.4826 36.9544 49.041C36.614 49.6668 36.2853 50.2903 36.0204 50.9524L35.968 51.086C36.0473 51.2749 36.1093 51.4613 36.1551 51.5835L36.1683 51.6182C36.6208 52.7743 35.6709 54.0591 34.5996 54.3822C32.7671 54.9349 31.1948 53.4295 31.1511 51.6391C31.1167 50.2307 32.0709 48.9757 33.0407 48.0447C33.8889 47.2304 34.8388 46.5371 35.9012 46.0293C36.37 45.8054 36.857 45.6182 37.3659 45.5095C37.8865 45.3986 38.4481 45.4692 38.9579 45.3314ZM35.5047 50.4355C35.6391 50.4989 35.7538 50.6538 35.8504 50.8347C35.8022 50.6813 35.7027 50.5287 35.5047 50.4355ZM36.6512 30.8659C38.2465 31.836 40.6774 34.0981 38.9611 36.5031C36.9409 38.6237 34.0323 36.1923 32.599 35.0927C31.27 34.2405 29.7767 36.4323 31.0098 37.4274C41.3669 45.0984 45.5701 31.1196 37.4581 29.7253C36.5649 29.5716 36.2332 30.5658 36.6512 30.8659ZM23.5369 21.5507L23.8187 21.527C25.0414 21.4192 26.2793 21.2549 27.4851 21.5316C29.1048 21.9036 28.9861 24.261 27.4851 24.6945C26.1621 25.0764 24.6961 24.9111 23.3305 24.9242C23.1156 24.9264 22.9012 24.9319 22.6865 24.9354C22.6443 25.4463 22.4767 25.8867 22.2203 26.3268C22.0365 26.6425 21.802 26.9424 21.5713 27.2229C21.0228 27.8895 19.7292 27.8745 19.1757 27.2229C18.7663 26.7406 18.4403 26.1858 18.435 25.5329C18.4337 25.3658 18.454 25.1882 18.4939 25.0136L17.7486 25.0267C15.9243 25.0545 14.086 25.0422 12.2947 24.7522C11.6575 24.8841 11.1361 23.7339 12.0156 23.3896C14.4065 22.4542 17.0776 22.1788 19.6147 21.8979C20.9184 21.7534 22.2294 21.6538 23.5369 21.5507ZM43.9055 20.584L43.9706 20.5775C45.5528 20.4154 47.2968 20.1347 48.8822 20.2962C51.2492 20.5369 51.2452 23.738 48.8822 23.9775C48.0147 24.0654 47.1007 24.0227 46.1893 23.9386C46.6552 24.9273 46.1025 26.1081 44.98 26.259C43.9369 26.3992 42.8559 25.3852 43.198 24.2975L43.2141 24.2495C43.2808 24.0608 43.3408 23.8499 43.412 23.6417L43.0345 23.6098C41.9062 23.51 40.3401 23.3062 39.9248 22.415C39.7995 22.1464 39.8285 21.897 40.0214 21.6675C40.8124 20.7256 42.7622 20.6946 43.9055 20.584ZM27.0809 13.2548C28.226 12.8386 29.416 13.8125 29.5645 14.9101C29.7356 16.1749 28.8237 17.0076 27.6679 17.1586L27.6099 17.1656C25.0586 17.4467 22.5266 17.9607 19.9719 18.2513C18.8117 18.3831 17.6427 18.4699 16.4747 18.5011L15.64 18.5198C14.6171 18.5457 13.52 18.569 12.5757 18.2167L12.5793 18.2103C12.3285 18.1376 12.2131 17.7758 12.4922 17.578C13.4977 16.8668 14.8529 16.5979 16.0234 16.26C17.2001 15.9199 18.3855 15.6065 19.5741 15.3121C22.07 14.6945 24.6627 14.1336 27.0809 13.2548ZM37.6419 13.5505C37.9453 11.9503 40.2111 11.7787 41.0433 12.943C41.5812 13.1278 42.3699 13.3205 42.8585 13.4655C43.7099 13.7181 44.562 13.9691 45.4159 14.2124C47.1842 14.7163 48.9099 15.355 50.6484 15.9503C50.8275 16.0118 50.7783 16.2393 50.6061 16.2619C48.1796 16.5778 45.7938 16.7248 43.3526 16.6235L42.8521 16.601C40.701 16.5171 37.0492 16.6771 37.6419 13.5505Z" fill="black"/>
</svg>
