<svg width="53" height="54" viewBox="0 0 53 54" fill="none" xmlns="http://www.w3.org/2000/svg">
<path fill-rule="evenodd" clip-rule="evenodd" d="M34.5329 37.5174C34.5867 37.5762 34.4683 37.6555 34.4092 37.6126C33.7252 37.1155 32.6478 37.3977 31.9874 37.6227C31.9874 37.6227 31.7461 45.421 32.0131 45.6058C32.2801 45.7906 36.0435 45.6809 36.0435 46.1436C36.0435 47.6561 33.7803 48.2239 32.5518 48.1339C30.6176 47.9926 28.6241 47.7161 26.6925 47.94C24.761 48.164 20.6577 49.3998 18.5574 47.6919C16.0522 45.6549 16.3909 42.3073 18.4753 40.1218C19.7892 38.7443 21.7227 37.9178 23.629 37.3054C26.4187 36.4093 32.9935 35.831 34.5329 37.5174ZM29.3876 43.2426C28.376 43.6374 23.3471 45.3025 22.1522 45.6058C23.5487 45.5054 28.3172 45.3943 29.3876 44.8749C29.5078 44.3887 29.5844 43.1658 29.3876 43.2426ZM30.1556 37.8368C27.4183 38.2824 21.5072 40.2924 20.6579 41.3623C21.9484 41.1588 29.1478 40.2924 29.96 40.2924C30.078 39.6626 29.9998 38.5585 30.1556 37.8368ZM31.0304 25.6258C32.3865 26.4522 34.4527 28.3792 32.9939 30.4279C31.2767 32.2343 28.8044 30.1631 27.5861 29.2264C26.4564 28.5005 25.1872 30.3676 26.2353 31.2153C35.0388 37.7498 38.6115 25.8419 31.7163 24.6542C30.9571 24.5233 30.6751 25.3702 31.0304 25.6258ZM34.0365 13.5674C34.8325 13.5608 35.2974 14.0788 35.8944 14.54C36.5091 15.0151 37.2502 15.3941 37.9687 15.6843C38.7179 15.9866 39.5188 16.2266 40.3075 16.3978C41.1251 16.575 41.8773 16.492 42.689 16.642C44.8407 17.0397 44.3314 20.6367 42.1738 20.4588C40.2319 20.2987 38.1472 19.1026 36.6744 17.8623C35.9707 17.2697 35.3767 16.5906 34.7985 15.8808L34.6903 15.7474C34.1771 15.1125 33.6978 14.4628 33.9553 13.6294C33.9664 13.5934 33.9984 13.5678 34.0365 13.5674ZM16.0895 24.0651C16.092 22.9171 16.7589 20.2958 18.4075 20.2958C19.4374 20.2958 20.0626 22.0798 20.1709 23.9188L20.1746 23.9938C20.2224 25.1371 19.9095 27.6362 18.4075 27.6362C16.8896 27.6362 16.1053 25.2692 16.0897 24.1057L16.0895 24.0651ZM40.3609 24.0651C40.3584 22.9171 39.6915 20.2958 38.0429 20.2958C37.0388 20.2958 36.4193 21.9917 36.2886 23.781L36.2795 23.9188C36.2145 25.0235 36.5072 27.6362 38.0429 27.6362C39.5608 27.6362 40.3451 25.2692 40.3607 24.1057L40.3609 24.0651ZM21.4843 13.7387C22.5124 13.2938 23.6906 13.4202 24.3096 14.4813C24.8956 15.4856 24.4968 16.696 23.5687 17.3139C22.6573 17.9208 21.4339 18.2509 20.3859 18.598L20.2702 18.6366C19.2545 18.9792 18.2381 19.2594 17.189 19.4783C16.2087 19.6829 15.221 19.8344 14.2275 19.9552L13.9293 19.9905C13.1545 20.0802 12.0736 20.3821 11.3761 19.9399C11.3142 19.9009 11.2903 19.82 11.3276 19.7552C11.7336 19.0504 12.8115 18.7695 13.503 18.4125C14.391 17.9537 15.2663 17.4653 16.1337 16.9686C17.0105 16.4663 17.8851 15.9557 18.7526 15.4372C19.6537 14.8987 20.5261 14.1531 21.4843 13.7387Z" fill="black"/>
</svg>
