<svg width="73" height="75" viewBox="0 0 73 75" fill="none" xmlns="http://www.w3.org/2000/svg">
<path fill-rule="evenodd" clip-rule="evenodd" d="M45.236 58.4681C43.5341 59.1361 41.5234 59.2939 39.7667 58.7247C38.087 58.1803 36.5618 56.9687 35.6389 55.4449C34.8169 54.0877 34.4736 52.4772 34.9594 50.8716C34.9827 50.7947 35.0581 50.7456 35.1308 50.7264C35.5282 51.0877 35.7738 51.4466 36.0191 51.8037C36.4327 52.4057 36.8473 53.0016 37.4163 53.5163C38.2442 54.2651 39.3597 54.8733 40.4668 55.0739C41.5507 55.2707 42.66 55.0968 43.6306 54.5787C44.2209 54.2639 44.6981 53.8429 45.1707 53.42C45.6852 52.9595 46.1917 52.492 46.9004 52.232C47.4683 52.0236 48.0649 52.1995 48.5232 52.5481C49.0158 52.9228 49.37 53.5093 49.3503 54.1225C49.3199 55.0725 48.9035 55.865 48.2992 56.5188C47.4823 57.4028 46.3272 58.0396 45.236 58.4681ZM43.2157 34.7927C45.1092 35.9421 47.9945 38.6221 45.9574 41.4715C43.5596 43.9839 40.1073 41.1032 38.4061 39.8004C36.8286 38.7908 35.0563 41.3876 36.5198 42.5665C48.813 51.6549 53.8018 35.0932 44.1734 33.4414C43.1133 33.2593 42.7196 34.4371 43.2157 34.7927ZM23.2988 18.8676C25.8796 18.7444 28.154 19.9017 30.6134 20.4276C32.8863 20.9138 35.1256 20.6219 37.336 20.0034C40.9234 18.9995 42.4063 24.4833 38.8679 25.552C36.2911 26.3302 33.5779 26.3843 30.9336 25.9832C28.5848 25.6266 26.6158 24.4848 24.3763 23.82C22.4543 23.2497 20.1934 23.4867 18.1637 23.7552L17.3758 23.861C16.2048 24.0185 15.0275 24.1765 13.868 24.4052C12.8619 24.6037 11.8576 24.9671 10.8308 25.0091C10.7142 25.0141 10.6154 24.8629 10.6888 24.762C11.8817 23.1267 14.1807 21.8364 16.0094 20.9758L16.1333 20.9178C18.3907 19.8669 20.7854 18.9873 23.2988 18.8676ZM22.3529 30.9257L22.3526 30.8693C22.3561 29.2726 23.2874 25.6268 25.5894 25.6268C27.0275 25.6268 27.9006 28.108 28.0518 30.6657L28.057 30.77C28.1238 32.3602 27.6868 35.836 25.5894 35.836C23.4699 35.836 22.3747 32.544 22.3529 30.9257ZM56.2445 30.9257L56.2448 30.8693C56.2413 29.2726 55.3099 25.6268 53.008 25.6268C51.6058 25.6268 50.7408 27.9855 50.5583 30.4741L50.5456 30.6657C50.4548 32.2022 50.8635 35.836 53.008 35.836C55.1275 35.836 56.2227 32.544 56.2445 30.9257ZM56.2092 16.9228L56.3739 16.9264C59.064 17.0195 61.8311 18.6108 62.5493 21.2838C62.5864 21.4226 62.4151 21.516 62.3136 21.4208C60.1016 19.3528 57.1268 21.3288 54.9118 22.3646L54.0982 22.7399C51.2428 24.0665 47.9951 25.6261 44.8247 24.6375C43.3188 24.168 42.3625 22.623 42.792 21.0625C43.1741 19.674 44.8525 18.5072 46.3062 19.0083L46.3721 19.0323C47.5532 19.4834 49.0054 19.0263 50.2252 18.5757L51.2272 18.1999C52.8384 17.5894 54.4571 16.9063 56.2092 16.9228Z" fill="black"/>
</svg>
