<svg width="62" height="63" viewBox="0 0 62 63" fill="none" xmlns="http://www.w3.org/2000/svg">
<path fill-rule="evenodd" clip-rule="evenodd" d="M38.6852 48.1121L38.8314 48.0783C39.9985 47.8029 41.1217 47.4285 42.2088 48.152C43.2446 48.8412 43.3885 50.1161 42.5814 51.046C41.752 52.0021 40.65 51.9486 39.4871 51.9618L39.4143 51.9627C38.4486 51.976 37.4669 51.9616 36.505 51.876C35.6083 51.7961 34.7057 51.6685 33.8193 51.5009L33.2951 51.3981C32.7595 51.2897 32.2319 51.1486 31.9559 50.6301C31.4747 49.7262 35.0519 49.0169 35.4864 48.8928C36.5411 48.5916 37.6156 48.3545 38.6852 48.1121ZM40.6697 37.2126C40.0994 37.8042 39.3462 38.2083 38.5007 38.4598C36.3757 39.0919 33.6643 38.7552 31.9287 38.1111C31.5687 37.9775 31.2322 37.7051 31.0388 37.3646C30.8622 37.0535 30.8025 36.6876 30.9369 36.3145C30.9752 36.2085 31.0217 36.1045 31.0685 36.002C31.1958 35.7232 31.4553 35.5063 31.7601 35.3823C32.0766 35.2535 32.4365 35.2272 32.7252 35.318C32.7639 35.3302 32.8037 35.3427 32.8444 35.3556C33.9441 35.7023 35.7477 36.2766 37.242 36.1653C38.1386 36.0985 38.9273 35.7816 39.3352 34.9608C39.5501 34.528 39.4906 34.0999 39.2999 33.708C39.0125 33.1171 38.4367 32.6029 37.9515 32.2486C37.2677 31.7491 36.5384 31.5496 35.784 31.3391C35.4997 31.2597 35.2118 31.1793 34.9212 31.0831C34.8254 31.0514 34.7415 30.9893 34.6786 30.9085C34.6165 30.8287 34.5758 30.7313 34.563 30.6336C34.5498 30.5324 34.5661 30.4314 34.613 30.3444C34.6565 30.2637 34.7261 30.1929 34.83 30.1463C36.306 29.4848 38.2149 29.9219 39.6557 30.9626C40.3758 31.4827 40.9764 32.1509 41.3466 32.8975C41.6902 33.5904 41.8361 34.3506 41.7015 35.1259C41.5508 35.9938 41.1836 36.6793 40.6697 37.2126ZM16.4799 22.452C16.8947 22.2691 17.2354 23.1249 17.3208 23.3582L17.4973 23.8423C17.7853 24.6228 18.1158 25.4164 18.7213 25.9957C19.2281 26.4807 20.0402 26.8918 20.6282 26.3243C21.1859 25.786 20.914 25.1797 20.9962 24.5192C21.1445 23.3246 22.7728 22.1307 23.7518 23.3773C25.9633 26.1937 22.5416 30.1105 19.3899 29.4234C17.7871 29.0738 16.4968 27.7881 15.9667 26.2592L15.9395 26.1785C15.6222 25.2099 15.3013 22.9721 16.4799 22.452ZM45.0184 24.4135L45.0031 24.3778C43.9497 21.9808 47.7073 20.9507 48.0259 23.1029L48.0461 23.2481C48.356 25.6373 47.703 28.8501 44.7779 29.0883C41.4943 29.3559 40.127 25.6909 40.4203 23.0014C40.4729 22.52 41.0568 22.4534 41.2372 22.8909L41.2756 22.9864C41.8058 24.338 42.3092 26.9374 44.1772 26.9347C45.4253 26.9328 45.3657 25.2474 45.0184 24.4135ZM47.4008 17.4748C49.2882 17.4078 49.2857 20.3629 47.4008 20.4072C41.1046 20.5554 34.8035 20.7524 28.5054 20.7862L27.3607 20.7932C21.4448 20.8329 15.5086 20.9137 9.61007 20.417C9.10662 20.3747 9.20021 19.6675 9.62084 19.696C15.8049 18.8156 22.0643 18.5581 28.2954 18.2236C34.6582 17.8818 41.0332 17.7009 47.4008 17.4748Z" fill="black"/>
</svg>
