<svg width="75" height="76" viewBox="0 0 75 76" fill="none" xmlns="http://www.w3.org/2000/svg">
<path fill-rule="evenodd" clip-rule="evenodd" d="M40.1414 64.8415C42.0776 64.5724 44.1596 63.4771 46.009 64.3672C46.8735 64.7832 47.2839 66.206 46.6993 66.9968C45.8067 68.2047 44.885 68.4045 43.436 68.5207C42.3497 68.6076 41.2575 68.614 40.1739 68.4889L39.8983 68.4552C37.965 68.206 35.9556 67.667 34.4577 66.3692C34.1514 66.1036 34.3084 65.53 34.7016 65.4471C36.4803 65.0733 38.3409 65.092 40.1414 64.8415ZM37.8627 60.3883C37.862 60.3727 37.8858 60.3727 37.8865 60.3883C37.9334 61.4936 38.2444 62.5183 38.8192 63.4639C38.8271 63.4775 38.8064 63.4895 38.7984 63.4762C38.2234 62.5298 37.9096 61.4946 37.8627 60.3883ZM43.9663 37.577C45.9006 38.7514 48.8478 41.4898 46.767 44.4012C44.3176 46.9682 40.7911 44.0249 39.0533 42.6938C37.4419 41.6621 35.6315 44.3154 37.1265 45.5201C49.6839 54.8062 54.78 37.8841 44.9446 36.1963C43.8617 36.0103 43.4595 37.2137 43.9663 37.577ZM53.8663 24.4348C54.3205 24.4348 54.7549 24.5888 55.1505 24.8738C55.5399 25.1542 55.8924 25.5635 56.186 26.074C56.7416 27.04 57.0889 28.3738 57.0889 29.8486C57.0889 31.3234 56.7416 32.6572 56.186 33.6232C55.8924 34.1337 55.5399 34.543 55.1505 34.8235C54.7549 35.1084 54.3205 35.2624 53.8663 35.2624C53.4121 35.2624 52.9777 35.1084 52.582 34.8235C52.1927 34.543 51.8402 34.1337 51.5466 33.6232C50.991 32.6572 50.6437 31.3234 50.6437 29.8486C50.6437 28.3738 50.991 27.04 51.5466 26.074C51.8402 25.5635 52.1927 25.1542 52.582 24.8738C52.9777 24.5888 53.4121 24.4348 53.8663 24.4348ZM32.8318 25.9392L33.0028 25.9068C34.0005 25.7255 34.5046 25.7865 35.3734 26.4657C36.0263 26.9761 35.8393 27.9813 35.3734 28.5181C34.5618 29.4535 33.7688 29.2878 32.6571 29.3235L32.579 29.3263C31.6525 29.364 30.7253 29.3903 29.798 29.4044C29.5444 29.4085 29.2906 29.4075 29.037 29.409C29.0639 31.7528 27.7109 33.5374 25.9291 34.8941C24.7775 35.7714 23.3208 34.7593 22.9099 33.6673C22.57 32.7637 22.497 31.6525 22.6732 30.6632C22.7385 30.2985 22.8746 29.9026 23.0827 29.565L23.1412 29.4745L23.1317 29.345C23.1294 29.313 23.1317 29.2821 23.1307 29.2501C21.4766 29.1497 19.8321 28.984 18.1881 28.7758L17.6401 28.7049C16.237 28.5194 14.1762 28.4598 13.0407 27.5482C13.0049 27.519 13.0177 27.4553 13.0556 27.4351C13.6798 27.0993 14.3131 27.1183 15.0113 27.0874L15.1114 27.0826C15.8707 27.0434 16.6282 27.0107 17.387 26.9848L18.1463 26.961C20.0884 26.9055 22.0323 26.8114 23.9727 26.7082C24.31 26.6903 24.6474 26.6691 24.9852 26.6484C25.3385 26.5005 25.714 26.412 26.0849 26.3956C26.3922 26.3818 26.6878 26.4243 26.9658 26.5125C27.6745 26.4578 28.3827 26.3983 29.0905 26.3342L29.798 26.2687C30.7965 26.1738 31.8462 26.1323 32.8318 25.9392ZM45.0931 8.37249C47.2276 7.32479 49.8229 7.2992 52.0212 8.16627L52.1669 8.2252C54.3871 9.14546 57.0623 11.2711 56.4831 13.9188C55.9531 16.3422 52.1475 15.9316 51.9546 13.6409C50.7259 11.9406 47.9705 11.5675 46.2384 12.6488C45.1879 13.3047 44.4669 14.4092 43.974 15.5232C43.5539 16.4719 43.4748 17.6434 42.8296 18.4698C42.8085 18.4967 42.7665 18.5016 42.7361 18.4944C40.8119 18.0497 40.7673 14.9957 41.0954 13.5143C41.5721 11.3606 43.1021 9.35034 45.0931 8.37249Z" fill="black"/>
</svg>
