<svg width="62" height="63" viewBox="0 0 62 63" fill="none" xmlns="http://www.w3.org/2000/svg">
<path fill-rule="evenodd" clip-rule="evenodd" d="M40.1249 48.777C41.4601 48.4656 42.5088 49.5968 42.2464 50.8993C41.9686 52.2782 40.4866 52.7508 39.2439 52.7075C37.8349 52.6586 36.4271 52.3676 35.0111 52.3091C33.5566 52.249 32.0965 52.2381 30.6411 52.2774C29.2949 52.3137 27.9132 52.5511 26.5776 52.338C26.0574 52.255 26.1066 51.5681 26.4451 51.324C27.4499 50.599 28.7521 50.3036 29.9365 49.9994C31.1441 49.6892 32.3785 49.4516 33.617 49.3066C34.8726 49.1597 36.1385 49.0864 37.4023 49.072C37.9776 49.0655 38.683 49.1933 39.2439 49.0898C39.5297 49.0367 39.8209 48.848 40.1249 48.777ZM36.2708 30.8662C37.8662 31.8363 40.2971 34.0984 38.5808 36.5034C36.5606 38.624 33.652 36.1926 32.2187 35.093C30.8897 34.2408 29.3964 36.4326 30.6295 37.4277C40.9866 45.0987 45.1898 31.1199 37.0778 29.7256C36.1846 29.572 35.8529 30.5661 36.2708 30.8662ZM24.7022 23.6221C26.8363 23.2671 27.2096 26.3105 25.0946 26.5231C24.6507 26.5677 24.2094 26.6066 23.7689 26.6453C23.8118 26.7831 23.8403 26.9249 23.8559 27.0707C23.876 27.1946 23.891 27.326 23.9043 27.4763C23.9713 28.2251 23.4406 29.0037 22.8205 29.3668C22.1761 29.7441 21.2512 29.7944 20.6113 29.3668C20.2813 29.1462 19.9517 28.8974 19.7698 28.5326C19.5258 28.1579 19.3927 27.7242 19.3792 27.2791C18.4063 27.5319 17.4156 27.8737 16.433 28.0548C16.4691 28.0903 16.5046 28.1281 16.5391 28.1698C16.5653 28.2017 16.5294 28.2615 16.4911 28.2321L15.9982 28.1228C15.8465 28.1427 15.6949 28.159 15.5436 28.1685L15.5472 28.1552C15.2943 28.1507 15.0872 27.8517 15.3135 27.6124C16.1816 26.6945 17.5362 26.0844 18.7713 25.5743L19.9612 25.0863C21.4827 24.4677 23.0889 23.8906 24.7022 23.6221ZM41.8706 24.5637C43.2683 24.4041 44.6523 24.4675 46.0524 24.5529C48.4087 24.6964 47.4204 28.1338 45.5291 27.3402C45.5485 27.4659 45.5536 27.5919 45.539 27.7092C45.4651 28.3134 45.2682 28.8241 44.7138 29.1487C44.199 29.4501 43.5464 29.4492 43.0315 29.1487C42.4801 28.827 42.2314 28.3737 42.0907 27.7846C41.9817 27.3279 42.0254 26.9458 42.0884 26.4935C42.1093 26.3436 42.1746 26.2039 42.265 26.0784C42.1332 26.0454 42.0011 26.0135 41.8689 25.9837C40.693 25.7161 39.5329 25.7698 38.3604 25.6003C38.2353 25.5821 38.2154 25.3801 38.3249 25.3287C39.3785 24.8335 40.7179 24.6951 41.8706 24.5637ZM24.4871 13.9473C25.2937 13.6394 26.307 14.1515 26.7187 14.8559C27.186 15.6552 26.9864 16.578 26.4096 17.2516C25.5249 18.2848 23.84 18.9214 22.5981 19.511L22.4984 19.5587C21.2232 20.1741 19.9132 20.7393 18.5853 21.2317C17.2795 21.7163 15.921 22.0959 14.5672 22.4218C13.8534 22.5937 13.1243 22.7357 12.3948 22.8253C11.8189 22.8959 11.3748 22.7378 10.8238 22.7378C10.7433 22.738 10.7182 22.6313 10.7839 22.5903C11.2987 22.2665 11.6809 21.8402 12.2425 21.5403C12.8272 21.2281 13.4141 20.9212 14.0032 20.6173C15.1941 20.0031 16.3408 19.3196 17.4897 18.6317C18.7007 17.9065 19.8842 17.1429 21.0352 16.3254C22.1615 15.5255 23.1994 14.4387 24.4871 13.9473ZM38.8611 13.2896C39.8685 13.0941 40.8661 13.5709 41.1642 14.5979C41.45 15.5817 41.1511 15.7926 41.9135 16.4966C42.5213 17.0577 43.1766 17.5585 43.838 18.0516L44.8114 18.7755C46.5745 20.0811 48.3522 21.3156 50.3794 22.1965C50.5508 22.2709 50.4517 22.5256 50.2892 22.529C47.0665 22.5911 43.9763 22.1547 41.0674 20.7114C39.7085 20.0372 38.3433 19.1844 37.5559 17.8385C36.6439 16.28 36.6705 13.7144 38.8611 13.2896Z" fill="black"/>
</svg>
