<svg width="108" height="120" viewBox="0 0 108 120" fill="none" xmlns="http://www.w3.org/2000/svg">
<path fill-rule="evenodd" clip-rule="evenodd" d="M48.8723 17.4944C80.8941 15.9197 95.3441 38.4658 96.2788 48.536C96.9276 55.5263 92.7975 63.5835 92.7975 69.8299C92.7975 73.0183 96.7013 79.8635 94.8839 84.5106C90.8388 94.854 82.274 106.333 71.3599 106.333C60.4458 106.333 46.2417 109.352 34.182 92.0843C33.0505 90.4642 18.7384 81.2559 17.348 72.506C13.8846 50.7106 26.0233 18.6181 48.8723 17.4944Z" fill="white"/>
<path fill-rule="evenodd" clip-rule="evenodd" d="M47.3626 3.4629C48.5076 2.15305 50.4407 1.6291 52.1584 1.73051C54.6534 1.8784 56.8233 3.41854 59.3057 3.53262C61.9083 3.65305 64.4203 2.75093 67.0295 3.16924C68.6288 3.42699 70.2133 4.16854 71.2379 5.41924C74.7872 4.40305 78.6407 5.74882 80.9013 8.68755C83.69 8.25445 86.7238 10.1011 87.5774 12.7883C91.1203 12.9023 94.4647 15.7481 94.8597 19.3143C96.2755 19.6883 97.5048 20.6645 98.259 21.9552C99.1358 23.4509 99.2816 25.1664 99.1231 26.8523C100.79 27.7037 101.637 29.5333 101.859 31.4685C103.382 32.6052 104.044 34.6481 103.733 36.577C104.899 37.234 105.502 38.7636 105.495 40.1284C105.489 41.4023 105.151 42.5307 105.626 43.7601C106.05 44.855 106.202 45.7676 105.969 46.9145L105.945 47.0263C105.904 47.2132 105.869 47.3926 105.838 47.5694C106.153 47.8462 106.42 48.1931 106.621 48.5966C107.351 50.0713 107.242 51.7532 106.685 53.2487C106.929 54.2011 106.898 55.2072 106.538 56.1226C107.213 57.0955 107.568 58.2887 107.464 59.5268C107.347 60.9129 106.714 62.1541 105.754 63.0718C106.01 64.9652 105.24 67.0109 103.848 68.344C104.045 69.4775 103.875 70.6654 103.255 71.7399C102.813 72.5058 102.218 73.0762 101.531 73.4738C101.554 74.1061 101.468 74.7528 101.258 75.4008C100.966 76.2999 100.471 77.1283 99.8199 77.7955C100.208 80.2796 98.7211 83.036 96.1033 83.733C95.8833 83.7915 95.6736 83.8183 95.4726 83.8225C95.2126 86.2118 94.6447 88.5678 93.7654 90.8054C91.5302 96.503 87.4654 101.485 82.1647 104.592C79.5429 106.128 76.5978 107.18 73.5914 107.62C71.4281 107.937 69.3471 107.859 67.1755 107.643C64.4499 107.371 61.7119 106.963 59.0626 106.261L58.6365 106.148C57.5382 105.854 56.3802 105.514 55.4288 104.922C54.364 104.259 53.8107 103.236 53.5656 102.032C53.4289 101.362 53.8534 100.641 54.5872 100.627L54.6344 100.627C54.795 100.63 54.9542 100.624 55.1154 100.614L55.2367 100.606H55.2429C55.2513 100.604 55.2557 100.604 55.264 100.604C55.3358 100.593 55.4055 100.572 55.4753 100.561C56.2825 100.426 56.9884 100.56 57.7464 100.812L57.8414 100.845C59.1175 101.284 60.383 101.692 61.7013 101.994C63.064 102.304 64.4436 102.552 65.8274 102.746L65.9647 102.763L66.0069 102.769L66.0281 102.771C66.0323 102.771 66.0365 102.771 66.0407 102.773L66.4485 102.824C66.7698 102.862 67.0907 102.896 67.4119 102.93C68.0034 102.989 68.595 103.035 69.1865 103.069C79.3971 103.644 87.9724 95.6051 90.5605 85.9671C91.4985 82.4791 91.5598 78.9995 91.283 75.5178C91.1943 75.2643 91.1414 74.9833 91.1436 74.6749C91.1436 74.5143 91.1522 74.3559 91.1626 74.1953C90.8184 70.8277 90.2205 67.458 89.8464 64.0777C89.4093 60.1291 89.1661 56.1575 89.2548 52.1833C89.2992 50.2206 89.5083 48.277 89.783 46.3335L89.8823 45.6353C88.6411 45.393 87.4871 44.8044 86.5683 43.9523C84.5744 45.1037 81.9938 45.2058 80.0256 43.9899C77.82 45.3731 74.7384 45.4986 72.5174 44.1463C71.175 45.1046 69.4836 45.518 67.8232 45.1542C67.0764 44.9907 66.3338 44.6368 65.6979 44.1469C65.2438 44.227 64.7839 44.258 64.3265 44.2342L64.2321 44.287C63.1779 44.8426 62.01 45.2083 60.8081 45.1675C59.9182 45.1375 59.0015 44.962 58.1529 44.6299C57.2463 45.1771 56.2542 45.5506 55.1928 45.6845C53.6427 45.8799 51.9699 45.5371 50.6807 44.6578C48.3249 45.9997 45.4272 46.2063 42.8843 45.3047C42.3636 46.1867 41.6429 46.9473 40.7991 47.5335C40.9502 48.0748 40.9984 48.652 40.9464 49.207C40.861 50.1205 40.632 50.9396 40.2574 51.6752C40.6523 52.4966 40.771 53.5052 40.55 54.5176C40.235 55.9614 39.395 57.2174 38.3074 58.1956C38.2115 60.4997 36.9479 62.6601 34.8915 63.8603C34.7873 63.9209 34.6838 63.9704 34.5805 64.0149C34.4896 64.1392 34.381 64.2484 34.257 64.3405C32.9493 65.5487 30.8797 65.4526 29.2405 64.77C29.2088 64.7715 29.1773 64.7742 29.1452 64.7749C28.5598 64.7897 28.1607 64.5615 27.9238 64.2256C27.6853 64.2385 27.4485 64.2636 27.21 64.308C26.3393 64.4706 25.3844 64.7833 24.5964 65.1892C22.5513 66.2411 21.6048 68.1002 21.3217 70.3354C21.0135 72.7735 21.7147 75.258 23.6015 76.908C24.5182 77.7108 25.6907 78.2136 26.8823 78.4249C28.1985 78.6594 29.6055 78.0826 30.5774 79.2129C30.7717 79.4368 30.9048 79.7495 30.7992 80.0516C30.4696 80.9939 29.9267 81.3551 29.0774 81.4861C30.3048 82.9418 31.564 84.3488 32.9584 85.6565C34.4668 87.0742 36.026 88.4474 37.3867 90.0108C38.8253 91.665 40.1245 93.4185 41.0267 95.4256C41.5422 96.5791 41.9562 97.7685 42.4022 98.9495L42.4819 99.1553C42.9791 100.41 43.6406 101.62 42.8753 102.93C42.571 103.445 41.8823 103.944 41.2485 103.861C39.4635 103.633 38.8656 102.427 38.3161 100.855C37.902 99.6678 37.5851 98.4467 37.1395 97.2699C37.0561 97.0521 36.9653 96.8364 36.87 96.622C35.8407 96.9089 34.7089 96.6811 33.7903 96.0942C32.8088 96.5292 31.7214 96.7462 30.6712 96.7278C29.265 96.7031 27.9803 96.3125 26.8757 95.6079C26.7879 95.5846 26.6996 95.5623 26.6119 95.5371C24.9317 96.1806 22.9639 96.0657 21.4426 95.0227C20.4574 94.3473 19.7839 93.4458 19.4011 92.442C18.1282 92.4177 16.8691 91.9665 15.957 91.0635C15.1196 90.2345 14.63 89.1649 14.4847 88.0534C13.3891 87.8364 12.3619 87.3068 11.5563 86.4146C10.8836 85.6694 10.4748 84.7204 10.3367 83.7351C9.0023 83.3544 7.79892 82.4831 7.14167 81.2683C6.53005 80.1374 6.44174 78.9106 6.74089 77.7946L6.66336 77.6831C5.28885 76.9637 4.23991 75.7861 4.13216 74.104C4.10174 73.6251 4.15329 73.1459 4.28322 72.6925C4.23631 72.1857 4.26631 71.6791 4.3992 71.1889C2.55061 69.3911 1.88089 66.503 2.88441 64.1157C1.07808 62.1721 0.60061 59.0981 1.92526 56.7913C1.01681 55.6925 0.549906 54.2918 0.628075 52.796C0.725258 50.9286 1.58089 49.2974 2.60554 47.7868C1.84498 46.946 1.43934 45.7735 1.46913 44.6411C1.51117 42.9995 2.38371 41.5861 3.47617 40.4157C2.52315 37.5256 3.58793 34.3904 5.92667 32.5608C5.45343 31.7812 5.27807 30.8157 5.43251 29.8375C5.70272 28.1284 6.98512 26.9643 8.36892 26.0432C8.07948 25.1011 8.15554 24.0847 8.6161 23.1108C9.23089 21.8115 10.3907 20.9875 11.6013 20.2904C11.914 17.4087 15.1337 14.9474 17.8337 16.4347C17.164 14.2904 19.0931 11.9749 21.3114 11.7298C22.3971 8.43826 26.1429 6.36361 29.5105 7.18121C31.2323 4.82769 34.4372 3.92157 37.1584 4.93121C40.1501 2.63896 43.8619 2.29882 47.3626 3.4629ZM26.0521 68.0919C28.1543 67.9778 29.7303 69.6933 30.8376 71.263C31.8768 72.7356 29.2106 74.2905 28.4331 72.668C28.1543 72.0891 27.8374 71.4764 27.4127 70.9694C27.3414 71.0692 27.2784 71.1726 27.2157 71.2786L27.1528 71.3856C27.1064 71.4637 27.0578 71.544 27.0176 71.6264C27.0219 71.6412 26.9585 71.8356 26.9564 71.844C26.7831 72.3701 26.405 72.7081 25.8897 72.8898C25.224 73.1222 24.5944 72.6215 24.381 72.0341C24.0411 71.0961 24.831 70.2785 25.6528 69.9067C24.8458 69.7757 24.0514 70.0503 23.4683 70.6715C23.3883 70.7581 23.2528 70.6884 23.2488 70.5806C23.181 69.1081 24.7212 68.1637 26.0521 68.0919Z" fill="black"/>
</svg>
