<?xml version="1.0" encoding="UTF-8"?>
<svg id="Layer_1" xmlns="http://www.w3.org/2000/svg" version="1.1" viewBox="0 0 116.07 135.27">
  <!-- Generator: Adobe Illustrator 29.4.0, SVG Export Plug-In . SVG Version: 2.1.0 Build 152)  -->
  <defs>
    <style>
      .st0 {
        fill: #fff;
      }

      .st0, .st1 {
        fill-rule: evenodd;
      }
    </style>
  </defs>
  <path class="st0" d="M40.6,27.02c13.31-.73,25.11-4.47,34.48,3.91,0,0,15.16-11.33,17.69-7.01,1.69,2.89-.66,6.77-.03,10.34,4.11,7.01,3.88,18.87,4.11,21.65.59,7.01,4.27,33.37,4.27,39.64,0,3.2-2.63,11.57-4.27,16.22-3.65,10.37-10.62,15.65-22.05,15.65s-30.09-9.56-36.07-18.04c-.52-.74-3.92,1.43-7.46-2.34-3.84-4.08-5.97-11.85-5.97-16.49,0-5.88-3.8-9.96-3.36-17.49.99-16.81,4.41-45.26,18.66-46.04Z"/>
  <path class="st1" d="M39.11,7.47c.17-.01.35,0,.52.02.19,0,.38.03.58.07.98.19,1.85.71,2.53,1.43.02.02.03.04.05.06.32.24.61.51.87.8.05-.04.09-.09.14-.13.14-.12.29-.24.44-.35.64-.55,1.38-.94,2.19-1.17l.11-.03s.04-.01.06-.01c.57-.19,1.17-.29,1.77-.29.72-.02,1.45.1,2.12.37.8.33,1.5.86,2.08,1.49.38.31.72.66,1.08,1.04.73.78,1.31,1.7,1.68,2.71.05.14.1.29.14.43.89-.1,1.79-.18,2.69-.21,1.01-.06,2.02-.08,3.03-.05,2.78.09,5.5.58,8.14,1.48.53.16,1.04.35,1.54.6.78.31,1.51.7,2.2,1.18l.59.35c.3.18.59.35.88.54.68.44,1.33.93,1.94,1.46.65.52,1.26,1.09,1.84,1.69.16.16.31.32.46.49,1.34.72,2.53,1.65,3.64,2.75.88-.51,1.79-.97,2.73-1.37.97-.42,2.2-.85,3.22-1.14.91-.26,1.81-.43,2.73-.56.42-.07.83-.13,1.25-.18h-.02c.3-.03.59-.05.89-.08h0c.13-.01.26-.02.38-.03l.31-.03c.09,0,.23.21.24.29v.08c.08.08.14.16.19.22.05,0,.11,0,.16-.01.16-.01.35.28.45.39l.09.1c.1.12.2.26.22.41.11.88.21,1.76.3,2.64.04.67,0,1.33-.11,1.98-.08.63-.17,1.27-.25,1.9-.14.44-.27.89-.4,1.33-.05.17-.11.34-.17.5-.34,1.12-.73,2.2-1.21,3.25.34.38.67.78.96,1.18.07.07.14.15.21.22.02-.03.05-.06.08-.07.1-.04.18,0,.24.1.67.64,1.15,1.38,1.45,2.23l.19.44c.03.07.06.15.09.22.24.64.42,1.3.57,1.97.14.53.23,1.06.3,1.6.46,1.53.82,3.1,1.16,4.65.05.24.03.46-.05.65l.2.19.34.34c.57.57,1.15,1.17,1.58,1.85.44.7.76,1.46,1.12,2.2l.08.16.16.32c.17.35.25.54.4.96.25.7.39,1.4.45,2.15.09,1.08.08,2.26-.39,3.26,0,0,0,.01-.01.02-.22.97-.75,1.87-1.56,2.45-.17.16-.36.31-.56.42-.48.28-.91.31-1.43.18l-.07-.02c-.07-.02-.12-.03-.18-.04.08.07.13.15,0,.21-.12.06-.23.09-.34.11.04.06.05.12-.04.17-.2.11-.37.14-.54.11l.04.29c.28,2.22.53,2.66.74,5.05.14,2.45.37,4.88.69,7.31l.11.88c.35,2.8.74,5.61,1.34,8.37.3,1.2.56,2.41.78,3.63.31.93.53,1.88.65,2.84.18.98.3,1.98.37,2.98.24.64.36,1.29.35,1.95.03.89,0,1.78-.09,2.67-.05.92-.18,1.83-.38,2.74-.18,1.24-.51,2.44-.98,3.6-.38,1.3-.84,2.57-1.36,3.81-.81,1.93-1.8,3.72-2.91,5.48-1.05,1.65-2.17,3.25-3.46,4.73-1.66,1.91-3.55,3.67-5.63,5.15-1.18.88-2.43,1.66-3.74,2.33-1.6.82-3.22,1.57-4.95,2.07-1.08.31-2.18.53-3.29.69-2.18.32-4.44.27-6.64-.1-1.42-.19-2.81-.52-4.12-.99-1.08-.39-2.11-.83-3.14-1.34-.53-.26-1.04-.55-1.53-.88-.82-.54-1.6-1.14-2.31-1.81-.23-.2-.46-.41-.69-.62-.11-.1-.05-.24.08-.27h.04s-.1-.09-.15-.14c-.01,0-.02-.02-.03-.03-.02-.02-.05-.04-.07-.06-.08-.07,0-.23.07-.27.03-.01.06-.02.1-.01,0,0-.01-.01-.02-.02,0,0-.01-.02,0-.04l-.03-.03c-.11-.1-.05-.23.07-.27.06-.02.16,0,.27.01h.04s-.07-.06-.07-.06c-.13-.11-.09-.23.07-.27.12,0,.23.02.35.05l.09.02s.08.02.12.04c-.07-.07-.14-.13-.21-.19-.07-.06,0-.24.07-.27.09-.05.26.02.33.08.19.02.45.1.54.19.26.25.52.48.79.71.16.05.32.12.44.22.3.29.62.57.94.83l.25.17s.08.06.12.08c.46.27.93.54,1.39.82,1.7.57,3.39,1.15,5.09,1.72l.22.07,1.65.2c1.08.11,2.17.11,3.25-.02.81.01,1.62-.07,2.41-.24,1.35-.23,2.67-.56,3.95-1.03,1.48-.54,2.89-1.25,4.26-2.01.49-.28.98-.57,1.46-.88.15-.11.31-.22.46-.34,1.02-.76,1.99-1.58,2.92-2.44.44-.4.86-.82,1.27-1.26.06-.06.12-.12.17-.19.39-.43.77-.87,1.13-1.32l.34-.39c1.39-1.73,2.63-3.59,3.74-5.51,1.1-1.9,2.01-3.9,2.73-5.97.23-.74.44-1.49.6-2.24.31-.91.52-1.84.61-2.79.03-.19.06-.37.08-.56v-.29s.02-.1.02-.15c.04-.3.08-.59.11-.89.02-.3.03-.6.03-.89l-.02-1.83c0-.06-.01-.12-.02-.18l-.05-.4c-.1-.83-.18-1.67-.28-2.5,0,0,0-.01,0-.02-.04-.31-.08-.62-.12-.94-.02-.19-.05-.37-.08-.56l-.05-.33c-.1-.57-.22-1.13-.36-1.68l-.06-.24-.37-1.85-.41-1.82c-.27-1.22-.49-2.45-.67-3.69-.32-1.97-.6-3.95-.83-5.93-.01-.1-.03-.19-.04-.29-.24-1.84-.42-3.69-.53-5.54-.15-1.83-.24-3.66-.27-5.49,0-.08.05-.15.12-.19v-.35c-.01-.31-.02.06-.02-.29v-.98c0-.08,0-.14,0-.14-1.13.08-1.89.01-2.98-.04h-.18c-1-.06-1.99-.17-2.98-.33,0,.05-.04.09-.1.1-.1,0-.2,0-.29,0l.04.14c0,.07-.03.11-.1.13h-.28c-.38.03-.75.04-1.13-.01-.34-.04-.66-.12-.99-.22-.2-.03-.41-.08-.61-.14-.54-.15-1.07-.36-1.61-.53-.55-.12-1.11-.15-1.69-.01-.62.15-1.14.41-1.79.25-.13-.03-.25-.08-.38-.13h-.12s-.04-.01-.06-.01c-.67-.1-1.27-.52-1.92-.75-.22-.05-.45-.04-.66.05l-.05.02-.21.16c-.09.1-.17.2-.25.31l-.13.15c-.23.29-.48.54-.77.73-.36.33-.79.53-1.3.54-.29,0-.58-.05-.86-.14-1.05.33-2.18.39-3.23.07-.42-.06-.82-.18-1.21-.35-.18-.08-.37-.18-.54-.29-.74.31-1.44.73-2.16,1.09l-.16.08c-.73.36-1.54.72-2.37.67-1.04-.07-2.07-.21-3.09-.38,0,0-.02,0-.03,0l-.14-.02-.51-.09-.41-.08-.21.08c-1.69.64-3.55,1.14-5.25.69-.74-.09-1.44-.34-2.06-.77-.02-.01-.04-.03-.06-.05-.1-.05-.19-.11-.27-.17h-.02s-.02-.03-.02-.03h0c-.93-.43-1.46-1.34-1.37-2.36-.06-.32-.05-.64,0-.98-.3.36-.61.71-.92,1.06-1.14,1.38-2.26,2.78-3.3,4.25l-.24.34c-.57.81-1.1,1.64-1.59,2.5-.5.85-1.01,1.69-1.53,2.52-.68.76-1.35,1.53-1.98,2.32l-.27.34-.92,1.21c-.65.77-1.19,1.61-1.61,2.52-.35.65-.67,1.31-.96,1.99-.09.2-.18.41-.27.62-.3.81-.55,1.63-.75,2.49-.16.62-.27,1.24-.34,1.87l-.02.21c-.03.25-.04.5-.05.75.06.04.11.07.15.11l.15.06.12.04c.19.06.53.19.45.34l-.41.78s.06.09.03.14c-.27.52-.55,1.04-.82,1.57,0,.02-.02.03-.04.04.23.11.46.23.68.35.42.25.74.55,1.03.89.3.18.59.38.86.61.33.35.63.74.87,1.15.23.39.41.8.56,1.23.06.23.09.46.09.7-.26,1.81-2.32.57-2.36.41-.28-1.09-.61-1.78-1.34-2.59h-.02c-.42-.2-.84-.38-1.28-.53-.07.01-.13.02-.2.03.08.11.04.21-.12.23-.67.13-1.34.17-2.01.11l-1.03-.15c-.43.16-.83.37-1.22.62l-.13.08-.02.02c-.99.8-1.76,1.86-2.28,3.01-.05.1-.09.21-.13.31l-.06.16h0c-.68,2.7-.07,5.65,1.18,8.09.68,1.09,1.39,2.16,2.14,3.21l.72.94c.43.4.85.81,1.25,1.24.06.06.13.13.2.19.22.14.44.27.66.37.09.03.18.06.26.08.43.21.88.32,1.36.33.63.04,1.24-.03,1.83-.22l.12-.04.09-.03c.32-.21.62-.46.9-.76.06-.07.18-.07.32-.03.07-.08.15-.16.22-.24.05-.05.12-.05.18-.01.2-.02.74.29.6.45-.02.04-.05.07-.08.11.1.05.19.1.27.16.44.12,1.1.57,1.05.7h0c-.1.21-.24.37-.4.5l-.06.04-.12.09c.18.11.32.24.25.33-.03.06-.07.13-.11.19.36.44.72.89,1.07,1.34.36.77.79,1.49,1.32,2.15.44.72.96,1.37,1.58,1.95.05.05.1.1.15.15.45.33.93.65,1.42.95l.21.13c.11.07.3.15.21.32-.01.02-.02.04-.04.05.31.2.63.39.96.57l.03.02c.13.08.3.22.12.34-.15.1-.56-.17-.75-.3-.04,0-.08,0-.12-.02.06.03.13.07.19.11l.1.05c.07.04.44.29.18.39-.12.01-.24-.02-.34-.09-.12-.06-.25-.13-.37-.19.04.07.04.13-.06.17-.04,0-.07,0-.11,0,.25.16.5.31.77.45l.04.03c.11.07.29.21.16.33-.15.13-.55-.15-.65-.21l-.31-.18s-.05.01-.08.02c.09.06.18.12.27.17l.13.07c.16.09.39.24.31.38-.08.15-.33.03-.49-.07l-.17-.11s-.01,0-.02-.01v.02s0,0-.01.01c-.08.14-.28.05-.42-.03l-.11-.07c-.19-.11-.37-.22-.56-.34l-.28-.17h0c-.95-.57-1.83-1.14-2.66-1.88-.5-.44-.96-.9-1.4-1.4-.88-.99-1.54-2.13-2.17-3.3-.01-.02,0-.07.03-.12-.07-.14-.14-.29-.2-.44-.65.18-1.38.24-2.05.19-.36-.02-.71-.09-1.07-.18-1.13-.16-2.21-.67-3.15-1.29-.06-.04-.11-.08-.17-.12-.39-.22-.75-.47-1.1-.76-.68-.56-1.33-1.19-1.92-1.84-.43-.51-.83-1.03-1.21-1.58-.38-.54-.77-1.08-1.16-1.62-1.08-1.69-1.77-3.64-2.04-5.63-.13-.73-.2-1.48-.18-2.21.01-.53.07-1.08.17-1.61-.06-.06-.12-.12-.18-.18-.03.06-.07.1-.09.08l-.48-.49c-.34-.35-.57-.6-.97-1.16-.63-.89-1.1-1.88-1.45-2.91-.25-.74-.42-1.58-.48-2.39-.02-.14-.04-.27-.06-.41-.14-1.1-.01-2.16.16-3.24.01-.07.05-.12.1-.14.01-.09.03-.17.04-.26-1.4-1.48-2.41-3.27-2.32-5.43.03-.68.17-1.35.43-1.98l.03-.07c-1.17-.18-2.09-1-2.79-2.02-.06-.05-.12-.1-.18-.15-1.24-1.06-2.11-2.57-2.7-4.16-.42-.92-.7-1.91-.82-2.93,0-.07-.01-.15-.02-.22-.29-1.62-.36-3.25-.23-4.86-.29-1-.53-2.01-.69-3.05-.08-.49-.13-.99-.17-1.48v-.03s-.01-.09-.01-.09l-.02-.22s0-.07,0-.11c-.36-4.53.65-8.98,2.33-13.18.15-.38.3-.75.45-1.13l.16-.39c1.68-2.71,4.2-4.9,6.34-7.22.74-.8-.46-2-1.2-1.2-1.42,1.54-2.94,3.01-4.32,4.59-.24.02-.49.02-.73.01-.42-.02-.83-.09-1.23-.2-.99-.15-1.89-.55-2.71-1.13-1.1-.51-2.03-1.48-2.13-2.73-.01-.13,0-.25,0-.38-.1-.62-.01-1.26.25-1.85.04-.16.1-.32.17-.48.21-.47.55-.92.97-1.23.01,0,.02-.01.03-.02.04-.05.09-.09.14-.14.07-.07.15-.13.23-.18-.29-.47-.54-.95-.76-1.46-.24-.56-.36-1.12-.43-1.72-.03-.24-.04-.47-.04-.71-.01-.11-.02-.22-.03-.33-.05-.84.04-1.71.36-2.49.02-.06.05-.12.08-.18.06-.18.12-.35.2-.53.31-.67.76-1.23,1.3-1.69.3-.3.63-.56.99-.79.21-.13.46-.25.71-.35.46-.24,1.04-.46,1.52-.48.06,0,.11,0,.16,0,.04-1.21.2-2.53.68-3.63.28-.8.7-1.5,1.33-2.01.37-.38.82-.69,1.38-.89l.1-.03h.04c.5-.26,1.05-.35,1.61-.35.65-.03,1.32.09,1.89.39.12.06.25.14.37.23.09-.18.19-.37.31-.55.41-.65.9-1.22,1.47-1.74.07-.06.14-.12.21-.18.28-.25.57-.48.87-.7.66-.46,1.38-.8,2.13-1.02.87-.32,1.79-.47,2.72-.44h.19s.08.01.12.02c.91.06,1.82.28,2.68.62.89.35,1.65.89,2.35,1.5.16-.23.35-.44.58-.65.07-.06.14-.11.2-.16.05-.05.1-.1.16-.15.25-.22.52-.41.81-.59.33-.19.68-.33,1.05-.41.37-.13.76-.21,1.16-.23ZM34.77,94.6s1.99.73,2.97,1.21l.05.02c1.12.56,1.66.96,2.67,1.68.07.05.14.12.14.19,0,1.04-.25,2.32-1.13,1.75-.13-.08-.25-.16-.38-.24l-.19-.12h0s0,0,0,0c-1.91-1.16-3.93-2.08-6.06-2.73-.15-.05.93-1.68,1.23-1.59-.17-.07.68-.17.7-.17ZM54.84,48.51c-1.27.14-2.54.27-3.81.4-.81.09-1.62.18-2.43.25-1.22.09-2.44.11-3.65-.06-.43-.06-.85-.14-1.27-.25-.29.21-.58.41-.88.59l-3.35,2.57c-2.25,1.77-4.45,3.64-6.43,5.71-3.46,3.61-6.28,7.84-8.05,12.53-.16.09-.28.26-.33.51-.31,1.92-1.23,3.67-1.56,5.58-.33,1.88.11,3.48,1.29,4.98.25.32.77.3,1.09.09.07.14.39.14.51-.5.53-.57.98-1.17,1.28-1.91.22-.54-.15-.92-.61-1,.19-.68.4-1.36.65-2.03.71-2,1.62-3.9,2.77-5.69,1.01-1.57,2.17-2.94,3.42-4.32.01-.02.04-.03.07-.03l.26-.29s.11-.04.19-.01c.08-.08.15-.17.23-.25.08-.08.16-.06.21,0,.13-.03.38.11.45.16.13.08.17.18.06.3-.02.02-.04.04-.06.06.15.06.29.14.4.22.39.09.94.45.84.56-.2.21-.4.42-.59.64.17.12.28.23.23.29-.82.87-1.58,1.79-2.28,2.76-.53.73-1.01,1.48-1.44,2.27-.64,1.12-1.18,2.26-1.66,3.44-.07.18-.13.36-.2.54-.7,1.96-1.23,4-1.45,6.08v.14c-.05.75-.07,2.75-.14,3.23.47.23.95.43,1.46.59.09.03.19.05.29.08.05-.02.11-.04.17-.06.46-.19.95-.32,1.45-.39.33-.04.67-.06,1-.05h.14c.15,0,.29.02.44.04,0-.08-.01-.17-.02-.25-.04-.03-.07-.07-.08-.12-.1-.95-.1-1.9,0-2.85.06-.5.14-.99.22-1.49.08-.41.18-.81.28-1.2.27-1.12.64-2.21,1.08-3.28,1.26-3.05,3.07-5.8,4.9-8.53,1.33-2,2.59-4.04,3.96-6,1.17-1.67,2.4-3.32,3.71-4.88,1.31-1.56,2.69-3.06,4.19-4.46.24-.22.48-.44.73-.65,1.42-1.27,2.95-2.31,4.55-3.33.06-.04.17,0,.26.08l.26-.16s.09-.05.13-.08c.04-.03.08.02.11.05.11-.06.22-.11.33-.17.08-.06.16-.13.24-.19-1.19-.06-2.37-.15-3.56-.26ZM69.73,34.42c-.96-.19-1.92-.22-2.89-.08-.41.06-.81.13-1.21.22.91.79,1.64,1.81,2.11,2.97.51,1.26-1.53,1.81-2.04.56-.49-1.2-1.41-2.12-2.52-2.67-.24.13-.47.28-.7.44-.29.24-.57.49-.82.77-.56.61-1.08,1.43-1.42,2.23-.13.44-.23.89-.29,1.36-.01.11-.03.21-.04.32-.21,2.19.42,4.32,1.49,6.2h.04c.96-.52,1.97-.96,3-1.32.83-.56,1.69-1.07,2.57-1.54,1.88-.99,3.87-1.76,5.92-2.28l.24-.06c.48-.12.97-.23,1.46-.33l.29-.06h0l-.03-.32c-.16-1.24-.65-2.38-1.27-3.44-.47-.8-1.18-1.62-1.96-2.28h0c-.36-.21-.73-.37-1.12-.51l-.15-.05-.67-.15ZM43.98,32.54c-1.99-.19-3.99-.17-5.98,0-1.3.13-2.6.31-3.89.54-.87.15-1.73.36-2.57.62l.48.97c.8,1.62,1.63,3.23,2.6,4.76.5.79,1.04,1.54,1.64,2.26.4.52.84.99,1.32,1.43.13.15.26.3.4.44.44.38.91.71,1.43.98.42.3.85.57,1.3.8l.17.09,1.58.61c.08.02.17.05.26.07l.13.03.24.05.18-.1s.06-.03.09-.05c.05-.03.09.03.1.06,0,.02,0,.04-.01.06l.23-.12c.4.16.82.29,1.27.38.2.04.41.07.61.09l.03.02s0,0,.01.01h.22c1.58.15,3.18-.05,4.76-.33,2.23-.22,4.46-.47,6.69-.7.04,0,.06.01.06.04h.14c.2-.03.43.3.28.42.12.07.24.18.32.26h.05c-.31-.6-.54-1.23-.71-1.89l-.22-1.1c-.06-.41-.09-.84-.1-1.27-.01-.2-.03-.38-.03-.54,0-.15,0-.3,0-.46-.42-.17-.85-.33-1.28-.45-1.24-.15-2.47-.3-3.71-.45-.74.03-1.48.08-2.22.16-.84.07-1.68.17-2.51.28-.08,0-.22-.1-.3-.22l-.36.05c-.19.02-.38-.35-.14-.43.09-.04.18-.07.27-.1l.13-.05h-.08s-.06,0-.09,0c-.2.03-.39.05-.59.07-.25.03-.19-.29-.02-.37l.08-.03c-.15-.09-.27-.34-.09-.42h.02c.08-.04.17-.07.25-.1,0-.03,0-.05,0-.08l-.35.04s.12-.22.19-.26h.01s.17-.06.17-.06c.03-.07.16-.23.21-.24.61-.19,1.18-.37,1.78-.5.03-.04.06-.06.1-.07.37-.09.75-.16,1.12-.22.03-.04.05-.07.08-.07.93-.12,1.87-.15,2.8-.08.18.02.36.04.54.06.34.04.69.09,1.03.15.86.15,1.69.37,2.51.67l.19.07c.2.08.41.16.61.24.1-.36.23-.72.38-1.07.02-.07.05-.13.08-.2l-.2-.12c-.04.08-.14.15-.19.11-1.47-.99-3.02-1.82-4.66-2.48-.92-.41-1.85-.75-2.82-1.04-.48-.15-.96-.29-1.45-.43-.24-.05-.49-.1-.73-.14-1.27-.34-2.56-.56-3.87-.67ZM92.36,35.9c-.18.31-.36.61-.56.91-.96,1.46-2.1,2.83-3.4,4.03.34,0,.68.01,1.01.04.58.05,1.14.15,1.69.28.04-.04.09-.05.13-.03l.14.1c1.18.32,2.28.82,3.29,1.49l-.02-.13s0-.04-.01-.07c.02-.26.02-.52.01-.78-.21-1.52-.72-2.93-1.32-4.35-.01-.03,0-.06.01-.1-.3-.49-.63-.96-.99-1.41ZM92.63,23.92c-.44.08-.88.18-1.31.31-.82.12-1.61.34-2.37.64-1.05.37-2.08.81-3.1,1.27-1.98.9-3.83,2.03-5.52,3.39-.11.08-.21.17-.31.25-.38.33-.75.67-1.09,1.03-.37.4-.73.79-1.1,1.19-.45.47-.96.89-1.37,1.4-.08.1-.15.22-.22.33l.24.08c.2.07.17.44-.03.39-.07-.02-.13-.04-.19-.07.03.04.05.07.05.1.01.1-.07.24-.19.21-.06-.01-.11-.04-.17-.06-.02.07-.03.13-.03.19.01,0,.02,0,.03.01.14.05.4.27.44.41.03.11-.07.24-.19.2-.09-.03-.18-.06-.27-.11.06.06.11.12.11.17,0,.1-.08.23-.19.2-.22-.06-.39-.15-.53-.26-.04.05-.09.09-.14.08l-.08-.03s.04.04.06.06l.03.03c.58.63,1.09,1.33,1.5,2.08.02-.02.04-.04.07-.06.19-.16.39-.32.58-.47l.06-.05.06-.05-.44.15h0c.03-.05.13-.18.17-.23h.01c.61-.55,1.27-1.01,1.98-1.39.46-.3.95-.55,1.46-.76,1.21-.56,2.45-.99,3.72-1.39.19-.06.38-.13.57-.19.06-.02.07,0,.06.04l.1-.03c.18-.06.48.26.36.4.07.06.14.13.21.19l.05.05h.05c.15-.06.41.17.57.34l.12.13c.09.1.27.3.05.38l-.27.09c0,.06-.01.1-.1.13-.1.03-.19.07-.28.1.06.05.11.1.17.15l.08.08c.1.1.32.31.12.41h-.02s-.26.1-.26.1c.03.08.03.15-.09.19-1.52.52-3,1.12-4.45,1.81-1.08.6-2.23,1.05-3.44,1.34-.1.03-.31-.12-.4-.27l-.18.05s-.06.02-.09.02h-.03c.23.61.39,1.26.49,1.89.01.06.02.12.03.17.24-.02.47-.04.71-.05,1.64-.09,3.29-.03,4.94.16.66-.4,1.3-.83,1.91-1.3.19-.14.37-.29.55-.44,1.09-.95,2.08-2.01,2.95-3.16.81-1.06,1.51-2.2,2.1-3.4.52-1.12.96-2.29,1.28-3.49.3-1.1.4-2.17.48-3.31.03-.19.04-.37.06-.56v-.08s0-.04,0-.04c-.02-.4-.06-.8-.11-1.2ZM77.15,38.07s-.1.03-.15.05c.03.07.06.13.08.19h0s.2-.16.2-.16c-.04-.02-.09-.05-.14-.08ZM92.34,20.92c.38-.14.67-.17.86-.08-.29.02-.57.05-.86.08Z"/>
</svg>