<?xml version="1.0" encoding="UTF-8"?>
<svg id="Layer_1" xmlns="http://www.w3.org/2000/svg" version="1.1" viewBox="0 0 140.81 131.41">
  <!-- Generator: Adobe Illustrator 29.4.0, SVG Export Plug-In . SVG Version: 2.1.0 Build 152)  -->
  <defs>
    <style>
      .st0 {
        fill: #fff;
      }

      .st0, .st1 {
        fill-rule: evenodd;
      }
    </style>
  </defs>
  <path class="st0" d="M118.93,48.76c-7.83-11.07-27.51-12.32-39.95-12.25-24.56-.2-29.7,27.97-30.99,47.71-2.62.44-5.17,1.36-6.9,3.41-2.1,2.5-2.83,6.8-.86,9.59,1.31,1.86,3.38,2.48,5.55,2.58,7.17-.68,8.64,5.69,12.17,10.48,9.06,12.22,24.76,16.18,39.16,16.24,4.89.13,10.78.5,13.91-4.1,9.89-17.11,10.11-39.81,10.72-59.2.08-4.96.06-10.22-2.82-14.48v.02Z"/>
  <path class="st1" d="M135.83,58.36c.1.19.17.4.21.62.13.72-.13,1.27-.48,1.8.05.37.07.73.09,1.05.11,1.78-.3,4.21-1.87,4.94-.03.03-.05.06-.08.09-.12.2-.31.37-.55.49l-.18.12s-.03.03-.05.04c0,0-.03.02-.04.03.02-.02.04-.04.06-.06,0-.01.03-.03.04-.04-.87.35-1.71.42-2.6.31-.55.2-1.11.35-1.58.46-1.46.36-3.35.65-4.77.03-.41-.18-.76-.42-1.02-.7.02,1.1.05,2.2.1,3.3.1,2.78.09,5.56.07,8.34-.02,3.13-.11,6.26-.28,9.39-.08,1.57-.2,3.14-.37,4.7-.14,1.52-.31,3.05-.5,4.56-.45,3.12-1.2,6.26-2.11,9.28-.4,1.31-.83,2.63-1.33,3.93-.21.6-.43,1.18-.67,1.77-1.27,3.06-2.84,6-4.97,8.55-1.16,1.39-2.45,2.64-3.88,3.69-1.15.9-2.4,1.65-3.77,2.25-2.94,1.28-6.23,1.57-9.42,1.53-1.21-.02-2.5-.23-3.71-.43h-.07c-.94-.17-1.89-.37-2.84-.62-.84-.19-1.66-.42-2.48-.68-.98-.26-1.92-.63-2.82-1.11l-1.59-.6c-.66-.25-1.31-.54-1.93-.88l-1.72-.8c-.71-.34-1.41-.72-2.09-1.14-.07-.04-.15-.1-.18-.17-.07-.04-.15-.08-.22-.12-.1-.06-.21-.11-.31-.17-.03,0,0-.1.03-.18-.03-.06-.03-.14.06-.2.06-.05.17-.04.27,0,0,0-.02,0-.02-.02-.04-.02-.08-.04-.11-.06-.08-.04-.16-.09-.24-.13-.12-.06-.14-.23-.03-.32.03-.02.07-.04.1-.04h0s0-.08.03-.15c-.06-.08-.08-.17.03-.25.14-.11.46.07.61.16.01,0,.02,0,.03.02.09.05.19.1.28.15.06.03.11.06.17.09,0-.02.03-.04.06-.06-.22-.12-.44-.23-.66-.35-.14-.07-.31-.22-.13-.36.14-.11.51.08.69.18.02-.02.05-.02.07-.03-.03-.02-.06-.03-.09-.05-.05-.03-.09-.05-.14-.08-.21-.12-.07-.49.15-.37.01,0,.03.02.04.02s.03.02.04.02c.15,0,.36.1.47.16h.02c.74.48,1.52.88,2.32,1.23.54.26,1.09.51,1.63.76.54.27,1.09.5,1.66.69,1.43.55,2.87,1.07,4.32,1.55,2.04.56,4.15,1,6.27,1.18.28.02.55.04.83.05h1.81c1.06-.11,2.13-.22,3.19-.33l.32-.03c.41-.06.81-.13,1.2-.21.21-.05.41-.1.62-.16.07,0,.14-.02.21-.03.5-.13.99-.29,1.48-.48.31-.13.62-.26.92-.4,1-.47,1.99-1.08,2.92-1.79.58-.58,1.16-1.16,1.75-1.74.58-.58,1.17-1.16,1.75-1.74l1.07-1.45c1.38-1.96,2.47-4.15,3.37-6.39l1.44-4.14c.15-.5.29-1,.43-1.5.27-1.12.55-2.24.82-3.35.09-.41.18-.82.26-1.23.52-2.54.81-5.11,1.06-7.69.46-4.69.58-9.39.61-14.1.02-2.81,0-5.63-.06-8.44-.03-1.63-.06-3.26-.08-4.89-.03-1.73-.06-3.46-.11-5.19,0-.04.01-.07.03-.1,0-.2,0-.41-.01-.61,0-.14.05-.19.13-.21-.01-1.23-.02-2.47-.03-3.7,0-.08.04-.13.09-.16v-.31c-.21-.86-.49-1.7-.85-2.5-.12-.29-.26-.57-.41-.85-.19-.41-.43-.79-.73-1.13-.25-.42-.56-.79-.91-1.12-.07-.05-.14-.1-.22-.16-.07-.05-.15-.1-.22-.16-.12-.06-.3-.18-.46-.3-.14-.09-.28-.17-.42-.26-.14-.09-.28-.17-.42-.26-.16-.09-.06-.3.06-.36h0s-.05-.03-.09-.06c-.34-.32-.7-.63-1.07-.91-.07.03-.14.02-.2-.03-.22-.2-.44-.4-.67-.59-.51-.33-1.04-.64-1.6-.91-.9-.42-1.81-.78-2.75-1.09-.18-.06-.37-.11-.55-.17l-.06-.02c-.11,0-.22,0-.33-.02-.18,0-.36-.02-.54-.03-10.76-.47-21.55-.27-32.29.59-2.65.21-5.29.47-7.92.76-.5.06-1.02.1-1.54.14-1.94.16-4.02.33-5.69,1.17-.09.05-.18.09-.26.14.14.92.49,1.83.83,2.71.05.13.1.27.15.4.58,1.55,1.11,3.13,1.06,4.81-.04,1.17-.29,2.29-.65,3.39-.19,1.57-.68,3.08-1.19,4.57-2.56,7.32-3.95,14.81-3.81,22.58,0,.21-.04.39-.13.54v.03c.05.33.1.66.15.99.21,1.31-1.52,1.96-2.11,1.09-.04.04-.1.07-.15.07-.15.01-.4-.23-.47-.35-.09-.17-.19-.34-.29-.5,0,0-.03-.01-.04-.02.03.06.06.13.09.19.03.07.07.14.1.2.1.21-.3.31-.42.12-.11-.17-.21-.33-.32-.48-.06.05-.13.06-.18-.02-.38-.63-.82-1.17-1.31-1.63-.76-.62-1.6-1-2.54-1.22-.75-.11-1.51-.11-2.25-.03-.85.1-1.74.31-2.51.7-.62.43-1.25.86-1.88,1.29-.15.16-.3.33-.44.5-.43.56-.78,1.16-1.07,1.8,0,.04-.02.08-.04.12-.18.54-.29,1.09-.34,1.65v2.14c.09.93.33,1.83.7,2.68.17.5.44.96.8,1.35.19.34.42.64.66.93.5.33,1.05.61,1.63.84.14.04.28.08.43.1.75.29,1.52.44,2.32.46,1.01.07,2-.02,2.97-.26.6-.11,1.18-.28,1.74-.52.54-.27,1.04-.59,1.52-.97.05-.03.13-.01.22.03.02-.01.04-.03.05-.04.09-.06.17-.12.26-.19.05-.03.09,0,.11.05l.03-.02c.19-.13.7.27.47.51.1.06.2.14.29.21.41.02,1.25.77,1.09.89-.23.2-.48.39-.73.56.22.16.51.42.38.52-.24.23-.51.43-.79.6-.19.14-.38.28-.59.41-.22.13-.45.24-.68.35.41.78.79,1.58,1.15,2.38.24.57.52,1.12.84,1.65.41.81.9,1.57,1.47,2.27.47.78,1.01,1.5,1.64,2.16.77.88,1.6,1.7,2.48,2.46.35.25.71.49,1.08.71.95.72,1.97,1.33,3.04,1.84.13.07.23.22.08.34h0c.35.2.71.4,1.06.59h0c.14.08.41.23.2.39-.14.11-.56-.09-.82-.22.04.02.07.04.11.06h0c.11.06.5.27.24.41-.14.02-.27,0-.4-.07-.13-.05-.27-.1-.4-.16,0,.04-.02.08-.09.12-.05,0-.11,0-.16,0,.29.16.58.32.87.48.09.05.49.27.22.41-.13.03-.26,0-.38-.06-.22-.08-.44-.18-.65-.29-.05-.03-.1-.05-.15-.08-.04,0-.08,0-.11,0,.23.12.47.25.71.36.14.07.38.23.17.39-.14.11-.52-.08-.74-.21,0,.02-.03.03-.05.05-.15.11-.49-.09-.67-.19-.02,0-.05-.03-.06-.04-1.18-.63-2.32-1.28-3.41-2.03-.67-.43-1.32-.88-1.96-1.37-1.22-.94-2.33-2.04-3.35-3.2-.7-.79-1.07-1.24-1.75-2.2-1.08-1.54-1.9-3.16-2.69-4.87,0-.03,0-.09.05-.16-.16-.4-.32-.8-.47-1.21-.41.06-.82.09-1.23.12-.96.05-1.89-.03-2.79-.23-1.09-.14-2.17-.45-3.12-.93-.57-.29-1.12-.59-1.65-.93-.47-.25-.92-.53-1.35-.87-1.84-1.4-2.84-3.58-3.09-5.84-.19-1-.23-2.02-.12-3.01.08-.72.24-1.43.48-2.11.43-1.52,1.24-2.92,2.42-3.99.2-.2.4-.39.62-.57.65-.53,1.39-.96,2.18-1.28.15-.07.31-.14.46-.21l-.19-.43c-.07.02-.3-.02-.33-.1-.05-.13-.09-.25-.14-.38-.03-.08-.06-.16-.08-.24-.04.03-.1.04-.16.04v.24c0,.07-.13.5-.2.27-.04-.12-.09-.25-.13-.38-.03-.08-.05-.16-.08-.24-.06-.04-.1-.08-.12-.14,0-.02,0-.04-.02-.06h0v.07s-.12.39-.14.32c-.41-1.13-.75-2.28-1.01-3.45-.18-.64-.32-1.3-.43-1.96-.12-.59-.22-1.19-.31-1.79l-.02-.15v-.04c0-.06,0-.13-.02-.19-.09-.68-.17-1.36-.23-2.05-.13-1.41-.18-2.83-.16-4.25-.02,0-.04.02-.06.03,0,0-.02.01-.03.02-.62.26-1.27.48-1.93.65-1.14,1.65-2.96,2.76-5.15,2.88-.74.04-1.51-.05-2.23-.26-.07.02-.15.03-.23.04-.37.05-.68-.03-.99-.11-.18-.05-.35-.09-.55-.12-.07,0-.14-.02-.21-.03-.78-.1-1.45-.19-1.97-.65-.18,0-.34-.02-.5-.07-1.5.36-3.1-.43-3.63-2.09-.9-.53-1.62-1.31-2.1-2.22-.93-1.19-1.67-2.65-2.13-4.18v-.02s0-.02-.01-.03c-.23-.51-.35-1.05-.35-1.59-.25-1.55-.18-3.1.29-4.47-.02-.74.15-1.51.47-2.21.39-.85.98-1.82,1.74-2.39,0-.87.38-1.83.87-2.48.98-1.3,2.4-1.98,3.94-2.08.78-2,3.15-2.47,5.19-1.8.85-.87,2.09-1.28,3.33-1.13,1.05.12,1.95.63,2.69,1.32.2.06.39.11.59.17.65-.28,1.41-.35,2.1-.17,1.2.31,1.99,1.22,2.53,2.26.17.12.34.24.51.37.18.08.35.19.5.32.22.12.4.31.51.58.31.32.59.65.84,1.01.19-.44.38-.87.58-1.3.33.1.72-.03.89-.47l.04-.11c1.05-2.79,2.93-7.76,4.7-10.06-2.09,1.42-4.65,2.17-7.18,2.1-.11,0-.22,0-.33,0-1.36.23-2.75.26-4.02,0-.86-.31-1.69-.68-2.5-1.1-.2-.1-.39-.21-.59-.32-.06-.05-.12-.11-.18-.16-.02-.02-.05-.04-.07-.07-.17,0-.34,0-.53-.05-.7-.18-1.35-.65-1.75-1.25-.08-.11-.14-.23-.19-.34-.44-.43-.82-.92-1.1-1.49-.33-.67-.53-1.41-.55-2.16-.14-.73-.13-1.49.13-2.19.02-.05.04-.09.06-.14.01-.03.02-.06.03-.08,0-.02.01-.04.02-.06,0-.03.01-.06.02-.09.08-.25.17-.47.29-.68.04-.22.11-.43.21-.64.01-.1.02-.2.04-.3-.75-1.42-.49-3.28.64-4.43-.16-.75,0-1.54.46-2.2.33-.49.8-.87,1.33-1.14.05-.03.2-.08.37-.13.19-.17.4-.33.63-.48.05-1.39,1.44-2.19,2.65-2.88.06-.03.12-.07.17-.1.39-.23.68-.55.96-.88.3-.34.6-.69,1.02-.91.74-.4,1.65-.49,2.51-.58.19-.02.38-.04.56-.06,2.36-.28,4.87-.5,7.24-.25,1.32.14,2.4.78,2.86,1.81,1.13.13,2.14.95,2.94,1.79,1,1.05,1.84,2.16,2.14,3.53.19.1.37.23.53.38,0,.97-.13,1.93-.4,2.85.08.55-.09,1.07-.36,1.54.04.45,0,.89-.08,1.33.54.96.03,2.41-.72,3.36v.54s.08-.05.12-.09c2.18-1.85,4.4-2.36,6.8-2.92,1.38-.32,2.83-.65,4.36-1.26,3.77-.73,7.62-1.19,11.48-1.34h-.07s-.06,0-.09,0c-1.95-.32-3.82-1.12-5.42-2.26-.43-.11-.83-.3-1.19-.62-.35-.31-.59-.67-.73-1.06-.06-.07-.13-.14-.19-.21-1.21-.3-2.13-1.34-1.97-2.71-.76-.9-1.05-2.02-.79-3.18-.43-.72-.46-1.63-.15-2.39-.67-.81-.72-1.97-.2-2.89-.48-.68-.59-1.58,0-2.39.28-.38.67-.62,1.09-.74.12-.44.36-.85.74-1.16.2-.16.4-.28.61-.37.08-.45.34-.88.83-1.22.22-.15.45-.25.68-.31.22-.53.59-1,1.12-1.3.64-.37,1.38-.41,2.06-.22.89-1.34,2.83-1.85,4.17-.86,1.12-.69,2.53-.55,3.54.3,1.22-.72,2.73-.43,3.69.57,1.53-.84,3.55-.22,4.37,1.36,1.55-.17,3,.84,3.41,2.3.07.05.13.11.2.17h.02c.93.06,1.81.42,2.32,1.28.26.43.38.93.36,1.43.55.3,1,.79,1.19,1.42.18.6.11,1.18-.12,1.7.77.82.97,2.09.43,3.12.23.39.34.84.33,1.32-.03.7-.35,1.27-.8,1.76.56,1.01.34,2.3-.57,3.01-.52,1.85-1.84,3.08-3.87,3.83-1.02.38-2.08.67-3.17.88,4.34.58,8.61,1.61,12.71,3.13.22.08.41.05.56-.05l.12.06c.05.03.1.05.15.08,1.13.62,2.24,1.29,3.32,2.01v-.36c-.02-.98.08-1.94.34-2.86-.34-.46-.59-.99-.73-1.53-.35-1.35.31-3.28,1.49-3.74.41-1.14,1.35-1.97,2.5-2.3.09-.08.19-.16.3-.24.24-.17.51-.28.78-.35.14-.62.49-1.19,1.06-1.59.81-.57,1.77-.63,2.61-.32.16-.05.32-.1.49-.14,1.36-1.15,3.47-1.07,4.66.28.82-.37,1.78-.39,2.62.11.67.4,1.09,1.05,1.25,1.76,1.27.04,2.43.88,2.8,2.14,1.17.13,2.13,1.05,2.33,2.2.75.1,1.44.45,1.86,1.15.19.32.3.67.33,1.03.38.18.72.45.97.81.45.63.53,1.36.37,2.05.02.03.03.06.05.09.02.04.05.09.07.13.12.26.22.54.31.82.39.57.58,1.26.54,1.96.08.29.17.59.23.89.27,1.16.37,2.4.18,3.59-.09.57-.22,1.14-.41,1.69-.02.1-.05.2-.09.29-.1.43-.23.86-.4,1.27-.4.53-.82,1.04-1.26,1.54-.37.55-.79,1.07-1.27,1.54-.34.34-.72.65-1.12.94-.8.64-1.69,1.13-2.64,1.46-.17-.04-.34-.06-.51-.09-1.08.59-2.78.66-3.82.66-1.14,0-2.19-.29-3.07-.84.1.2.2.4.3.6-.03.01-.05.03-.07.04-.19-.31-.4-.59-.65-.79-.34-.27-.88-.3-1.12.14,0,0,0,.02-.01.02-.12.23-.11.46-.01.64.04.05.07.1.1.15h0s.02.03.03.04h0c.32.26.64.9.95,1.52.2.36.4.73.58,1.1.11.16.3.29.5.33-.04.3.1.61.32.76.06-.12.13-.24.22-.37,1.02-1.38,3.03-1.98,4.54-1.35.3-.05.6-.09.91-.12,1-.07,2.01.01,2.99.22.31.18.6.39.87.62.23.2.44.41.64.62.15.12.31.24.45.37.6.32,1.05.95,1.42,1.56.3.42.55.86.78,1.33,1.04,1.77,2.23,3.96,1.3,5.7v.06ZM52.78,92.53c.38.44.68.93.89,1.46.09.17-.02.28-.19.25-.08-.01-.19-.07-.29-.14,0,.02.02.04.03.06,0,.02.02.04.03.06.09.18,0,.31-.2.24,0,0-.02-.01-.03-.02.11.19.21.39.29.6.09.18,0,.31-.2.24-.11-.06-.21-.13-.31-.21,0,.03.02.05.04.08.03.07.07.14.1.22.1.19,0,.28-.2.24-.16-.09-.31-.19-.44-.31,0-.01-.03-.02-.04-.03,0,0,0-.01-.02-.02.06.15-.05.25-.21.22-.22-.04-.63-.41-.73-.6v-.04c-.12-.08-.24-.19-.34-.29-.08.11-.22.19-.29.06-.2-.54-.51-1.01-.94-1.4-.24-.35-.54-.65-.88-.9-.19-.16-.38-.31-.57-.45-.35-.16-.71-.28-1.09-.36-.04-.01-.09-.02-.13-.03-.03,0-.07-.02-.1-.03h-.03l-.48-.09c-.69-.09-1.38-.11-2.06-.05-.12,0-.24-.09-.29-.2-.15,0-.31.01-.46.03-.25,0-.2-.35,0-.38.24-.04.48-.08.72-.11v-.06c-.43-.02-.87-.01-1.3.03-.19,0,.04-.34.14-.36.02,0,.05,0,.07-.01.02,0,.05,0,.07-.01v-.02h0c-.26.01-.44-.4-.13-.46.04,0,.07-.01.11-.02.04,0,.08-.01.12-.02,0-.04-.02-.08,0-.11h-.4s.07-.08.1-.16.07-.17.12-.18c.03,0,.06,0,.09-.01.04,0,.08-.01.12-.02,0-.09.14-.29.19-.3.45-.08.89-.13,1.33-.14.04-.1.1-.23.16-.23.5,0,.97,0,1.45.05.02-.01.04-.02.05-.02.08.02.15.04.23.05.26.04.53.09.8.17.63.19,1.27.48,1.82.85.52.35,1.03.71,1.48,1.14.16.14.31.28.45.43.23.19.45.38.67.58.26.24.52.49.76.74h-.07Z"/>
</svg>