<svg width="101" height="120" viewBox="0 0 101 120" fill="none" xmlns="http://www.w3.org/2000/svg">
<path fill-rule="evenodd" clip-rule="evenodd" d="M51.8398 15.9492C63.8357 15.9492 79.3203 23.4771 80.6407 31.187C82.1968 40.2729 90.5294 75.1368 88.6478 86.317C86.7662 97.4973 76.6266 105.546 60.4016 105.546C44.1766 105.546 32.0664 96.6941 29.2858 93.6549C26.5052 90.6156 21.3521 79.7647 21.3521 79.7647C21.3521 79.7647 12.6649 78.6089 12.6237 71.5247C12.5825 64.4405 18.2718 61.863 18.2718 61.863C18.2718 61.863 16.2433 33.9058 21.3521 26.6271C26.4609 19.3483 39.8439 15.9492 51.8398 15.9492Z" fill="white"/>
<path fill-rule="evenodd" clip-rule="evenodd" d="M79.9064 29.9429C79.8978 29.7803 80.1344 29.7613 80.1788 29.905C82.7668 38.4584 84.3621 45.1241 86.0414 53.8933L86.5374 56.4729C87.8628 63.353 89.2018 70.2431 90.3325 77.1566L90.3989 77.5694C90.9653 81.148 91.2918 84.7615 90.5818 88.3476C89.9184 91.6996 88.1057 94.7727 85.7522 97.2201C81.2036 101.95 74.8823 104.905 68.5233 106.226C65.3078 106.894 61.9909 107.151 58.7142 106.919C57.0809 106.805 55.4501 106.574 53.8508 106.234L53.6742 106.196C52.0622 105.848 50.6314 105.433 49.7752 103.915C49.56 103.533 49.6466 102.878 50.0987 102.681C50.9522 102.313 51.5797 102.159 52.5112 102.265C53.4006 102.366 54.2691 102.635 55.148 102.802C56.8276 103.121 58.5346 103.281 60.2438 103.32C63.6008 103.394 66.9663 102.973 70.1755 101.971C75.6893 100.249 81.2924 96.9538 84.5142 92.0251C88.3041 86.2271 86.795 79.1905 85.7907 72.7874L85.7605 72.5936C84.7437 66.0488 83.7385 59.5041 82.7627 52.9551L82.3464 50.1482C81.2522 42.7319 80.2191 37.4376 79.9064 29.9429ZM23.9226 11.7902C26.6747 9.97556 30.0944 9.52965 33.3268 9.55469L33.7316 9.5598C37.8706 9.62291 58.7052 10.1189 65.6808 10.2715L67.3402 10.3065C69.5366 10.348 73.9663 10.3912 76.2486 10.433L76.3803 10.4354C77.5 10.4566 78.6198 10.465 79.7395 10.5009L79.9036 10.5069C80.7424 10.5427 81.4403 10.6682 82.0972 11.2597C82.4313 11.5595 82.5616 12.0166 82.531 12.4521L82.5261 12.5088L84.1888 12.6546C85.3177 12.7544 85.9147 13.7674 85.4662 14.7925L85.4437 14.8421C84.6472 16.5413 84.0388 21.4869 83.612 23.3151C83.3881 24.2768 83.2083 25.2532 83.1027 26.236C83.0184 27.0097 83.0099 27.7852 82.5789 28.4657C81.6597 29.9177 79.074 29.905 79.0275 27.8486C79.0254 27.7831 79.0275 27.7197 79.0338 27.6584C72.5268 27.373 63.643 27.4005 57.1444 27.7894C51.0747 28.1529 45.0324 28.9772 39.0853 30.239C37.5789 30.5581 36.0768 30.9068 34.5853 31.2851C33.362 31.5937 31.8599 31.7776 30.7655 32.4391C29.5402 33.1831 29.5634 34.5167 29.6965 35.7869C29.8394 37.1332 30.0776 36.4395 30.4152 37.6665L30.436 37.744C30.7846 39.0755 31.2155 40.3922 31.786 41.6434C32.1113 42.3578 32.6355 43.0447 32.4367 43.8668C32.3247 44.3297 31.959 44.8242 31.6233 45.1476C30.0935 46.6165 27.5078 45.6802 26.4684 47.6923C25.3805 49.7962 25.3535 52.6463 25.2612 54.9743L25.2557 55.1107C25.1883 56.7148 25.2071 58.3232 25.3127 59.9231C25.4078 61.3812 25.7963 62.8249 25.2979 64.2262C24.9343 65.2449 23.7472 65.34 23.1261 64.5115C23.0548 64.4164 22.9894 64.3189 22.9282 64.2208L22.8684 64.1226L22.8643 64.1248C22.9233 64.2177 22.9782 64.3131 23.031 64.4101C23.0881 64.5179 22.9465 64.6362 22.8599 64.5432C21.3979 62.9518 19.262 63.2688 17.6078 64.3826C15.9324 65.5154 15.2712 67.667 15.1846 69.5968C15.0874 71.7374 15.2775 74.2465 16.1691 76.2246C16.5451 77.0615 17.0815 77.8308 17.9712 78.15C18.3749 78.2937 18.7592 78.2747 19.1796 78.3085C19.6167 78.3421 20.143 78.5621 20.5674 78.5325C21.1193 78.4932 21.6147 79.1234 21.458 79.6514L21.4465 79.6865C21.4383 79.7118 21.4296 79.7372 21.4214 79.7605C21.4423 79.7795 21.4634 79.8027 21.4782 79.8365C23.0839 83.1188 25.2853 86.0397 27.7191 88.7492C28.9383 90.1039 30.2902 91.3488 31.7036 92.5006C32.4008 93.0692 33.136 93.6379 33.9113 94.0963C34.1691 94.2462 34.4055 94.3478 34.6953 94.4305C34.8303 94.4683 34.9846 94.4873 35.1155 94.5317L35.2516 94.5783C35.2609 94.5814 35.2698 94.5841 35.2782 94.5867C35.667 94.6311 35.9944 94.8889 36.1233 95.2926C36.4592 96.3451 35.8486 97.2751 34.805 97.5646C33.6743 97.8809 32.6086 97.3255 31.7124 96.6879L31.6529 96.6452C29.8254 95.3287 28.1416 93.8512 26.6839 92.1266C23.8001 88.7217 21.9935 84.78 21.1573 80.4199C20.9501 80.8658 20.6712 81.2547 20.1874 81.5252C19.4353 81.9479 18.5374 81.9479 17.7134 81.8063C16.055 81.5252 14.6416 80.5129 13.6972 79.1433C12.7167 77.723 12.3515 75.9984 12.1296 74.3182C11.9099 72.6356 11.8022 70.9471 12.0219 69.2606C12.3369 66.8385 13.3529 64.4439 15.3282 63.1166C13.8494 59.8935 13.5895 56.2794 13.6951 52.7499C13.824 48.4045 14.574 44.0105 15.1508 39.7053L16.7904 27.466L16.8575 26.9726C17.2532 24.0933 17.7348 21.1988 18.812 18.4858C19.8747 15.8122 21.4888 13.3943 23.9226 11.7902ZM17.0222 69.6916C19.7307 68.377 22.6568 69.5881 24.1145 72.1391C25.382 74.357 21.6135 75.823 20.9847 73.5368L20.9666 73.4664C20.5525 71.7354 18.8664 70.239 17.1068 70.0066C16.961 69.9856 16.853 69.7743 17.0222 69.6916Z" fill="black"/>
</svg>
