<svg width="104" height="120" viewBox="0 0 104 120" fill="none" xmlns="http://www.w3.org/2000/svg">
<path fill-rule="evenodd" clip-rule="evenodd" d="M55.0705 12.4507C64.5292 12.4507 75.8781 17.038 76.843 17.1297L76.869 17.1311C77.3767 17.1311 79.3603 18.6429 82.8199 21.6666L79.0728 28.9781L79.376 29.2677C80.8271 30.6595 82.0659 31.9281 83.0438 32.9282C91.0279 41.0935 92.463 73.1532 90.5814 84.3334C88.6998 95.5137 85.2147 106.454 68.9896 106.454C52.7646 106.454 34.7139 96.6942 31.9333 93.6549C30.0796 91.6287 27.9973 90.658 25.6866 90.7428C25.5916 90.6229 25.4974 90.5034 25.404 90.3842L25.064 90.336C21.866 89.8727 19.5746 89.249 18.1898 88.4653C15.4849 86.9344 12.5119 78.8863 12.5119 77.1134C12.5119 75.3583 8.0726 62.5901 7.98381 61.2389L7.98246 61.2015C7.98246 60.072 2.18294 54.8796 2.18294 53.2306C2.18294 51.5816 1.01395 51.6817 2.18294 45.8709L2.52257 44.1639C3.76655 37.9771 6.20138 27.7327 15.4849 23.2812C25.6866 18.3894 45.5161 12.4507 55.0705 12.4507Z" fill="white"/>
<path fill-rule="evenodd" clip-rule="evenodd" d="M13.9105 23.0512C18.9984 17.6487 47.8832 9.29237 62.4969 11.0637L62.9353 11.1205C64.1015 11.2685 65.2508 11.4925 66.3851 11.7968C70.0514 12.6534 73.8386 13.9505 76.868 16.117C79.3971 17.8894 87.3752 20.7839 85.0238 25.4205C85.8957 27.073 86.221 29.1147 85.6318 30.7423C85.5576 31.3045 85.3844 31.8223 85.1628 32.3591C87.0255 35.109 88.5004 38.2188 89.6943 41.1766C91.7805 48.6206 93.0788 56.3674 93.2689 63.9623C93.9014 78.3916 92.3199 95.6274 79.7575 104.958C72.1685 110.871 60.2809 111.069 51.7527 103.738C51.2687 103.165 48.9927 101.619 49.7522 101.348C49.9783 101.587 50.2107 101.819 50.4473 102.048C50.4365 102.022 50.4344 101.997 50.4388 101.969L50.2163 101.768C49.7972 101.38 49.2542 100.817 49.8726 100.927C49.8999 100.959 49.9297 100.987 49.959 101.018C50.09 101.097 50.189 101.165 50.266 101.225L50.3056 101.257L50.2933 101.244C49.9371 100.864 49.7235 100.477 50.2561 100.724L50.3266 100.758C50.5635 101.008 50.8041 101.247 51.0492 101.479C51.0452 101.452 51.0492 101.424 51.0642 101.395L50.8357 101.174C50.6126 100.955 50.6467 100.954 50.7557 100.777C50.2817 100.113 51.1667 100.508 51.2288 100.767C51.7825 100.636 52.2686 101.676 52.6252 101.802C68.2588 113.826 90.9462 103.157 90.5788 69.6531L90.5732 68.9976C90.4658 58.2844 89.5646 47.2732 85.1351 37.5752C84.7043 36.6411 84.2224 35.7323 83.6924 34.853C83.3269 34.1936 82.936 33.5511 82.5156 32.9255C81.3386 32.8304 80.1766 32.6148 79.0318 32.2809C78.6386 32.1816 78.2499 32.0717 77.8614 31.9427C72.1825 32.2526 66.6302 32.5897 60.9355 32.9092L59.1567 33.0201C54.3326 33.3303 49.3435 33.8273 45.4506 36.8123C41.6309 39.5298 41.6136 44.8886 38.3438 47.8722C33.6811 51.038 33.6471 53.8927 32.7492 58.5581C32.8157 62.075 35.2533 67.1848 30.7802 68.6649C31.5348 69.7413 30.4829 69.2241 30.4001 68.8466C30.3917 68.8487 30.3832 68.8508 30.3769 68.8508C31.0493 70.1014 30.0608 69.3139 29.9733 68.9121C29.9205 68.8973 29.8677 68.8593 29.8149 68.8065C30.4924 69.9021 29.3972 69.1349 29.4621 68.9354C28.1528 66.9223 25.4583 66.6097 23.559 67.1431C23.5358 67.215 23.4515 67.2213 23.3987 67.1833C15.3226 68.9341 17.4063 85.6595 25.6825 84.0427C26.0368 83.9704 26.0283 84.1406 26.0987 84.1568C25.9075 83.6547 26.4464 83.859 26.4407 83.9645L26.4736 83.9629C26.4996 83.9606 26.489 83.9578 26.5083 83.9645C26.3235 82.9375 27.3638 84.4255 27.2816 84.4865C27.3135 84.4675 27.3494 84.4569 27.3811 84.4527L27.3453 84.3552C27.1726 83.8951 27.1874 84.0864 27.1886 83.8229C27.0589 83.4972 27.0494 83.6397 27.0798 83.4275C27.5357 83.0741 27.6703 84.146 27.8224 84.2245C27.5617 83.8609 27.769 83.564 28.0149 83.7614C29.8789 87.6836 32.2867 91.3689 35.3985 94.2721C35.7388 94.5405 36.0832 94.8047 36.44 95.054C37.7636 96.2074 39.7939 96.949 41.033 97.9707C41.033 97.9876 41.0248 98.0087 41.0121 98.0299L41.0404 98.0555L41.0691 98.0827L41.5001 98.2898C41.6269 98.3976 41.7409 98.5181 41.8421 98.6512C41.9501 98.7759 42.045 98.9133 42.1255 99.0591C42.1656 99.2367 42.0769 99.3106 41.9078 99.2346C41.8337 99.2092 41.76 99.1796 41.686 99.1521C41.6902 99.1585 41.6921 99.1627 41.6966 99.1669C41.7208 99.2036 41.8849 99.5842 41.6958 99.5223L41.6733 99.5135C41.5696 99.4755 41.4663 99.4332 41.3649 99.3931C41.4853 99.5431 41.595 99.7059 41.6921 99.8432C41.7959 99.951 41.859 100.078 41.8846 100.222C41.8802 100.302 41.836 100.336 41.7557 100.325C41.6332 100.285 41.5128 100.243 41.3921 100.198L41.4265 100.264C41.5117 100.431 41.6328 100.713 41.4177 100.619C41.2337 100.562 41.0564 100.496 40.879 100.424C40.864 100.454 40.8346 100.465 40.7755 100.437C40.2114 100.236 39.6663 99.9912 39.1445 99.7016C38.686 99.3677 38.2231 99.0401 37.7628 98.7083C37.3295 98.4483 36.9112 98.1588 36.5121 97.8333C33.8404 96.107 31.5014 93.914 29.6459 91.4717C26.5426 94.1602 20.3379 91.5917 16.4998 89.4871C13.1049 87.6061 11.7705 84.1281 11.4255 80.3783C10.7083 75.33 6.58433 73.602 6.87123 62.5251C6.8649 62.5272 6.85835 62.5272 6.8499 62.5272C6.6999 62.4829 6.55433 62.4237 6.41701 62.3476C6.27546 62.28 6.14236 62.1996 6.0175 62.1024L5.86328 61.889C5.78321 61.8446 5.71138 61.7981 5.65645 61.7516L5.62796 61.7883C5.53778 61.8972 5.5984 61.7334 5.60363 61.7009L5.33571 61.3364C4.70046 60.4687 4.00351 59.4952 3.43581 58.7166L3.41793 58.7482C3.40509 58.7721 3.3983 58.7894 3.40433 58.7969C2.05328 56.855 0.782714 54.5095 0.429686 52.2387C0.0128551 50.4896 0.175742 48.6872 0.539334 47.067C2.09828 41.3933 7.20504 28.5542 13.9105 23.0512ZM50.5754 101.516L50.4907 101.44L50.5652 101.534C50.6042 101.582 50.6441 101.625 50.7091 101.669C50.7049 101.655 50.7049 101.64 50.7068 101.623C50.6637 101.59 50.6196 101.554 50.5754 101.516ZM62.4323 13.9146C52.5222 13.0622 42.7749 15.2463 33.3182 17.89L32.6658 18.0776C27.2886 19.6126 21.6028 20.9938 17.0586 24.2792C10.7098 29.1438 7.43135 36.8826 4.57036 44.0277C2.07212 49.3364 3.34923 55.3225 7.11402 59.0294C7.50571 55.3458 8.17353 51.7699 9.21719 48.2228C9.43501 47.6687 9.27022 47.4871 9.73965 47.4148C10.4487 56.9738 6.95663 64.0363 13.8672 75.3651C16.8657 80.7105 13.3946 84.6218 21.8622 87.4346L22.0913 87.5222C23.8554 88.1882 25.782 88.7138 27.5098 88.3416L27.355 88.0897C27.1971 87.8303 27.1492 87.7043 27.3788 87.5934C27.3727 87.5807 27.3642 87.568 27.3556 87.5532C27.1699 87.2024 26.9903 86.8473 26.8189 86.488C26.7494 86.5113 26.6797 86.5282 26.6077 86.5472C26.6544 86.6338 26.6605 86.7205 26.5297 86.7501C26.0642 86.9099 25.5861 86.9739 25.0967 86.9439L24.9917 86.9361C24.4388 86.9023 24.0904 86.8014 23.7788 86.7078C23.6755 86.6909 23.572 86.674 23.4704 86.6529C22.4679 86.4305 21.4067 85.865 20.7199 85.3045C12.8907 80.8559 13.6999 65.7129 23.3501 64.2814C23.5481 54.747 28.0813 38.6616 35.6045 29.5762C42.4048 21.2192 60.9697 17.5971 73.8858 18.8743C74.074 18.9367 74.2623 18.9996 74.4505 19.0633C76.4432 19.2404 78.3423 20.1285 80.3364 20.541C78.9046 19.4676 77.2804 18.7526 75.6074 18.1449C72.274 16.1052 68.4526 15.0015 64.7607 14.2231C63.9959 14.035 63.2206 13.9315 62.4323 13.9146ZM22.9082 71.9408C23.4271 71.6588 23.3677 71.931 23.4871 71.852C27.2193 71.5474 31.2438 74.8164 33.3301 77.5415C33.1653 77.7127 32.7195 77.2055 32.6413 77.1252C32.6308 77.1357 32.6181 77.1442 32.6054 77.1484L32.6635 77.2305C33.5091 78.4444 31.8328 77.0159 31.6758 76.7215C31.6484 76.7363 31.6209 76.7448 31.5892 76.7384C31.7221 76.8688 32.1279 77.2089 32.1977 77.4507L32.3053 77.5402C33.3199 78.4094 33.2356 79.0632 32.0838 77.829C32.111 77.886 32.1216 77.9389 32.1026 77.9812L32.1423 78.0076C32.7087 78.4036 33.1745 79.5074 31.9906 78.3743C32.1138 79.2019 30.8174 77.6022 30.7758 77.6134C28.5326 75.8518 25.2298 74.1386 22.416 73.9084L22.3191 73.8973C21.8028 73.8309 21.5586 73.6777 21.7399 73.3399C21.104 73.1886 21.2529 72.8754 21.554 72.8855C21.1055 72.5905 21.5092 72.3083 21.7695 72.4184C21.5905 71.9228 22.3082 72.2529 22.3737 72.1838C22.7462 71.6092 22.8465 72.0885 22.9082 71.9408ZM15.085 41.221C16.8776 40.5641 22.1726 42.5305 21.749 45.1348C21.4968 45.7327 20.6657 46.0753 20.0815 45.7378L19.3191 45.2255C17.9923 44.3366 16.7956 43.5571 15.3711 42.7818C14.5957 42.3969 14.2619 41.5799 15.085 41.221ZM25.284 37.3509L24.5917 36.9002C20.8557 34.4541 15.5741 30.7477 24.9407 34.5824C26.0082 35.0404 27.4267 35.3114 28.0092 36.3284C28.9242 38.2029 26.5161 38.3288 25.284 37.3509ZM25.7037 26.3757C25.4039 25.2376 29.1343 26.5731 30.2202 26.9252L30.3856 26.9877C31.4419 27.3815 32.6528 27.7468 33.2846 28.6587C34.0249 29.9188 32.5266 30.1798 31.5985 29.6107C29.6956 28.3666 27.6094 27.428 25.7037 26.3757ZM35.19 21.074C33.0903 18.7802 38.7097 20.9776 39.5514 21.5876L39.5755 21.6056C40.2036 22.0479 40.0762 23.0007 39.4861 23.2805C37.8072 23.3124 36.5717 21.9125 35.19 21.074ZM44.7448 18.5608C41.4068 16.1609 45.8039 17.3024 47.3312 18.2429C48.3721 19.1613 47.2999 20.7115 44.7448 18.5608Z" fill="black"/>
</svg>
