<svg width="101" height="141" viewBox="0 0 101 141" fill="none" xmlns="http://www.w3.org/2000/svg">
<path fill-rule="evenodd" clip-rule="evenodd" d="M55.9326 22.2713C87.7311 23.2784 89.6491 38.3883 89.6491 63.7281C89.6491 89.0678 73.1534 105.036 67.0794 107.824C61.0055 110.612 45.0118 122.588 30.5785 117.069C16.1453 111.55 20.3249 88.2334 20.3249 78.2149C20.3249 68.1964 24.1342 21.2642 55.9326 22.2713Z" fill="white"/>
<path fill-rule="evenodd" clip-rule="evenodd" d="M68.8331 99.5015C62.9936 102.763 56.3072 102.889 50.026 100.837C46.2591 99.6095 42.8051 97.7114 39.5725 95.4415C36.7605 93.4654 34.2507 91.2737 31.7641 88.9465C29.7169 84.4301 27.8939 79.922 27.0401 75.0081C26.2753 70.5973 26.1739 66.0173 27.0612 61.6149C33.6234 56.2149 40.1453 50.7705 46.6584 45.3094C49.9753 42.5278 53.3007 39.7615 56.6662 37.0391C58.3753 35.6568 60.0678 34.2535 61.7704 32.8649C62.0514 32.6366 62.3305 32.4084 62.6115 32.1801C66.1267 34.7544 69.8957 36.9611 73.3861 39.5774C75.2134 40.9491 76.9901 42.4095 78.6824 43.9458C79.5697 44.7512 80.4361 45.5818 81.2812 46.4336C82.0542 47.2116 82.8 48.3273 83.8967 48.6213C84.0467 48.6612 84.188 48.6697 84.3211 48.6507C85.7873 61.4923 86.8288 75.359 80.5479 87.0213C77.8077 92.1085 73.9227 96.6568 68.8331 99.5015ZM30.8453 104.221C30.0412 103.484 31.2395 102.292 32.0402 103.025C37.0696 107.634 43.6447 110.077 50.2861 111.208C51.3577 111.391 50.9007 113.02 49.8368 112.838C42.9027 111.658 36.0877 109.025 30.8453 104.221ZM24.8105 111.292C23.8505 110.777 24.7051 109.318 25.6634 109.832C29.5817 111.935 33.8796 113.027 38.2389 113.764C39.311 113.946 38.8536 115.575 37.7897 115.395C33.2823 114.632 28.8594 113.465 24.8105 111.292ZM40.7575 40.0617C44.0089 37.1427 47.5033 34.3653 51.1943 32.0217C54.9293 29.6503 59.0089 28.2322 63.4181 28.1984C63.1096 28.4456 62.816 28.7204 62.5181 28.9759C61.6859 29.6884 60.8554 30.4049 60.0251 31.1192C58.3646 32.5501 56.6998 33.9786 55.0603 35.4329C51.8322 38.2988 48.5934 41.1499 45.3716 44.0222C39.1793 49.5426 33.1204 55.1833 27.192 60.9872C27.2239 60.8456 27.2577 60.704 27.2913 60.5626C29.254 52.362 34.5927 45.5967 40.7575 40.0617ZM66.2449 28.5555C66.266 28.4921 66.281 28.4306 66.2895 28.3716C74.7507 29.4749 81.8176 35.7031 84.154 43.9037C83.9512 44.187 83.8392 44.523 83.8815 44.88C83.9026 45.0598 83.9238 45.2416 83.9449 45.4212C83.6554 45.134 83.3576 44.8654 83.1042 44.6097C82.2611 43.7558 81.3972 42.925 80.5097 42.1155C78.6949 40.4608 76.8106 38.9138 74.8245 37.4702C71.3705 34.9594 67.6308 32.6515 63.5132 31.4468C63.7836 31.2248 64.0543 31.0029 64.3268 30.7831C65.14 30.1214 65.8944 29.5763 66.2449 28.5555ZM81.4144 19.7866C76.2193 14.1076 69.0255 9.94825 61.4496 8.50262C54.2156 7.12038 46.7262 8.0313 39.8919 10.7176C25.591 16.3395 14.3072 28.7016 9.02336 43.0267C5.94308 51.3729 4.93322 60.5223 5.85879 69.3567C6.7797 78.1508 9.42689 87.2327 14.2438 94.7145C14.6853 95.3995 15.1691 96.0566 15.6762 96.6927C15.4501 99.2755 14.5882 101.807 13.2318 104.01C13.1589 104.128 13.082 104.243 13.006 104.359C11.6171 105.4 10.1765 106.376 8.77005 107.384C7.55125 108.258 6.34491 109.154 5.19879 110.121C4.11689 111.034 2.86048 112.051 2.12801 113.284C1.5278 114.293 1.28273 115.666 2.10203 116.629C3.08928 117.789 4.7621 117.38 6.09942 117.38C6.21393 117.38 6.32822 117.382 6.44252 117.384C6.84414 117.636 7.2578 117.865 7.65858 118.077C11.7086 120.224 15.7734 122.349 19.8424 124.462C27.9468 128.674 36.0172 133.056 44.2882 136.934C48.1208 138.732 52.2236 140.305 56.5163 140.299C60.5433 140.292 64.1832 138.692 67.3269 136.26C70.91 133.489 73.906 129.97 76.8128 126.521C77.9748 125.14 79.1135 123.743 80.2311 122.327C82.3776 121.611 84.5072 121.402 86.4212 122.784C87.9572 123.894 89.9811 122.384 90.017 120.719C90.0297 120.127 90.0046 119.544 89.941 118.969C89.5567 115.418 87.8198 112.206 85.8635 109.226C84.7947 107.596 83.6686 105.996 82.536 104.411C82.2698 104.037 82.0079 103.663 81.7543 103.282C86.3029 96.5829 89.9114 89.1539 92.1297 81.3908C94.4602 73.2223 95.2524 64.7514 94.7327 56.2868C93.9339 43.3141 90.3764 29.5848 81.4144 19.7866Z" fill="black"/>
</svg>
