<?xml version="1.0" encoding="UTF-8"?>
<svg id="Layer_1" xmlns="http://www.w3.org/2000/svg" version="1.1" viewBox="0 0 160.54 128.33">
  <!-- Generator: Adobe Illustrator 29.4.0, SVG Export Plug-In . SVG Version: 2.1.0 Build 152)  -->
  <defs>
    <style>
      .st0 {
        fill: #fff;
      }

      .st0, .st1 {
        fill-rule: evenodd;
      }
    </style>
  </defs>
  <path class="st0" d="M116.21,40.05c-13.9-11.3-36.16-14.97-51.04-3.57-11.56,10.7-16.34,41.09-14.29,56.37.57,9.8,8.05,20.9,19.03,17.8,1.87-.18,3.68-.9,5.56-1.05,2.25-.26,4.52-.26,6.77.05,4.9.69,9.24,3.29,13.99,4.51,8.82,2.26,18.66.74,26.25-4.34,25.08-16.5,13.72-53.81-6.27-69.78Z"/>
  <path class="st1" d="M114.36,114.44c.26-.09.52-.18.77-.28.02.06.04.12.08.17.04.09.07.18.11.26-.32,0-.64-.06-.96-.16ZM113.84,4.96c-.11-.26-.25-.5-.39-.74.36.12.72.28,1.04.48-.22.07-.44.16-.65.25ZM58.95,38.39s-.03,0-.04,0c.19-.5.52-.98.89-1.32.07-.06.14-.12.21-.18-.39.47-.75.97-1.06,1.5ZM159.38,90.87c-.19-1.76-.42-3.52-.73-5.26-.29-1.67-.54-3.46-1.39-4.94-.85-1.48-1.69-2.91-2.7-4.21.14-.66.33-1.29.5-1.79.95-2.9,1.89-6.57-.09-9.26-.46-.62-1.02-1.1-1.66-1.53-.27-.18-.72-.35-.93-.6-.15-.18-.1-.08-.1-.17-.04-.48,1.08-1.49,1.35-1.86.49-.7.86-1.49,1.13-2.29,1.1-3.19.35-6.7-.31-9.89-.35-1.69-.74-3.39-.86-5.12-.12-1.62.1-3.21.23-4.82.13-1.59.09-3.24-.59-4.71-.33-.72-.84-1.35-1.45-1.85-.6-.48-1.35-.76-1.93-1.25-.58-.48-.42-1.13-.26-1.79.21-.9.47-1.79.5-2.72.05-1.62-.61-3.2-1.65-4.43-1.07-1.27-2.59-2.12-4.23-2.31-.75-.09-1.49.06-2.24,0-.74-.05-.9-.42-1.04-1.1-.32-1.55-.19-3.08-.95-4.52-.68-1.28-1.88-2.16-3.21-2.67-2.44-.94-5.27-.75-7.84-.19-1.52-4.46-6.25-7.39-10.91-7.43-.73-1.23-1.96-2.16-3.36-2.7-2.32-.9-4.79-.37-7.21-.37h-.01c-.24-.01-.49-.02-.73-.02-.23-.01-.46-.03-.68-.06-2.75-.33-5.48-1.45-8.21-.35-1.22.49-2.18,1.25-2.8,2.22-.92.25-1.83.54-2.73.87-3.87.1-7.71,2.18-9.67,5.55-2.76-.31-5.75.22-7.57,2.47-.47.59-.84,1.28-1.09,2.01-1.86.6-3.58,1.67-4.71,3.29-1.03,1.47-1.22,3.38-.53,4.96-1.66,1.2-2.96,2.92-3.58,4.96-.38,1.24-.44,2.51-.19,3.73-1.7.38-3.32,1.08-4.76,2.12-1.51,1.1-3.39,2.85-3.49,4.86,0,.15,0,.3.01.44-3.32-.23-6.71.33-8.96,2.99-1.69,2-2.42,4.57-1.97,6.92-3.95.8-7.69,2.87-10.3,5.93-1.89,2.22-3.58,5.04-3.48,8.07.03.91.25,1.83.61,2.68h0c-.16.3-.32.63-.48.98-2.45,1.71-4.23,4.4-5.23,7.36-.81,2.4-1.32,5.51-.45,7.96.13.37.3.72.49,1.05-.16.17-.32.35-.47.52-1.65,1.93-3.32,4.36-3.21,7.02.05,1.07.44,2.15,1.09,3.03-2.28,2.31-4.12,5.24-3.94,8.5.16,2.84,1.71,5.72,4.15,7.08-.41,2.19.14,4.5,1.84,6.2.85.85,1.85,1.42,2.91,1.72.24,2.58,2.52,4.65,4.95,5.25.45.11.9.18,1.35.21,2.18,1.07,4.79.95,7.02-.03.66.83,1.51,1.52,2.51,2,.4.2.83.36,1.28.5,3.15.93,6.38-.33,9.13-1.81.09-.05.25-.11.4-.17.38.43,1.07.85,1.43,1.05,1.23.7,2.72,1.03,4.13.94,1.65-.11,3.11-.65,4.45-1.43.2.03.4.05.59.06,1.27.07,2.4-.33,3.41-.97.67.09,1.36.08,2.06-.04,1.54.39,3.03-.23,4.23-1.22.53-.44.98-.95,1.46-1.44.5-.51.88-.63,1.47-.97,1.38-.81,1.55-2.86.95-4.35.11-.26.18-.55.18-.87,0-2.8-1.3-5.37-2.88-7.62-.71-1-1.48-1.98-2.32-2.87-.68-.71-1.63-1.87-2.63-2.16-.06-.04-.12-.09-.19-.13.19-.68.31-1.37.26-2.08-.05-.73-.29-1.42-.66-2,1.26-2.45,1.79-5.13,1.54-7.93,1.03-1.46,1.8-3.06,2.21-4.83.25-1.09.39-2.24.37-3.36,0-.54-.2-1.22-.21-1.77.03.18.26-.48.35-.64,1.02-1.89,2.33-3.37,2.54-5.6.13-1.3-.18-2.75-.96-3.81.5-1.97.49-4.09-.29-5.98-.21-.5-.45-1-.73-1.46.13-.39.25-.79.4-1.15.06-.14.12-.29.18-.43.57-.51,1.11-1.06,1.55-1.6.99-1.2,1.75-2.57,1.85-4.16.05-.79-.14-1.55-.37-2.3-.1-.34-.16-.72-.28-1.05-.07-.18-.23-.37-.29-.55-.01-.04-.02-.07-.03-.1,0-.03.01-.08.01-.18,0-.76.1-1.5.11-2.23.7.7,1.53,1.23,2.48,1.53,1.92.61,3.91.34,5.61-.61,1.83,1.25,3.88,2.38,6.03,2.84,1.28.27,2.56.16,3.84.33,1.27.17,2.51.72,3.71,1.16,2.67.97,5.33,1.96,8.01,2.9,2.16.76,4.5,1.36,6.77.93.64.98,1.46,1.81,2.52,2.42.76.43,1.59.73,2.45.87.76.13,1.65.08,2.27.6.6.51.98,1.26,1.52,1.83.6.64,1.35,1.19,2.12,1.59.62.32,1.26.55,1.91.7-.06,1.44-.11,2.88-.13,4.33-.03,3.14-.02,6.28-.06,9.42-.04,3.13-.14,6.26-.31,9.39-.16,2.93-.38,5.88-1.08,8.74-2.32,9.5-11.01,16.3-20.74,16.64-2.89.1-5.75-.3-8.51-1.15-2.86-.88-5.41-2.69-8.35-3.25-.77-.14-1.49.63-1.05,1.37.76,1.28,1.68,2.05,2.93,2.82,1.32.8,2.78,1.39,4.23,1.91,2.66.96,5.48,1.51,8.3,1.66,2.15.12,4.32-.03,6.43-.43.15.45.41.9.61,1.32.03.06.13.02.11-.04-.03-.11-.05-.2-.06-.27.71.93,1.81,1.57,2.93,1.88.79.22,1.64.29,2.46.19.26-.03.52-.07.76-.13.83.73,1.9,1.22,2.97,1.46-.18,1.12.37,2.33,1.65,2.65.54.13,1.05.14,1.57.09.42.19.86.35,1.34.45.62.14,1.36-.04,1.83-.49.25.18.49.3.73.59.97,1.18,3.07.24,3.17-1.12.31,0,.62,0,.93.01.07.03.15.07.22.1,1.36.63,2.76,1.18,4.27.69.28-.09.53-.21.76-.34,1.06.1,2.1.1,3.18-.25.63-.21,1.23-.53,1.73-.96,1.66.49,3.4.71,5.05.1,1.23-.45,2.23-1.16,2.93-2.1,1.07.04,2.15-.22,3.13-.73,1.67-.87,2.85-2.51,3.66-4.16,1.8-3.64,2.87-7.55,3.28-11.59.41-3.97-.18-7.93-.59-11.88Z"/>
</svg>