<svg width="141" height="129" viewBox="0 0 141 129" fill="none" xmlns="http://www.w3.org/2000/svg">
<path fill-rule="evenodd" clip-rule="evenodd" d="M96.6638 40.0517C82.7687 28.7538 60.5018 25.0854 45.6279 36.4837C34.0707 47.1808 29.288 77.5785 31.3333 92.8532C31.9021 102.65 39.3841 113.755 50.3673 110.656C52.2323 110.473 54.0433 109.757 55.9255 109.608C58.177 109.348 60.4456 109.344 62.6926 109.661C67.589 110.354 71.9295 112.955 76.6817 114.171C85.4998 116.427 95.3387 114.909 102.929 109.828C128.012 93.33 116.65 56.0192 96.6638 40.0517Z" fill="white"/>
<path fill-rule="evenodd" clip-rule="evenodd" d="M94.8129 114.442C95.0708 114.353 95.3284 114.26 95.584 114.165C95.6009 114.225 95.6284 114.281 95.6603 114.337C95.6962 114.425 95.7321 114.512 95.772 114.598C95.4511 114.601 95.1298 114.543 94.8129 114.442ZM94.2974 4.95835C94.1834 4.70282 94.0522 4.45766 93.9043 4.22073C94.2634 4.33719 94.6228 4.49781 94.9482 4.70494C94.7284 4.77891 94.5127 4.86345 94.2974 4.95835ZM39.412 38.3856C39.3972 38.3831 39.3827 38.381 39.3681 38.3785C39.5565 37.8765 39.8922 37.4027 40.263 37.0605C40.3296 36.999 40.4016 36.9421 40.4713 36.8834C40.0777 37.3524 39.7207 37.8526 39.412 38.3856ZM139.838 90.8743C139.652 89.1117 139.416 87.3556 139.109 85.6096C138.816 83.938 138.568 82.15 137.717 80.6663C136.872 79.189 136.025 77.7537 135.019 76.4541C135.163 75.7905 135.353 75.167 135.518 74.664C136.468 71.7685 137.405 68.091 135.429 65.4005C134.971 64.777 134.411 64.2994 133.77 63.8682C133.498 63.6843 133.046 63.5174 132.837 63.2637C132.689 63.0841 132.74 63.1813 132.733 63.0925C132.697 62.6149 133.817 61.6067 134.079 61.2284C134.569 60.5286 134.935 59.7405 135.213 58.9353C136.316 55.7481 135.566 52.2376 134.903 49.0439C134.552 47.3512 134.166 45.654 134.039 43.9252C133.921 42.302 134.142 40.7169 134.273 39.1022C134.4 37.5084 134.366 35.8643 133.684 34.3888C133.35 33.6703 132.845 33.0362 132.23 32.5416C131.631 32.0579 130.882 31.7768 130.297 31.2949C129.714 30.8149 129.881 30.1663 130.033 29.5026C130.242 28.6023 130.506 27.7083 130.532 26.7783C130.578 25.1573 129.917 23.5783 128.884 22.3527C127.819 21.0867 126.298 20.2305 124.654 20.0382C123.902 19.9494 123.163 20.0997 122.415 20.0468C121.675 19.9961 121.515 19.6262 121.375 18.9499C121.055 17.4007 121.185 15.8706 120.423 14.4249C119.747 13.1399 118.544 12.2689 117.216 11.7556C114.78 10.8129 111.947 11.0074 109.378 11.563C107.861 7.09951 103.126 4.17231 98.4679 4.13638C97.7409 2.9021 96.5092 1.98061 95.1045 1.43934C92.7806 0.541103 90.3191 1.06546 87.8982 1.06546H87.8876C87.6444 1.05046 87.4015 1.04433 87.1587 1.04644C86.9304 1.03355 86.7022 1.01453 86.474 0.989377C83.7191 0.663686 80.9937 -0.464924 78.2642 0.640649C77.0473 1.1331 76.0797 1.89184 75.4672 2.85983C74.544 3.11112 73.6332 3.39877 72.7397 3.7327C68.867 3.83394 65.0304 5.91151 63.0721 9.27853C60.3151 8.96574 57.3235 9.49623 55.5001 11.7492C55.0252 12.3355 54.6573 13.0243 54.4135 13.7556C52.5544 14.3571 50.834 15.4288 49.7082 17.0431C48.6808 18.5162 48.4835 20.4209 49.1783 22.0022C47.5186 23.205 46.2216 24.9269 45.5969 26.9601C45.2173 28.1954 45.1609 29.4718 45.4051 30.6877C43.7059 31.0647 42.0806 31.7637 40.6406 32.8126C39.1315 33.9114 37.2468 35.6603 37.1475 37.6732C37.1401 37.821 37.1458 37.9687 37.1576 38.116C33.8354 37.8825 30.448 38.4455 28.2024 41.11C26.5163 43.1092 25.7834 45.6836 26.2334 48.0275C22.2806 48.8306 18.543 50.8976 15.936 53.9538C14.0411 56.175 12.3573 58.9987 12.4585 62.0229C12.4902 62.934 12.7038 63.8513 13.0735 64.6988V64.7007C12.9151 64.9989 12.7522 65.3307 12.5959 65.6837C10.1473 67.3975 8.3684 70.084 7.36699 73.045C6.55805 75.4436 6.04889 78.5592 6.91277 81.0003C7.04396 81.3722 7.21087 81.7231 7.40523 82.0483C7.24235 82.2219 7.08833 82.3952 6.93833 82.5706C5.28812 84.5 3.61699 86.9305 3.73129 89.5872C3.77777 90.6568 4.17474 91.7326 4.82354 92.6159C2.54164 94.9303 0.703825 97.8512 0.885304 101.112C1.04164 103.951 2.5989 106.834 5.03882 108.197C4.63129 110.384 5.17636 112.692 6.87896 114.4C7.72847 115.254 8.72967 115.816 9.79044 116.116C10.0271 118.692 12.3128 120.766 14.7402 121.362C15.1926 121.474 15.6447 121.541 16.0945 121.573C18.279 122.645 20.8839 122.522 23.1128 121.539C23.7698 122.374 24.6254 123.055 25.6226 123.543C26.0261 123.742 26.4531 123.906 26.8987 124.039C30.0466 124.971 33.2749 123.708 36.0275 122.233C36.1163 122.186 36.279 122.127 36.4226 122.061C36.8029 122.486 37.4959 122.907 37.8571 123.114C39.0827 123.818 40.5806 124.145 41.9876 124.052C43.6376 123.942 45.093 123.397 46.4409 122.621C46.6376 122.655 46.836 122.674 47.0348 122.685C48.3024 122.752 49.4325 122.351 50.4489 121.717C51.1205 121.806 51.8092 121.797 52.5064 121.675C54.0425 122.065 55.5383 121.444 56.7402 120.457C57.2728 120.02 57.7226 119.506 58.2045 119.016C58.705 118.506 59.0855 118.388 59.6705 118.046C61.0545 117.236 61.2212 115.184 60.6212 113.7C60.7353 113.44 60.801 113.151 60.801 112.83C60.7966 110.027 59.5059 107.457 57.9214 105.215C57.2135 104.215 56.4447 103.236 55.6015 102.349C54.9233 101.636 53.9707 100.48 52.9672 100.191C52.9059 100.146 52.8423 100.102 52.779 100.06C52.9735 99.3791 53.0874 98.686 53.039 97.978C52.9881 97.2508 52.7536 96.5618 52.3778 95.9744C53.6388 93.5291 54.1714 90.8471 53.9179 88.0488C54.9445 86.5924 55.7221 84.9842 56.1233 83.2215C56.3705 82.131 56.5123 80.9833 56.493 79.8651C56.4846 79.3285 56.2881 78.6498 56.2841 78.0942C56.3137 78.2696 56.5418 77.6144 56.6306 77.4515C57.6487 75.5601 58.9564 74.0849 59.1742 71.8551C59.3008 70.5509 58.9923 69.1097 58.2106 68.0403C58.7113 66.0662 58.705 63.9462 57.917 62.0633C57.7057 61.5603 57.463 61.0678 57.1841 60.6007C57.3128 60.2076 57.4313 59.8103 57.5832 59.4529C57.6425 59.3113 57.7015 59.1678 57.7606 59.024C58.3332 58.5187 58.8658 57.9673 59.3137 57.426C60.3064 56.2279 61.0651 54.8541 61.1602 53.2709C61.2066 52.4783 61.0207 51.7196 60.7904 50.9674C60.6888 50.6271 60.6275 50.2488 60.5071 49.917C60.4397 49.7329 60.2768 49.545 60.22 49.3717C60.2071 49.3336 60.1966 49.3019 60.1881 49.2766C60.1966 49.2512 60.2031 49.1984 60.2031 49.0988C60.205 48.3401 60.3043 47.5982 60.3087 46.8672C61.0038 47.5689 61.8404 48.0928 62.7911 48.3995C64.7071 49.0145 66.7059 48.7355 68.4022 47.7866C70.2278 49.0378 72.279 50.1704 74.4299 50.625C75.7078 50.8953 76.9883 50.7835 78.2705 50.9505C79.5444 51.1174 80.7763 51.6733 81.9761 52.1066C84.6468 53.0724 87.3106 54.0634 89.9895 55.0042C92.1529 55.7629 94.4937 56.3653 96.7587 55.9383C97.3947 56.9188 98.2207 57.7475 99.2792 58.3562C100.037 58.7894 100.87 59.083 101.73 59.2291C102.49 59.358 103.382 59.3073 103.999 59.8293C104.601 60.3365 104.977 61.093 105.518 61.6638C106.12 62.3021 106.863 62.8558 107.643 63.2532C108.268 63.5723 108.907 63.8025 109.555 63.9527C109.498 65.3963 109.443 66.8377 109.426 68.2833C109.395 71.424 109.407 74.5644 109.365 77.7053C109.323 80.8352 109.224 83.9655 109.059 87.0914C108.902 90.0249 108.682 92.9688 107.983 95.8307C105.663 105.327 96.974 112.126 87.2473 112.472C84.3594 112.576 81.5008 112.17 78.7395 111.32C75.8792 110.439 73.3247 108.626 70.3923 108.068C69.6254 107.924 68.9029 108.696 69.3423 109.437C70.0989 110.712 71.0177 111.49 72.2747 112.257C73.5911 113.058 75.0571 113.652 76.5043 114.172C79.1663 115.127 81.9827 115.681 84.8073 115.835C86.9621 115.953 89.1254 115.805 91.236 115.4C91.3841 115.854 91.6461 116.296 91.8444 116.716C91.874 116.778 91.9735 116.735 91.9545 116.672C91.9226 116.566 91.9017 116.473 91.8932 116.397C92.6029 117.323 93.6994 117.963 94.8256 118.274C95.6198 118.494 96.463 118.561 97.2806 118.468C97.5447 118.439 97.7959 118.394 98.0454 118.34C98.8775 119.069 99.9423 119.555 101.011 119.798C100.828 120.914 101.379 122.131 102.657 122.448C103.194 122.581 103.709 122.583 104.225 122.535C104.641 122.729 105.089 122.881 105.564 122.985C106.183 123.12 106.923 122.947 107.39 122.499C107.645 122.679 107.884 122.803 108.12 123.088C109.095 124.264 111.194 123.327 111.287 121.968C111.596 121.968 111.906 121.973 112.217 121.983C112.291 122.017 112.365 122.051 112.441 122.087C113.799 122.718 115.206 123.27 116.709 122.774C116.985 122.683 117.239 122.567 117.469 122.431C118.528 122.526 119.571 122.528 120.645 122.182C121.278 121.977 121.874 121.651 122.371 121.224C124.027 121.711 125.774 121.93 127.422 121.328C128.656 120.878 129.649 120.168 130.348 119.231C131.417 119.269 132.503 119.012 133.481 118.502C135.154 117.636 136.327 115.989 137.144 114.339C138.945 110.697 140.009 106.785 140.428 102.75C140.84 98.7769 140.252 94.8247 139.838 90.8743Z" fill="black"/>
</svg>
