<?xml version="1.0" encoding="UTF-8"?>
<svg id="Layer_1" xmlns="http://www.w3.org/2000/svg" version="1.1" viewBox="0 0 127.44 187">
  <!-- Generator: Adobe Illustrator 29.4.0, SVG Export Plug-In . SVG Version: 2.1.0 Build 152)  -->
  <defs>
    <style>
      .st0 {
        fill: #fff;
      }

      .st0, .st1 {
        fill-rule: evenodd;
      }
    </style>
  </defs>
  <path class="st0" d="M102.07,59.98c-2.18-7.86-10.49-11.29-17.99-11.83-20.28-2.11-40.93,9.2-49.92,27.55-7.2,13.93-7.42,28.56,8.05,36.51.85.47,1.73.96,2.63,1.42.78.73,1.59,1.43,2.47,2.02,8.43,5.54,18.77,7.94,28.79,7.42,14.8-.3,20.08-10.34,23.31-23.23,3.41-12.82,5.32-26.74,2.66-39.85Z"/>
  <path class="st1" d="M111.78,134.06c-.69-2.09-1.56-4.12-2.37-6.17-.17-1.02-.28-2.05-.31-3.09-.11-3.71.58-7.44,1.36-11.06,1.58-7.34,3.26-14.6,4.1-22.07,1.5-13.36.61-27.26-5.47-39.46-5.26-10.57-14.19-19.21-25.71-22.45-3.41-.96-6.91-1.49-10.44-1.7-.44-.07-.87-.14-1.31-.2-4.91-.74-9.88-1.11-14.85-.79-8.23.53-16.39,2.9-23.24,7.58-6.9,4.71-11.81,11.32-14.09,19.38-2.37,8.38-2.17,17.46-6.27,25.33-1.21,2.32-2.62,4.53-3.97,6.77-3.58,3.99-7.46,8.43-8.31,13.92-1.05,6.78,2.85,12.52,6.55,17.81,3.34,4.78,7.87,11.38,4.43,17.27-1.62,2.78-4.22,4.85-6.17,7.39-2.02,2.63-3.6,5.65-4.42,8.87-1.53,6.06-.12,12.37,3.97,17.1,2.13,2.46,4.87,4.09,7.84,5.36,3.04,1.3,6,2.53,8.51,4.74,1.15,1.01,2.2,2.11,3.19,3.27.93,1.45,2,2.8,3.22,4.04,1.34,1.36,3.96-.5,2.73-2.11-.09-.12-.18-.23-.27-.35-.9-1.17-1.8-2.34-2.74-3.48-2.82-4.46-3.9-9.93-2.5-15.14.36-1.36.87-2.64,1.51-3.85.14.35.28.7.44,1.05.61,1.34,1.46,2.92,2.55,4.27.04.93.18,1.85.45,2.75,1.67,5.58,7.27,8.34,12.31,10.48.49.21.98.41,1.46.62,1.32.55,2.71-1.33,1.89-2.46-.22-.3-.42-.6-.62-.91-2.37-3.67-3.49-8.05-2.85-12.42.67-4.62,3.39-8.44,6.1-12.11,2.65-3.61,5.5-7.29,6.69-11.68,1.31-4.86.12-9.7-1.91-14.18-1.86-4.09-4.33-7.86-6.41-11.84.71.71,1.44,1.39,2.2,2.06.85.74,1.72,1.59,2.73,2.12.74.39,1.49-.54.9-1.17-.77-.82-1.77-1.46-2.63-2.2-.83-.71-1.63-1.44-2.41-2.19-.96-.93-1.88-1.9-2.76-2.9-.71-1.8-1.29-3.65-1.76-5.53-.64-2.54-1.24-5.24-1.19-7.88.05-2.7,1.45-4.59,3.32-6.41.79-.77,1.59-1.53,2.39-2.29,1.7-1.25,3.3-2.64,4.85-4.03,2.77-2.48,5.45-5.09,8.01-7.78.69-.72,1.37-1.45,2.04-2.19,2.35-2.41,4.59-4.93,6.7-7.54,2.1-.77,4.12-1.78,6.01-2.97-.82.83-1.66,1.66-2.48,2.49-1.84,1.85-3.76,3.71-5.9,5.22-.22.16-.09.49.18.44,2.72-.54,5.26-1.45,7.64-2.89,2.41-1.47,4.54-3.46,6.53-5.46,1.12-.51,2.21-1.16,3.2-1.8.05-.03.11-.07.16-.1-.98,3.09-2.41,6.6-5.46,7.7-.1.04-.09.2.03.19,2.57-.15,4.64-1.31,6.27-3,1.31-.94,2.56-1.95,3.76-3.04,1.16-1.06,2.25-2.19,3.3-3.36-1.46,2.88-3.09,5.71-4.69,8.49-.08.15.09.35.25.25,3.4-2.3,5.97-5.27,8.08-8.78.31-.52.61-1.04.9-1.57-.22.83-.46,1.65-.71,2.47-.46,1.48-.92,2.97-1.38,4.45-.25.8-.55,1.58-.89,2.35-.24.55-.55,1.1-.6,1.7,0,.04.04.07.08.06,1.35-.34,2.61-1.88,3.58-2.84.54-.53,1.04-1.12,1.5-1.73.09,3.55.15,7.1.07,10.67-.15,6.54-.57,13.08-1.11,19.61-.48,5.77-.83,11.82-4.05,16.83-2.49,3.88-6.52,6.56-10.91,7.86-.39.12-.78.22-1.17.31-6.35,1.51-12.67-.2-18.28-3.22-1.69-.91-3.13,1.55-1.5,2.57,6.09,3.79,13.81,5.08,20.7,3.38-.22,8.14,3.79,15.87,7.79,22.77,2.23,3.87,4.47,7.71,6.05,11.9,1.34,3.56,2.25,7.25,2.56,11.05.36,4.48,0,8.98-.62,13.42-.03.24-.07.48-.1.73-.14.95.72,1.75,1.64,1.26,4.1-2.16,5.87-6.75,6.94-11,1.01-3.98,1.69-8.04,2.07-12.12.56,1.54,1.01,3.12,1.36,4.73.05.23.1.46.14.69.27,1.35,2.3,1.25,2.63,0,.06-.23.12-.45.17-.68,1.68-6.79,2.13-13.88,1.25-20.83-.47-3.65-1.25-7.26-2.4-10.76Z"/>
</svg>