<svg width="103" height="120" viewBox="0 0 103 120" fill="none" xmlns="http://www.w3.org/2000/svg">
<path fill-rule="evenodd" clip-rule="evenodd" d="M101.029 105.921C98.6189 94.6009 97.0727 83.1351 95.6889 71.6546C95.0191 66.0939 94.4846 60.5187 93.8654 54.9539C93.2867 49.7692 92.6126 44.5679 91.2605 39.5209C90.0036 34.831 88.1654 30.1876 85.457 26.1384C82.9177 22.3423 79.7253 19.0896 76.06 16.3738C68.8175 11.0076 59.5555 8.15225 50.5473 9.0991C49.1865 9.24281 47.8386 9.47319 46.5055 9.78176C46.9302 9.65706 47.3593 9.54061 47.7922 9.43937C47.9316 9.40577 47.8697 9.21788 47.733 9.23035C11.0836 12.5614 2.46259 76.3233 1.67879 89.1797C1.61752 90.1796 1.56914 91.177 1.53322 92.1767C1.25836 94.4066 1.05343 96.6427 0.95625 98.8849C0.846603 101.472 0.899419 104.076 1.13794 106.654C1.38301 109.298 1.66188 112.008 2.76491 114.438C3.44076 115.935 34.9619 113.885 35.2872 112.118C35.9464 108.55 36.2844 104.868 36.0776 101.24C35.9804 99.4999 35.8006 97.7732 35.4288 96.0697C35.3274 95.6048 35.2196 94.7319 34.9473 94.0408C37.8224 88.5755 40.9851 83.2661 44.2408 78.0183C51.0163 67.0915 58.2203 56.3676 63.7577 44.7304C66.5339 38.8995 69.2696 32.7071 70.5795 26.3178L70.7908 26.3601C70.7654 26.4362 70.7823 26.5313 70.8584 26.5841C76.8774 30.7456 80.9001 37.0523 83.5072 43.8051C86.5429 51.6672 88.0154 60.1571 87.8041 68.5815C87.4684 81.9684 82.3959 98.5129 68.0443 102.744C64.7696 103.71 61.2332 103.983 57.8781 103.277C56.2957 102.943 54.745 102.429 53.3168 101.668C51.7323 100.825 50.4309 99.631 48.9459 98.6484C47.5872 97.7502 45.9837 99.5021 46.7654 100.831C48.4915 103.769 52.2055 105.566 55.3957 106.449C58.7992 107.394 62.3889 107.438 65.8555 106.838C66.1196 106.794 66.3816 106.743 66.6415 106.688C66.7006 107.559 67.0746 108.425 67.683 109.129C67.9555 109.446 68.2915 109.721 68.6675 109.951C68.7163 110.801 69.2635 111.655 70.1529 111.841C74.9041 112.83 94.6365 110.237 99.3816 108.822C100.656 108.442 101.3 107.193 101.029 105.921" fill="black"/>
<path fill-rule="evenodd" clip-rule="evenodd" d="M88.636 65.0998C88.2802 48.4917 84.1438 30.1055 69.9646 19.8423C69.0614 19.1878 67.7059 19.5048 66.9574 20.2523C66.3428 20.3724 65.7783 20.7448 65.4029 21.4296C57.0183 36.7387 48.1918 51.8059 38.9272 66.5987C32.9788 76.1636 25.753 85.7405 24.7998 97.3341C24.6348 97.5533 23.1033 99.283 23.9957 99.157C24.3918 98.9497 24.7951 98.7793 25.2194 98.6534C26.3522 100.305 28.9827 100.046 29.608 98.181C31.776 98.2433 33.9217 98.7975 35.9872 99.4404C41.0537 101.027 46.2029 102.595 51.3734 103.808C68.4071 108.33 86.7101 102.576 88.071 82.7095C89.8994 80.1325 88.9102 68.6471 88.636 65.0998V65.0998Z" fill="white"/>
</svg>
