<?xml version="1.0" encoding="UTF-8"?>
<svg id="Layer_1" xmlns="http://www.w3.org/2000/svg" version="1.1" viewBox="0 0 127.92 117.49">
  <!-- Generator: Adobe Illustrator 29.4.0, SVG Export Plug-In . SVG Version: 2.1.0 Build 152)  -->
  <defs>
    <style>
      .st0 {
        fill: #fff;
      }

      .st0, .st1 {
        fill-rule: evenodd;
      }
    </style>
  </defs>
  <path class="st0" d="M113.14,33.92c-.47-1.18-1.3-2.67-2.69-2.73-1.07-3.28-3.74-6.62-7.45-6.53-10.89-11.14-24.6-10.61-38.94-8.25-7.56,1.4-15.24,4.15-20.88,9.57-6.76,6.38-9.39,17.51-4.1,25.58-4.57,2.45-4.66,8.26-2.71,12.46-2.35,1.63-2.49,5.57.15,6.81-.14.58-.04,1.17.23,1.68-1.31,1.09-3.02,1.9-4.43,2.59-.62.31-.98.81-1.13,1.37-4.64,3.04-16.2,10.47-16.06,16.39-.07,3.09,2.22,5.12,5,5.93-1.66,3.31-2.91,7.17-1.33,10.74.44,1.08,3.72,4.25,3.88,4.31.29.25,5-1.91,7.28-3.02.44,2.89,3.53,4.4,6.19,3.41,2.52-.76,4.07-2.9,5.66-4.84,2.11,4.61,8.32,4.66,12.34,2.67,3.61-1.67,6.35-4.72,7.87-8.4,8.11,3.97,17.6,5.13,26.41,3.54.57,1,1.82,1.67,2.93,1.29,4.68-1.41,9.86-1.49,13.84-4.71,8.28-5.94,8.97-16.89,8.4-26.23-.51-9.31-.06-18.7-1.76-27.9.73-2.71,1.96-5.11,3.09-7.66,1.23-2.67,1.2-6.64-1.81-8.07Z"/>
  <path class="st1" d="M36.18,73.44c.49-.12.75.53.34.8-2.63,1.67-5.34,3.17-7.88,4.99-2.42,1.73-4.65,3.7-6.73,5.82l-.23.24c-1.88,1.94-3.96,4.4-3.99,7.25-.02,2.22,1.69,4.64,4.08,4.35.9-.11,1.73,1.03,1.41,1.85l-.33.87c-1.33,3.51-2.68,7.48-1.63,11.17l.04.13c.25.85.52,1.59,1.5,1.57.91-.02,1.86-.32,2.71-.62,1.77-.61,3.37-1.62,4.73-2.9,1.2-1.13,2.74.02,2.58,1.45v.05c-.23,1.61,2.34,2.36,3.5,2.13,2.3-.45,3.94-2.76,5.25-4.52.63-.84,2.15-1.18,2.71,0,1.09,2.33,3.35,4.07,5.98,4.15,1.37.04,2.68-.35,3.84-1.08.47-.3.9-.65,1.29-1.04l.1-.1c.57-.61.97-.93,1.71-1.33.72-.39,1.66.09,1.65.95,0,1.11-.33,1.84-1.09,2.65-.63.67-1.38,1.25-2.17,1.72-1.59.94-3.47,1.46-5.32,1.4-2.91-.1-5.69-1.55-7.49-3.8-1.84,2.2-4.12,4.22-7.08,4.16-2.22-.04-4.29-1.2-5.28-2.99-1.4.96-2.93,1.72-4.58,2.21l-.15.04c-2.32.68-5,.95-6.5-1.36-1.4-2.17-1.51-5.17-1.19-7.64.29-2.21.97-4.31,1.75-6.39-2.23-.66-3.95-2.75-4.55-5.01-.9-3.41.84-6.71,3-9.24,2.34-2.75,5.28-5.08,8.25-7.11,2.96-2.03,6.27-3.94,9.77-4.82ZM112.21,46.79c0-.09.16-.13.17-.02,1.02,7.41,1.61,14.81,2.1,22.27.25,3.78.53,7.56.84,11.33.3,3.62.79,7.34.68,10.97-.17,5.69-2.94,10.32-7.47,13.65-4.34,3.19-9.73,4.77-15.02,5.44-3.07.39-6.18.41-9.26.04-1.6-.19-3.19-.44-4.75-.82l-.68-.17c-1.23-.31-2.61-.74-2.78-2.2-.09-.71.29-1.23.9-1.58.79-.46,1.7-.19,2.51.02,1.37.35,2.76.66,4.16.87,3.01.45,6.11.48,9.13.17,5.09-.53,10.46-2.18,14.39-5.59,1.71-1.48,3.19-3.29,3.97-5.43,1-2.76.85-5.77.82-8.65-.08-6.72,0-13.43-.1-20.15-.09-6.74-.01-13.42.39-20.15ZM61.01,15.41c5.95-1.53,11.99-1.93,18.1-1.47,5.76.44,12.33,1.72,17.03,5.27.23.17.09.5-.19.45-3.15-.5-6.21-1.41-9.35-2.02-3.01-.58-6.08-1.02-9.15-1.12-10.38-.34-21.93,2.01-30.29,8.48-3.92,3.03-6.92,7.11-8.11,11.97-1.22,4.98-.56,10.36,1.89,14.86.35.65.21,1.67-.53,2.02-2.24,1.05-3.83,3.37-3.8,5.87.02,1.21.44,2.38,1.11,3.38.71,1.06,1.79,1.8,2.59,2.8.31.39.33.93.08,1.29.47.2.97.31,1.43.55.39.2.4.84,0,1.04-1.01.51-2.1-.03-2.78-.85-.12-.15-.23-.3-.32-.45-.82-.17-1.55-.58-2.19-1.14-1.22.73-1.38,2.35-.34,3.59.53.63,1.29,1.02,2.06,1.3l.09.03c.75.26,1.43.41,1.91,1.01.32-.67.69-1.29,1.1-1.87,1.49-2.08,3.77-3.93,6.49-3.69,2.12.18,3.97,1.7,4.4,3.8.03.16-.2.28-.27.11-1.02-2.38-4.24-2.46-6.17-1.23-2.26,1.46-3.49,4.2-3.99,6.76-.49,2.52-.21,5.58,1.68,7.5.77.78,1.82,1.33,2.92,1.47.54.07,1.01,0,1.52-.1l.34-.07c.24-.05.47-.09.72-.07l.37.05.21.1c.18.08.16.06-.05-.07.62-.05.95.41.98.92.02.01.04.03.06.05,2.37,2.9,4.13,6.24,6.65,9.05l.74.82c1.89,2.11,4.06,4.39,6.63,5.48l.31.13c.75.32,1.5.75,1.6,1.65.09.81-.55,1.42-1.29,1.61-1.67.43-3.58-1.06-4.8-2.03-2.63-2.1-4.85-4.77-6.68-7.58l-.18-.28c-1.5-2.35-2.92-5.02-3.35-7.81l-.08.13s-.01.02-.01.02c-.09.12-.19.22-.3.32-.31.27-.68.42-1.07.53-.73.2-1.53.24-2.29.16-1.53-.16-2.96-.74-4.16-1.68-3.68-2.88-4.11-8.25-2.62-12.6-1.22.29-2.61-.53-3.56-1.23-1.09-.81-1.99-1.97-2.21-3.34-.21-1.36.65-3.16,1.94-3.69-1.34-1.6-2.11-3.88-2.19-5.7-.14-3.17,1.54-6.16,4.13-7.89-2.43-5.21-2.9-11.25-1.26-16.78,3.25-10.97,14.12-17.11,24.55-19.8ZM51.75,98.78l.03-.1c.26-.85.59-2.54,1.86-1.89,1.21.61.44,2.43.01,3.31-.51,1.06-1.38,1.91-2.56,2.13-.96.18-2.01-.05-2.68-.79-.19-.22-.31-.45-.42-.71-.04-.1-.07-.17-.07-.22-.01.05-.04.12-.12.21-.53.58-1.04,1.26-1.42,1.95-.09.16-.38.05-.31-.13.45-1.1.38-2.81,1.38-3.61.89-.7,1.72-.15,2.19.67l.02.04c.69,1.24,1.78.06,2.08-.88ZM42.11,94.79l.09-.13c.95-1.3,2.55-2.85,4.14-1.65.51.38.53,1.02,0,1.4l-.2.14c-.7.5-1.39.96-1.91,1.67-.56.77-1.06,1.59-1.81,2.2-1.33,1.07-3.47,1.28-4.62-.16l-.11-.14c-.1-.12-.21-.27-.3-.42l-.07.1s-.01.02-.02.03l-.02.02c-.47.76-1.07,1.38-1.81,1.87-1.41.93-3.01,1.06-4.61.57-.16-.05-.11-.26.04-.27,1.9-.18,3.74-1.52,4.51-3.26l.09-.19c.31-.69.66-1.35,1.43-1.62.75-.26,1.54.01,2.05.58.43.47.54,1.42,1.32,1.21.85-.23,1.33-1.29,1.79-1.95ZM36.68,83.27c.42-.32,1.08.02,1.19.49.52,2.09-1.65,4.56-3.74,4.62-.54.02-1.06-.11-1.53-.36-.37-.19-.81-.69-1.21-.77-.52-.11-.99.59-1.36.95-.46.44-.91.86-1.42,1.24-.2.15-.52-.1-.44-.34l.17-.46c.63-1.65,1.71-4.05,3.73-3.37.99.33,1.74,1.46,2.78.57.84-.72.91-1.88,1.82-2.57ZM45.62,74.85c1.89-2.17,6.32-1.02,7.16,1.61.19.58,0,1.34-.46,1.75-.6.54-1.45.71-2.18.28-.63-.37-.88-.97-1.34-1.48-.67-.75-1.59-1.17-2.54-1.47-.24.12-.46.29-.65.48-.1.1-.29-.04-.2-.16.12-.16.27-.31.44-.45l-.08-.02c-.25-.07-.3-.36-.14-.55ZM57.88,50.93c.42,0,.92.4.86.86l-.02.13c-.12.88-.41,1.38-1.29,1.79-.75.35-1.54.54-2.36.62-.31.03-.64.03-.97,0l-.07.41c-.14.81-.27,1.62-.29,2.45-.05,1.53.53,2.79,1.14,4.16,1.18,2.63,1.31,5.25.03,7.87-.19.38-.72.7-1.15.66-.56-.05-.82-.21-1.15-.66-.27-.37-.21-.9-.02-1.3l.02-.04c.65-1.25.85-2.66.52-4.04-.31-1.29-1.01-2.45-1.32-3.74-.51-2.1.03-4.18,1.1-5.98-.8-.23-1.54-.64-2.04-1.27h0c-.19-.2-.09-.62.25-.6l.37.03c1.07.09,2.06.18,3.14-.12.56-.15,1.04-.41,1.51-.72l.1-.07c.6-.4.93-.45,1.63-.45ZM60.45,35.42c2.69-.15,4.98,1.62,6.1,3.98,1.21,2.56.7,5.51-.37,8.03l-.3.71c-.53,1.22-1.23,2.68-2.32,3.33-1.22.74-2.28-.12-1.92-1.48.22-.81.8-1.43,1.27-2.1.44-.62.85-1.27,1.21-1.94.7-1.32,1.23-2.79,1.22-4.31,0-2.76-1.83-5.93-4.89-5.89-.22,0-.21-.32,0-.34ZM74.04,30.97c-.17-.13-.02-.41.17-.29,3.12,1.98,5.44,5.71,5.91,9.37.26,2.03.06,4.2-.8,6.07-.5,1.07-1.35,2.1-2.54,2.4-1.09.27-2.22-.35-2.56-1.42-.13-.41.09-.85.44-1.07,1.11-.73,2-1.66,2.52-2.9.54-1.29.76-2.67.77-4.06.02-3.27-1.29-6.09-3.91-8.08ZM112.12,32.39c-.14-.16.04-.4.23-.3,2.25,1.19,3.69,3.46,4.1,5.94.4,2.43-.14,5.75-2.02,7.51-1.06.99-2.97-.33-2.08-1.61.62-.9,1.3-1.65,1.65-2.71.32-.95.43-1.91.41-2.91-.04-2.18-.82-4.3-2.28-5.92ZM84.57,29.34c3.85-.18,6.18,4.21,6.72,7.49.33,2.02.08,4.11-1.04,5.86l-.07.1c-.92,1.4-2.6,3.02-4.41,2.35-.76-.28-.97-1.1-.45-1.72.79-.95,2-1.34,2.74-2.35.83-1.14,1.1-2.57,1.05-3.95v-.15c-.13-2.55-1.35-7.44-4.55-7.35-.18,0-.18-.27,0-.28ZM96.61,28.61c3.72-.48,5.99,3.91,6.69,6.92.44,1.89.53,3.99-.03,5.86l-.04.13c-.45,1.4-1.8,3.79-3.55,3.08-.48-.2-.97-.73-.74-1.3.29-.73.72-.93,1.28-1.4.43-.36.74-.88.96-1.39.6-1.36.73-2.96.65-4.43v-.17c-.22-2.87-1.78-7.15-5.22-7.07-.16,0-.15-.22,0-.24ZM103.43,24.49c2.07-.79,3.77,1.19,4.96,2.61,1.49,1.77,2.85,3.68,3.61,5.89.68,1.97.8,4.15.19,6.15-.3.99-.78,1.91-1.42,2.72l-.08.1c-.67.82-1.32,1.32-2.42,1.03-.45-.12-.64-.56-.56-.99.17-.91.63-1.14,1.24-1.77.53-.56.93-1.24,1.19-1.97.55-1.49.58-3.1.21-4.64-.41-1.72-1.22-3.3-2.16-4.79l-.2-.32c-.99-1.57-2.41-3.99-4.51-3.74-.18.02-.18-.24-.04-.29Z"/>
</svg>