<svg width="101" height="120" viewBox="0 0 101 120" fill="none" xmlns="http://www.w3.org/2000/svg">
<path fill-rule="evenodd" clip-rule="evenodd" d="M41.8724 17.5157C73.8942 15.9403 76.1307 25.251 80.528 31.1868C82.7102 34.1326 88.3442 38.4952 89.2789 48.5694C89.9277 55.5624 85.7976 63.6227 85.7976 69.8716C85.7976 73.0613 89.7014 79.9091 87.8841 84.5581C83.839 94.9055 75.2742 106.389 64.36 106.389C53.4459 106.389 33.299 100.372 21.2394 83.0978C17.2892 77.4397 9.85058 19.091 41.8724 17.5157Z" fill="white"/>
<path fill-rule="evenodd" clip-rule="evenodd" d="M88.4808 70.4956C87.7815 69.7242 87.2386 69.0901 87.0569 68.0291C86.9808 67.5872 86.947 67.133 86.9323 66.6765C89.74 62.7496 92.47 53.4741 92.4696 48.4008C92.4692 41.2434 89.8308 34.3568 85.4999 28.6609C77.0576 17.5669 63.0041 11.8795 49.2506 12.3256C36.0801 12.7502 22.0714 17.6071 13.8556 27.989C-13.403 62.4338 9.47478 100.058 26.2308 107.885C27.6894 108.567 32.4003 108.33 31.7439 106.875C29.8585 102.695 28.3731 94.9953 28.0266 93.262C28.5632 93.6236 29.1041 93.9766 29.647 94.3422C30.6083 94.9866 31.897 95.7243 33.1055 95.5108C33.1625 95.5004 33.1984 95.4391 33.2006 95.3863C33.2555 94.2511 32.4442 93.0845 31.7301 92.275C30.7393 91.1506 29.797 89.9988 28.7301 88.9441C28.2759 88.494 27.8153 88.048 27.3548 87.6021C27.2956 84.9264 27.4752 82.2382 27.9548 79.5477C28.7851 74.8832 30.2175 70.3392 31.8632 65.867C33.2386 64.8523 34.5738 63.7852 35.8097 62.6183C38.7865 59.8095 41.0576 56.3732 43.0055 52.7591C43.0287 52.7483 43.0541 52.7356 43.0773 52.7253C46.8527 50.9687 50.5963 49.145 54.3104 47.264C56.2266 46.2937 58.1301 45.3003 60.0337 44.3072C61.0689 43.7659 62.1358 43.2735 63.1942 42.7641C62.909 44.2266 62.5245 45.6681 62.0576 47.0862C61.6731 48.251 62.8477 49.1109 63.8872 48.9186C67.4259 48.2636 70.8463 46.9469 73.9245 45.0828C75.4499 44.1592 76.9013 43.0919 78.247 41.9208C79.5928 43.9265 81.228 45.8075 82.878 47.4267C83.9914 48.5194 85.1555 49.559 86.3639 50.5441C85.8168 54.3125 85.3477 58.0891 84.7541 61.8492C84.4435 63.8148 84.0696 65.7801 83.8351 67.7563C83.5794 69.9099 84.2914 71.4443 85.709 73.0189C87.6907 75.2193 87.6886 78.402 86.9301 81.135C86.8372 81.4729 86.721 81.8028 86.6006 82.1302C86.5752 82.1978 86.5013 82.3817 86.4738 82.4538C86.4738 82.4559 86.4738 82.458 86.4717 82.462C86.4717 82.4641 86.4696 82.4665 86.4696 82.4684C86.4675 82.4684 86.4675 82.4705 86.4653 82.4728V82.4768V82.4789L86.4632 82.481C86.3745 82.6882 86.2794 82.8911 86.1844 83.094C85.7513 84.0091 85.2675 84.9033 84.7646 85.7825C82.2928 90.1235 79.1703 94.0947 75.6125 97.5989C73.9562 99.2306 72.2344 100.748 70.2886 101.991C69.8787 102.251 69.4604 102.502 69.0315 102.733C68.8013 102.857 68.5646 102.974 68.328 103.092C67.9815 103.263 68.1252 103.195 67.9139 103.28C67.5315 103.43 67.1407 103.561 66.7414 103.665C66.528 103.72 66.3125 103.766 66.0949 103.806C66.0928 103.806 66.0886 103.808 66.0823 103.808C66.0801 103.808 66.078 103.811 66.0759 103.808C66.0738 103.811 66.0696 103.811 66.0653 103.811C65.9851 103.817 65.8414 103.83 65.8139 103.83C62.7801 103.84 59.7717 103.432 56.8351 102.678C55.2442 102.268 53.6555 101.771 52.1597 101.089C51.3991 100.74 50.6555 100.353 49.9435 99.9153C49.6245 99.719 49.3224 99.4821 48.9865 99.3111C48.4837 99.053 47.9914 99.0807 47.4484 99.0575C46.6203 99.0234 46.033 99.8902 46.2358 100.651C46.483 101.579 46.8717 102.126 47.6703 102.678C48.3083 103.117 48.9844 103.506 49.6731 103.859C51.1731 104.631 52.7597 105.258 54.3653 105.772C57.3717 106.731 60.5365 107.321 63.6844 107.537C65.9766 107.693 67.9625 107.387 70.0499 106.421C72.2534 105.4 74.2287 103.876 76.0562 102.295C80.1484 98.7571 83.7083 94.4646 86.7273 89.9861C89.5646 85.776 91.7661 81.1918 91.0414 75.9651C90.752 73.8685 89.8984 72.0638 88.4808 70.4956" fill="black"/>
</svg>
