<svg width="129" height="122" viewBox="0 0 129 122" fill="none" xmlns="http://www.w3.org/2000/svg">
<path fill-rule="evenodd" clip-rule="evenodd" d="M92.7342 44.2444C92.9644 42.1045 90.4604 36.3956 90.5209 37.5536C86.5064 31.3612 78.6719 28.9261 71.9124 26.8819C57.5629 22.143 46.3577 27.8661 36.2756 38.0095C30.3233 43.5716 24.6597 49.7847 21.6717 57.4844C15.7936 72.1728 24.6045 88.9214 38.0037 95.9383C39.085 96.5237 40.2633 97.0796 41.293 97.7867C46.832 100.988 53.3363 102.096 59.5085 103.489C71.0555 106.129 85.5575 104.871 92.3625 93.8732C96.978 86.068 95.7518 76.6061 95.3906 67.9441C94.8478 60.3547 93.8951 51.7782 92.7342 44.2444Z" fill="white"/>
<path fill-rule="evenodd" clip-rule="evenodd" d="M31.0133 22.5845C38.4942 15.5883 49.5514 12.1974 59.6609 12.7905C65.1364 13.1117 70.4134 14.4842 75.3617 16.8423C76.9092 17.5797 78.4173 18.4428 79.8078 19.4592C80.7459 19.8971 81.663 20.371 82.5514 20.8863C87.0006 23.4647 90.4401 27.3703 92.6415 32.0031C93.6924 34.2143 94.5217 36.546 94.9913 38.9485L95.0669 39.344C95.3065 40.5496 95.7802 42.138 95.1809 43.2661C94.7837 44.0141 93.9513 44.4856 93.1633 44.4222C93.3344 45.1155 93.5394 45.8085 93.6704 46.5061L94.0272 48.4083C94.0863 48.7253 94.145 49.0423 94.2028 49.3594C94.5471 51.2488 94.864 53.136 95.1175 55.0403C95.6478 59.0054 96.1274 62.9788 96.5499 66.9585C96.8528 69.8047 97.1365 72.6538 97.4122 75.5022L97.5767 77.2111C97.8598 80.1529 98.0816 83.1205 97.8892 86.0751C97.5995 90.5074 96.2368 94.5511 93.592 97.8408C93.844 98.4472 93.929 99.1298 94.1187 99.8837C94.3813 100.927 94.7233 101.948 95.0873 102.961C95.2576 103.359 95.4283 103.757 95.5971 104.156L96.041 105.213L96.3874 105.906C96.7626 106.66 97.1256 107.425 97.3561 108.205C98.8506 109.003 100.071 110.306 100.131 112.09C100.184 113.703 99.3471 115.411 97.9337 116.232C96.5392 117.045 95.1034 116.725 93.768 116.105C92.6037 116.444 91.3574 116.487 90.2041 116.125C89.3161 116.929 88.1709 117.484 86.9014 117.634C84.9874 117.861 83.1703 117.325 81.4146 116.62L81.2922 116.571C81.2373 116.55 81.1823 116.526 81.1295 116.503C79.1098 116.406 77.0985 115.607 75.6659 114.191C75.1992 113.732 74.7957 113.208 74.4704 112.621C73.2892 110.484 73.1056 107.861 74.2676 105.741C74.0183 105.752 73.7668 105.762 73.5175 105.769C70.1933 105.864 66.8633 105.694 63.5476 105.475L62.7658 105.422C60.6202 105.268 57.4559 104.904 57.3957 102.243C57.3871 101.903 57.738 101.647 58.0591 101.738C59.2781 102.083 60.476 102.624 61.7394 102.818C63.3915 103.074 65.1026 103.102 66.7718 103.195L67.2518 103.221C70.6176 103.405 74.1041 103.518 77.4154 102.85C79.8871 102.353 82.4626 101.449 84.7274 100.328C86.9014 99.2507 88.8767 97.841 90.4697 96.0001C93.9788 91.9507 94.4436 86.2379 94.2725 81.1147C94.0654 74.9959 93.3469 68.886 92.9415 62.7759L92.758 60.0309C92.6067 57.7419 92.4686 55.4496 92.4112 53.1594C92.3689 51.4877 92.3962 49.8117 92.4047 48.1399C92.4089 47.305 92.3985 46.466 92.4175 45.6311C92.4281 45.162 92.483 44.7033 92.5232 44.2445C92.3373 44.1475 92.164 44.012 92.0077 43.8326C91.8851 43.691 91.7901 43.5409 91.7246 43.3887C90.9366 43.1581 90.5711 42.8517 90.0598 42.1566C89.6288 41.5711 89.1408 41.0301 88.619 40.5228C87.5077 39.4449 86.238 38.5636 84.8962 37.7962C82.1225 36.2092 79.0844 35.1482 76.0211 34.2774C71.3307 32.9459 66.4591 32.2611 61.6992 31.1915C60.3873 33.0218 58.9971 34.7973 57.5436 36.5156C53.0075 41.8755 47.8063 46.6539 42.2328 50.9149C41.0985 51.7836 39.949 52.6395 38.7831 53.4699C37.2469 55.813 35.6945 58.1449 34.1189 60.4611L33.4422 61.4528L33.4316 61.4719C33.3387 61.6135 33.2497 61.7551 33.1612 61.8967C32.9732 62.1968 32.7619 62.4863 32.538 62.7674C32.3922 62.9807 32.2443 63.1941 32.0943 63.4078C32.3816 63.5619 32.6436 63.7354 32.8485 63.9277C33.2668 64.3228 33.1969 64.9507 32.8485 65.3522C31.7246 66.6499 29.9457 64.9591 28.6528 64.509C27.2521 64.9357 26.0838 66.6034 25.5028 67.8777C24.6661 69.7145 24.3302 71.9293 24.7084 73.9181C25.0547 75.7357 25.9887 77.3062 27.5415 78.2911C27.5964 78.3247 27.6554 78.3608 27.7126 78.3923C27.7147 78.3968 27.7147 78.3968 27.7169 78.3945C27.7697 78.4283 27.8246 78.4602 27.8795 78.4898C28.6084 78.8913 29.4091 79.1281 30.2392 79.1849C30.7145 79.2189 31.2112 79.1934 31.6866 79.2506C32.1746 79.3075 32.576 79.5317 33.045 79.6501C33.5626 79.783 33.8964 80.4786 33.5709 80.9455C33.4105 81.1758 33.2584 81.3958 33.0955 81.5924C33.6302 82.2222 34.0948 82.9176 34.5154 83.5789C35.0899 84.4856 35.5992 85.4474 36.064 86.4281C36.4929 86.9924 36.9028 87.5673 37.2999 88.1548C39.5499 91.4899 41.2718 95.2055 42.3302 99.0878C43.3781 102.928 44.033 107.242 43.0633 111.162C42.1697 114.768 39.5605 117.754 35.6985 117.947C34.8926 117.986 34.0999 117.896 33.3545 117.692C31.7172 118.703 29.6882 119.212 27.8723 119.272C26.4032 119.32 24.795 119.01 23.5952 118.122C22.1719 118.741 20.628 119.093 19.2854 119.173C17.7831 119.263 16.2108 118.853 14.9861 118.042C13.8207 119.041 12.5633 119.884 11.1345 120.462C8.67742 121.455 5.75348 121.332 3.50348 119.847C1.24925 118.359 0.102068 115.687 0.7908 113.037C1.4246 110.594 3.41686 108.802 5.28869 107.259L5.65854 106.955C7.51004 105.443 9.37988 103.98 10.5683 101.85C11.8295 99.591 12.2901 96.966 12.4147 94.4087C12.6852 88.7783 11.5401 83.1987 11.1915 77.5979C10.8323 71.8132 11.0331 66.0114 11.8211 60.2691C13.3528 49.1142 17.3838 38.1789 24.6767 29.4838C25.7318 28.2256 26.8612 27.0264 28.0515 25.8898C28.9612 24.6994 29.9445 23.5837 31.0133 22.5845ZM128.022 86.2759C128.063 86.278 128.101 86.2801 128.137 86.2949C128.161 86.305 128.181 86.3213 128.2 86.339L128.377 86.5168C128.441 86.5802 128.437 86.6775 128.377 86.7409C128.326 86.7985 128.232 86.8003 128.171 86.7556L128.153 86.7409L127.969 86.5566C127.949 86.5348 127.932 86.5112 127.923 86.4809C127.915 86.4513 127.915 86.4175 127.913 86.3858C127.91 86.3287 127.965 86.2759 128.022 86.2759ZM28.8998 69.0086C30.5941 68.4948 32.6265 69.7166 33.6364 71.0059C34.1434 71.6526 34.2871 72.5381 33.6364 73.1743C33.0829 73.7154 32.0012 73.8145 31.4667 73.1743C30.8603 72.4451 30.366 71.4347 29.4998 70.9678C28.5596 70.4606 27.3005 70.5874 27.0786 71.8236C27.0406 72.033 26.7406 71.9631 26.7279 71.7752C26.6455 70.524 27.742 69.3571 28.8998 69.0086Z" fill="black"/>
</svg>
