<?xml version="1.0" encoding="UTF-8"?>
<svg id="Layer_1" xmlns="http://www.w3.org/2000/svg" version="1.1" viewBox="0 0 121.19 123.5">
  <!-- Generator: Adobe Illustrator 29.4.0, SVG Export Plug-In . SVG Version: 2.1.0 Build 152)  -->
  <defs>
    <style>
      .st0 {
        fill: #fff;
      }

      .st0, .st1 {
        fill-rule: evenodd;
      }
    </style>
  </defs>
  <path class="st0" d="M99.72,38.96c-6.35-8.74-18.04-11.26-28.18-9.13-19.82,3.61-38.76,18.74-42.26,39.32-5.46,12.45-1.97,32.05,13.92,33.52,2.26.13,4.5-.39,6.77-.11,13.83,2.21,30.18,11.67,42.42.51.61.44,1.42.65,2.11.39,5.21-2.01,5.46-7.84,5.9-12.63.57-6.19,1.11-12.38,1.61-18.58.18-10.69,4.41-24.04-2.29-33.27Z"/>
  <path class="st1" d="M61.3,16.68c8.35-.44,23.72,3.38,31,7.86,11.86,7.3,12.78,21.87,12.3,24.39-.18.96-.77,1.85-1.69,1.56.78,6.62.72,10.4.85,17.06l.09,4.44c.06,2.96.11,5.93.12,8.89.3-.11.6.03.71.31.03.07-.07.11-.11.07-.53-.46-.15.59.03.8.25.29.67.57.96.82l.8.69.8.69c1.03.89,2.03,1.78,2.99,2.74l.26.26c1.75,1.78,3.95,3.5,5.04,5.8,1.04,2.2.72,4.69-1.01,6.44-.63.64-1.36,1.12-2.16,1.49,1.42,2.34,1.63,5.44.15,7.85-1.49,2.42-4.34,3.68-7.09,3.49-.08.35-.22.68-.39,1-1.09,2-3.26,2.26-5.32,2.16h-.08c-4.63-.27-9.09-1.43-13.14-3.69-1.41.1-2.66-1.06-2.94-2.33-.74-.03-1.48-.09-2.24-.18-2.25-.26-4.56-.74-6.54-1.89-.3-.18-.16-.64.18-.65,2.42-.06,4.84.11,7.25-.15,2.21-.24,4.57-.85,6.64-1.68,3.71-1.5,6.89-4.03,8.65-7.55,2.27-4.55,2.07-10.02,2.31-14.97.27-5.47.61-10.94.97-16.41l.18-2.62c.35-5.11.64-7.84,1.53-13.15-2.67.24-13.77-3.76-17.23-10.3-6.55,13.91-39.75,8.22-41.22,29.63-.01.18-.3.13-.31-.04l-.03-.49c-.01-.24-.03-.48-.03-.71v-.24s-.53,0-.53,0c0,.07-.09.09-.12.02-.49-1.4-2.84-.95-3.86-.62-.92.3-1.79.76-2.56,1.33-1.56,1.14-2.77,2.68-3.17,4.6-.76,3.65,1.56,7.36,4.64,9.12,1.94,1.11,4.07,1.83,5.94,3.08,1.65,1.11,3.18,2.41,4.51,3.89,5.26,5.85,8.36,14.73,5.87,22.45-.19.59-.69,1.26-1.36,1.36-1.1.16-2.2,0-2.82-1.05-.24-.41-.35-.88-.33-1.34-.43,1.47-1.81,2.92-3.09,3.46-1.74.74-3.7.52-5.23-.44l-.19.14c-2.49,1.84-5.28,3.51-8.48,3.17-2.32-.25-4.59-1.42-5.87-3.28-1.7.96-3.52,1.72-5.4,2.24l-.2.06c-2.58.7-5.87,1.35-8.28-.08-2.31-1.37-3.08-4.37-2.54-6.87.07-.3.15-.59.25-.87-1.74.09-3.48-.07-5.13-.59-1.69-.52-3.3-1.53-4.11-3.15-.91-1.84-.67-3.93.01-5.81,1.09-3.01,2.84-5.68,5.02-8.01,2.09-2.24,4.62-4.15,7.25-5.73l.44-.26c2.36-1.41,5.21-3.06,8.01-2.95,0-.04-.01-.07-.02-.11-.42-3.11-.37-6.29-.47-9.43-.09-2.89-.19-5.77-.26-8.66-.11-4.91-.07-9.84.57-14.72.57-4.33,1.59-8.55,3.46-12.51,1.96-4.16,4.91-7.72,8.55-10.51,7.64-5.86,17.74-8.86,27.27-9.37ZM35.33,74.38c.83-1.57,2.73-2.06,4.39-1.78,2.33.4,3.91,2.43,5.28,4.19,1.43,1.84-1.55,3.57-2.32,1.79l-.18-.42c-.62-1.41-1.34-2.9-2.6-3.82-1.34-.98-3.22-1.12-4.4.18-.08.1-.23-.03-.17-.13Z"/>
</svg>