<svg width="101" height="120" viewBox="0 0 101 120" fill="none" xmlns="http://www.w3.org/2000/svg">
<path fill-rule="evenodd" clip-rule="evenodd" d="M52.0785 15.9492C64.0744 15.9492 76.4821 25.2512 80.8794 31.187C84.5764 36.1775 86.5669 58.7446 86.5669 73.9956C86.5669 77.1853 88.3264 83.198 87.8129 86.249C85.9313 97.4293 77.7336 106.806 61.5086 106.806C45.2836 106.806 33.6504 100.372 21.5908 83.0979C15.7394 83.0979 12.9035 78.6089 12.8624 71.5247C12.8212 64.4405 18.5105 61.863 18.5105 61.863C18.5105 61.863 16.4819 33.9058 21.5908 26.6271C26.6996 19.3483 40.0826 15.9492 52.0785 15.9492Z" fill="white"/>
<path fill-rule="evenodd" clip-rule="evenodd" d="M47.0311 11.9959C54.6051 11.2287 62.0269 11.8733 69.491 13.2072C70.0614 13.3105 70.3847 13.6848 70.5049 14.1348C74.0206 14.2954 77.5403 14.5535 81.0513 14.7458C82.3255 14.8156 83.0478 16.075 82.4668 17.2123C82.3508 17.4382 82.2302 17.658 82.1077 17.8778L82.2616 17.827C83.3178 17.4881 84.4588 17.3209 85.488 17.859C86.7978 18.5438 87.3114 20.0547 87.022 21.4454C86.9478 21.8005 86.8234 22.1407 86.6818 22.4728C86.9692 22.4538 87.2586 22.4601 87.5459 22.4981C89.0755 22.701 90.2121 23.874 90.2924 25.4359C90.4107 27.7944 88.8917 30.1871 87.1022 31.8755C87.3619 32.4105 87.4614 33.0403 87.3535 33.6786C87.138 34.9403 86.2088 35.6959 85.1318 36.1888C85.5809 37.6156 85.7932 39.1073 85.668 40.6318C85.6261 41.1407 85.1812 41.5611 84.7115 41.6642C86.4621 46.486 87.3482 51.6628 87.9854 56.7071C88.4396 60.296 88.6635 63.9059 88.6908 67.5219C88.7041 69.1544 88.6772 70.7888 88.6087 72.4217L88.5811 73.0339C88.4966 74.7989 88.4924 76.6522 88.1755 78.3982C89.2572 80.2388 89.6924 82.5237 89.8762 84.5863C90.1044 87.1394 89.7431 89.7728 88.938 92.2015C85.8999 101.378 76.7311 107.169 67.5218 108.674C58.9973 110.067 49.1332 108.192 44.1516 100.446C44.0734 100.323 44.2403 100.222 44.3375 100.303C47.9016 103.202 52.0359 104.495 56.5276 105.125C64.2938 106.212 73.0232 104.369 79.2556 99.4825C82.2471 97.1365 84.4042 93.7211 85.353 90.0455C85.8368 88.1668 86.0037 86.2074 85.8133 84.2737C85.6189 82.3124 84.7508 80.6385 84.2037 78.7849C84.0199 78.1591 84.2142 77.5779 84.5966 77.1639C84.7042 75.6589 84.9579 74.1414 85.0549 72.641C85.1626 70.9352 85.2283 69.2296 85.2515 67.5219C85.2959 63.9796 85.148 60.4311 84.8501 56.9039C84.3051 50.4448 82.8579 44.1425 82.0086 37.7384C81.6941 38.0205 81.2434 38.1364 80.7709 37.8899L80.722 37.8631L80.4642 37.7154C80.4494 37.7154 80.4325 37.7175 80.4175 37.7194C78.6537 37.8908 76.8241 37.6456 75.1339 37.1191C73.3654 36.5698 71.7241 35.7244 70.2577 34.5979C69.979 36.0117 69.8626 37.4404 69.8607 38.8818C69.8586 39.7822 68.9058 40.2494 68.1494 39.8648C64.7966 38.1611 61.5938 36.1979 58.5537 33.9914C58.1985 35.8111 57.8438 37.6306 57.4866 39.4524C57.3494 40.1543 56.4556 40.4375 55.883 40.1036C53.6058 38.7782 51.6389 37.0433 50.0375 34.9803C49.7178 35.5919 49.3971 36.2035 49.0742 36.8137L48.5882 37.7278C48.1086 38.6261 47.4663 39.6196 46.4163 39.9068C45.3051 40.2112 44.3774 39.4907 44.0037 38.4845C43.8896 38.1719 43.784 37.8504 43.6868 37.527C42.7401 39.6894 41.6713 41.8029 40.4628 43.8192C38.6501 46.8434 36.4739 49.5381 34.3044 52.3025C33.6452 53.1418 32.517 52.3406 32.4262 51.525C32.3734 51.0452 32.329 50.5633 32.2908 50.0834C31.0266 52.6356 29.7074 55.164 28.2701 57.6191L28.4759 58.4258C29.069 60.8094 29.5614 63.2099 30.0968 65.6062C30.2696 66.3793 29.8589 67.4847 28.9559 67.6163C27.8772 67.7736 26.8566 68.325 25.7516 67.9456C24.5468 67.5318 24.3087 66.4901 23.7399 65.5026C23.6265 65.3059 23.4944 65.1252 23.3525 64.9535L23.3163 65.0005C23.2276 65.1169 23.0163 64.9901 23.0692 64.857L23.1311 64.7031C22.6424 64.1842 22.0576 63.7514 21.5199 63.2858C20.2422 63.0704 18.8049 63.3063 17.9246 63.8256C15.9197 65.0089 14.9987 67.4479 14.9797 69.6905C14.9565 72.3155 15.7697 75.266 17.1429 77.5105C17.7473 78.4975 18.5755 79.3892 19.6697 79.8269C20.7558 80.2621 21.9325 80.127 23.0375 80.5368C23.7685 80.8097 24.2185 81.6213 23.7769 82.3566C23.7473 82.4075 23.7135 82.4538 23.6816 82.5026L24.0103 82.9389C24.2363 83.2412 24.472 83.5648 24.6917 83.9015C25.2537 84.5485 25.8452 85.172 26.4178 85.8081C27.476 86.9809 28.503 88.1858 29.5443 89.3755C30.5269 90.498 31.5663 91.5524 32.6375 92.5901C33.6494 93.5731 34.9128 94.3993 35.8424 95.4478C36.7464 96.4707 36.9917 98.2564 35.5042 98.8484C33.8585 99.5049 32.4017 97.9663 31.2939 96.9405L31.2473 96.8974C29.2166 95.0281 27.3828 92.8917 25.9266 90.5396C24.484 91.522 22.3975 91.6158 20.9611 90.6337C20.2052 90.1169 19.6253 89.2485 19.3435 88.3037C19.0777 88.3633 18.8121 88.3982 18.5531 88.3942C18.4198 88.4715 18.2861 88.5468 18.1509 88.617C17.0795 89.1747 15.7635 88.9255 15.2734 87.7396C14.8271 86.6631 15.287 85.4405 15.689 84.4032L15.772 84.189C16.0002 83.5974 16.2516 82.9528 16.5642 82.3462C15.6938 81.691 14.9499 80.8771 14.3206 79.9516C12.2058 76.8342 11.1494 72.2751 11.6163 68.5556C11.8973 66.311 12.9513 63.9862 14.6774 62.4727L14.6142 62.3079C14.1304 61.0801 13.6908 59.8477 13.4058 58.5503C13.072 57.0328 12.9091 55.4603 12.7614 53.9154C12.4487 50.6521 12.5332 47.3149 12.9494 44.0643C13.7311 37.9457 15.7128 31.9392 19.2304 26.8477C18.233 25.6534 17.4431 24.2479 17.8549 22.6313C18.0431 21.8892 18.4718 21.1857 19.1185 20.7606C19.4753 20.5262 19.9002 20.4903 20.2572 20.2959L20.3645 20.2367C20.5214 20.1452 20.4014 20.1549 20.3079 19.7294C19.9382 18.03 20.2445 16.388 22.1142 15.8237C23.8741 15.2932 25.5389 16.4197 26.5804 17.7618C29.3058 15.8277 32.8973 14.8156 36.0558 13.9554C39.6473 12.9808 43.3316 12.3723 47.0311 11.9959ZM17.5929 68.9972C17.58 67.6129 18.8919 66.759 20.183 66.9854C21.0499 67.1363 21.7731 67.6539 22.4522 68.1888L22.7833 68.4509C23.6102 69.1003 24.5595 69.8005 25.0525 70.7199C25.775 72.0768 24.2478 73.9027 22.8217 72.9516C21.8435 72.2958 21.2165 71.2449 20.5748 70.2688L20.5084 70.1681C20.2168 69.7306 19.9612 69.2656 19.5617 68.9148L19.4754 68.8392C19.3441 68.7272 19.2031 68.625 19.0335 68.5766C18.7064 68.4825 18.1005 68.6143 17.9562 69.0039L17.9434 69.0437C17.8905 69.2405 17.595 69.198 17.5929 68.9972Z" fill="black"/>
</svg>
