<svg width="101" height="120" viewBox="0 0 101 120" fill="none" xmlns="http://www.w3.org/2000/svg">
<path fill-rule="evenodd" clip-rule="evenodd" d="M98.3531 54.0542C96.4197 43.508 91.6527 33.4733 84.3316 25.6219C83.4868 24.6896 82.7277 23.2191 81.4385 22.984C80.1445 20.3462 77.678 18.4814 75.7062 16.3512C71.4025 12.0585 67.2849 7.26148 61.7338 4.5507C35.9869 -6.0426 11.21 24.1627 5.95221 46.8789C0.729886 65.1473 6.43369 90.3483 29.0651 91.0876C32.2669 95.3239 36.6849 98.2562 41.2231 100.875C47.4207 104.845 54.1812 106.456 61.3512 104.247C68.4919 106.114 75.894 100.123 80.1853 94.8702C83.5772 90.801 85.902 85.8349 89.0045 81.6229C92.6672 81.5314 95.8324 78.4288 96.3228 74.7921C99.7438 68.503 99.5883 60.9666 98.3531 54.0542Z" fill="white"/>
<path fill-rule="evenodd" clip-rule="evenodd" d="M42.2711 0.961424C46.9559 -0.133582 51.869 0.0934087 56.5094 1.29684C65.707 3.68235 73.2748 9.88569 79.5497 16.8021C85.6703 23.5484 90.7177 31.2822 94.4041 39.6134L94.5909 40.0372C97.1984 45.976 99.4644 52.1489 99.5616 58.6882C99.6452 64.3162 99.0769 70.1795 97.2594 75.5326C95.6402 80.3013 92.662 85.1065 87.5381 86.2497C84.5835 93.7628 78.8033 100.269 71.5219 103.75C67.0059 105.91 62.0463 106.874 57.0532 106.394C51.959 105.906 47.2006 103.457 43.2192 100.334C43.11 100.249 43.2505 100.083 43.3631 100.147C48.1566 102.911 53.8257 103.899 59.3161 103.717C68.339 103.419 76.6107 98.5467 81.3638 90.8888C82.5465 88.9829 83.6003 86.9725 84.4409 84.8812C84.3917 84.7092 84.3632 84.5348 84.3632 84.3649C84.3632 83.6444 84.705 83.0938 85.215 82.7381C85.4514 81.999 85.6606 81.2515 85.8353 80.4955C86.2314 78.7831 86.4524 77.046 86.5857 75.295C86.6939 73.8724 86.6339 72.3631 86.7767 70.9042C86.7247 69.7352 86.6525 68.5673 86.5466 67.4019C86.2059 63.6466 85.5167 59.9007 84.1893 56.3614C82.8446 52.7765 80.7209 49.6151 78.0416 46.894C72.2948 41.0578 65.1396 36.7965 59.5513 30.8011L59.2587 30.4839L59.2388 30.4775C58.5454 31.1887 57.8525 31.8999 57.1576 32.6096L53.983 35.849C47.5035 42.4677 41.0765 49.1506 35.4397 56.5157C32.194 60.7569 29.2779 65.2026 26.7653 69.917C25.5754 72.1498 24.4966 74.4383 23.5214 76.7728L23.1377 77.7022C22.6811 78.8144 22.1876 80.0593 21.9135 81.3153C22.729 82.1246 23.3254 83.3138 23.985 84.2324C24.7331 85.2741 25.5959 86.2658 26.4837 87.1913C27.3822 88.1282 28.3678 89.0262 29.414 89.7957L29.5396 89.8865C30.74 90.7387 32.118 91.3272 32.298 92.9495C32.3761 93.6539 31.7466 94.2206 31.1637 94.4399C29.568 95.0396 27.915 93.317 26.8515 92.3262C26.1883 91.7082 25.5786 91.0423 25.0133 90.3391C24.4629 90.4179 23.909 90.4575 23.3607 90.3924C22.5112 90.2914 21.6699 90.1428 20.8424 89.9251C13.9787 88.1223 8.8984 82.4221 6.15741 76.0738C2.47755 67.5509 2.56311 57.7263 4.0929 48.7135C6.88818 32.243 15.9351 16.8613 29.5959 7.12334C33.4217 4.39608 37.6642 2.03804 42.2711 0.961424ZM49.6664 3.16475C40.8414 2.69957 32.7955 7.25205 26.3402 12.919C14.5865 23.2371 7.3468 38.3444 5.89033 53.8582C5.11645 62.1008 5.69554 70.9854 9.99187 78.2679C11.6588 81.0934 13.8057 83.5554 16.3398 85.6313C18.7278 87.5878 21.4498 88.7153 24.3598 89.4825C24.2273 89.2999 24.0965 89.1161 23.9693 88.9294C23.2924 87.938 22.7548 86.8842 22.3043 85.7801C22.2646 85.8198 22.1898 85.8279 22.1457 85.7672C20.3089 83.246 20.8838 80.2376 21.7593 77.4651C22.6772 74.5572 23.8407 71.7276 25.1685 68.9828C30.0084 58.98 37.2071 50.2659 44.6797 42.1341C48.496 37.9813 52.4389 33.9488 56.3672 29.9025C58.329 27.882 60.2856 25.8555 62.2174 23.8059C63.1789 22.7855 64.1345 21.7598 65.0814 20.7258C66.0177 19.7035 66.8602 18.6208 68.026 17.8551C68.9554 17.2449 69.8831 18.4111 69.4487 19.2785C68.7807 20.6126 67.6317 21.6703 66.6151 22.7551L66.5104 22.8675C65.5193 23.9377 64.519 24.9993 63.5127 26.0553C62.3554 27.2697 61.189 28.4758 60.019 29.6789C61.0168 29.5632 62.0264 29.4967 63.0183 29.346C64.3654 29.1414 65.6943 28.84 67.0164 28.5122C68.4097 28.1671 69.785 27.7264 71.1124 27.1786C72.3595 26.6642 73.5382 25.8399 74.9104 25.7592C76.0719 25.6907 76.4347 27.1293 75.7912 27.8864C74.9042 28.9296 73.3097 29.3402 72.013 29.7276L71.8299 29.7828C70.3956 30.2208 68.9279 30.5494 67.4444 30.769C65.4925 31.0581 63.2366 31.1904 61.1482 30.8945C65.3186 33.3407 69.1562 36.3723 72.9829 39.3288L73.6582 39.8497C77.397 42.7274 81.046 45.8296 83.7118 49.7669C86.2001 53.4424 87.7026 57.7217 88.5458 62.0575C88.9618 64.1966 89.2362 66.3583 89.4204 68.5291C90.1069 70.4536 89.9967 72.7419 89.8238 74.8586L89.7621 75.5892L89.7667 75.8035C89.7925 77.1274 90.3243 80.0751 89.0719 81.0748C89.0505 81.1813 89.0307 81.2885 89.0083 81.395C89.1642 81.2986 89.3182 81.1995 89.4709 81.0976C89.5337 81.0556 89.5945 81.0093 89.656 80.9638L89.8291 80.8216C89.8357 80.8161 89.8414 80.8112 89.8459 80.8072C90.2347 80.4659 90.6055 80.1096 90.9511 79.7243C91.5897 79.0122 92.1969 78.1074 92.772 77.0651C94.0356 74.774 94.8428 72.2835 95.4671 69.7084C96.6084 65.0006 97.0793 59.944 96.5588 55.1159C96.4861 54.4419 96.3369 53.5969 96.1056 52.73C95.5563 50.6714 94.9244 48.6347 94.2169 46.6253C92.8016 42.6057 91.0667 38.706 89.0438 34.9558C84.9355 27.3388 79.6495 20.2966 73.3162 14.387C66.9023 8.40222 58.5845 3.63479 49.6664 3.16475ZM37.2211 27.5017C37.5393 27.3073 37.8667 27.6849 37.7089 27.9897C36.9448 29.4647 35.6598 30.71 34.5925 31.9739C33.4874 33.2826 32.3903 34.5984 31.2959 35.9162C29.0674 38.5993 26.8924 41.3316 24.8032 44.1248L24.2517 44.8637C22.4149 47.3303 20.6005 49.8359 18.9948 52.4567C18.1548 53.8277 17.4145 55.2457 16.7423 56.7059C16.1024 58.0959 15.8072 59.7738 15.0382 61.0796C14.9898 61.162 14.8398 61.1552 14.8212 61.051C14.5703 59.6451 15.1903 57.9518 15.6334 56.6353C16.16 55.0696 16.9096 53.5783 17.712 52.138C19.3857 49.1334 21.391 46.3172 23.4057 43.5349C25.4518 40.7098 27.5761 37.9424 29.8048 35.2587C30.8515 33.9981 31.9218 32.7627 33.0241 31.5517L33.439 31.0987C34.5936 29.8458 35.7572 28.3957 37.2211 27.5017ZM31.8702 23.1338C32.3935 22.746 32.8401 23.5386 32.5063 23.9587C30.5121 26.4683 28.2431 28.7232 26.0607 31.0637C23.965 33.3114 21.9617 35.6432 20.0715 38.0668C16.2173 43.0088 13.1322 48.4316 10.5193 54.115C10.47 54.2222 10.315 54.1423 10.3382 54.0387C11.7222 47.8912 14.958 42.3078 18.6422 37.263L18.7823 37.0717C22.5089 31.9987 26.7926 26.899 31.8702 23.1338Z" fill="black"/>
</svg>
