<svg width="102" height="120" viewBox="0 0 102 120" fill="none" xmlns="http://www.w3.org/2000/svg">
<path fill-rule="evenodd" clip-rule="evenodd" d="M87.8042 53.3169C87.02 47.0565 84.5566 40.4097 81.9658 34.5733C76.1403 22.2334 62.8036 20.5344 50.8478 17.9902C39.0498 16.2719 26.5565 14.7204 14.9363 18.1487C8.40371 19.7497 5.85223 27.5328 6.88322 33.6749C7.4716 37.5022 9.21308 41.1246 10.6981 44.6717C13.6497 51.9561 15.5224 59.7547 15.5255 67.6414C15.3229 72.7954 14.5958 78.6781 20.5163 80.8612C26.1502 83.6639 26.6262 91.2615 33.6806 95.5722C36.5331 101.352 44.3034 101.861 49.8958 103.202C53.4305 103.879 57.0052 104.377 60.5896 104.699C70.9683 106.029 79.2711 103.02 84.7041 93.7713C88.3398 88.1424 91.0471 81.643 90.3783 74.821C89.7122 67.6372 88.6024 60.491 87.8042 53.3169Z" fill="white"/>
<path fill-rule="evenodd" clip-rule="evenodd" d="M50.9374 2.99306C51.5298 2.32139 52.4424 2.55176 52.9964 3.08288C53.357 3.18919 53.7065 3.34728 54.0364 3.55652C54.7822 3.46078 55.5641 3.46078 56.2955 3.48762C56.473 3.38807 56.6631 3.29952 56.8702 3.22343C58.3491 2.68259 59.6587 2.95734 60.7389 3.68143C61.2593 3.18898 61.9157 2.87999 62.7548 2.9267C63.5038 2.96854 64.0374 3.32108 64.4948 3.78541C64.951 3.12748 65.6883 2.65807 66.6069 2.59276C67.8907 2.50146 69.125 3.01652 70.1479 3.81394C70.7439 3.13001 71.5564 2.7369 72.4619 2.7331C73.0577 2.62489 73.6864 2.66758 74.2545 2.8392C75.0793 3.08838 75.8036 3.55525 76.3803 4.16119C77.2928 3.28705 78.4098 2.65807 79.6976 2.7498C81.3645 2.87027 82.7462 4.09631 83.3885 5.60535C84.5167 6.05743 85.5582 6.70226 86.4286 7.62163C86.4751 7.67003 86.5195 7.72075 86.566 7.77169C87.035 7.94479 87.4765 8.19016 87.8652 8.51332C89.0969 9.53858 89.3716 11.0223 88.9638 12.4761C89.0209 12.7088 89.0695 12.9455 89.1138 13.182C90.2674 13.3575 91.3152 14.0234 91.911 15.1077C92.7265 16.5956 92.566 18.5567 91.6829 19.9772C91.3032 20.5882 90.8213 21.103 90.28 21.5532C90.8921 22.9439 90.5984 24.6034 89.6116 25.7282C89.3712 26.116 89.076 26.466 88.7439 26.7829C89.1105 28.2207 88.4585 29.7041 87.1571 30.4724L87.0458 30.7511C87.0271 30.7974 87.0081 30.8435 86.9885 30.8892C86.9741 30.9484 86.9564 31.0056 86.9388 31.0633C86.9078 31.5735 86.7398 32.0742 86.4064 32.546C85.7239 33.5127 84.8779 34.1432 84.4294 35.2717L84.3844 35.3903C84.1915 35.9244 83.5687 36.3012 83.038 36.1364C85.9845 42.1897 87.5293 48.9252 88.5899 55.5261C89.1187 58.8192 89.5269 62.1236 89.8578 65.4408L90.1824 68.744C90.4679 71.6802 90.7221 74.6261 90.7237 77.572C90.7279 84.2361 88.8223 90.6461 84.7321 95.9491C80.8638 100.962 75.3899 104.595 69.2061 106.026C62.8216 107.501 55.3322 106.92 49.6068 103.543C47.9188 102.55 49.3977 100.161 51.1153 100.96C54.3667 102.474 57.6709 103.598 61.2751 103.849C64.7885 104.096 68.3103 103.657 71.642 102.507C77.154 100.603 81.8441 96.6149 84.8589 91.6482C86.3441 89.2005 87.4195 86.5441 87.992 83.7371C88.7047 80.2387 88.5973 76.6226 88.3354 73.0795L88.3174 72.838C87.7998 66.0112 87.1174 59.1423 86.0145 52.3835C85.0398 46.4067 83.5408 40.5511 81.5948 34.8249C80.8326 34.1537 79.9799 33.5983 79.0674 33.1764C72.3857 32.8972 65.6919 32.9788 59.0188 33.44C53.3277 33.8359 47.6641 34.5056 42.0434 35.4817L41.4413 35.5875C40.1969 35.8092 38.8153 35.936 37.6427 36.4371C36.6371 36.8683 36.2293 37.6968 35.9758 38.7153C35.3378 41.2916 35.2406 44.1113 35.1329 46.7531C35.0272 49.3356 35.266 51.9397 35.0589 54.5137C34.8836 56.6674 34.3322 58.8717 32.7371 60.4296C31.9026 61.2452 30.8758 61.6912 29.9124 62.3104C29.2892 62.7101 29.0251 63.122 29.1054 63.8617C29.2786 65.4807 30.5822 67.5202 29.1181 68.9067C28.8603 69.1497 28.4146 69.1814 28.161 68.9067C27.5568 68.2496 26.7223 67.7485 26.0061 67.218C25.7061 66.9984 25.9554 66.5715 26.2955 66.7234C26.7434 66.9244 27.1998 67.1611 27.6667 67.3682C26.6357 66.5186 25.1695 66.102 23.9484 65.8548C23.3336 65.7322 22.6871 65.6962 22.0469 65.7535C21.5737 65.9795 21.0899 66.1889 20.6061 66.3937C19.9913 66.6518 19.3702 66.8861 18.7448 67.1083C16.5751 68.8771 15.5399 71.7538 15.992 74.5668C16.2392 76.12 16.9554 77.8089 18.3054 78.7156C19.9047 79.7893 22.0469 79.3283 23.7751 80.1253C25.3934 80.8712 26.3779 82.3783 27.1153 83.9381L27.4226 84.5875C28.107 86.0253 28.8104 87.4249 29.7455 88.7334C30.8272 90.2488 32.1519 91.6099 33.5969 92.7789C34.298 93.3446 35.0452 93.8535 35.8174 94.3169L36.0286 94.4422C36.8103 94.9008 37.3702 95.3381 37.423 96.3082C37.4399 96.6464 37.2265 96.955 36.9519 97.1304C35.7688 97.8807 34.592 96.9423 33.6075 96.2871C32.5448 95.5812 31.5286 94.7867 30.5885 93.9202C28.8012 92.2759 27.2547 90.323 26.0653 88.2029C25.1589 86.5884 24.6434 84.3164 23.211 83.0652C22.3364 82.302 21.1005 82.2959 20.0082 82.1562C18.992 82.0254 18.0308 81.814 17.1265 81.3131C13.4484 79.2694 12.4089 74.3217 13.2815 70.4983C13.4293 69.8535 13.6364 69.2258 13.892 68.6213C12.523 68.8496 10.985 67.4338 11.5406 66.0048C11.5829 65.897 11.6315 65.7958 11.6779 65.692C10.7758 65.0981 10.0639 64.198 9.72582 63.0206C9.55258 62.4119 9.52723 61.7968 9.61808 61.2029C9.18075 60.9094 8.81949 60.5055 8.58709 60.0088C7.86033 59.6728 7.21596 59.17 6.83146 58.4514C6.29906 57.4599 6.36667 56.5469 6.7723 55.7247C6.71526 55.6214 6.66033 55.5157 6.60751 55.4077C5.11808 54.4632 4.07864 52.8356 4.19695 51.0307C4.23498 50.4325 4.38287 49.8936 4.61104 49.4077C4.59202 49.3464 4.57301 49.2828 4.55611 49.2215C3.30963 48.5874 2.27864 47.5457 1.91104 46.155C1.54343 44.7557 1.97653 43.3608 2.84273 42.2871C1.57512 41.3595 0.812444 40.0639 1.27512 38.1045C1.46315 37.3079 1.84132 36.5827 2.35258 35.9719C2.35047 35.9531 2.34625 35.9341 2.34202 35.9149L2.22343 35.8229C0.658557 34.5875 -0.241008 33.0132 0.719486 31.0771C1.15047 30.2065 1.76526 29.5997 2.4878 29.2003L2.52371 29.0862C2.00611 27.9766 1.83075 26.7444 2.1878 25.4488C2.47935 24.3817 3.17019 23.5319 4.05329 22.9678C3.99413 22.4899 4.00258 21.9808 4.09765 21.4289C4.25611 20.4971 4.71878 19.6834 5.39484 19.1064C5.42019 18.9836 5.45188 18.8634 5.4878 18.7427C5.71596 18.0053 6.14272 17.2043 6.63709 16.6101C7.04484 16.1177 7.50118 15.9381 8.05892 15.919C8.02512 15.4648 8.04836 15.0039 8.14132 14.5368C8.42653 13.0956 9.34343 11.7406 10.7019 11.1256C11.2596 10.8741 11.8469 10.8003 12.4131 10.8614C12.8948 9.84694 13.835 9.11165 14.9906 8.95314C15.4406 8.88973 15.8589 8.89375 16.2434 8.95102C16.461 8.84936 16.6871 8.7587 16.9237 8.67606C17.08 8.62111 17.2385 8.57038 17.3969 8.51987C17.9315 7.85623 18.635 7.32553 19.4568 7.0066C20.4054 6.63674 21.3709 6.67457 22.2265 6.98526L22.4991 6.92819C22.9258 6.18846 23.6061 5.61571 24.6519 5.35574C25.8392 5.06197 27.0582 5.47199 27.992 6.21827C27.9962 6.21827 28.0005 6.21827 28.0068 6.21594C28.4948 5.12326 29.3293 4.3624 30.73 4.41524C31.6026 4.44905 32.3906 4.88253 32.9991 5.49967C33.3371 5.45719 33.6751 5.41915 34.0153 5.38132C34.3744 4.96052 34.7737 4.56762 35.2153 4.21466C35.9378 3.63535 36.8779 3.68206 37.4103 4.49766C37.5265 4.6752 37.6343 4.85484 37.742 5.03449L38.23 5.00068C38.8047 4.22502 39.5885 3.70087 40.6617 3.65881C41.6462 3.61845 42.3477 4.10054 42.8822 4.77453C43.3174 4.76396 43.7547 4.75572 44.192 4.74917C44.7012 4.1595 45.3012 3.63958 45.9857 3.20843C46.5096 2.87872 47.2829 2.99095 47.7075 3.43055C47.9944 3.7294 48.2615 4.04136 48.5097 4.3643C49.1496 3.64655 50.0139 3.17376 50.9374 2.99306ZM19.8434 70.1073C20.8301 69.5451 22.1568 70.1538 23.1118 70.6314C24.2758 71.2126 25.4315 72.0897 26.1434 73.1887C27.1132 74.6851 24.8336 75.894 23.8132 74.5519C23.1857 73.7256 22.685 72.8928 21.9244 72.17C21.2294 71.5064 20.2216 71.0626 19.8223 70.1876C19.8075 70.158 19.8118 70.1242 19.8434 70.1073ZM20.5371 33.7865L20.5556 33.7337C20.8361 32.9659 19.6116 32.6349 19.3334 33.3964C18.9117 34.5506 19.3978 35.8054 20.5374 36.3038C20.8532 36.442 21.2141 36.394 21.4044 36.0764C21.5644 35.809 21.4902 35.3457 21.1771 35.209C20.5359 34.9285 20.3212 34.4334 20.5371 33.7865ZM9.98691 31.6395C10.5998 31.0985 9.70043 30.2042 9.0905 30.743C8.52135 31.2456 8.09924 31.9282 8.20888 32.7134C8.32064 33.5136 8.92381 34.0785 9.58403 34.4777C10.2837 34.9011 10.9216 33.805 10.2237 33.3827L10.1454 33.3348C9.85244 33.1528 9.50959 32.9025 9.46001 32.5445C9.40741 32.1641 9.72917 31.8671 9.98691 31.6395ZM13.4673 22.0924L13.5107 22.0605C14.169 21.5904 13.5367 20.4902 12.8708 20.9655C12.2602 21.4015 11.7705 21.9679 11.719 22.7491C11.6689 23.5082 12.0551 24.1664 12.56 24.7005C13.1218 25.2946 14.0171 24.3968 13.4564 23.8039C12.9101 23.2261 12.8033 22.5956 13.4673 22.0924Z" fill="black"/>
</svg>
