<svg width="73" height="75" viewBox="0 0 73 75" fill="none" xmlns="http://www.w3.org/2000/svg">
<path fill-rule="evenodd" clip-rule="evenodd" d="M48.1718 55.69C47.3443 56.7704 45.846 57.5978 44.168 57.9935C42.5691 58.3706 40.8019 58.3552 39.2768 57.7749L39.1459 57.7229C38.0057 57.25 36.9112 56.2951 36.4955 55.2987C36.3303 54.9025 36.2744 54.4998 36.3875 54.1241C36.4892 53.786 36.7277 53.4749 37.125 53.2077C37.2497 53.1238 37.417 53.1177 37.5763 53.1457C37.7741 53.1805 37.969 53.2729 38.0866 53.3977C38.7391 54.0905 39.6857 54.766 40.8061 54.7545C41.6705 54.7456 42.3765 54.4047 43.0611 54.0195L43.5422 53.7444C44.0064 53.48 44.4771 53.2315 45.0097 53.118C45.963 52.9147 47.1193 53.2861 47.824 53.8989C48.1313 54.1662 48.3545 54.4803 48.4151 54.8186C48.4661 55.1027 48.3945 55.3992 48.1718 55.69ZM43.2158 36.796C45.1094 37.9453 47.9946 40.6254 45.9575 43.4747C43.5597 45.9871 40.1074 43.1065 38.4062 41.8037C36.8287 40.794 35.0564 43.3908 36.5199 44.5698C48.8131 53.6581 53.8019 37.0965 44.1735 35.4446C43.1134 35.2626 42.7197 36.4404 43.2158 36.796ZM21.8529 19.1312L22.3969 18.9823L22.9516 18.8328L23.3267 18.7338C25.9032 18.0603 28.7451 17.4677 31.3 17.757C32.2319 17.8627 32.9881 18.3863 33.12 19.3611C33.2311 20.1837 32.6988 21.2449 31.7928 21.3911C28.7919 21.8759 25.7199 21.7186 22.7053 22.2184C21.204 22.4671 19.7142 22.7758 18.2187 23.054C17.0815 23.2658 15.9064 23.3402 14.7595 23.5115L15.023 23.548C15.1153 23.5606 15.0922 23.7156 15.0012 23.7093C14.6232 23.6716 14.2445 23.6658 13.8653 23.6922L13.7028 23.7055C13.4553 23.7404 13.3093 23.4454 13.53 23.2956C14.9275 22.3489 16.1133 21.3227 17.6781 20.6249C19.0314 20.0214 20.4244 19.5239 21.8529 19.1312ZM45.3083 17.6792C47.2893 15.6795 51.5021 16.448 53.8587 17.3627C55.2038 17.885 56.4827 18.5453 57.5479 19.5332L57.6517 19.6304L57.8117 19.784C58.5307 20.4869 59.3326 21.4542 59.2184 22.4676C59.2011 22.6221 59.1169 22.7986 58.9421 22.8297C57.9983 22.9967 57.0712 22.4994 56.1996 22.2002L55.6223 22.0024C54.7554 21.7075 53.883 21.4258 52.9893 21.2224C51.878 20.97 50.7443 20.824 49.6033 20.8385C48.4501 20.8535 47.2114 21.1786 46.1128 20.7213C44.8876 20.2118 44.2524 18.7454 45.3083 17.6792ZM25.7379 33.8069C25.2324 34.3223 24.5649 34.6131 23.7106 34.4401C23.043 34.305 21.772 33.6347 20.7566 32.6025C20.0619 31.8963 19.4811 31.0138 19.3232 29.9916C19.2865 29.7542 19.1603 29.602 18.9947 29.5061C18.8638 29.4304 18.6914 29.3924 18.5035 29.4114C18.3439 29.4275 18.1746 29.4852 18.0437 29.5617C17.7947 29.7072 17.6928 29.9137 17.6721 30.0679C17.4724 31.5562 18.0481 33.0329 18.9455 34.2781C20.1566 35.9584 21.9351 37.1898 22.9804 37.478C24.7693 37.9715 26.6542 37.5786 28.0439 36.3354C29.1552 35.3413 29.7249 34.0462 30.2534 32.7144L30.3553 32.4563C30.4742 32.1541 30.5922 31.8541 30.7171 31.5573C30.9676 30.9626 30.8874 30.4486 30.6445 30.0479C30.3754 29.604 29.8788 29.2916 29.3258 29.1956C28.8148 29.1069 28.2679 29.204 27.8361 29.5157C27.4714 29.779 27.1773 30.1962 27.0728 30.8132C26.9029 31.8165 26.5086 32.9675 25.8135 33.727L25.7379 33.8069ZM56.4118 28.0002C55.995 27.7833 55.6689 27.718 55.2065 27.8563C54.9509 27.933 54.6981 28.08 54.5003 28.2775C54.3042 28.4733 54.1628 28.7168 54.1078 28.9869C53.9725 29.6536 53.6072 30.2776 53.0867 30.6844C52.6418 31.0321 52.0802 31.2164 51.4574 31.1124C50.7852 31.0004 50.1448 30.5699 49.7038 30.0624C49.5809 29.9209 49.4802 29.7634 49.3828 29.604L49.3247 29.5082C49.1073 29.1499 48.8961 28.8169 48.5964 28.5539C48.4828 28.4538 48.3116 28.3844 48.1458 28.3844C48.0784 28.3844 48.01 28.3954 47.9449 28.4157C47.2759 29.0862 47.1472 29.5948 47.1688 30.0993C47.1914 30.6283 47.4003 31.164 47.7378 31.6638C48.5296 32.8361 50.033 33.7974 51.0475 34.0151C52.4368 34.3132 53.8166 33.9553 54.9228 33.1805C56.0611 32.3832 56.9045 31.1453 57.1675 29.7503C57.2307 29.4144 57.2038 29.0517 57.0757 28.7373C56.9505 28.43 56.7323 28.1669 56.4118 28.0002Z" fill="black"/>
</svg>
