<svg width="62" height="63" viewBox="0 0 62 63" fill="none" xmlns="http://www.w3.org/2000/svg">
<path fill-rule="evenodd" clip-rule="evenodd" d="M19.0452 45.8557C21.6324 42.8482 25.9898 42.6387 29.5993 43.3907C31.9156 43.8734 34.1709 44.6774 36.5236 44.9754C37.6224 45.1147 38.733 45.1563 39.8399 45.1358C40.9271 45.1157 42.0159 44.8966 43.0993 44.9374C43.2658 44.9435 43.3287 45.1622 43.1844 45.2512C41.6982 46.1645 39.696 46.4574 37.9404 46.636C37.9459 46.766 37.9537 46.8928 37.9716 47.0004C38.0196 47.2872 38.0633 47.5721 38.0986 47.8608C38.1782 48.5119 38.2674 49.161 38.3563 49.8109C38.5317 51.0899 38.5868 52.4094 38.8951 53.6663L38.949 53.8752C39.0204 54.1394 39.0366 54.3775 39.0128 54.5923L39.0842 54.5599L39.3097 54.4506L39.4576 54.3808C39.9972 54.1306 40.512 53.9484 41.1463 54.0092C41.6293 54.0552 42.0347 54.3847 42.0377 54.9006C42.0497 57.216 38.9306 57.9606 37.1464 58.4038L36.6232 58.5327C34.3522 59.0868 32.0334 59.5726 29.6978 59.6888C25.9494 59.875 21.7374 58.8406 19.2854 55.7991C16.9976 52.9613 16.5782 48.7233 19.0452 45.8557ZM36.0673 55.5837C35.674 52.0978 31.3919 51.9062 30.16 54.1167C29.6134 51.0354 21.527 53.8504 22.1593 54.4629C24.5559 56.7848 28.1929 56.9938 31.3194 56.5644C32.9118 56.3456 34.5054 55.9895 36.0673 55.5837ZM31.315 46.4471L30.2384 46.2921L29.8144 46.2337C27.1456 45.8762 24.1442 45.6915 21.9499 47.4032C21.1488 48.0279 20.698 48.8429 20.5296 49.7183C22.6058 49.4105 24.6897 49.1756 26.7798 48.98L27.3499 48.9277C28.6577 48.8097 29.9648 48.6855 31.2713 48.555L32.1998 48.461L33.1279 48.3646C33.4545 48.3304 35.6557 48.2177 36.0696 48.2934C36.1137 47.9214 36.1714 47.1164 36.2648 46.7543C34.701 46.8074 33.144 46.6912 31.5893 46.4845L31.315 46.4471ZM36.2706 30.8662C37.8659 31.8363 40.2968 34.0984 38.5805 36.5034C36.5604 38.624 33.6518 36.1926 32.2185 35.093C30.8894 34.2408 29.3962 36.4326 30.6293 37.4277C40.9864 45.0987 45.1895 31.1199 37.0775 29.7256C36.1843 29.5719 35.8526 30.5661 36.2706 30.8662ZM39.1256 34.953L39.2023 34.9113L39.2282 34.8956C39.2731 34.8666 39.2445 34.8697 39.1425 34.905L39.066 34.9325V34.9866C39.0857 34.9746 39.1066 34.9655 39.1256 34.953ZM18.6938 26.3341L18.6935 26.2865C18.6964 24.9388 19.4811 21.8616 21.4206 21.8616C22.6322 21.8616 23.3678 23.9558 23.4951 26.1147L23.4995 26.2027C23.5558 27.5449 23.1876 30.4787 21.4206 30.4787C19.6348 30.4787 18.7121 27.7 18.6938 26.3341ZM47.2477 25.9114L47.248 25.8638C47.245 24.5161 46.4604 21.4389 44.5209 21.4389C43.3396 21.4389 42.6108 23.4297 42.457 25.5302L42.4463 25.692C42.3698 26.9889 42.7141 30.056 44.5209 30.056C46.3066 30.056 47.2293 27.2773 47.2477 25.9114ZM19.8003 12.6727C21.3831 12.4319 23.4791 12.8893 24.2171 14.4994C24.5458 15.2167 24.1565 16.0099 23.3277 16.0496C21.3246 16.1456 19.5282 15.6996 17.77 17.0026C17.0134 17.5634 16.3773 18.34 15.8434 19.1145L15.6414 19.4093L15.4742 19.6522C15.1117 20.1853 14.7684 20.7645 14.822 21.4078C14.8379 21.5982 14.6433 21.7789 14.4584 21.7713C13.3062 21.7239 13.1822 20.2787 13.3336 19.4107C13.6155 17.7998 14.3948 16.2876 15.475 15.0696C16.6096 13.7905 18.1072 12.9303 19.8003 12.6727ZM41.6009 14.6278C42.6923 13.9259 44.0883 13.6562 45.3669 13.7595C47.888 13.9626 52.1173 16.1066 51.5607 19.187C51.3889 20.137 50.0681 20.6383 49.2897 20.1112C48.4529 19.5446 48.2492 18.6639 47.6264 17.9233C47.1295 17.3318 46.4997 16.9038 45.8254 16.5392C45.1607 16.1796 44.3917 15.9617 43.6374 15.8822L43.5118 15.8703C43.0578 15.8316 40.7651 15.842 41.1016 16.6981C41.1676 16.8657 40.9183 16.9985 40.8038 16.8717C40.1009 16.0939 40.8969 15.0805 41.6009 14.6278Z" fill="black"/>
</svg>
