<svg width="73" height="75" viewBox="0 0 73 75" fill="none" xmlns="http://www.w3.org/2000/svg">
<path fill-rule="evenodd" clip-rule="evenodd" d="M39.9657 66.0231L40.5007 65.8811C42.4163 65.36 44.4043 64.5326 46.2335 65.6664C46.894 66.0758 46.9936 66.9465 46.4715 67.5099C44.9897 69.1085 42.8026 68.7984 40.7987 68.8144L40.7003 68.8155C38.6842 68.8433 36.6831 68.7429 34.6878 68.4541C34.4248 68.4161 34.3729 67.9796 34.6118 67.875C36.3491 67.1145 38.1359 66.5148 39.9657 66.0231ZM43.2157 36.7959C45.1092 37.9452 47.9945 40.6253 45.9574 43.4747C43.5596 45.987 40.1073 43.1064 38.4061 41.8036C36.8286 40.794 35.0563 43.3908 36.5198 44.5697C48.813 53.6581 53.8018 37.0964 44.1734 35.4445C43.1133 35.2625 42.7196 36.4403 43.2157 36.7959ZM56.381 21.6813C59.4358 21.5879 59.4385 26.4339 56.381 26.4208C55.4682 26.4168 54.5555 26.4166 53.6427 26.4146C54.1731 28.3454 53.8702 30.6478 52.9123 32.2697C52.2803 33.3401 50.768 33.5347 49.8846 32.6593C48.3595 31.1479 48.0588 28.9376 48.5977 26.9334L48.4869 26.6712C48.4508 26.5853 48.4249 26.4985 48.4039 26.4111C45.4536 26.4136 42.5033 26.4206 39.5531 26.4254L35.1277 26.4301C32.2545 26.4311 29.38 26.4544 26.5066 26.4276C26.5419 26.4809 26.5773 26.534 26.6061 26.5949C26.7854 26.9717 26.8614 27.4475 26.9178 27.8549C27.0141 28.554 27.0026 29.3069 26.8923 30.0033C26.8118 30.5121 26.6638 31.1181 26.3802 31.5976L26.3785 31.6076C26.2448 32.1765 26.076 32.7212 25.6355 33.1316C25.5031 33.2545 25.3739 33.3421 25.2375 33.4042C24.98 33.6734 24.6485 33.8515 24.2129 33.857C23.9817 33.8597 23.7282 33.7924 23.4824 33.6967C23.1045 33.7283 22.7144 33.5575 22.3801 33.4062C22.112 33.2848 21.866 33.1235 21.6677 32.9132C21.5747 32.8912 21.4809 32.8549 21.3871 32.797C20.8124 32.444 20.5927 31.7363 20.5628 31.0973C20.5608 31.0585 20.5623 31.0177 20.5611 30.9784C20.5398 30.8917 20.5207 30.8046 20.5062 30.717C20.3151 29.5814 20.5473 28.3026 20.7905 27.1991C20.8517 26.9229 20.9021 26.6021 20.9771 26.2919C20.4036 26.2696 19.8306 26.2476 19.2571 26.224C17.8208 26.1654 16.0677 26.3575 14.739 25.7513C14.6422 25.7074 14.6683 25.5787 14.739 25.5284C15.9657 24.6527 17.8718 24.511 19.3492 24.2226L19.4748 24.1975C21.2366 23.8367 22.9975 23.5332 24.7771 23.2741C28.2027 22.7753 31.6722 22.5068 35.1277 22.3135C42.2023 21.9179 49.2991 21.8974 56.381 21.6813Z" fill="black"/>
</svg>
