<svg width="62" height="63" viewBox="0 0 62 63" fill="none" xmlns="http://www.w3.org/2000/svg">
<path fill-rule="evenodd" clip-rule="evenodd" d="M38.668 46.4169C37.3278 45.7716 35.7949 45.8163 34.3895 46.243C32.726 46.7485 31.253 47.7986 29.9422 48.9164C29.4307 49.3527 28.9446 49.8453 28.4567 50.3405C27.8368 50.9696 27.2148 51.6049 26.5242 52.12C26.7519 50.1792 28.1133 48.2083 29.2824 46.7829C30.7167 45.0343 32.7139 43.6171 34.8731 42.9316C37.1725 42.2014 39.5451 42.6028 41.4072 43.7882C43.2523 44.9628 44.5963 46.9083 44.8671 49.2875C44.924 49.7873 44.6905 50.2448 44.344 50.5914C43.9399 50.9958 43.3724 51.2619 42.8432 51.2619C42.3031 51.2619 41.8242 51.0442 41.469 50.6974C41.0963 50.3335 40.8585 49.8286 40.8245 49.2801C40.8016 48.6956 40.6662 48.1836 40.1753 47.5669C39.8454 47.153 39.2254 46.6852 38.668 46.4169ZM42.075 25.9915C41.5189 26.1938 40.8729 26.6821 40.6852 27.2168C40.6438 27.3345 40.6206 27.4549 40.6187 27.5768C40.4376 27.2087 40.3687 26.7754 40.3924 26.3465C40.4673 24.9841 41.7661 23.9954 42.8726 23.4176C43.2657 23.2122 43.6697 23.0758 44.0722 23.004L45.4974 22.7499L44.1593 22.1972C42.9254 21.6875 41.7683 20.9864 40.7358 20.1282C39.7494 19.309 38.8376 18.2495 38.3024 17.0804C38.0607 16.5524 37.8711 16.0359 37.738 15.4779L37.7024 15.3212C37.637 15.0206 37.5656 14.8673 37.4853 14.6972C37.4382 14.5974 37.387 14.4899 37.332 14.3152C37.3011 14.2171 37.2839 14.1349 37.3127 14.0709C37.3405 14.009 37.4082 13.9824 37.4742 13.9574C37.911 13.7921 38.6145 13.9047 38.9134 14.0242C39.6357 14.313 40.2705 14.9428 40.8815 15.5325C41.1797 15.8203 41.4717 16.1015 41.7617 16.342C43.6123 17.8768 45.922 18.75 48.1792 18.963L48.3149 18.975C48.9118 19.024 49.4653 19.2592 49.8575 19.6516C50.2082 20.0024 50.4246 20.4796 50.4246 21.0512C50.4246 21.6078 50.1743 22.1438 49.7853 22.533C49.4138 22.9046 48.9114 23.1454 48.3659 23.126C47.9827 23.1124 47.6023 23.078 47.2246 23.0274L45.8197 22.8392L46.8923 23.7662C47.1052 23.9502 47.3054 24.1614 47.4855 24.4065C48.4629 25.7379 48.8824 27.7677 48.8461 29.3971C48.8392 29.708 48.7533 30.0288 48.5949 30.3051C48.4565 30.5465 48.2619 30.7548 48.011 30.8848C47.7107 31.0407 47.4566 31.1239 47.1146 31.1305C46.7428 31.1378 46.4278 31.0201 46.169 30.823C45.8454 30.5765 45.6076 30.2129 45.4443 29.8162C45.2273 29.2888 45.2144 28.7317 45.1929 28.1749C45.1781 27.7901 45.162 27.4046 45.0979 27.0248C45.0066 26.5397 44.7873 25.9216 44.5107 25.7265C44.1023 25.4381 43.0159 25.6601 42.3412 25.896L42.075 25.9915ZM36.2705 30.8663C37.8659 31.8364 40.2967 34.0985 38.5805 36.5035C36.5603 38.6241 33.6517 36.1927 32.2184 35.0931C30.8894 34.2408 29.3961 36.4327 30.6292 37.4278C40.9863 45.0988 45.1895 31.1199 37.0774 29.7257C36.1843 29.572 35.8526 30.5662 36.2705 30.8663ZM24.9548 27.7866C24.5188 27.2946 24.0943 26.836 23.4384 26.5748C22.6624 26.2653 21.7222 26.2321 20.9151 26.4639C20 26.7268 19.2754 27.3337 18.7386 28.1089C18.267 28.7899 17.9422 29.6006 17.757 30.3999C17.4113 30.0201 17.2497 29.5809 17.1716 29.1341C17.0431 28.3985 17.1342 27.6405 17.3848 26.9197C17.9427 25.3148 19.2868 23.888 20.8541 23.2739C22.6436 22.5727 24.8578 22.8068 26.5017 23.7941C27.3403 24.2981 28.307 25.1724 28.7939 26.0277C29.1265 26.6121 29.1457 27.2173 28.9342 27.7371C28.7015 28.3093 28.1994 28.774 27.5582 29.0073C27.2545 29.1179 26.9419 29.109 26.6453 29.0306C26.2593 28.9285 25.8987 28.7104 25.6046 28.4564C25.3595 28.2451 25.1552 28.0128 24.9548 27.7866ZM27.6286 17.6652C27.2614 18.1568 26.7204 18.408 26.1569 18.4344C26.0991 18.4371 26.0413 18.4374 25.9837 18.4353C25.9474 18.4771 25.9068 18.5234 25.8591 18.5777C25.7491 18.703 25.677 18.7854 25.602 18.8652C25.3311 19.1538 25.0462 19.4294 24.7494 19.6915C24.0885 20.2756 23.3766 20.788 22.6067 21.218C21.2581 21.9717 19.779 22.5596 18.2582 22.8402C16.7489 23.1185 15.2591 23.2041 13.7394 22.986L13.3707 22.933C12.4928 22.8044 11.342 22.6365 10.6211 22.0925C10.905 22.0021 11.1926 21.9976 11.4732 21.9852C11.6578 21.9771 11.8413 21.9688 12.0202 21.9524C12.8708 21.8751 13.6973 21.7338 14.5208 21.5058C16.1217 21.0626 17.5724 20.4506 18.9857 19.5734C20.3714 18.7137 21.6439 17.5436 22.6576 16.2618L22.7791 16.1064C22.8309 16.0395 22.8818 15.9729 22.9324 15.9067C23.3471 15.3646 23.728 14.848 24.3722 14.504C24.8827 14.2315 25.3993 14.1579 25.896 14.2363C26.4722 14.3273 27.0194 14.6175 27.5042 15.0237C27.8628 15.324 28.0287 15.7564 28.0551 16.1999C28.0862 16.7216 27.9275 17.2651 27.6286 17.6652Z" fill="black"/>
</svg>
