<svg width="62" height="63" viewBox="0 0 62 63" fill="none" xmlns="http://www.w3.org/2000/svg">
<path fill-rule="evenodd" clip-rule="evenodd" d="M41.5174 43.838C39.7456 42.8968 37.6667 43.0559 35.8875 43.8967C33.7128 44.9245 32.0313 46.6123 30.5419 48.468C29.97 49.1805 29.435 49.9234 28.9005 50.6657C28.6806 50.9712 28.4607 51.2766 28.2384 51.5796C28.195 51.6364 28.1474 51.6975 28.097 51.7623C27.741 52.22 27.255 52.853 27.069 53.4274C26.9944 53.658 26.9665 53.8806 27.0001 54.0833C27.0163 54.1815 27.0464 54.2756 27.0924 54.3644C26.8086 54.4379 26.619 54.3679 26.488 54.2269C26.2805 54.0035 26.2077 53.6681 26.2048 53.283C26.1942 51.9037 27.1033 49.8931 27.4745 49.0645C27.5127 48.9791 27.5454 48.906 27.5713 48.8469C28.9137 45.7739 31.0615 42.7805 34.047 41.1242C36.9397 39.5195 40.3633 39.2162 43.3561 40.7333C46.6623 42.4094 47.5643 45.7284 47.9389 49.1394C47.9963 49.6619 47.7599 50.1438 47.3965 50.5074C46.9862 50.9178 46.4099 51.1835 45.8712 51.1835C45.3119 51.1835 44.7997 50.9466 44.4252 50.5719C44.0476 50.1942 43.809 49.6757 43.8048 49.114L43.8012 48.7868C43.7839 47.6479 43.704 46.5785 43.2908 45.6716C42.9585 44.9426 42.4147 44.3147 41.5174 43.838ZM37.1161 28.5414C38.7114 29.5115 41.1423 31.7736 39.426 34.1786C37.4058 36.2992 34.4972 33.8678 33.0639 32.7681C31.7349 31.9159 30.2416 34.1078 31.4747 35.1029C41.8319 42.7739 46.035 28.795 37.923 27.4008C37.0298 27.2471 36.6981 28.2412 37.1161 28.5414ZM23.6869 28.8598C23.2571 29.0703 22.7807 29.1558 22.3133 29.0582C21.8947 28.9708 21.4857 28.7362 21.1236 28.3228C20.6263 27.7545 20.2652 26.9476 20.5065 26.1776L20.5755 25.9795C20.6572 25.7492 20.7673 25.5333 20.9012 25.3375C20.9871 24.918 21.0045 24.6434 21.0207 24.3825C21.0249 24.3159 21.029 24.2501 21.0336 24.1845C21.0593 23.8192 21.113 23.4368 21.2355 23.0851C21.2586 23.0188 21.2843 22.9533 21.312 22.8885C21.2434 22.8645 21.1748 22.8403 21.1062 22.8162C20.6324 22.6491 20.16 22.4793 19.6902 22.3017C18.354 21.7963 17.0327 21.2266 15.7537 20.5892C15.1218 20.2742 14.5058 19.9197 13.8976 19.5611C13.6072 19.3679 12.9701 18.918 12.6844 18.6758L12.4676 18.492L12.3541 18.7526C12.2321 18.8756 12.1337 18.8851 12.051 18.8575C11.9621 18.8278 11.8962 18.7577 11.8547 18.6735C11.8049 18.572 11.7893 18.4486 11.8156 18.3294C11.8393 18.2221 11.8979 18.1184 11.9968 18.0368C12.3736 17.726 12.9051 17.8609 13.3468 17.9476C13.4098 17.9599 13.4715 17.972 13.5314 17.983C14.2182 18.1085 14.9033 18.258 15.5857 18.4123L16.4071 18.5995C16.7205 18.6711 17.0338 18.7429 17.3471 18.8147C20.9063 19.6307 24.4594 20.4447 28.0966 20.8024L28.4798 20.8384C29.1282 20.8963 29.7051 21.1717 30.0852 21.6103C30.4352 22.0143 30.6141 22.5562 30.5291 23.1846C30.446 23.7995 30.1002 24.3116 29.6243 24.6287C29.1508 24.9442 28.5483 25.0667 27.947 24.9052C26.818 24.6023 25.6915 24.2836 24.5703 23.9456L24.8326 24.5688C25.0582 25.1118 25.2662 25.6745 25.2907 26.2488C25.3136 26.7885 25.1554 27.3109 24.8815 27.7578C24.59 28.2335 24.1672 28.6246 23.6869 28.8598ZM49.0605 15.8735C48.7821 16.2537 48.4621 16.5785 48.1432 16.9039C47.4545 17.6068 46.766 18.3096 46.0285 18.9634C45.7611 19.2005 45.4908 19.4342 45.2205 19.6679C45.1201 19.7547 45.0198 19.8414 44.9196 19.9284L44.7618 20.0652L44.8968 20.2246C44.933 20.2674 44.9672 20.3116 44.9958 20.3584C45.401 21.022 45.626 21.7422 45.8538 22.4645C46.0098 22.9594 46.1667 23.4555 46.3772 23.9373L46.4451 24.0883C46.7191 24.6779 46.7928 25.2935 46.6472 25.849C46.5101 26.3723 46.1774 26.8394 45.6437 27.1794C45.5095 27.265 45.2806 27.3644 45.1255 27.3988C44.5139 27.5345 43.8946 27.4399 43.3885 27.1524C42.9046 26.8776 42.5252 26.4259 42.357 25.8336C42.1087 24.9584 41.949 24.0692 41.9574 23.2026C41.9589 23.0559 41.9652 22.9085 41.9758 22.7609C41.8792 22.859 41.7682 22.9454 41.6423 23.0166C41.2503 23.2381 40.8074 23.2599 40.3909 23.1468C39.9197 23.0189 39.4807 22.7194 39.1768 22.3279C38.9091 21.9831 38.7454 21.5656 38.7665 21.1291C38.785 20.748 38.9457 20.3557 39.2895 19.9861L39.6137 19.6556C39.855 19.4107 40.1872 19.2223 40.5411 19.1271C40.8658 19.0398 41.2102 19.0304 41.5191 19.1358C41.9357 19.0218 42.2058 18.8874 42.4566 18.7624C42.6352 18.6733 42.8036 18.5893 42.9538 18.5238C43.6854 18.2055 44.4142 17.881 45.1406 17.5508C45.7704 17.2642 46.4103 16.9997 47.0501 16.7351C47.7241 16.4563 48.3981 16.1775 49.0605 15.8735Z" fill="black"/>
</svg>
