<?xml version="1.0" encoding="UTF-8"?>
<svg id="Layer_1" xmlns="http://www.w3.org/2000/svg" version="1.1" viewBox="0 0 122 131.95">
  <!-- Generator: Adobe Illustrator 29.4.0, SVG Export Plug-In . SVG Version: 2.1.0 Build 152)  -->
  <defs>
    <style>
      .st0 {
        fill: #fff;
      }

      .st0, .st1 {
        fill-rule: evenodd;
      }
    </style>
  </defs>
  <path class="st0" d="M105.68,73.88c-.5-6.5.28-13.31-2.23-19.48-4.37-10.25-16.61-13.66-26.1-17.57-3.8-1.12-16.6-1.28-21.05-2.77-10.08-3.37-12.49-7.38-20.49-.97-1.35,1.1-2.2,2.29-2.81,3.91h.03c-.18.69.01,1.36.41,1.88-3.47,3.55-4.92,8.87-3.14,13.6,5.81,12.3,5.54,18.95,3.67,32.17-2.45,12.34,3.14,16.85,12.4,23.57-.38.73-.45,1.7.04,2.35,10.7,15.05,30.89,22.23,48.18,14.6,7.02-3.13,10.15-10.6,11.94-17.35,2.08-7.56,2.72-15.52,1.03-23.21-.68-3.56-1.58-7.09-1.85-10.72Z"/>
  <path class="st1" d="M43.94,1.89c1.3-.2,2.28.61,2.75,1.75l.02.06c.15.39.32.76.5,1.13,3.25-1.6,7.89-1.19,9.95,2.05,1.47,2.31.57,5.05.02,7.49l-.36,1.61c.7.45,1.23,1.25,1.21,2.08v.06s-.15,2.25-.15,2.25c.47-.48.9-.99,1.28-1.55.26-.48.55-.96.86-1.42,1.8-2.71,5.85-.35,4.36,2.55-.29.56-.61,1.09-.95,1.6-.39.75-.71,1.53-.95,2.33.7.31,1.24.99,1.3,2.01.13,2.4-1.13,4.4-3.13,5.66-.59.37-1.2.44-1.75.3-.1.13-.19.26-.29.4.8.65,1.52,1.39,2.14,2.21,1.86-.28,3.74-.41,5.61-.41,2.29-1.12,5.03-1.1,7.49-.68,1.58.27,3.11.8,4.66,1.18,1.64.4,3.31.41,4.98.68,2.1.34,3.93,1.31,5.09,2.85,1.27.04,2.61.56,3.71,1.26,2.58,1.64,5.14,3.31,7.71,4.97.99.64,1.36,1.65,1.17,2.78v.07s-.1.47-.1.47l.2.29c.79,1.11,1.64,2.28,2.15,3.5.94,1.36,1.79,2.78,2.55,4.25,1.02,1.97,1.85,4.07,2.42,6.21.14.54.28,1.09.38,1.64.13.78-.07,1.39-.18,2.14-.14.95-.19,1.91-.34,2.87-.1.63-.64.94-1.2.96.21,1.61.36,3.23.51,4.83.21,2.3.34,4.6.47,6.9.62.9,1.89,1.62,2.81,1.86,1.27.34,2.6-.03,3.8-.46.75-.27,1.37.68,1.01,1.31-1.16,1.99-3.63,1.98-5.5,1.1-.79-.37-1.49-.91-2-1.61.03.67.07,1.34.1,2.01l.03.61c.38,7.09,1.2,14.42-.13,21.43-2.31,12.15-12.36,21.41-24.64,22.13-6.45.38-11.81-1.53-14.48-2.59-2.67-1.06-1.63-3.23.22-2.61,3.19,1.07,9.06,2.66,14.3,1.97,12.37-1.62,22.86-7.8,21.78-34.44-.15-3.78-.62-7.56-.72-11.33-.1-3.69-.06-7.39-.22-11.08l-.05-1.26c-.06-1.47-.13-2.95-.24-4.42-.13-.57-.24-1.15-.41-1.71-.44-1.52-1.02-3.01-1.73-4.42-.16.12-.34.21-.53.24-1.46.26-2.83.19-4.2-.42-.64-.28-1.2-.66-1.72-1.12-.25-.22-.42-.43-.55-.65-.66.01-1.32-.19-1.74-.66-.47-.54-.55-1.1-.37-1.62l.02-.05-.05-.02c-.56,1.44-1.67,2.71-2.89,3.57-1.93,1.36-4.34,1.75-6.65,1.79-2.55.04-5.24-.36-7.76-.76-.67-.11-1.33-.23-1.98-.39-.03.03-.05.06-.08.08-2.16,2.07-5.2,2.6-7.94,1.42-1.58-.68-2.91-1.78-4.09-3.04-.02.66-.05,1.32-.11,1.97l-.02.26c-.12,1.22-.34,2.51-1.26,3.38-1.49,1.42-3.64.85-5.35-.07,0,.04,0,.09,0,.14.46,1.57.93,3.15,1.39,4.72l.1.34c.34,1.12.71,2.24.81,3.41.19,2.24-1.29,4.44-3.78,3.69-1.3-.39-2.35-1.49-3.35-2.37l-.63-.55c1.63,5.34,2.77,10.87,2.87,16.45,0,.3-.25.53-.54.54-.67.03-1.39-.11-2.07-.37-.04,0-.08,0-.12-.01-1.15-.17-2.22-.58-3.17-1.2.22.69.31,1.43.26,2.21-.01.19-.31.25-.35.05-.55-2.68-3.68-4.71-6.39-4.2-2.9.55-5.04,3.05-5.56,5.89-.56,3.05.51,6.59,2.51,8.94.92,1.09,2.12,1.99,3.56,2.22.65.1,1.34.07,1.97-.12.27-.08.52-.19.78-.3.38-.15.82-.18,1.17-.34.8-.36,1.61.38,1.21,1.21-.35.72-.67,1.21-1.26,1.58.48.58.91,1.39,1.07,1.61.82,1.11,1.65,2.15,2.59,3.17.95,1.03,1.99,1.97,3.08,2.83l.46.37c1.06.84,1.98,1.61,2.72,2.82.59.95-.17,2.24-1.27,2.22-3.44-.05-5.95-3.08-7.73-5.72-.25-.38-.49-.78-.71-1.19-.08.13-.17.25-.27.36l.2.53c.58,1.56-1.93,2.57-2.66,1.12-.53-1.05-1.15-2.05-1.83-3-.4-.06-.8-.3-1.02-.62-.56-.81-1.18-1.62-1.7-2.48-.29-.28-.59-.54-.9-.8-.09.08-.18.16-.27.24-.38.88-.86,1.68-1.45,2.43l-.13.16c-1.13,1.42-2.6,2.88-4.42,3.23-.56.11-1.09-.58-.6-1.03,1.27-1.14,2.78-1.92,3.95-3.2.58-.63,1.11-1.32,1.57-2.05l.1-.17c.08-.12.15-.25.23-.38-.53-.36-1.06-.73-1.59-1.09-1.46,1.25-3.36,1.82-4.98,2.85l-.16.1c-1.46.98-3-1.18-1.83-2.37,1.29-1.3,2.37-2.86,3.51-4.3-.54-.99-.79-2.16-.89-3.34-.04-.34-.07-.67-.1-1.01-.82.01-1.64-.27-2.34-.75l-.26-.19c-.85.27-1.74.4-2.59.38-2-.06-2.82-2.35-1.57-3.8,1.28-1.48,3.52-1.8,5.29-1.08.06-.03.12-.06.17-.09-.08-.39-.07-.74.03-1.05l-.03-.19c-.39-.6-.65-1.28-.74-2-.08-.57-.06-1.14.07-1.7.04-.19.14-.38.21-.58-.14-.36-.23-.74-.26-1.12-.04-.05-.08-.1-.12-.15-.88-1.24-.7-2.72.14-3.72,0-.06,0-.13.02-.19-.05-.11-.09-.22-.14-.33-.82-.83-1.42-1.82-1.31-3.05.07-.72.36-1.38.81-1.86-.08-.24-.09-.51,0-.74-.72-1.91-.63-4.21-.11-6.35-.11-.33-.17-.68-.16-1.05.06-1.59,1.43-3.05,3.06-3.03.2,0,.38.03.56.06v-.04c.06-.48.2-.92.39-1.31-.09-.03-.18-.08-.26-.15-1.04.56-2.15.98-3.3,1.27-.85.21-1.72-.75-1.19-1.55.25-.37.52-.7.81-1.01-.41,0-.84.03-1.26.09-.76.1-1.62-.42-2.11-1.13-.62.6-1.24,1.2-1.85,1.8-1.57,1.52-3.94.4-4.18-1.6-.47-.12-.9-.34-1.28-.64-2.47,1.07-5.13,1.66-7.85,1.78-1.95.08-3.09-2.19-2.18-3.8.61-1.08,1.37-2.05,2.25-2.89-1.36.42-2.77.72-4.2.91-.78.1-1.87-.54-2.18-1.25-1.19-2.74-1.09-5.59.28-8.26.05-.11.11-.21.17-.31.14-.35.3-.7.46-1.04-1.68-1.75-1.83-4.36-.92-6.55-.36-.59-.5-1.3-.26-1.94.7-1.85,1.72-3.56,3-5.02-.12-.24-.23-.49-.32-.76-.72-2.19.11-4.83,1.8-6.35,1.06-.96,2.28-1.53,3.57-1.9.55-.97,1.25-1.84,2.07-2.58.03-.07.06-.14.1-.21,1.28-2.41,3.6-3.69,6.09-3.99.1-.94.73-1.84,1.65-2.13.25-.81.63-1.59,1.15-2.3.82-1.11,2.18-1.64,3.46-.91.7.4,1.37.86,2,1.37.28-.13.6-.22.97-.25h.09s2.08-.11,2.08-.11c.87-.39,1.74-.79,2.62-1.19.52-.43,1.11-.79,1.75-1.06.72-.3,1.46-.47,2.2-.53.6-.2,1.21-.37,1.83-.51,1.45-.32,2.97-.49,4.47-.48.03-.39.05-.78.04-1.18v-.2c-.04-1.28.98-2.3,2.19-2.48ZM42.48,104.2c-.21.04-.42.08-.63.11.06.16.13.31.19.47.17.1.34.19.51.27-.05-.29-.08-.58-.07-.85ZM31.62,100.97l-.14.26s-.05.08-.07.13c.3-.02.6-.02.89.02v-.03s-.08-.02-.11-.04c-.2-.1-.39-.21-.57-.33ZM37.49,89.17c1.87.11,3.45.4,5.15,1.21l.15.07c1.5.75,3.99,2.12,3.78,4.1-.06.56-.47,1.15-1.11,1.11-1.76-.12-2.77-1.9-3.96-3-1.2-1.12-2.68-2.26-4.13-3.03-.21-.11-.12-.45.1-.46h.03ZM29.01,63.13c-.45.01-.3.45-.07.09.02-.03.04-.06.07-.09ZM53.19,34.06c-4.24.11-8.51,2.62-11.69,5.15-2.76,2.2-5.15,4.82-7.27,7.65-.54,1.41-1.01,2.84-1.41,4.29-.26.96-.42,1.92-.64,2.88l-.07.3c-.17.32-.3.66-.39,1.02.39.39.88.66,1.43.79.18.04.32.13.44.26.44-.74.83-1.52,1.06-2.35v-.04c.86-1.39,1.78-2.75,2.77-4.05,2.73-3.6,5.74-6.89,9.36-9.62,2.74-2.07,5.81-3.69,9.07-4.75-.8-.64-1.71-1.15-2.69-1.53Z"/>
</svg>