<svg width="121" height="142" viewBox="0 0 121 142" fill="none" xmlns="http://www.w3.org/2000/svg">
<path fill-rule="evenodd" clip-rule="evenodd" d="M102.278 47.8258C94.4474 36.7561 74.7686 35.5092 62.3315 35.5793C37.7701 35.3752 32.6273 63.5498 31.3446 83.2926C28.7248 83.7373 26.1772 84.6488 24.4485 86.7034C22.3435 89.2054 21.6164 93.4998 23.5898 96.2979C24.9007 98.1558 26.9704 98.7768 29.1354 98.8802C36.3052 98.1974 37.7756 104.575 41.3069 109.358C50.3685 121.575 66.0665 125.538 80.4644 125.599C85.3548 125.728 91.246 126.095 94.3779 121.503C104.27 104.391 104.485 81.6976 105.095 62.3064C105.179 57.3421 105.158 52.0866 102.278 47.8258Z" fill="white"/>
<path fill-rule="evenodd" clip-rule="evenodd" d="M119.179 57.4279C119.278 57.6154 119.352 57.823 119.392 58.0489C119.521 58.7658 119.257 59.314 118.909 59.8463C118.955 60.2175 118.98 60.5773 119 60.8937C119.11 62.6703 118.702 65.1056 117.133 65.8308C117.108 65.8602 117.084 65.8894 117.058 65.9185C116.937 66.1152 116.752 66.2854 116.509 66.4096C116.448 66.4516 116.387 66.4914 116.326 66.5255C116.31 66.5393 116.292 66.5516 116.275 66.5639C116.263 66.573 116.25 66.582 116.238 66.5916C116.257 66.5717 116.275 66.5513 116.294 66.5309C116.308 66.5161 116.321 66.5013 116.335 66.4866C115.466 66.8322 114.628 66.9035 113.733 66.7986C113.179 66.9981 112.625 67.1472 112.157 67.2626C110.696 67.6226 108.812 67.9108 107.388 67.297C106.974 67.1183 106.629 66.8815 106.371 66.5992C106.392 67.699 106.425 68.7984 106.472 69.8982C106.57 72.6783 106.565 75.4561 106.544 78.2385C106.52 81.3695 106.432 84.5027 106.263 87.6313C106.185 89.2026 106.059 90.7716 105.89 92.3359C105.748 93.8599 105.582 95.3815 105.389 96.8983C104.936 100.017 104.188 103.16 103.276 106.175C102.879 107.483 102.444 108.808 101.95 110.102C101.741 110.697 101.521 111.285 101.281 111.868C100.015 114.923 98.438 117.871 96.3077 120.417C95.144 121.806 93.8592 123.055 92.4248 124.105C91.2729 125.001 90.0261 125.759 88.6558 126.356C85.7109 127.641 82.4241 127.93 79.2393 127.883C78.0245 127.866 76.7366 127.652 75.5323 127.452L75.4585 127.439C74.5181 127.285 73.5657 127.079 72.6229 126.837C71.7869 126.643 70.9605 126.418 70.1459 126.155C69.165 125.897 68.2246 125.524 67.3292 125.043L65.7428 124.448C65.0802 124.2 64.4366 123.903 63.812 123.564L62.0879 122.761C61.373 122.417 60.6772 122.04 59.9979 121.626C59.9267 121.588 59.846 121.524 59.8151 121.453C59.7417 121.412 59.6679 121.372 59.594 121.332C59.491 121.277 59.3878 121.221 59.2855 121.163C59.257 121.149 59.2784 121.066 59.3163 120.986C59.2855 120.922 59.2902 120.851 59.3757 120.787C59.4398 120.737 59.542 120.751 59.6488 120.784C59.6393 120.777 59.6322 120.77 59.6251 120.763C59.5874 120.743 59.5499 120.722 59.5126 120.702C59.4324 120.66 59.353 120.617 59.2736 120.573C59.1549 120.509 59.1359 120.343 59.2475 120.256C59.2784 120.232 59.314 120.22 59.3496 120.218C59.3484 120.218 59.3472 120.217 59.346 120.217C59.3448 120.216 59.3437 120.215 59.3425 120.215C59.3211 120.201 59.3377 120.135 59.3686 120.061C59.3092 119.985 59.2902 119.893 59.3947 119.812C59.538 119.7 59.8591 119.884 60.009 119.97C60.0207 119.976 60.0313 119.983 60.0407 119.988C60.134 120.04 60.2282 120.089 60.3221 120.139C60.3789 120.169 60.4356 120.199 60.4919 120.23C60.5014 120.208 60.5204 120.189 60.5513 120.17C60.3304 120.054 60.1119 119.936 59.8934 119.817C59.7581 119.746 59.5823 119.597 59.7605 119.457C59.903 119.343 60.2711 119.538 60.4468 119.637C60.4682 119.62 60.4919 119.613 60.5204 119.609C60.4898 119.591 60.4584 119.575 60.4269 119.558C60.3801 119.533 60.3331 119.508 60.2877 119.481C60.0739 119.362 60.2188 118.992 60.4397 119.116C60.4527 119.124 60.4658 119.132 60.4788 119.139C60.4919 119.147 60.505 119.155 60.518 119.163C60.6693 119.15 60.8784 119.267 60.9865 119.327L61.0025 119.336C61.7459 119.803 62.5201 120.211 63.3228 120.561C63.8643 120.817 64.4081 121.071 64.9543 121.317C65.4911 121.583 66.0444 121.813 66.612 122.007C68.0393 122.562 69.4809 123.078 70.9367 123.557C72.9767 124.114 75.088 124.562 77.2064 124.738C77.4819 124.759 77.7574 124.778 78.0329 124.787C78.3331 124.785 78.6334 124.783 78.9333 124.781C79.236 124.78 79.5384 124.778 79.8402 124.775C80.9029 124.666 81.9656 124.558 83.0265 124.45L83.3503 124.418C83.7588 124.361 84.1577 124.29 84.552 124.207C84.7586 124.157 84.9652 124.105 85.1695 124.045C85.2407 124.036 85.3119 124.022 85.3832 124.01C85.8843 123.877 86.3759 123.718 86.8675 123.534C87.1762 123.408 87.4826 123.275 87.7866 123.135C88.7912 122.668 89.7791 122.052 90.7101 121.346C91.2922 120.767 91.8743 120.189 92.4564 119.611C93.0404 119.032 93.6243 118.452 94.2083 117.871L95.2746 116.421C96.6521 114.456 97.7421 112.266 98.647 110.031L100.086 105.893C100.236 105.395 100.378 104.897 100.514 104.397C100.787 103.279 101.06 102.16 101.333 101.044C101.423 100.634 101.511 100.226 101.597 99.8183C102.121 97.2799 102.411 94.7036 102.661 92.1273C103.117 87.4393 103.24 82.737 103.273 78.03C103.295 75.2167 103.271 72.4034 103.214 69.5924C103.181 67.9618 103.157 66.3312 103.133 64.7005C103.102 62.9704 103.069 61.2378 103.024 59.5076C103.022 59.4697 103.036 59.4365 103.055 59.4081C103.05 59.2043 103.048 59.0004 103.045 58.7942C103.043 58.6592 103.095 58.5999 103.171 58.5881C103.157 57.3532 103.147 56.1208 103.145 54.8883C103.145 54.8077 103.183 54.7556 103.233 54.7248V54.4119C103.026 53.554 102.746 52.7126 102.383 51.9115C102.259 51.6223 102.121 51.3403 101.969 51.0653C101.782 50.653 101.537 50.2785 101.238 49.9348C100.989 49.5153 100.682 49.1432 100.326 48.8114C100.254 48.7594 100.181 48.7074 100.108 48.6554C100.035 48.6031 99.9617 48.5508 99.889 48.4985C99.7679 48.4345 99.5898 48.3231 99.4331 48.1952C99.2918 48.1087 99.151 48.0215 99.0103 47.9344C98.8696 47.8473 98.7289 47.7602 98.5876 47.6737C98.4237 47.5884 98.5306 47.3751 98.647 47.3182V47.3111C98.6209 47.2993 98.5924 47.285 98.5615 47.259C98.2195 46.9366 97.8633 46.6333 97.4928 46.3489C97.4263 46.3749 97.3479 46.3654 97.2885 46.3157C97.07 46.1118 96.8468 45.9151 96.6188 45.7255C96.1082 45.3913 95.5739 45.0856 95.0158 44.8154C94.1204 44.3935 93.2037 44.0309 92.2633 43.7228C92.0805 43.6628 91.8966 43.6085 91.7134 43.5545L91.6532 43.5367C91.5425 43.5315 91.4318 43.5259 91.3212 43.5204C91.1428 43.5115 90.9645 43.5025 90.7861 43.4948C80.0247 43.0236 69.2351 43.2215 58.4982 44.0859C55.853 44.299 53.2112 44.5528 50.5739 44.8469C50.0766 44.9024 49.5582 44.9456 49.0296 44.9897C47.0909 45.1512 45.0143 45.3243 43.3381 46.1578C43.2478 46.2029 43.1618 46.2505 43.078 46.2996C43.2225 47.2241 43.5696 48.1298 43.9067 49.0095C43.958 49.1432 44.009 49.2764 44.0591 49.4089C44.644 50.958 45.1682 52.5369 45.1161 54.2145C45.0796 55.3844 44.8276 56.5092 44.4647 57.6085C44.2788 59.1758 43.7893 60.6896 43.2697 62.1769C40.7126 69.4943 39.3207 76.9862 39.4637 84.7537C39.4675 84.9618 39.4195 85.1434 39.3368 85.2979L39.3411 85.329C39.3865 85.6582 39.4319 85.9877 39.4853 86.3161C39.6985 87.6251 37.9689 88.2762 37.3721 87.4085C37.332 87.4481 37.2764 87.4753 37.2251 87.4796C37.0731 87.4938 36.8237 87.2449 36.7525 87.1312C36.6599 86.9605 36.5625 86.7946 36.458 86.6358C36.4437 86.6287 36.4319 86.624 36.42 86.6192C36.4512 86.6838 36.483 86.749 36.5145 86.8136C36.5477 86.8818 36.5807 86.9493 36.6124 87.015C36.7169 87.2236 36.3155 87.3255 36.1968 87.1335C36.0899 86.9653 35.983 86.8041 35.8761 86.65C35.8144 86.6951 35.7455 86.7069 35.7004 86.6334C35.318 86.003 34.8763 85.4626 34.3918 85.0028C33.6295 84.3818 32.7959 84.005 31.8483 83.7846C31.1026 83.6779 30.3379 83.6732 29.5993 83.7585C28.7515 83.8581 27.8585 84.069 27.0914 84.4553C26.4668 84.8843 25.8398 85.3133 25.2129 85.7423C25.0585 85.9035 24.9113 86.0717 24.7735 86.2471C24.3389 86.8088 23.9898 87.4085 23.7024 88.046C23.6906 88.0863 23.6787 88.1266 23.6668 88.1645C23.4911 88.7002 23.3771 89.25 23.3272 89.8141C23.3236 90.1708 23.3207 90.5269 23.3177 90.883C23.3147 91.2391 23.3118 91.5952 23.3082 91.952C23.4032 92.8787 23.6407 93.7793 24.004 94.6349C24.175 95.1397 24.4434 95.59 24.8068 95.9882C25.0015 96.3248 25.2224 96.6305 25.4694 96.9149C25.9705 97.2467 26.5167 97.5288 27.0985 97.7516C27.241 97.7895 27.3835 97.8274 27.5284 97.8559C28.2765 98.1426 29.0507 98.2967 29.851 98.318C30.8627 98.3868 31.8531 98.2991 32.822 98.055C33.4205 97.9483 34 97.7753 34.5605 97.5359C35.0972 97.2657 35.603 96.941 36.0756 96.5618C36.1279 96.5286 36.2062 96.5476 36.2917 96.5902C36.31 96.577 36.3283 96.5638 36.3465 96.5506C36.4327 96.4884 36.5186 96.4264 36.6029 96.358C36.6504 96.3248 36.6931 96.3651 36.7145 96.4077L36.743 96.3864C36.9306 96.2584 37.4459 96.659 37.2132 96.896C37.313 96.9576 37.4127 97.0311 37.5029 97.1069C37.9162 97.1235 38.7498 97.8819 38.593 98.0005C38.3603 98.2019 38.1157 98.3868 37.8663 98.5622C38.0872 98.7257 38.3769 98.9793 38.2415 99.0812C37.9993 99.3111 37.7357 99.5102 37.4554 99.6808C37.2655 99.8254 37.0707 99.9629 36.8665 100.089C36.6456 100.219 36.42 100.33 36.1873 100.435C36.5934 101.219 36.9805 102.011 37.3414 102.816C37.5813 103.388 37.8592 103.94 38.1798 104.471C38.5883 105.279 39.0775 106.037 39.6498 106.744C40.1153 107.526 40.6616 108.244 41.2861 108.901C42.058 109.777 42.8868 110.602 43.7679 111.365C44.1194 111.614 44.478 111.856 44.8509 112.079C45.8032 112.795 46.8173 113.408 47.8931 113.92C48.019 113.989 48.1187 114.141 47.9715 114.259C47.9693 114.26 47.967 114.261 47.9648 114.262C47.9623 114.263 47.9598 114.264 47.9572 114.266C48.3087 114.466 48.6626 114.662 49.0188 114.857L49.0307 114.863C49.1743 114.941 49.4404 115.084 49.2325 115.252C49.0948 115.366 48.6697 115.162 48.4156 115.03C48.4512 115.049 48.4892 115.07 48.5272 115.091C48.5308 115.093 48.5352 115.096 48.5403 115.098C48.6455 115.155 49.044 115.368 48.7789 115.506C48.6388 115.53 48.5058 115.506 48.3776 115.437C48.2446 115.387 48.1116 115.333 47.981 115.276C47.9857 115.319 47.962 115.359 47.8931 115.392C47.8385 115.402 47.7862 115.402 47.734 115.397C48.0237 115.561 48.3135 115.722 48.6056 115.88C48.6911 115.926 49.0948 116.148 48.8288 116.286C48.6982 116.312 48.5723 116.291 48.4512 116.224C48.2303 116.141 48.0119 116.044 47.8005 115.937C47.7506 115.909 47.7007 115.883 47.6509 115.854C47.6129 115.854 47.5749 115.85 47.5369 115.843C47.7696 115.968 48.0047 116.089 48.2422 116.208C48.3823 116.283 48.6175 116.437 48.4156 116.594C48.2755 116.701 47.8979 116.509 47.6746 116.383C47.6604 116.4 47.6437 116.418 47.62 116.437C47.4744 116.548 47.1282 116.348 46.9536 116.248C46.9289 116.234 46.9077 116.221 46.8909 116.212C45.713 115.582 44.5754 114.93 43.4806 114.183C42.8108 113.755 42.1577 113.304 41.5189 112.814C40.2958 111.87 39.1844 110.773 38.1655 109.616C37.4697 108.825 37.0921 108.379 36.4176 107.419C35.3347 105.874 34.5177 104.262 33.7316 102.553C33.7197 102.527 33.7435 102.461 33.7791 102.395C33.6176 101.999 33.4609 101.598 33.3041 101.183C32.8956 101.238 32.4848 101.276 32.0787 101.3C31.1216 101.354 30.193 101.269 29.2929 101.072C28.2029 100.932 27.1247 100.624 26.1699 100.141C25.5976 99.8539 25.0466 99.5481 24.5241 99.2068C24.0563 98.958 23.6051 98.6736 23.1728 98.3417C21.3323 96.9386 20.3325 94.7605 20.0878 92.4994C19.9002 91.504 19.8599 90.4801 19.9715 89.4918C20.0522 88.7736 20.2137 88.0626 20.4488 87.3777C20.8834 85.8584 21.6933 84.4529 22.8665 83.3888C23.0636 83.1873 23.2702 82.9953 23.4911 82.8152C24.1442 82.2819 24.8851 81.853 25.6736 81.5401C25.8256 81.4666 25.98 81.3979 26.1343 81.3339L25.9467 80.9025C25.8802 80.9215 25.6498 80.8836 25.6213 80.803C25.5747 80.6764 25.5298 80.5481 25.4851 80.4201C25.457 80.3396 25.4289 80.2593 25.4005 80.1797C25.3577 80.2057 25.3031 80.22 25.2437 80.2223V80.4617C25.2461 80.5304 25.1155 80.9571 25.0442 80.7343C24.9993 80.6097 24.9569 80.4834 24.9145 80.3569C24.8876 80.2764 24.8606 80.1959 24.8329 80.1157C24.7735 80.0777 24.7284 80.0327 24.7118 79.9806C24.7046 79.9592 24.6975 79.9379 24.688 79.9166C24.6856 79.9154 24.6827 79.9148 24.6797 79.9142C24.6767 79.9136 24.6738 79.913 24.6714 79.9118V79.9853C24.6738 80.0303 24.555 80.3716 24.5336 80.3053C24.1228 79.1771 23.7879 78.0252 23.5267 76.8544C23.3486 76.2097 23.2085 75.558 23.1016 74.8967C22.9852 74.3018 22.8831 73.7045 22.7952 73.1025L22.7738 72.9532C22.7726 72.947 22.7713 72.9414 22.7701 72.9357C22.769 72.9307 22.7678 72.9256 22.7667 72.92C22.7596 72.8561 22.7525 72.7897 22.743 72.7257C22.648 72.0455 22.5696 71.3629 22.5102 70.6756C22.3844 69.263 22.3345 67.8433 22.3487 66.426C22.3295 66.4334 22.3111 66.4426 22.2925 66.452C22.2813 66.4576 22.2701 66.4633 22.2585 66.4686C21.6415 66.7308 20.9896 66.945 20.3263 67.1157C19.1851 68.7615 17.3634 69.8752 15.1801 69.9923C14.4408 70.0321 13.6657 69.9423 12.948 69.7339C12.8734 69.751 12.7964 69.7647 12.7166 69.7752C12.3417 69.8241 12.04 69.744 11.7276 69.661C11.5526 69.6146 11.3743 69.5673 11.178 69.5412C11.107 69.5319 11.037 69.5229 10.9678 69.514C10.1832 69.4134 9.51404 69.3276 8.99329 68.8613C8.81826 68.8653 8.65106 68.8399 8.49218 68.7925C6.98959 69.1521 5.39295 68.3595 4.86453 66.6985C3.96326 66.1714 3.24509 65.3895 2.76227 64.4822C1.83227 63.2925 1.08869 61.8337 0.627482 60.3009C0.624638 60.2951 0.621681 60.2895 0.618716 60.2837C0.614253 60.2751 0.609771 60.2665 0.605633 60.2575C0.371706 59.7513 0.260323 59.2083 0.250824 58.6637C0.00193499 57.1122 0.0674821 55.5588 0.540799 54.1934C0.520849 53.4532 0.695167 52.6818 1.01435 51.9819C1.40122 51.1331 1.99115 50.1574 2.75658 49.5914C2.75848 48.7216 3.133 47.764 3.62389 47.1151C4.60353 45.8189 6.02419 45.1337 7.5617 45.0346C8.34351 43.0345 10.7125 42.5674 12.7558 43.2331C13.6046 42.3676 14.8479 41.9542 16.0888 42.1014C17.138 42.2258 18.0347 42.7266 18.7771 43.4168C18.9728 43.4725 19.1678 43.5306 19.3626 43.591C20.0126 43.3064 20.7709 43.2419 21.4646 43.4204C22.667 43.7297 23.4514 44.6388 23.9941 45.6817C24.1672 45.8006 24.3363 45.9234 24.5013 46.0516C24.6826 46.1327 24.8471 46.241 24.9965 46.3685C25.2136 46.4839 25.3979 46.6738 25.5102 46.9492C25.8166 47.2644 26.1015 47.5979 26.3538 47.9555C26.5426 47.5197 26.7373 47.0869 26.9385 46.6572C27.266 46.7556 27.6619 46.6283 27.8267 46.1917L27.8686 46.0806C28.922 43.2908 30.7974 38.3238 32.566 36.0185C30.4742 37.4399 27.9202 38.1891 25.3834 38.1137C25.2748 38.1104 25.1654 38.1059 25.0549 38.1C23.6913 38.3346 22.306 38.3564 21.0342 38.1019C20.1779 37.7916 19.3433 37.4219 18.5347 37.0035C18.338 36.9016 18.143 36.7945 17.9488 36.6864C17.8879 36.6352 17.8303 36.5798 17.7726 36.5243C17.7499 36.5025 17.7273 36.4807 17.7044 36.4591C17.5372 36.4712 17.3622 36.4582 17.176 36.4089C16.4761 36.2243 15.8285 35.7595 15.4224 35.1622C15.3468 35.0511 15.286 34.9366 15.2319 34.8212C14.7914 34.3912 14.4097 33.9042 14.1292 33.3346C13.7991 32.6686 13.5973 31.9197 13.5759 31.1707C13.4381 30.436 13.4476 29.6799 13.7041 28.9784C13.7221 28.9306 13.7419 28.8838 13.7619 28.8367C13.7736 28.809 13.7853 28.7813 13.7967 28.7532C13.8026 28.7338 13.8076 28.714 13.8127 28.6942C13.82 28.6655 13.8273 28.6367 13.8371 28.6087C13.9122 28.3586 14.0076 28.1358 14.1235 27.9249C14.1665 27.708 14.2368 27.493 14.3361 27.2838C14.3472 27.1826 14.361 27.0814 14.3774 26.9806C13.6227 25.5598 13.8901 23.7016 15.0198 22.5466C14.8635 21.8001 15.0227 21.0085 15.4779 20.346C15.8123 19.8592 16.2771 19.475 16.8036 19.2084C16.8585 19.1806 17.0038 19.133 17.1776 19.0782C17.3724 18.9064 17.5778 18.7438 17.8027 18.6007C17.8562 17.2118 19.2454 16.4106 20.4482 15.717C20.5063 15.6835 20.5639 15.6502 20.621 15.6172C21.0128 15.3902 21.297 15.0641 21.5814 14.7378C21.88 14.3952 22.1787 14.0524 22.6024 13.824C23.3435 13.4247 24.2542 13.3328 25.1091 13.2467C25.2979 13.2276 25.4841 13.2089 25.665 13.1871C28.0226 12.9037 30.5331 12.6847 32.9025 12.9409C34.218 13.0831 35.3074 13.7171 35.7579 14.7557C36.8895 14.8891 37.8981 15.7039 38.6961 16.542C39.6921 17.5879 40.5402 18.7014 40.8325 20.0758C41.0273 20.1808 41.2042 20.3093 41.364 20.4543C41.3581 21.4208 41.2318 22.389 40.9644 23.3013C41.043 23.8466 40.8784 24.3674 40.6 24.8395C40.6426 25.2865 40.6122 25.7266 40.5183 26.1653C41.0598 27.124 40.553 28.5729 39.7945 29.5235L39.7888 30.0596C39.8339 30.0362 39.8778 30.0084 39.9189 29.9736C42.1007 28.1207 44.3212 27.61 46.7196 27.0583C48.1046 26.7398 49.549 26.4075 51.0795 25.7953C54.8504 25.0689 58.6991 24.6065 62.5616 24.4527C62.5399 24.4495 62.5181 24.4466 62.4964 24.4438C62.4671 24.4399 62.4379 24.4361 62.4087 24.4314C60.4622 24.1133 58.5927 23.3143 56.9849 22.1665C56.5593 22.0589 56.1558 21.8671 55.7946 21.5465C55.4436 21.235 55.2007 20.8757 55.061 20.4903C54.9974 20.4223 54.9344 20.3538 54.8724 20.2841C53.6655 19.9884 52.7464 18.9462 52.9003 17.5763C52.1361 16.6735 51.8549 15.5589 52.1135 14.3982C51.6865 13.6784 51.6492 12.7709 51.9679 12.0108C51.2968 11.1974 51.2446 10.0427 51.7708 9.1224C51.2904 8.441 51.1842 7.53799 51.777 6.73097C52.0568 6.34986 52.4444 6.10953 52.8666 5.99339C52.9858 5.55421 53.2283 5.14632 53.6092 4.83133C53.8052 4.66946 54.0104 4.54929 54.2201 4.4597C54.2989 4.0063 54.5556 3.57637 55.0496 3.23815C55.2738 3.08481 55.5032 2.98574 55.7312 2.93075C55.9471 2.39748 56.3237 1.92986 56.8536 1.62625C57.4934 1.26007 58.2374 1.21148 58.9155 1.40346C59.8008 0.0681429 61.7435 -0.449487 63.0903 0.540978C64.2117 -0.151565 65.6224 -0.00556724 66.6303 0.836529C67.8491 0.117678 69.3626 0.407778 70.3185 1.41009C71.8501 0.57487 73.8716 1.19181 74.6917 2.77432C76.2372 2.6032 77.6938 3.61286 78.1058 5.07427C78.1728 5.12852 78.2391 5.18437 78.3052 5.24017L78.3226 5.25487C79.2486 5.29919 80.1285 5.66134 80.6474 6.52074C80.9068 6.94997 81.0264 7.45432 81.0089 7.94849C81.5625 8.24712 82.0097 8.73702 82.2013 9.37197C82.3809 9.96734 82.3132 10.5563 82.0771 11.0694C82.848 11.8878 83.0518 13.1634 82.5055 14.1913C82.7316 14.5781 82.8492 15.0353 82.8307 15.5105C82.8033 16.2142 82.4763 16.7814 82.0315 17.2656C82.5908 18.2729 82.3728 19.5651 81.4637 20.2714C80.9414 22.1191 79.6196 23.3485 77.5943 24.1026C76.5771 24.4814 75.5129 24.7731 74.4283 24.9874C78.7684 25.5702 83.0382 26.5945 87.1397 28.1218C87.3629 28.205 87.5522 28.1726 87.6968 28.0756C87.7362 28.0965 87.7759 28.1166 87.8157 28.1367C87.8663 28.1623 87.917 28.188 87.9671 28.2152C89.0975 28.8338 90.2042 29.5045 91.2824 30.2227C91.2824 30.1042 91.2848 29.9857 91.2896 29.8648C91.2687 28.8895 91.3715 27.9289 91.6311 27.0029C91.2915 26.541 91.0373 26.0143 90.8991 25.4716C90.554 24.1173 91.2105 22.1902 92.3896 21.7275C92.8028 20.5837 93.7426 19.7561 94.8944 19.4304C94.9858 19.3482 95.083 19.2683 95.1915 19.1941C95.434 19.0278 95.6993 18.9142 95.9719 18.8483C96.1137 18.2286 96.4602 17.6581 97.0349 17.2578C97.8459 16.6925 98.8051 16.6311 99.6478 16.9395C99.8081 16.8857 99.9707 16.839 100.135 16.7984C101.491 15.6461 103.606 15.731 104.799 17.0793C105.619 16.7055 106.584 16.6889 107.423 17.1919C108.094 17.5943 108.512 18.2433 108.675 18.9555C109.946 18.9943 111.108 19.8357 111.475 21.0914C112.646 21.2237 113.603 22.138 113.807 23.289C114.554 23.3928 115.243 23.7431 115.663 24.4396C115.857 24.7617 115.962 25.1142 115.99 25.4671C116.367 25.6479 116.706 25.9217 116.962 26.2793C117.41 26.906 117.496 27.6376 117.331 28.3261C117.347 28.3574 117.363 28.3883 117.379 28.4192C117.402 28.4638 117.425 28.5085 117.447 28.5541C117.568 28.813 117.666 29.0905 117.753 29.3723C118.147 29.939 118.329 30.6318 118.293 31.3276C118.377 31.622 118.458 31.9171 118.525 32.2136C118.791 33.3773 118.891 34.6169 118.708 35.8019C118.617 36.3755 118.487 36.9396 118.302 37.487C118.283 37.5913 118.252 37.6885 118.216 37.7809C118.114 38.2123 117.983 38.6365 117.817 39.0513C117.418 39.5798 117 40.0942 116.561 40.5919C116.19 41.1465 115.768 41.6584 115.29 42.1277C114.946 42.4666 114.568 42.7819 114.167 43.0663C113.37 43.7036 112.479 44.2006 111.527 44.5239C111.358 44.4883 111.187 44.4606 111.016 44.4333C109.936 45.0268 108.236 45.0939 107.197 45.0899C106.052 45.0856 105.003 44.7969 104.131 44.2516C104.232 44.4523 104.333 44.6533 104.434 44.8547C104.409 44.8692 104.382 44.8822 104.36 44.8991C104.171 44.5874 103.961 44.3106 103.713 44.1115C103.375 43.8392 102.829 43.8147 102.594 44.2553C102.59 44.2629 102.586 44.2707 102.582 44.2786C102.457 44.5134 102.474 44.7388 102.57 44.9228C102.605 44.9728 102.639 45.0233 102.674 45.0735C102.678 45.0775 102.681 45.0816 102.684 45.0857C102.693 45.0961 102.702 45.1066 102.712 45.1162L102.706 45.1169C103.03 45.3773 103.349 46.0154 103.652 46.6356C103.856 46.998 104.051 47.3656 104.234 47.7396C104.34 47.8965 104.53 48.0342 104.731 48.0743C104.692 48.3729 104.829 48.6817 105.055 48.8349C105.115 48.7154 105.187 48.5931 105.28 48.467C106.301 47.0833 108.306 46.4863 109.816 47.1187C110.117 47.0679 110.42 47.026 110.725 47.0021C111.722 46.9364 112.733 47.0146 113.717 47.2206C114.023 47.4035 114.315 47.6095 114.587 47.8444C114.818 48.0435 115.031 48.252 115.231 48.4677C115.385 48.5831 115.537 48.7054 115.686 48.833C116.29 49.1569 116.733 49.7784 117.105 50.397C117.401 50.8139 117.659 51.2569 117.882 51.7261C118.918 53.4942 120.113 55.6894 119.179 57.4279ZM36.1346 91.5965C36.5146 92.0349 36.8115 92.5232 37.0252 93.0612C37.1107 93.2342 37.0062 93.3385 36.8305 93.3077C36.7521 93.2958 36.6452 93.2389 36.536 93.1631C36.5443 93.1832 36.5532 93.2022 36.5621 93.2211C36.571 93.2401 36.5799 93.2591 36.5883 93.2792C36.6809 93.4617 36.6025 93.5921 36.3911 93.5233C36.3793 93.5162 36.3674 93.5091 36.3579 93.502C36.4671 93.6964 36.5669 93.8954 36.6524 94.104C36.745 94.2889 36.6619 94.4169 36.4529 94.3458C36.3436 94.2841 36.2391 94.213 36.1394 94.1348C36.1516 94.1618 36.1641 94.1887 36.1765 94.2155C36.2098 94.2875 36.243 94.3592 36.2724 94.4335C36.3674 94.6207 36.2581 94.7179 36.0729 94.6752C35.9138 94.5875 35.7665 94.4832 35.6288 94.3624C35.6148 94.3515 35.6017 94.3395 35.5891 94.3279C35.5825 94.3219 35.5759 94.3159 35.5694 94.3102C35.6312 94.4643 35.5148 94.5591 35.3604 94.5283C35.1419 94.4856 34.7311 94.1182 34.6313 93.9239C34.6278 93.918 34.6248 93.912 34.6218 93.9061C34.6189 93.9002 34.6159 93.8943 34.6123 93.8883C34.496 93.8101 34.3701 93.7011 34.2751 93.5968C34.1991 93.7058 34.0519 93.7864 33.9854 93.6537C33.7859 93.1109 33.4748 92.6464 33.0497 92.2553C32.8074 91.9022 32.5129 91.6012 32.1686 91.3523C31.9833 91.1959 31.791 91.0466 31.5938 90.9044C31.2447 90.7456 30.8814 90.6247 30.5014 90.5441C30.4583 90.5307 30.4145 90.5203 30.3707 90.5099C30.3373 90.502 30.3039 90.4941 30.271 90.4849L30.2431 90.4798C30.084 90.4507 29.9269 90.4219 29.7676 90.3996C29.0812 90.3048 28.3925 90.2882 27.7038 90.3498C27.5803 90.3545 27.4615 90.2597 27.4093 90.1507C27.2549 90.1578 27.1029 90.1649 26.9486 90.1791C26.6944 90.1886 26.7491 89.8307 26.9414 89.7952C27.1837 89.7502 27.4259 89.717 27.6634 89.6885C27.6586 89.6672 27.6563 89.6435 27.661 89.6245C27.2264 89.6032 26.7942 89.6127 26.3572 89.6577C26.1672 89.6672 26.3928 89.3164 26.4973 89.2975C26.522 89.2925 26.5466 89.2889 26.5716 89.2852C26.5948 89.2818 26.6182 89.2783 26.6422 89.2738C26.6374 89.2666 26.6351 89.2619 26.6327 89.2548H26.6208C26.3596 89.2666 26.1815 88.8519 26.495 88.795C26.5326 88.7882 26.5696 88.7824 26.6064 88.7768C26.6463 88.7706 26.6858 88.7645 26.7253 88.7571C26.7111 88.7168 26.7087 88.6812 26.7229 88.6481C26.5876 88.6457 26.4546 88.6457 26.3192 88.6457C26.3547 88.6434 26.3857 88.5685 26.4182 88.4902C26.4532 88.4059 26.4898 88.3176 26.5353 88.3115C26.5639 88.3076 26.593 88.3036 26.6221 88.2997C26.663 88.2941 26.7041 88.2886 26.7443 88.2831C26.7491 88.1954 26.8821 87.9915 26.9391 87.9797C27.3903 87.9038 27.832 87.8517 28.269 87.8351C28.3117 87.7356 28.3735 87.6028 28.4329 87.6028C28.9292 87.5957 29.4066 87.6005 29.8816 87.6502C29.9006 87.636 29.9195 87.6289 29.9362 87.6313C30.0145 87.6502 30.0858 87.6668 30.1618 87.6858C30.4254 87.7237 30.689 87.7782 30.9574 87.8564C31.5915 88.0437 32.2256 88.3399 32.7742 88.7073C33.2919 89.0533 33.8073 89.4136 34.2585 89.845C34.4176 89.98 34.5672 90.127 34.7097 90.2787C34.9401 90.4683 35.1633 90.6626 35.3771 90.8546C35.6383 91.094 35.8924 91.3405 36.1346 91.5965Z" fill="black"/>
</svg>
