<?xml version="1.0" encoding="UTF-8"?>
<svg id="Layer_1" xmlns="http://www.w3.org/2000/svg" version="1.1" viewBox="0 0 115.97 127.97">
  <!-- Generator: Adobe Illustrator 29.4.0, SVG Export Plug-In . SVG Version: 2.1.0 Build 152)  -->
  <defs>
    <style>
      .st0 {
        fill: #fff;
      }

      .st0, .st1 {
        fill-rule: evenodd;
      }
    </style>
  </defs>
  <path class="st0" d="M48.1,17.55l1.82,2.17c-1.01.71-1.96,1.43-2.86,2.15h0c4.16-2.71,8.76-4.32,13.73-4.32,9.58,0,29.03,8.23,33.43,14.17,2.18,2.95,6.24,11.99,8.34,21.82,1.69,7.9,4.2,30.22,1.69,38.6-3.22,10.73-13.8,20.65-24.72,20.65s-27.86-7.88-39.92-25.16c-.55-.79-6.88-1.71-11.4-4.67l1.19,13.07.9,7.6-.2.54c-3.24,8.75-5.8,13.32-7.69,13.7-1.93.39-5.86-2.78-11.8-9.5l-.76-3.18c-1.93-8.12-2.89-12.48-2.89-13.08v-.11c.03-1.37.5-9.15.51-11.25v-31.38c6.38-21.22,12.47-31.84,18.27-31.84h22.35v.02Z"/>
  <path class="st1" d="M32.97,10.33c1.88-.73,4.05-.59,5.83.51,3.5-.15,6.97,1.9,8.8,4.88.04.04.08.08.11.13l.39.45c.37.43.75.9,1.06,1.39-1.5.03-2.74.64-3.62,1.88-.62.88.8,1.72,1.44.88l.02-.03c.52-.74,1.31-1.03,2.19-1.04.25,0,.44-.1.58-.24.05.2.1.39.15.59,4.42-1.72,9.19-2.18,13.94-1.77-.21.34-.38.7-.52,1.08-.15.43.17.92.59,1.04.45.12.86-.14,1.02-.55l.02-.04c.18-.52.48-.96.88-1.31,2.24.3,4.46.79,6.62,1.41,2.6.75,5.18,1.66,7.7,2.71-.43.17-.8.45-1.05.92-.52.94.9,1.79,1.44.89l.02-.03c.05-.1.1-.15.13-.19h.01l.07-.05.14-.04h.05s.07-.02.19-.03h.49c.39,0,.63-.22.75-.49,1.24.56,2.47,1.15,3.68,1.77l.29.15c3.73,1.95,7.25,4.5,9.3,8.27.14.25.18.53.14.79.44.52.86,1.07,1.27,1.61,1.24,1.68,2.14,3.59,3,5.49,1.73,3.81,2.89,7.73,3.79,11.81.88,3.94,1.58,7.91,2.24,11.89.73,4.42,1.33,8.88,1.46,13.36.22,7.99-1.34,16.03-5.82,22.76-4,6-10.03,10.77-17.17,12.29-7.27,1.55-14.96.04-20.68-4.81-.92-.78-.8-2.35,0-3.15.9-.9,2.23-.78,3.15,0,5.39,4.56,13.24,5.27,19.74,2.94,6.01-2.15,10.72-7.11,13.6-12.69,3.52-6.8,4.12-14.6,3.58-22.12-.3-4.13-.91-8.23-1.54-12.32l-.38-2.46c-.42-2.67-.86-5.33-1.43-7.97l-.13-.61c-.7-3.18-1.52-6.45-2.78-9.44-.66-1.57-1.46-3.08-2.28-4.58-.16-.29-.32-.58-.49-.88-.22.08-.48.09-.75,0-2.31-.72-4.68-1.2-7.1-1.36-1.1-.07-2.2-.08-3.3-.04-1.88-.11-3.82.06-5.61.63-.18-.15-.35-.3-.53-.45-.05,0-.1,0-.14-.02-.46-.09-.78-.42-.97-.83-.01-.02-.02-.04-.03-.07-.23-.18-.46-.35-.69-.52-.57.15-1.07-.33-1.2-.85-.13-.09-.26-.17-.38-.25-.1.02-.2.04-.3.05-.42.03-.82-.03-1.2-.23-.47-.25-.77-.66-.97-1.13-.71.04-1.43-.19-2.07-.6-.52-.34-.91-.81-1.31-1.27-4.79-2.14-10-3.4-15.22-3.72-.51.1-1.02.22-1.53.35-.12.03-.29.1-.48.17,1.16-.14,2.34-.15,3.54.02,5.67.82,10.09,5.07,13.9,9.08.9-.18,1.82.99.98,1.77l-6.53,6.05h0c.16.68-.62,1.34-1.3,1.18-1.14-.27-2.28-.54-3.42-.8-1.19.58-2.69.48-3.77-.36-.05-.04-.16-.1-.25-.16-.09.07-.21.15-.26.18-.38.25-.85.33-1.3.26-.46-.07-.88-.31-1.24-.6-.23-.19-.76-.96-1.06-1.02h-.03c.2,0-.44.59-.61.72-.4.28-.84.43-1.34.38-.86-.1-1.61-.88-2.03-1.61l-.03-.06v-.03l-.02.04v.02c-.06.17-.26.37-.4.49-.39.34-.86.49-1.37.4-.43-.08-.79-.34-1.09-.65l-.05-.05c-.09-.1-.65-.86-.56-1.04v-.02h-.02c-.35.08-.64,0-.85-.18-1.19-.26-2.36-.56-3.49-.95-.09.25-.18.5-.26.75.62.38,1.19.93,1.72,1.32,1,.74,1.99,1.47,2.99,2.21l3.94,2.91h0l.45-.12h0c.58-.15,1.07.18,1.28.69l.02.04c.08.22.18.43.3.63.99-.04,1.82.57,2.09,1.43.24,0,.49,0,.74.03.69.08,1.15.59,1.03,1.29v.05l-.03.08c.4.17.69.5.75.99.11.16.19.34.25.53.29,1.01-.27,2.26-.57,3.23l-.02.08c-.19.64-.39,1.27-.59,1.9l-.5,1.57c-1.39,4.38-2.74,9-1.61,13.6.24.97-1,1.41-1.54.65-1.31-1.84-2.72-3.58-4.2-5.24h-.07c-1.04-.22-1.44-.95-1.92-1.7-.28.08-.58.1-.87.05-.42-.08-.8-.32-1.1-.63-.25-.26-.48-.92-.78-1.08-.37-.21-1.13.09-1.57.02-.36-.05-.7-.18-1.03-.33-.6.82-1.01,1.79-1.1,2.84-.04.4-.16.73-.33,1.01.63-.02,1.26.02,1.88.14,2.31.43,3.96,1.85,4.89,3.98.04.09-.08.17-.14.08-1.38-2.12-4.38-2.23-6.56-1.48-2.32.79-3.61,2.83-4.08,5.16-.51,2.55.14,5.3,1.53,7.47.64,1.01,1.52,1.93,2.69,2.3,1.39.44,2.67-.35,4.09.06.97.28,1.39,1.21,1.22,2.15-.07.37-.2.69-.37.97.51,1.01.98,2.06,1.59,3.02.93,1.48,2.05,2.71,3.28,3.94,1.27,1.28,2.55,2.53,3.91,3.71,1.3,1.13,2.78,1.94,4.15,2.98.95.73,1.43,1.75.96,2.92-.39.97-1.7,1.79-2.76,1.35-2.03-.84-3.81-2.26-5.43-3.73-1.5-1.36-2.81-2.99-3.79-4.76-.93-1.67-1.62-3.56-2.2-5.38l-.07-.23c-.27-.87-.56-1.84-.75-2.82-1.11.61-2.62.7-3.82.53-1.92-.26-3.68-1.23-5.01-2.65-.62-.66-1.16-1.41-1.64-2.22.04.5.07.97.1,1.41,1.1,1.21,1.55,2.95,1.15,4.54.92.95,1.18,2.38.7,3.59,1.01,1,.97,2.6.54,4.05,1.19,1.34,1.31,3.42.37,4.92l-.03.11h0c.94,1.58.73,3.61-.45,5,.81,1.56.68,3.67-1.33,4.27-.73.22-1.44.03-1.98-.38.49,2.42.7,4.87.06,7.3-.26.96-1.2,1.67-2.19,1.67-.83,0-1.43-.42-1.85-1.03.05,1.22-.03,2.45-.29,3.68-.16.75-.85,1.33-1.58,1.51.27.3.37.73.12,1.18-1.08,1.91-3.68,1.12-3.86-.71-.74-.55-1.08-1.45-1.22-2.42-.21-1.42-.28-2.82-.51-4.22l-.09.08h0l-.05.04v.1c-.15.69-.54,1.18-1.05,1.47.11,1.21-.09,2.44-.86,3.36-.51.61-1.38.85-2.13.72h-.14c-1.69-.22-2.67-1.83-2.22-3.3-.68-.83-.97-1.89-.77-2.94-1.32-.87-1.29-2.79-.83-4.33-1.38-1.09-1.9-3.13-1.21-4.75-1.24-1.54-1.42-3.7-.57-5.46-1.37-1.12-1.36-3.3,0-4.45-.72-1.44-1.16-3.15-.44-4.47-.51-.56-.79-1.36-.73-2.14.09-1.14.84-1.92,1.77-2.45l.06-.36h0c.22.03.45-.03.66-.23.2-.2.41-.35.63-.48.25,0,.46-.11.61-.28.41-.14.84-.2,1.33-.2,1.05-.01,1.08-1.58.11-1.68-.15-.16-.37-.25-.6-.25h-.18c-.42,0-.85.03-1.24.2-.25.11-.45.27-.59.47-.03.3-.19.61-.55.85-.41.29-.98.32-1.42.06-.62-.37-.62-.94-.55-1.55.16-1.36-.62-2.63-.44-4.02.08-.61.29-1.14.62-1.57-.7-1.05-.83-2.41-.29-3.56-1.13-1.21-1.32-3.08-.6-4.54.01-.04.02-.07.03-.11.08-.25.19-.47.32-.68-.63-1.09-.63-2.43.01-3.52-.97-1.13-1-2.93-.14-4.15,0-.1.02-.2.02-.3-.4-1.03-.3-2.2.2-3.15-.18-.41-.32-.86-.41-1.33-.23-1.22-.11-2.41.23-3.6.05-.19.12-.38.18-.56.01-.82.04-1.63.08-2.44-.16-.69-.19-1.44-.19-2.14v-.45c0-1.16-.09-2.85.64-3.83-.47-1.06-.28-2.4.51-3.24-.55-.95-.66-2.11-.11-3.16.09-.17.19-.33.3-.47-.05-.96.16-1.95.67-2.91.33-.62.83-1.16,1.42-1.59,0-.13-.02-.25-.01-.38.01-.56.13-1.12.34-1.64-.37-.64-.55-1.36-.33-2.14.25-.88.89-1.64,1.69-2.06.06-.83.19-1.65.38-2.47-.49-1.1-.1-2.56,1.02-3.2-.15-.88-.01-1.79.63-2.48.24-.26.53-.46.84-.59-.15-.89.02-1.81.63-2.53.5-.59,1.24-.95,1.99-1,.29-1.54,1.76-2.69,3.31-2.6.19-.68.66-1.27,1.38-1.57.18-.08.37-.13.56-.16,1.26-1.27,3.14-2.14,4.77-2.58,1.63-.44,3.28-.48,4.69.03l.1.04h.11c.49-.07.99-.1,1.48-.11h.03ZM20.58,114.68c-.44-.14-.92.16-1.04.59-.12.45.15.9.59,1.04.54.17,1.12.21,1.69.21.46,0,.85-.39.85-.85s-.39-.85-.85-.85-.8-.02-1.24-.15h0ZM16.7,105.7c-.65,0-1.21.16-1.69.61-.32.3-.33.89,0,1.2s.82.32,1.16.03l.07-.06s.01-.01.02-.02c.03-.02.06-.04.08-.05l-.06.04s.06-.02.11-.04h.3c.44,0,.87-.39.85-.85s-.37-.85-.85-.85h0ZM28.99,100.34c.91-.56.1-2-.82-1.48l-.03.02c-.47.29-1.05.25-1.58.25-1.09,0-1.09,1.69,0,1.69h.18c.78,0,1.57-.06,2.25-.48ZM21.8,94.16c-.69-.13-1.47-.25-2.19-.17h-.34c-.19.01-.38.09-.53.21-.24.1-.47.23-.67.41-.82.71.38,1.91,1.2,1.2.05-.04.1-.07.16-.1l.05-.02h.9c.08,0,.16-.02.24-.04.29.04.57.1.75.13,1.06.2,1.52-1.43.45-1.63h-.02ZM21.02,77.94c-1.32-.61-2.79-.61-4.02.24-.88.61-.06,2.05.82,1.48l.03-.02c.11-.08.22-.14.34-.2.62.18,1.25.19,1.85-.03l.08-.03.05.02c.98.45,1.84-1,.85-1.46ZM35.45,75.29c-1.34-.15-1.35-2.26,0-2.11,2.85.32,5.43,1.59,7.33,3.76.88,1.01-.57,2.49-1.47,1.53l-.03-.03c-1.51-1.73-3.54-2.88-5.83-3.14h0ZM20.46,64.43c-.3-.03-.59-.05-.89-.03-.7.03-1.56.5-1.25,1.35.25.68,1.06.7,1.46.34.17,0,.33,0,.5.03.44.05.88.13,1.31.22,1.06.21,1.52-1.42.45-1.63l-.47-.09c-.16-.03-.32-.06-.48-.09-.1-.05-.2-.08-.31-.09h-.32ZM12.06,51.31h-.1c-1.43-.2-3.72-.03-3.89,1.79-.1,1.01,1.36,1.07,1.64.21,1.05-.19,2.12-.23,3.16-.11.4-.41.4-1.19-.26-1.38-.09-.25-.29-.47-.56-.51h.01ZM44.68,48.24c-.33-.3-.87-.34-1.2,0-.19.2-.34.42-.47.66l-.08.16s-.03.05-.04.08c-.03.05-.06.1-.09.14l-.02.02-.03.03c-.3.32-.34.88,0,1.2.33.3.87.34,1.2,0,.19-.2.34-.42.47-.66l.08-.16s.03-.05.04-.08c.03-.05.06-.1.09-.14l.03-.03.02-.02c.3-.32.34-.88,0-1.2ZM27.35,46.04c-1.19-.84-2.61-.88-3.7.13-.79.73.37,1.91,1.17,1.22l.03-.02s.06-.05.09-.07c.14.12.32.2.53.2h.28l.04.02c.07.03.17.08.03,0,.03.02.06.03.08.05l.05.04c.32.3.87.34,1.19,0,.56-.19.86-1.12.2-1.58h0ZM38.99,43.27h.02c1.04-.31.6-1.94-.45-1.64-1.11.32-1.65,1.35-1.87,2.42-.09.45.13.91.59,1.04.42.12.95-.14,1.04-.59.07-.32.14-.58.26-.83l.07-.14c.03-.06.05-.08.16-.18.02-.02.11-.06.17-.08h.01ZM21.31,34.76l-.16-.04c-1.02-.22-2.37-.34-2.98.67-.56.92.85,1.76,1.43.89h.05l.26-.02c.32,0,.64.06.95.13,1.06.25,1.51-1.38.45-1.63ZM57.82,28.26c.77-.77-.42-1.97-1.19-1.2-.61.61-1.2,1.22-1.59,2-.21.41-.11.92.3,1.16.38.22.95.1,1.16-.3.34-.67.78-1.1,1.33-1.66h-.01ZM48.11,26.23c-.76.45-1.25,1.19-1.55,2.05-.15.43.17.92.59,1.04.45.12.86-.14,1.02-.55v-.04c.1-.23.22-.5.38-.71.14-.17.35-.35.5-.41.38-.14.65-.49.62-.89-.63.22-1.21-.04-1.56-.5h0ZM25.33,22.56c-.77-.71-1.8-.81-2.73-.38-.41.19-.52.79-.3,1.16.25.42.74.5,1.16.3-.11.05.09-.02.17-.04h.26-.04s.08.02.12.03l.05.02s.09.07.12.09h0c.8.74,1.99-.45,1.2-1.19h-.01Z"/>
</svg>