<svg width="106" height="129" viewBox="0 0 106 129" fill="none" xmlns="http://www.w3.org/2000/svg">
<path fill-rule="evenodd" clip-rule="evenodd" d="M96.5523 67.0114C97.8609 57.5634 95.0662 48.4456 91.4457 39.8106C91.2469 39.2848 90.9315 38.8293 90.5261 38.5055C80.3086 17.9037 65.2953 16.0382 44.3504 17.457C43.7316 17.4432 43.6948 17.4542 43.225 17.2439C43.1472 8.87487 33.5926 4.44179 26.3219 7.20309C-5.92432 22.1939 4.21525 64.3974 10.6321 91.9501C12.9214 102.616 15.2113 113.281 17.501 123.946C17.5779 124.303 17.74 124.612 17.9555 124.872C17.6229 124.998 17.2902 125.116 16.9638 125.227C16.2188 125.481 16.5148 126.592 17.2902 126.412C18.0501 126.235 18.7824 125.999 19.5068 125.741C20.6362 125.986 21.5831 125.248 22.4698 124.659C32.8528 120.552 37.2117 107.053 39.8749 97.1081C50.7026 104.751 68.0039 110.474 80.384 103.602C91.9843 96.6136 96.1619 82.0357 95.3377 69.1689C96.1843 68.7791 96.5259 67.9295 96.5481 67.0437H96.5531C96.5529 67.033 96.5523 67.0222 96.5523 67.0114V67.0114Z" fill="white"/>
<path fill-rule="evenodd" clip-rule="evenodd" d="M23.3466 7.99008C25.7405 6.43877 28.8129 5.86136 31.6334 5.97443C33.1376 6.03466 34.5419 6.40981 35.9286 6.97327C37.214 7.49573 38.3472 8.24623 39.5988 8.81815C39.6748 8.85281 39.6174 8.95954 39.5455 8.94496C38.0635 8.64573 36.3234 8.82649 34.8206 9.04074L34.6712 9.06226C33.1942 9.27678 31.6912 9.38774 30.2354 9.72822C27.5536 10.3553 25.0591 11.7217 23.5872 14.0983C21.6653 17.2022 21.1727 21.22 21.3782 24.8011C21.4822 26.613 21.8392 28.3955 22.3953 30.1229C22.7291 31.1596 23.5046 32.2026 23.867 33.2904C24.1427 32.7755 24.4272 32.2658 24.722 31.7621C23.3793 31.1291 23.0029 29.3698 22.9334 27.7822C22.7265 27.5822 22.5934 27.2929 22.589 27.0272C22.5772 26.3131 22.7451 25.6666 23.0308 25.075C23.1939 23.3994 23.5395 21.7289 24.1344 20.1588C26.4696 13.9943 32.6299 8.43835 39.6159 8.98723C41.5359 9.13813 43.4041 9.95373 44.3969 11.6876C45.1944 13.08 45.1997 14.7596 44.6496 16.2406C44.4865 16.6802 44.2743 17.0771 44.0251 17.4391C44.7799 17.2476 45.536 17.064 46.2909 16.882C48.9098 16.2505 51.542 15.7557 54.2234 15.4805C57.8751 15.106 61.6021 15.6727 64.9484 17.1308C65.8661 17.3668 66.7794 17.6205 67.6872 17.8914C71.6821 19.083 75.7807 20.6394 79.0074 23.3593C80.492 24.6107 81.5544 26.0664 82.4168 27.6651C85.6469 30.546 88.7356 33.8118 90.9159 37.5476C95.4081 45.2448 96.4809 54.7659 96.6655 63.5164C96.8352 71.5549 96.1294 79.6759 94.6234 87.5742C93.9398 91.1587 92.8346 94.49 90.599 97.4297C88.1094 100.703 84.7889 103.282 81.063 105.013C73.4774 108.536 64.0889 109.049 56.7157 104.684C54.498 103.371 56.4949 99.949 58.735 101.228C66.0142 105.383 75.3041 104.434 82.308 100.029C85.2668 98.1677 87.8166 95.6229 89.4364 92.5065C90.6193 90.2303 91.1269 87.6201 91.5664 85.0787L91.8001 83.7192C93.157 75.9039 93.7705 67.8876 93.4441 59.9592C93.1184 52.0505 91.8645 43.4845 87.3865 36.7608C85.0245 33.2143 82.0125 30.1075 78.8487 27.2745C78.6265 27.0754 78.4038 26.8772 78.1809 26.6796C76.9443 25.9363 75.6628 25.2872 74.4017 24.7332L74.1334 24.6172C73.4081 24.3079 72.3936 23.9083 71.4524 23.5888C70.1071 23.1321 68.74 22.7263 67.3672 22.3606C66.6476 22.1689 65.9246 21.9931 65.1998 21.8251C65.4524 22.0569 65.7036 22.2909 65.9504 22.5308C67.1196 23.6672 68.047 25.0177 69.1555 26.2093C69.2808 26.3437 69.1228 26.5399 68.9635 26.4581C67.2778 25.5928 65.4085 25.0327 63.6484 24.3317C61.9843 23.6689 60.367 22.9059 58.7324 22.1746C58.323 21.9912 57.9148 21.7953 57.5077 21.6015C55.9002 21.6179 54.2927 21.6558 52.6887 21.7473C54.6277 23.128 56.3986 24.7599 57.8654 26.5494C57.9865 26.6967 57.8764 26.9328 57.6727 26.8806C54.6021 26.094 51.682 24.938 48.7635 23.7266L47.3671 23.1452V23.1452C46.3408 23.0932 45.3129 23.0689 44.2849 23.0841L43.7867 23.0924C42.7075 23.113 41.6303 23.1557 40.5607 23.3193C40.3063 23.358 40.057 23.3948 39.8094 23.4286C38.3041 24.0432 36.8557 24.7842 35.5524 25.7608L35.8919 25.7408V25.7408C37.9526 25.6235 40.0536 25.801 42.0493 26.3332C45.9269 27.3677 49.2355 29.8589 51.6432 33.0353C51.7152 33.1304 51.5751 33.2627 51.4807 33.198C48.4517 31.1236 44.9386 30.0787 41.3392 29.5112C39.5994 29.2367 37.8077 29.1422 36.0512 29.279C34.5968 29.392 33.0924 29.9046 31.6454 29.6558C31.251 30.1472 30.8722 30.6534 30.5075 31.1708C30.6991 31.1585 30.8916 31.1473 31.0853 31.1382C33.1634 31.0406 35.2796 31.1739 37.3086 31.6524C41.3614 32.6088 44.748 35.0427 47.846 37.7148C47.9073 37.7676 47.8283 37.8619 47.762 37.8239C44.4022 35.8841 40.4971 35.3043 36.6911 34.9544C34.7745 34.7781 32.8363 34.6982 30.9155 34.8512C30.0355 34.9212 29.1653 35.0664 28.2879 35.1566C28.217 35.164 28.1432 35.1659 28.0701 35.1693C27.4342 36.3689 26.8577 37.5901 26.3375 38.8077C27.925 38.3816 29.6377 38.158 31.2767 38.2683C34.6059 38.4926 37.908 40.0196 40.5655 41.9727C40.6488 42.0337 40.6023 42.1965 40.4893 42.1538C37.5966 41.0605 34.7291 41.0516 31.7103 41.4735C30.295 41.6713 28.8941 41.9397 27.5267 42.3607C26.8393 42.5725 26.1596 42.8035 25.5072 43.1076C25.211 43.2454 24.9227 43.406 24.6311 43.5576C24.3979 44.3497 24.1893 45.1493 24.0013 45.9537C28.9357 46.232 33.5842 48.5619 37.6298 51.2359C37.7276 51.3006 37.6665 51.4807 37.5457 51.435C35.1307 50.5235 32.5036 50.102 29.942 49.8567C27.7021 49.6421 25.5041 49.7588 23.2771 49.8214C23.1577 50.6678 23.0612 51.5168 22.9912 52.3675C23.3493 52.4679 23.7007 52.5761 24.0385 52.6778C25.1496 53.0117 26.2585 53.4612 27.2952 53.9824C29.4011 55.0411 31.1075 56.4721 32.8245 58.063C32.9141 58.146 32.8207 58.3274 32.6992 58.2781C30.7063 57.4722 28.5288 56.9561 26.4309 56.4994C25.3452 56.2631 24.2591 56.045 23.1658 55.8448C23.0599 55.8254 22.9524 55.8091 22.8451 55.7931C22.8347 57.7325 22.9443 59.6725 23.1861 61.5967L23.2329 61.9573C23.3639 62.9312 23.2568 63.8732 22.6122 64.5459C23.5038 63.9531 24.5238 63.5424 25.6543 63.385C28.6312 62.9705 31.3879 64.1604 33.2612 66.462C33.3489 66.5696 33.2136 66.7108 33.1072 66.6161C31.2892 64.9978 28.4876 64.7114 26.2298 65.4733C24.1395 66.1786 22.5681 67.8624 21.9383 69.9694C21.269 72.2084 21.5755 74.6804 22.796 76.6764C23.4041 77.6708 24.2823 78.5597 25.3813 78.997C25.517 79.0511 25.6551 79.0961 25.7948 79.1352C26.4581 78.8926 27.172 79.0025 27.8542 79.31L27.9427 79.3516V79.3516C28.3779 79.3491 28.8112 79.3358 29.2323 79.3396C30.0518 79.3474 30.4458 80.2178 30.1019 80.8655C30.2969 81.2229 30.4397 81.6245 30.611 81.9747C30.9205 82.6067 31.2446 83.2346 31.5704 83.8585C32.0312 84.3873 32.4712 84.9347 32.77 85.573C32.8925 85.8348 33.0083 86.1184 33.097 86.4029C33.3531 86.7882 33.6134 87.1714 33.88 87.5527C34.742 88.7844 35.6498 89.9513 36.6565 91.0695C37.2615 91.7416 37.9577 92.3417 38.5982 92.9859C38.7924 93.0116 38.9827 93.1439 39.0427 93.3342L39.0951 93.5161V93.5161C39.3015 93.7488 39.4991 93.9885 39.677 94.2438C40.0716 94.81 39.9634 95.3845 39.6167 95.7985C40.1658 99.2258 39.7919 102.872 39.0573 106.195C38.5824 108.343 38.0278 110.488 37.2835 112.559C36.9051 113.612 36.4469 114.624 35.8137 115.549C35.4666 116.056 35.0145 116.646 34.5074 117.128C34.4303 117.69 34.3302 118.246 34.1867 118.792C32.4858 125.259 25.5233 127.227 19.6936 128.053C18.5684 128.212 17.4548 127.941 16.8419 126.892C16.7003 126.65 16.6053 126.389 16.5541 126.121C16.3002 126.053 16.056 125.934 15.8369 125.763C15.8003 126.168 15.7581 126.575 15.7046 126.986C15.5713 128.014 14.1848 128.323 13.8372 127.239C12.3706 122.665 11.5739 117.842 10.5689 113.142C9.56603 108.452 8.4461 103.786 7.40984 99.1032L6.09773 93.1928C2.89614 78.7203 -0.102611 64.0628 0.633428 49.178C1.03526 41.0529 2.52554 32.9489 5.71526 25.4404C8.37237 19.1855 12.8567 12.1583 20.1009 10.8794C20.1508 10.8708 20.1951 10.8759 20.2365 10.8864C21.0968 9.76732 22.1246 8.78179 23.3466 7.99008ZM27.7177 86.6599C28.3019 88.5987 28.7189 90.5862 28.9458 92.6145C29.3238 95.9951 29.1364 99.458 28.9722 102.848C28.8212 105.962 28.4627 109.103 27.8523 112.161C27.2665 115.097 26.3483 117.975 24.9833 120.646C24.7625 121.078 24.5253 121.499 24.276 121.911C25.0308 121.66 25.7124 121.367 26.4222 120.96C27.3157 120.449 28.1333 119.79 28.5805 119.094C29.2984 117.978 29.5393 116.739 29.6443 115.409C29.9143 111.989 30.0391 108.559 30.2113 105.133L30.2495 104.387C30.528 99.0342 30.8931 93.5448 30.3478 88.1865C29.5807 87.9849 28.8886 87.589 28.2499 87.0924C28.0737 86.9554 27.8958 86.8104 27.7177 86.6599ZM21.8836 80.1782C22.0448 81.8065 22.199 83.4349 22.3386 85.0647C22.8341 90.8495 23.1402 96.6665 22.8586 102.471C22.712 105.494 22.4174 108.526 21.9083 111.51C21.6788 112.855 21.4014 114.2 21.0914 115.531L20.987 115.974C20.6724 117.292 20.4719 118.939 19.4646 119.898L19.4722 120.097V120.097C20.1793 119.023 20.8334 117.816 21.3017 116.692C23.3889 111.685 23.7702 106.235 24.1473 100.897C24.3797 97.6066 24.5519 94.3123 24.8208 91.025L24.9514 89.443C25.1013 87.6019 25.2303 85.7744 25.2127 83.935C24.8107 83.3354 24.4841 82.7049 24.2812 82.0578C24.2487 81.9536 24.2263 81.8483 24.2107 81.7431C23.3605 81.34 22.56 80.7899 21.8836 80.1782ZM33.3079 91.6341C33.7272 93.03 34.0695 94.4438 34.3133 95.8634C34.7016 98.1232 34.9346 100.397 35.0371 102.679L35.2513 101.873C35.7907 99.8565 36.3639 97.8376 37.0743 95.8811C35.9506 95.0941 35.0117 93.8581 34.195 92.825C33.8897 92.4391 33.5937 92.0407 33.3079 91.6341ZM17.2156 29.5522C16.7838 30.9467 16.4062 32.3571 16.0162 33.763C15.0998 37.0655 14.5048 40.4586 14.092 43.8579C12.4448 57.4304 13.8167 71.0578 15.611 84.5416C16.3545 90.1284 17.1628 95.707 17.8566 101.3C17.875 100.752 17.8904 100.203 17.9003 99.6544C18.1112 87.782 16.1136 76.0757 15.3138 64.2646L15.2658 63.5449C14.9033 58.0225 14.6815 52.3969 15.3377 46.8946C15.6753 44.0625 16.2701 41.291 17.0618 38.5543L17.5331 36.9469C17.8516 35.866 18.1901 34.7564 18.5918 33.6803C18.5381 33.5772 18.487 33.4732 18.4395 33.369C17.8836 32.1466 17.4968 30.8616 17.2156 29.5522ZM18.6072 13.5532C14.4609 18.901 10.9815 24.5819 8.87646 31.116C4.05871 46.0703 5.13427 62.0613 7.92618 77.3043C9.24174 84.4864 10.9382 91.5848 12.4862 98.717C10.8292 85.9094 8.69244 73.1299 8.3523 60.1991C8.1666 53.1417 8.53146 46.0513 9.83096 39.103L9.90788 38.6944C10.4648 35.7579 11.1548 32.6467 12.5671 30.0077C13.334 28.5747 14.1805 27.2375 15.1845 25.9576C15.6079 25.4178 16.0832 24.985 16.5875 24.5891C16.4396 20.9025 16.9969 16.9048 18.6072 13.5532ZM25.372 70.5327C27.4348 70.6139 29.4958 71.1892 31.1202 72.5304C32.391 73.5793 30.5787 75.3521 29.3183 74.3328C27.9476 73.2245 26.7182 71.9654 25.2571 70.9573C25.083 70.837 25.1308 70.5232 25.372 70.5327ZM21.9499 65.0344C21.4912 65.2709 21.0355 65.3186 20.516 65.191C20.497 65.1863 20.4787 65.181 20.4608 65.1754L20.3546 65.1409C20.4 65.6329 20.4478 66.1249 20.4951 66.617C20.9143 66.0264 21.4004 65.4917 21.9499 65.0344ZM19.8966 35.3415C19.7141 36.8675 19.5951 38.4008 19.5317 39.9365C19.4702 41.4326 19.4445 42.9332 19.4375 44.4344L19.4356 45.0778L19.4384 45.0656C20.1476 42.0386 21.1507 39.0596 22.4318 36.2089C22.2112 36.2457 21.9873 36.2398 21.7667 36.2132C21.2622 36.1521 20.7784 35.9283 20.3455 35.6664C20.1877 35.5709 20.0396 35.4595 19.8966 35.3415ZM40.9378 17.6547C40.0562 18.0533 39.2048 18.5115 38.32 18.901C36.5654 19.6737 34.8486 20.572 33.2248 21.5917C31.5816 22.6238 29.9986 23.7103 28.5427 24.9974C28.3722 25.1483 28.2032 25.3009 28.0344 25.4533C28.0004 25.7862 27.9757 26.1203 27.9645 26.4572C27.9584 26.6384 27.9581 26.8277 27.9605 27.0224C30.7076 23.6182 34.0289 20.9323 38.2424 19.2428C38.9728 18.9499 39.7152 18.6891 40.4643 18.4477C40.6427 18.2 40.8026 17.9371 40.9378 17.6547ZM40.8594 14.3891C40.3695 13.7386 38.9612 13.7916 38.0732 13.9366C36.6374 14.1712 35.3728 14.6734 34.1422 15.4004C32.6876 16.2594 31.4329 17.4231 30.4511 18.7918C30.9343 18.5191 31.4265 18.2619 31.9291 18.0231L32.2735 17.8604C34.1772 16.9677 36.2393 16.119 38.3215 15.8422C39.2848 15.7141 40.3209 15.5287 41.2942 15.6331C41.2462 15.1599 41.1055 14.7161 40.8594 14.3891Z" fill="black"/>
</svg>
