<svg width="101" height="121" viewBox="0 0 101 121" fill="none" xmlns="http://www.w3.org/2000/svg">
<path fill-rule="evenodd" clip-rule="evenodd" d="M51.7269 16.9282C63.7228 16.9282 81.2812 24.9387 82.6016 32.6456C84.1577 41.728 87.6138 75.8802 85.7322 87.0561C83.8506 98.2319 76.5136 106.49 60.2886 106.49C44.0636 106.49 31.9534 97.6415 29.1728 94.6035C26.3922 91.5654 23.0229 82.1113 23.0229 82.1113C23.0229 82.1113 14.1396 80.6055 14.0984 73.5241C14.0572 66.4427 18.561 64.2542 18.561 64.2542C18.561 64.2542 16.1303 34.8778 21.2391 27.6019C26.348 20.326 39.731 16.9282 51.7269 16.9282Z" fill="white"/>
<path fill-rule="evenodd" clip-rule="evenodd" d="M87.945 54.3388C88.6018 61.4775 88.849 68.6775 88.976 75.8437C89.0985 82.6338 88.5006 89.7155 84.6321 95.5211C81.2499 100.6 76.0992 104.287 70.3631 106.277C67.099 107.411 63.4844 107.832 60.0365 107.935C58.2555 107.988 56.4703 107.912 54.6999 107.728C54.477 107.705 54.2531 107.685 54.0294 107.665C52.5299 107.531 51.0426 107.399 49.9504 106.266C49.606 105.909 49.6105 105.176 50.1196 104.944C51.0893 104.502 51.7462 104.456 52.8091 104.601C53.6898 104.722 54.5731 104.817 55.4603 104.878C57.3617 105.011 59.276 105.016 61.1774 104.87C64.6717 104.601 68.2464 103.615 71.4194 102.119C76.3948 99.7697 80.6689 95.9202 82.976 90.869C85.6207 85.0855 85.4879 78.3974 85.3641 72.1696L85.3591 71.9141C85.2215 65.0057 84.9661 58.1183 84.3661 51.2331C84.1386 48.6284 83.8146 46.0379 83.4905 43.4464C83.3993 42.7168 83.308 41.9871 83.2189 41.2571C83.0053 39.4909 82.7245 37.7329 82.38 35.988C82.2764 35.4611 82.1549 34.9383 82.0335 34.4162C81.9422 34.0234 81.8509 33.631 81.7675 33.2373C81.626 33.2604 81.4821 33.2733 81.3344 33.2794C80.4511 33.3092 79.4858 33.0937 78.8307 32.4662C78.5795 32.6373 78.2603 32.7451 77.876 32.7641C75.5274 32.8801 73.155 32.8284 70.7879 32.7768C69.4946 32.7486 68.2029 32.7205 66.9175 32.7197C63.2668 32.7176 59.614 32.7197 55.961 32.7303C55.4041 32.7319 54.8469 32.734 54.2896 32.7361C51.1958 32.748 48.0968 32.7598 45.0069 32.6775C44.3521 32.66 43.693 32.6486 43.0316 32.6371C40.264 32.5893 37.4563 32.5408 34.752 32.0395C33.626 36.0409 33.6659 40.4373 36.0133 44.012C36.6765 45.0197 36.1377 46.2071 35.2738 46.8366C34.3905 47.4791 32.8029 48.4642 31.4444 48.5654C31.3917 48.6838 31.3385 48.8018 31.2853 48.9197C31.2056 49.0963 31.1262 49.2725 31.0491 49.4483C30.4007 50.9257 29.8166 52.4124 29.4078 53.9766C29.1972 54.7828 29.0159 55.6023 28.8634 56.4269C28.8758 56.5712 28.8887 56.7153 28.9041 56.8592C28.9041 56.8722 28.9058 56.885 28.9076 56.8994L28.9084 56.9054C28.9168 56.9648 28.9274 57.0324 28.9337 57.0704C28.9529 57.172 28.9719 57.2735 28.9909 57.375C29.0495 57.6875 29.108 57.9996 29.1703 58.3106C29.3668 59.3141 29.5187 60.3261 29.6267 61.3421C29.8231 63.2014 29.8041 65.6183 27.9915 66.719C27.0217 67.3085 25.8598 67.2472 24.8349 66.8519C24.2636 66.6312 23.7634 66.3347 23.2476 66.029C23.1418 65.9662 23.0353 65.9031 22.9274 65.8402C22.7607 65.7427 22.5906 65.6532 22.4209 65.5638C22.2078 65.4516 21.9952 65.3397 21.7905 65.2127C21.6893 65.1493 21.5922 65.0733 21.5013 64.993C20.8147 65.1387 20.1448 65.4113 19.7689 65.5972C18.761 66.0979 17.876 66.8226 17.1236 67.6549C15.5245 69.4275 15.045 71.9247 15.2689 74.2423C15.4779 76.3993 16.3253 78.8773 18.03 80.312C18.7715 80.9371 19.6971 81.3028 20.6753 81.2923C21.1567 81.288 21.6006 81.1866 22.0654 81.0641C22.2637 81.012 22.4821 80.9892 22.7003 80.9664C22.9867 80.9364 23.2728 80.9065 23.5126 80.8106C24.1398 80.5592 24.9133 81.3261 24.6576 81.9557C24.6008 82.0955 24.5511 82.2306 24.5032 82.361C24.3889 82.6719 24.2843 82.9565 24.1145 83.2169C25.864 86.0733 27.7802 88.8409 29.8187 91.4965C31.1114 93.1784 32.5651 94.6723 34.0252 96.1728C34.6413 96.8059 35.2584 97.4401 35.8652 98.0902C36.7675 99.0578 37.1436 100.963 35.5105 101.377C34.074 101.744 32.958 100.428 32.0724 99.3824C31.9537 99.2424 31.8392 99.1073 31.7286 98.9817C27.852 94.5725 24.9217 89.5104 23.5504 83.7958C22.9316 84.2352 22.2215 84.474 21.4736 84.5775C19.9842 84.7824 18.4781 84.4888 17.1724 83.7345C12.2286 80.8803 11.0328 73.1669 13.3483 68.3331C13.9067 67.1693 14.7315 66.1302 15.7369 65.3234C15.6576 65.1719 15.6264 64.9945 15.6773 64.8037C15.7667 64.4697 15.8649 64.1397 15.968 63.8109C15.8554 63.7609 15.773 63.6573 15.7886 63.5035C15.8673 62.699 15.9443 61.8945 16.0213 61.09L16.0633 60.6514C16.0536 60.2154 16.0404 59.7796 16.0273 59.3437C15.997 58.3431 15.9668 57.3417 15.9786 56.3352C15.9905 55.2643 16.027 54.1937 16.0635 53.1232C16.1055 51.892 16.1475 50.6607 16.152 49.4289C16.1657 45.4394 16.2533 41.452 16.3408 37.4646C16.4296 33.4238 16.5184 29.3831 16.5302 25.3402C16.5426 21.4125 16.5511 17.4789 16.4476 13.5535C16.4465 13.5257 16.4459 13.4985 16.4454 13.4712C16.4449 13.4467 16.4445 13.4222 16.4436 13.3972C16.4306 12.9155 16.4 12.4087 16.3686 11.8887C16.1954 9.01733 15.9977 5.73974 18.5985 4.01883C19.1034 3.68524 19.733 3.68101 20.2823 3.8965C21.8626 2.7958 23.8443 2.26531 25.7393 1.95897C28.5328 1.50799 31.3453 1.2376 34.1592 0.967086C34.9822 0.887965 35.8053 0.808832 36.6281 0.725166C38.525 0.532913 40.5215 0.45918 42.4314 0.501434C43.425 0.523174 44.4253 0.487308 45.4271 0.451388C46.3724 0.417494 47.319 0.383553 48.2626 0.397913C50.468 0.433828 52.6907 0.516223 54.9046 0.697913C54.9563 0.692653 55.0084 0.687918 55.0605 0.683184C55.113 0.678411 55.1655 0.673639 55.2175 0.668335C58.5715 0.346716 61.9213 0.516778 65.2726 0.686911C66.0841 0.728113 66.8958 0.769319 67.7076 0.803546C71.675 0.970448 75.8645 1.38031 79.4267 3.27939C79.8847 3.52319 80.2728 3.80038 80.6038 4.10925C81.068 4.17453 81.5106 4.30615 81.9084 4.52735C83.0552 4.29559 84.3355 4.80939 84.6067 6.14017C85.0018 8.09017 85.1518 10.0569 84.9152 12.0345C84.9132 12.0496 84.9114 12.065 84.9096 12.0806C84.906 12.1128 84.9025 12.1461 84.8983 12.1803C85.3772 14.015 85.3453 16.0186 84.9473 17.8281C85.115 20.1145 85.2107 22.4073 85.2241 24.6964C85.2261 25.0428 85.231 25.3906 85.236 25.7391C85.2538 26.9837 85.2717 28.2375 85.1567 29.4709C85.0269 30.8589 84.4557 31.9573 83.5567 33.0115C83.3873 33.2101 83.101 33.243 82.8629 33.1949C82.8012 33.1824 82.7476 33.1655 82.699 33.1454C83.1425 34.0963 83.51 35.0946 83.8696 36.0711C83.9493 36.2877 84.0286 36.5032 84.1084 36.7169C84.8055 38.5888 85.4816 40.4923 85.961 42.4317C86.933 46.3421 87.5729 50.3268 87.945 54.3388ZM20.6208 72.036C20.4202 71.8975 20.2179 71.7579 19.999 71.6542C19.9716 71.6413 18.8138 71.2655 19.0378 71.762C19.1138 71.9268 18.9152 72.1106 18.7737 71.9648C18.3723 71.557 18.5962 71.0669 18.9786 70.7035C19.6692 70.0465 20.7004 70.1984 21.5476 70.3549C22.7265 70.5725 23.8716 71.088 24.8645 71.7493C25.9335 72.4613 27.254 73.4479 27.4652 74.7979C27.6575 76.038 26.4237 77.4049 25.154 76.5747C24.467 76.1245 23.9859 75.4554 23.5031 74.7839C23.1589 74.3052 22.8139 73.8252 22.3927 73.4225C21.896 72.9493 21.3594 72.5331 20.7913 72.1526C20.7344 72.1144 20.6776 72.0752 20.6208 72.036Z" fill="black"/>
</svg>
