<svg width="101" height="120" viewBox="0 0 101 120" fill="none" xmlns="http://www.w3.org/2000/svg">
<path fill-rule="evenodd" clip-rule="evenodd" d="M61.3119 107.719C56.6226 107.747 52.6372 106.416 49.5962 104.214C45.8015 102.86 41.2241 100.772 38.4439 98.5803C37.3594 98.8572 36.0618 97.7047 35.232 97.0964C30.0717 93.2416 26.0213 87.5992 24.8211 81.9472C22.9683 84.2869 20.3317 84.3841 17.806 83.2213C12.5116 80.2175 12.7096 73.8929 14.6156 69.1675C10.6085 60.1731 7.83139 36.4287 13.9482 26.8459C15.1993 25.4121 17.0355 24.5544 18.3574 23.0841C19.5337 21.7999 20.6526 20.4864 22.0212 19.4702C26.1971 16.2906 33.3895 14.5977 37.8929 13.8016C56.6919 9.73561 71.1358 17.0437 88.1644 23.2081C87.1843 25.6598 85.8286 27.8957 84.275 29.9804C88.5024 31.559 86.5607 35.1082 83.281 36.9074L81.3284 35.958C84.3722 46.8523 91.3769 73.9436 88.3545 82.6434C85.9444 96.2163 75.3671 107.818 61.3119 107.719Z" fill="white"/>
<path fill-rule="evenodd" clip-rule="evenodd" d="M64.0279 108.888C57.9392 109.513 50.7058 108.074 46.6468 103.125C46.5254 102.977 46.4723 102.81 46.4691 102.648C46.4656 102.468 46.526 102.294 46.6304 102.158C46.7401 102.016 46.8963 101.917 47.0754 101.885C47.2261 101.858 47.398 101.875 47.5752 101.975L47.9484 102.182C50.7205 103.714 53.5995 105.02 56.7411 105.579C59.9758 106.155 63.2695 106.091 66.4754 105.36C72.3149 104.029 77.041 100.633 80.5196 96.1561C84.4014 91.1599 86.7325 84.8177 87.3266 78.4751C88.0466 70.7886 86.3764 63.1489 84.6484 55.7064C82.8327 47.8862 80.848 40.1059 78.5425 32.4159C78.473 32.1844 78.4543 31.9678 78.4744 31.7682C77.7944 31.5017 77.0707 31.5757 76.3503 31.819C75.0342 32.2635 73.7231 33.2659 72.6296 34.0934C72.2336 34.3931 71.8652 34.6717 71.5341 34.8983C70.1782 35.8265 68.6959 36.4943 67.0387 36.5993C65.3149 36.7083 63.625 36.1724 62.0594 35.5017C61.2641 35.1609 60.4815 34.8075 59.7021 34.4554C57.4827 33.4529 55.2896 32.4604 52.8929 31.8153C49.6815 30.9507 46.3659 30.5248 43.04 30.5553C37.1043 30.6096 31.1504 32.1381 27.5125 37.1602C26.0389 39.1946 25.0781 41.5327 25.8274 44.0435C26.235 45.4093 27.0043 46.6492 27.8439 47.7896L28.1319 48.178C28.5925 48.8039 28.9925 49.4274 29.1131 50.0912C29.2142 50.6473 29.1354 51.2355 28.7384 51.8803C28.4887 52.2862 28.1707 52.6501 27.851 53.0129C27.6204 53.2746 27.3891 53.5358 27.1902 53.817C26.7892 54.384 26.4342 54.9947 26.1557 55.6316C25.6105 56.8783 25.3792 58.2194 25.3308 59.572C25.2722 61.2038 25.5016 62.8002 25.7291 64.3988C25.8904 65.5323 26.0513 66.667 26.1163 67.8154C26.1276 68.0158 26.0664 68.1651 25.9806 68.2756C25.8756 68.4108 25.7225 68.496 25.5481 68.5196C25.4952 68.5268 25.4404 68.5279 25.3854 68.523C25.4124 68.6335 25.4363 68.7445 25.457 68.8559C25.3468 68.7141 25.2296 68.5766 25.1058 68.4437C25.0979 68.4397 25.0901 68.4356 25.0823 68.4313C24.9547 68.3612 24.8467 68.2544 24.7786 68.1168C24.6033 67.9539 24.4178 67.7994 24.2232 67.6541C23.2104 66.8982 22.0277 66.45 20.8413 66.4352C19.6976 66.4209 18.5511 66.8105 17.6695 67.6333C15.9174 69.2685 15.4042 71.938 15.3858 74.23C15.3673 76.5697 15.9085 79.3776 17.9477 80.8303C18.7657 81.4129 19.7647 81.763 20.7711 81.7732C21.6054 81.7816 22.4037 81.4863 23.1897 81.205C23.432 81.1182 23.6733 81.032 23.9139 80.9536C24.1873 80.8646 24.4365 80.8702 24.6537 80.9353C24.8985 81.0087 25.1062 81.1601 25.2615 81.3621C25.4161 81.5634 25.5174 81.8153 25.5488 82.0792C25.5792 82.3346 25.5442 82.5998 25.4361 82.839C25.409 82.8992 25.3804 82.9577 25.3506 83.0148L25.7991 83.7525C27.5164 86.5701 29.2638 89.3363 31.5551 91.758C32.8703 93.1481 34.2644 94.4598 35.7936 95.6081L36.0141 95.7719C36.1461 95.8688 36.2925 95.9883 36.4486 96.1161C36.8946 96.4811 37.4292 96.9706 37.9283 96.9899C38.0764 96.9956 38.2057 96.9771 38.3233 96.9617C38.6075 96.9243 38.8459 96.9134 39.0802 97.009C39.2686 97.0859 39.4641 97.2295 39.665 97.5261C39.8008 97.7268 39.8705 97.9786 39.8705 98.234C39.8705 98.4907 39.8 98.7474 39.6744 98.9503C39.4146 99.3703 39.1003 99.6305 38.7593 99.7782C38.3791 99.9429 37.959 99.968 37.5223 99.8866C36.4464 99.6858 35.2554 98.7943 34.4975 98.2125L34.3509 98.1002C32.6716 96.8188 31.0801 95.4009 29.681 93.8152C27.2983 91.1149 25.1584 87.9328 24.0592 84.4559C23.2845 84.965 22.3273 85.2067 21.3266 85.2447C19.8686 85.3002 18.3255 84.9249 17.1884 84.3855C14.6824 83.1966 13.1603 80.948 12.4469 78.3622C11.6185 75.3593 11.8878 71.907 12.9365 69.2094C12.9669 69.131 12.9986 69.0529 13.0312 68.9735C9.80267 60.7907 8.80995 51.7041 9.08649 42.9715C9.21585 38.8839 9.49409 34.5953 10.4581 30.6088C10.8901 28.822 11.6408 27.1204 12.8394 25.7137C13.5228 24.9115 14.3613 24.287 15.2036 23.6643C15.9332 23.1249 16.6655 22.5867 17.2818 21.9132L17.5731 21.5934C17.6363 21.5238 17.6993 21.4544 17.7622 21.385C18.8264 20.2117 19.8624 19.0731 21.1538 18.1108C22.6514 16.9951 24.3041 16.1218 26.0214 15.3965C29.7208 13.8346 33.7026 12.8981 37.6415 12.1736C46.1632 10.6064 54.911 10.5291 63.3282 12.732C67.2416 13.7561 71.0396 15.1579 74.8312 16.558C75.1832 16.688 75.5352 16.8179 75.8872 16.9476C78.8337 18.0329 81.7817 19.1136 84.7298 20.1943C86.0999 20.6966 87.47 21.1988 88.84 21.7016C89.1372 21.8107 89.4283 22.0457 89.594 22.3378C89.7557 22.6227 89.8039 22.9549 89.6733 23.2858C88.8327 25.4165 87.7721 27.4154 86.481 29.2821C86.9297 29.5874 87.3115 29.9934 87.6003 30.4686C87.9655 31.0696 88.1819 31.7811 88.1966 32.5359C88.2458 35.0639 85.9462 36.7776 84.0383 38.0171C83.8605 38.1327 83.6844 38.2009 83.5143 38.2323C85.363 45.3035 87.1326 52.3986 88.6363 59.55L88.7397 60.0457C90.2887 67.53 91.2882 75.1678 89.8232 82.7516C88.5618 89.282 85.6314 95.5846 81.0523 100.45C76.5648 105.217 70.5431 108.219 64.0279 108.888ZM23.9354 65.8337C23.1382 63.3027 22.7157 60.5489 23.0207 57.9832C23.2127 56.3705 23.6974 54.8179 24.4866 53.3964C24.9386 52.5822 25.4895 51.8285 26.0908 51.1187L26.2982 50.8803C26.4032 50.7585 26.5076 50.6466 26.54 50.5063C26.5588 50.4248 26.5396 50.3356 26.4901 50.2291C26.3803 49.9931 26.1764 49.7657 25.9854 49.5437C25.864 49.4027 25.7455 49.2642 25.646 49.1295C23.8987 46.7633 22.5956 43.9462 23.0192 40.9456C23.4324 38.0181 25.3503 35.2892 27.392 33.2327C31.8879 28.7042 38.8582 27.6636 44.9644 27.9134C48.5189 28.0587 52.0677 28.6854 55.4527 29.7801C57.1219 30.3201 58.754 30.9776 60.34 31.7313L60.6912 31.9C60.8807 31.9918 61.07 32.0847 61.2594 32.1776C62.4992 32.7858 63.7436 33.3999 65.0894 33.7306C67.7175 34.3762 69.5003 33.0165 71.3742 31.6451C72.0164 31.1752 72.6684 30.6987 73.3615 30.2806L73.5041 30.1962C74.7543 29.4712 76.2497 28.9832 77.6863 29.0051C78.9341 29.0241 80.138 29.4227 81.1181 30.3646C81.3193 30.5581 81.4351 30.7693 81.4894 30.9794C81.5979 31.1315 81.6854 31.3129 81.7424 31.5271C82.0935 32.8451 82.4431 34.1639 82.7914 35.4832L83.0763 35.2996C83.9201 34.7513 84.8375 34.1247 85.2518 33.2075C85.4112 32.8544 85.3886 32.2663 85.1877 31.8338C85.1175 31.6827 85.0246 31.5484 84.8962 31.4645C84.8029 31.4035 84.6903 31.3749 84.5595 31.3854C84.2415 31.4264 83.9495 31.3799 83.7019 31.2752C83.4164 31.1545 83.1887 30.9558 83.041 30.7164C82.8897 30.4713 82.8207 30.1832 82.8577 29.8843C82.8895 29.6273 83 29.359 83.2187 29.1068C84.6583 27.4469 85.8705 25.6159 86.7919 23.6285L80.6975 21.3729C78.5246 20.569 76.3512 19.7662 74.1769 18.9664L72.9865 18.5289C69.0327 17.0781 65.0562 15.6604 60.9445 14.7263C52.7732 12.8703 44.2523 13.3065 36.1035 15.0536L35.6113 15.16C32.1918 15.906 28.7264 16.8084 25.5878 18.3772C24.0472 19.1471 22.5829 20.0834 21.3253 21.2663C20.7699 21.7887 20.2678 22.3606 19.7655 22.9318C19.0616 23.7323 18.3569 24.5306 17.52 25.2048L16.7431 25.8272C15.5874 26.7588 14.545 27.6664 13.8928 29.1112C13.211 30.6217 12.8855 32.2904 12.62 33.9162C11.9503 38.0118 11.6859 42.173 11.7111 46.3216C11.7538 53.2873 12.8116 60.1111 14.1481 66.9109C15.2203 65.3758 16.7265 64.1857 18.6597 63.932C19.9201 63.7666 21.1696 64.0016 22.2531 64.5592C22.8793 64.8814 23.4501 65.3113 23.9354 65.8337ZM21.9102 74.1051C20.4985 73.558 19.0163 73.3788 17.5228 73.6404C17.3663 73.6677 17.2171 73.6351 17.0916 73.5622C16.9645 73.4883 16.8643 73.3714 16.8099 73.2423C16.747 73.0931 16.7438 72.9316 16.7993 72.7881C16.8474 72.6637 16.9392 72.5428 17.108 72.4621C18.7252 71.69 20.5228 71.3493 22.3069 71.5917L22.4832 71.6168C23.3954 71.7521 24.678 72.0369 25.6399 72.5975C26.3956 73.038 26.9487 73.6451 27.0863 74.4383C27.1581 74.8516 27.0555 75.2831 26.8174 75.5959C26.5871 75.8983 26.2351 76.0999 25.7795 76.087C24.9759 76.0641 24.5001 75.7244 23.9276 75.2843C23.8581 75.2309 23.7869 75.1762 23.7129 75.1207C23.1597 74.7067 22.5552 74.355 21.9102 74.1051Z" fill="black"/>
</svg>
