<?xml version="1.0" encoding="UTF-8"?>
<svg id="Layer_1" xmlns="http://www.w3.org/2000/svg" version="1.1" viewBox="0 0 129.22 172.62">
  <!-- Generator: Adobe Illustrator 29.4.0, SVG Export Plug-In . SVG Version: 2.1.0 Build 152)  -->
  <defs>
    <style>
      .st0 {
        fill: #fff;
      }

      .st0, .st1 {
        fill-rule: evenodd;
      }
    </style>
  </defs>
  <path class="st0" d="M111.93,80.11c-.8-13.15-5.06-28.05-17.61-34.51-27.67-11.11-64.04,16.87-65.97,45.44-.67,9.78,4.76,20.47,14.68,23.19,2.21,2.92,5.54,4.71,8.83,6.26,39.22,20.35,64.55,3.81,60.07-40.39Z"/>
  <path class="st1" d="M120.87,71.93c-1.39-3.85-2.85-7.67-4.39-11.46-1.5-3.69-2.86-7.46-4.72-10.98-11.13-21-31.36-21-41.81-18.25-5.42-2.34-15.58-1.68-21.23.43-9.14,3.41-20.29,16.85-24.1,22.88-8.41,13.33-13.66,31.06-8.07,46.46.73,2.01,1.66,3.88,2.71,5.67-.66.9-1.42,1.74-2.26,2.58-2.5,2.48-5.01,4.87-7.17,7.67-2.15,2.78-3.93,5.73-5.26,8.99-2.5,6.14-2.62,13.09.68,18.95,2.88,5.1,7.97,8.89,13.71,9.26.29.04.59.08.89.11.76,1.25,1.69,2.41,2.75,3.41,3.24,3.09,10.97,4.67,15.38,4.77.23.18.45.36.68.54,2.7,2.12,5.53,4.27,8.63,5.78,2.1,1.02,4.85,1.88,7.04,1.14.99.66,2.62.52,3.61-.02,1.62-.89,2.93-2.5,3.74-4.14,1.94-3.99,1.47-8.36.98-12.63-.55-4.71-1.08-9.43-1.61-14.14-.42-3.68-.86-7.43-1.98-10.98-.58-1.84-1.34-3.61-2.32-5.27.03-.14.02-.28-.02-.41-.32-1.04-.98-1.59-1.77-2.3-.1-.09-.2-.18-.3-.28-.39-.45-.81-.86-1.26-1.22-.17-.18-.34-.35-.52-.53-1.42-1.49-2.77-3.06-3.96-4.73-1.16-1.63-2.2-3.33-3.2-5.06-1.01-1.76-1.68-3.7-2.69-5.45-.09-.15-.31-.18-.43-.05-.31.32-.51.68-.48,1.06l-.16.02c-.06-.57-.59-1.04-1.3-.91-1.07.19-1.95.26-2.87-.1.16-1.08.31-2.16.46-3.25.27-2,.52-4,.74-6,.52.12,1.04.3,1.55.53.72.32,1.4.76,1.99,1.29.57.53.97,1.24,1.67,1.61.81.42,1.78-.27,1.54-1.19-.48-1.85-3.19-2.9-4.87-3.25-.58-.12-1.17-.17-1.76-.16.13-1.29.25-2.57.35-3.86.05-.61.09-1.22.13-1.83,1.31-.4,2.7-.51,4.06-.33.45.36.9.71,1.33,1.07,1.38,1.14,2.74,2.28,4.1,3.44.12.1.24.21.37.31.8.69,1.8,0,1.67-.97-1.1-8.02,3.81-14.4,9.56-19.34,6.36-5.47,17.93-6.11,25.5-15.59,3.49.71,11.27,2.82,14.48,7.94,4.5,7.17,3.91,13.6,4.25,21.74.34,8.14,1.21,16.64-.64,24.67-1.71,7.4-6.32,13.73-13.48,16.64-.18.07-.36.14-.54.21-3.7,1.4-7.75,1.79-11.64,1.06-4.31-.82-7.91-2.79-11.5-5.22-.21-.14-.51.15-.35.35,4.73,6.27,14.02,8.36,21.38,6.71.34-.08.69-.16,1.03-.25-1.65,4.74-1.32,9.94.83,14.56,1.29,2.78,3.26,5.18,5.66,7.08,2.64,2.09,5.92,3.78,7.76,6.71,1.68,2.69,1.18,5.7-1.69,7.26-.72.39-1,1.66-.29,2.22.27.21.55.43.83.64,1.61,1.21,6.03,3.5,6.75,3.58,6.36.76,10.64-3.92,13.38-9.43,3.22-6.47,2.38-14.35-1.16-20.51-2.84-4.94-8.44-9.81-6.22-16.07.79-2.23,2.42-4.14,4-5.86,1.8-1.96,3.74-3.79,5.46-5.82,1.71-2.01,3.24-4.21,4.09-6.73,1.24-3.69.62-7.69-.31-11.38-2-7.92-4.59-15.73-7.35-23.41Z"/>
</svg>