<?xml version="1.0" encoding="UTF-8"?>
<svg id="Layer_1" xmlns="http://www.w3.org/2000/svg" version="1.1" viewBox="0 0 174.03 148.19">
  <!-- Generator: Adobe Illustrator 29.4.0, SVG Export Plug-In . SVG Version: 2.1.0 Build 152)  -->
  <defs>
    <style>
      .st0 {
        fill: #fff;
      }

      .st0, .st1 {
        fill-rule: evenodd;
      }
    </style>
  </defs>
  <path class="st0" d="M136.92,83.81c-1.45-17.68-5.87-33.35-26.61-34.02-9.36.08-18.92,2.07-27.53,5.76-20.93,10.5-27.57,48.85-9.13,64.29-.11.06-.14.24,0,.33,3.81,2.56,8.04,4.67,12.28,6.44,11.3,4.78,24.59,6.85,36.11,1.67,17.58-7.48,17.84-28.31,14.88-44.48Z"/>
  <path class="st1" d="M171.53,75.57c.72-.65,1.26-1.5,1.53-2.46.25-.87.27-1.83,0-2.7-.28-.93-.89-1.68-.76-2.65.01-.1.03-.19.06-.29.53-1.83,1.83-3.15,1.36-5.18-.13-.57-.38-1.09-.72-1.49.04-.44.07-.88.1-1.33.76-1.79.74-3.91-.08-5.67-.1-.9-.25-1.79-.46-2.67.1-.78-.04-1.63-.29-2.31-.44-1.19-.98-2.37-1.57-3.53.07-.32.04-.65-.14-.95-.32-.54-.74-1.02-1.17-1.48-.3-.54-.61-1.08-.91-1.61-.14-.24-.29-.51-.47-.8.47-.86.71-1.71.22-2.72-.18-.38-.69-.66-1.11-.64-.46.03-.92.05-1.38.07-.87-1.05-1.85-1.99-2.9-2.53-1.07-.9-2.15-1.79-3.2-2.7-.3-.26-.6-.52-.9-.77,0,0,0-.01,0-.02-.22-.8-.47-1.59-.71-2.39-.15-.49-.2-1.01-.68-1.28-1-.56-2.54-.65-3.69-.74-.11-.1-.23-.2-.34-.3.52-1.39.43-2.87-.23-4.26-.22-.47-1-.69-1.43-.37-.98.72-2.15.98-3.31.87-1.7-1.31-8.55-7.21-9.61-7.84-.01-.02-.02-.04-.04-.07-.6-.95-1.32-1.71-2.13-2.33-.12-.12-.23-.24-.35-.36.1-.72.37-1.42.8-2.01.05-.07.1-.13.15-.2.76-.9-.17-2.06-1.22-1.59-.08.03-.15.07-.23.1-.81.36-1.71.76-2.65,1.09-.34-.13-.69-.24-1.01-.37l-3.41-1.37c-.56-.23-1.15-.42-1.7-.68-.19-1.26-1.45-2.09-2.76-2.04.08-.24.19-.48.35-.7.05-.07.1-.13.15-.19.67-.78-.23-2.24-1.19-1.54-.07.05-.14.1-.21.15-.27.19-.54.36-.82.53-.44-.19-.94-.24-1.47-.03-1.16.45-2.22.91-3.24,1.62-.04.03-.08.05-.13.08-.51-.61-1.31-1.02-2.03-1.02-.01,0-.03,0-.04,0-.54-.82-1.53-1.3-2.49-1.19.06-1.18-1.12-2.24-2.2-2.37-1.26-.15-2.39.58-2.77,1.81-.11.34-.21.68-.32,1.03-.98-.49-2.01-.87-3.09-1.06-2.45-.43-4.85.03-7.22.71-.24.07-.47.14-.71.21-.34-.39-.65-.79-.96-1.16-.52-.64-1.77-.13-1.69.7.06.57-.17.98-.55,1.28-.41.06-.81.08-1.41.07-.79-.02-1.15-.04-1.98-.36-.39-.15-.87-.54-1.09-.9-.86-1.36-3.05-1.72-4.09-.43-1.1-.48-2.48.18-3.09,1.12-.32.49-.98.76-1.82,1-.63.18-1.27.31-1.91.43-.29-.39-.89-.65-1.34-.32-.3.22-.59.45-.88.68-2.22.31-4.43.32-6.55-.55-1.79-.73-3.44,1.27-3.14,2.95-.52.27-1.08.45-1.6.73-1.12.62-2.04,1.6-2.6,2.74-.1.21-.19.41-.28.62-.42.34-.83.69-1.24,1.06-.67-.34-1.34-.69-2.01-1.03-.5-.26-1.35-.08-1.45.59-.16,1.1-.56,2.01-1.12,2.77-1.83.96-3.6,2.05-5.29,3.25-1.94.61-4.01.96-5.7,1.36-.58.14-.9.9-.57,1.4.35.53.69,1.07,1.04,1.6-.97.94-1.87,1.93-2.73,2.95-2.38,2.83-4.37,5.94-6.16,9.23-.71.29-1.41.57-2.12.85-.68.27-.99,1.07-.44,1.65.26.28.5.57.7.88-1,1.65-2.18,3.16-3.82,4.15-.5.3-.88.77-1.08,1.31-.17.11-.34.24-.51.36-.46.35-.75,1.12-.2,1.57.38.32.74.7,1.05,1.12.07.24.13.48.2.72-1.53,1.41-2.8,3.04-3.76,4.88-.23-.04-.46-.01-.65.13-1.71,1.26-1.76,3.27-1.07,5.07-.41,2.71-.15,5.48.65,8.11-1.05,1.05-1.68,2.56-1.94,4.02-.45,2.56-.49,6.5-.6,9.12-1.15,1.11-1.96,2.54-2.41,4.07-.38.19-.76.38-1.15.57-.34.17-.59.61-.57.99.1,1.82.85,3.26,1.84,4.56.35,1,.87,1.93,1.56,2.82.47.61.94,1.19,1.34,1.85.04.07.07.13.09.17-.16.17-.29.46-.41.67-.98,1.72-.99,3.74.4,5.24-.52.43-.54,1.29-.08,1.82,3,3.43,5.5,7.59,9.66,9.41.02.03.04.06.05.1-.84,2.03-.96,3.08-.27,5.18,0,.02.01.04.02.06.37,1.1,1.04,2.86,2.26,3.2.38.11.76.16,1.14.15.97.93,1.93,1.87,2.9,2.8.08.46.14.93.15,1.4.03.79.77,1.43,1.57,1.19.28-.08,1.84-1.59,2.12-1.58.14.14.28.29.42.43.51.54,1.23,1.39,1.28,1.95.11,1.06.81,2.28,1.94,2.5.42.43,1.1.56,1.62,0,.03-.04.07-.07.1-.1.05,0,.11-.01.16-.02.25.74.5,1.49.75,2.23.49,1.46,2.37,2.4,3.71,1.55.22.13.43.27.64.4.32.21.65.41.98.61.02.05.04.11.06.16.22.66,1.11,1.01,1.66.63.17.05.35.1.52.13.93.18,1.87.13,2.77-.18.64-.22,1.26-.64,1.95-.7.04,0,.09,0,.13,0,.57,1.16,1.86,2.16,2.88,2.5,1.33.45,2.7.29,3.91-.26.33.65.74,1.27,1.23,1.85.27.32.76.25,1.05,0,.53-.47,1.06-.95,1.59-1.43.38-.15.77-.32,1.17-.49,1.26-.51,2.65-.73,3.81-1.47.55-.35,1.08-.8,1.5-1.33.81-.47,1.55-1.05,2.22-1.72.33,0,.68-.08,1.02-.25,1.41-.72,2.16-2.18,2.22-3.68,1.15-2.69,1.82-5.57,2.01-8.51.06-.97.07-1.94,0-2.91-.05-.68-.22-1.14-.48-1.75-.09-.2-.16-.39-.23-.59.01-.65.02-1.3.03-1.95.18-.55.49-1.06.92-1.49.67-.66.98-2.04.37-2.86-.4-.53-.8-1.06-1.2-1.59.11-2.28.66-5.9-.55-6.28.05-.34.15-.67.21-1.01.28-1.61.11-3.06-.74-4.47-.18-.29-.33-.55-.46-.81-.08-.46-.16-.93-.23-1.39-.12-.72-.24-1.44-.34-2.17-.05-.93-.1-1.85-.15-2.78-.05-.85-.1-1.71-.16-2.56.02-.38.06-.76.11-1.15.29-2.28,1.22-3.12,2.84-4.71.25-.04.51-.08.75-.14,1.15-.24,2.36-.61,3.54-.48,1.29.14,2.44.7,3.69-.01.37-.21,1.18-.79,1.25-1.26,0-.03.01-.05.02-.07.09-.01.2-.02.27-.03.99-.03,1.94.36,2.94.25,1.19-.13,2.25-.65,2.94-1.43.89.22,1.81.32,2.73.2.78-.1,1.47-.36,2.16-.73.5-.27.34-.35.89-.13,1.24.5,2.36,1.17,3.76.82.72-.18,1.35-.57,1.88-1.09.12-.12.34-.31.48-.48.66.34,2.33,1.09,2.61,1.16.78.19,1.6.16,2.36-.09.56-.19,1.24-.69,1.72-.8.63-.14,2.03.74,2.79,1.05,1.32.53,2.72.66,4.06.11.46-.19,1.36-.94,1.7-.93.56.69,2.12,4.47,2.59,5.85,1.9,5.58,2.39,23,1.52,27.45-.03.13-.07.26-.11.39-1.08,3.87-2.2,7.8-4,11.4-1.7,3.39-4.05,6.45-7.43,8.3-3.5,1.92-7.61,2.43-11.54,2.17-2.53-.17-5.02-.67-7.47-1.31-1.28-.33-2.55-.7-3.81-1.09-.55-.17-1.11-.32-1.65-.52-.95-.34-1.46-.37-2.37.07-.83.4-1.05,1.59-.61,2.33.71,1.22,2,1.3,3.25,1.66,1.27.36,2.55.71,3.83,1.02,2.46.59,4.96,1.05,7.49,1.25,4.52.38,9.17-.2,13.28-2.18.46-.22.91-.46,1.35-.72-.16.22-.32.45-.49.67-.46.61-.12,1.66.52,2,.2.11.41.21.61.31.03.07.06.13.09.2.58,1.18,1.81,1.87,3.06,2.17,1.48.36,3.14.1,4.65.06,1.4-.04,2.8-.09,4.19-.13.33,0,.66-.02.99-.03,1.66-.05,3.32-.1,4.98-.15,1.48-.04,1.41.07,2.8-.52.62-.27,1.13-.64,1.55-1.14.27-.12.52-.25.77-.41.79-.49,1.5-1.16,2.15-1.89,1.11.35,2.65.03,2.87-1.36.35-2.22,3.23-3.17,4.58-4.78,1.09-1.3,1.86-2.99,1.82-4.62,2.74-1.33,4.23-4.83,4.58-7.79.16-1.38.14-2.85.37-4.25.1-.11.2-.23.28-.36.69-1.11,1.29-2.26,1.82-3.44.72-.52,1.58-.84,2.49-.89,2.22-.13,2.64-3.13.52-3.85-.01,0-.02,0-.03-.01.57-1.44.53-3.14-.17-4.5.03-.15.06-.29.09-.44,1.19-1.28,1.87-3.06,1.8-4.79.54-.38,1.15-.68,1.82-.86,1.03-.28,1.04-1.54.27-2.1-.31-.23-.56-.49-.77-.78.53-1.58.32-3.41-.76-4.71.68-.88,1.36-1.75,2.05-2.62.45-.58.69-1.56,0-2.11-.44-.35-.88-.7-1.33-1.05Z"/>
</svg>