<svg width="101" height="120" viewBox="0 0 101 120" fill="none" xmlns="http://www.w3.org/2000/svg">
<path fill-rule="evenodd" clip-rule="evenodd" d="M54.7976 8.28079C66.7936 8.28079 81.818 21.9701 86.2152 27.7955C89.9122 32.6932 89.3892 57.9244 89.3892 72.8915C89.3892 76.0219 87.9747 81.9463 87.4613 84.9406C85.5797 95.9128 77.382 105.115 61.1569 105.115C47.9459 105.115 37.7792 100.929 27.9477 90.2219C25.7048 87.7792 14.7509 96.5238 12.5107 93.3746C6.65929 93.3746 1.76654 38.6819 13.255 22.2772C24.7434 5.87258 42.8017 8.28079 54.7976 8.28079Z" fill="white"/>
<path fill-rule="evenodd" clip-rule="evenodd" d="M18.7431 12.1333C25.6748 5.82446 34.9093 2.78947 44.2262 3.0135C49.0516 3.12975 53.86 4.04912 58.4171 5.62368C60.6967 6.41413 62.9044 7.44552 65.015 8.61217C65.7755 9.03162 66.4767 9.5231 67.1517 10.0451L67.3199 10.1762H67.322C69.1326 10.8271 70.7488 11.9959 72.215 13.3633C75.1537 13.1287 78.1157 13.3929 80.9572 14.2996C84.9121 15.5635 88.5734 17.8778 91.1445 21.1643C94.1395 24.9904 95.1351 29.6314 94.7798 34.4224L94.7142 35.2363C94.3629 39.4685 93.7336 44.9121 90.2614 47.693C89.9974 47.9043 89.7058 48.0649 89.4037 48.1622C91.641 51.996 93.4769 56.2526 94.5755 60.5515C98.7692 76.9713 95.5452 94.0949 90.5023 109.921C90.0882 111.225 88.1171 112.091 87.1136 110.817C85.322 108.539 82.7192 106.801 79.791 106.476C77.9847 106.275 76.1868 106.639 74.4798 105.819C73.81 105.495 73.1636 104.967 72.6988 104.324C69.8171 105.417 66.7136 105.933 63.6354 105.806C58.584 105.599 53.184 103.849 49.7086 100.011C49.1509 99.3945 49.0095 98.7028 49.138 98.0793C49.5738 97.9237 50.0213 97.8079 50.4823 97.7354C54.8893 100.334 59.7472 102.07 64.9681 102.179C67.9848 102.242 70.9273 101.82 73.3733 99.9356C73.9026 99.5277 74.3893 99.076 74.8393 98.5907C79.9535 95.2996 83.5592 89.7096 85.2734 83.7218C86.8706 78.138 86.6741 72.3237 86.1248 66.5961L85.835 63.5737C85.4126 59.1376 85.0207 54.6883 84.9109 50.2334L84.9441 50.2317C86.0241 50.1619 86.0319 48.4705 84.9441 48.5409C82.1302 48.7231 79.3376 48.2613 76.5324 48.4625C76.509 47.1358 76.4135 45.8151 76.0237 44.5356C75.8012 43.8045 74.5288 43.6604 74.394 44.5356C74.2136 45.7065 74.1476 46.8708 74.128 48.047C69.9299 47.9912 65.7358 47.6378 61.5371 47.783C60.7626 46.9566 60.516 45.4913 60.1537 44.472C60.1009 44.3219 60.0481 44.174 59.9931 44.0239C59.6748 45.4805 59.2235 46.9052 58.6298 48.2999L57.6001 48.3034C51.7575 48.3309 45.7961 48.5056 40.0909 49.7194C39.6943 49.4148 39.4584 48.8835 39.3946 48.401C38.9807 45.2612 38.3901 42.2049 37.3433 39.2128L37.1936 38.7907C37.1813 38.7556 37.1684 38.7184 37.1549 38.6793C36.3836 39.9248 35.4633 41.0857 34.4595 42.1668C33.868 42.804 33.2477 43.4133 32.6112 44.0053C31.9928 44.6922 31.3537 45.3687 30.7343 46.0577C30.7586 46.1831 30.7797 46.3103 30.7968 46.4399C30.9863 47.8696 31.006 49.3197 30.8672 50.755C30.6162 53.3497 29.8839 55.85 28.7076 58.163L28.6704 58.3946C28.4917 59.4786 28.2376 60.5988 27.6441 61.4151C28.3848 62.2453 28.9554 63.2369 29.2862 64.3387C29.5807 65.3196 28.2242 66.1696 27.5207 65.3669C26.9619 64.7293 26.341 64.2015 25.659 63.7805C25.6159 63.8391 25.5381 63.8678 25.4509 63.819C23.5516 62.7643 20.3255 63.0835 18.4284 64.0768C16.0685 65.3111 15.1474 67.8452 15.4093 70.4131C15.6607 72.8669 16.734 75.7349 18.815 76.9924C19.7699 77.5694 20.5136 77.618 21.5277 77.3412C21.8519 77.2531 22.2539 76.9829 22.4264 76.8486L22.5962 76.7125C23.261 76.1868 23.8802 75.8269 24.665 75.8131C25.4676 75.5627 26.2743 75.9101 26.5813 76.752L26.6002 76.8064C26.7438 77.2355 27.0058 77.7744 26.9488 78.4296C26.8896 79.1313 26.5685 79.7696 26.0889 80.2832C26.0065 80.3719 25.9178 80.4607 25.8269 80.5431C34.0875 89.4896 35.1481 103.43 30.9122 114.606C30.7284 115.097 30.5319 115.581 30.3269 116.061C29.6192 117.705 26.8938 117.195 26.5474 115.566C26.4438 115.078 26.3298 114.592 26.2051 114.11C25.976 113.219 25.7135 112.337 25.4176 111.468L25.3051 111.142C25.0537 110.424 24.8192 109.699 24.5657 108.98L24.5403 108.898C24.5308 108.866 24.5203 108.828 24.5086 108.786L24.0798 109.722L22.7762 112.548C22.1663 113.867 20.2282 113.15 20.1561 111.879L20.1544 111.836C20.1481 111.601 20.1396 111.369 20.1248 111.138C20.0319 109.411 19.734 107.733 19.2607 106.091L19.09 106.303C16.5476 109.448 13.5638 112.395 9.47061 113.121C8.44385 113.302 7.28188 112.229 7.98751 111.191C8.27906 110.762 8.56005 110.322 8.82624 109.876C8.59596 109.769 8.37836 109.657 8.17765 109.542C6.62484 108.67 5.33188 107.427 4.26286 106.017C1.99596 103.029 1.1847 99.2666 0.986104 95.5849C0.774837 91.694 1.11709 87.5917 2.17977 83.8381C2.64033 82.2149 3.26357 80.6573 3.98399 79.1461C3.93329 79.0108 3.8847 78.8756 3.8361 78.7403C3.05864 76.5719 2.42061 74.3548 1.89033 72.1124C0.821316 67.5852 0.246668 62.9144 0.176949 58.2626C0.0501889 49.929 1.48681 41.4623 4.51427 33.691C7.64103 25.6766 12.3438 17.956 18.7431 12.1333ZM14.8498 84.9941C14.2756 84.0898 12.8391 84.9047 13.3722 85.8154L13.392 85.848C14.3026 87.2831 14.7294 88.9147 15.2533 90.5146C15.5892 91.5439 17.2223 91.1043 16.8822 90.0645L16.7696 89.7173C16.2482 88.0948 15.7726 86.446 14.8498 84.9941ZM19.85 67.731L20.2314 67.5464C21.4346 66.972 22.4889 66.5807 23.9105 67.0822C25.8141 67.7522 27.8528 69.8847 26.5662 71.9538C26.0929 72.7168 25.2521 73.0211 24.3859 72.8415C22.9256 72.5385 22.5488 71.223 21.8077 70.1431L21.6802 69.9602C21.2284 69.3068 20.6571 68.4035 19.9049 68.1474C19.7338 68.0882 19.6619 67.8219 19.85 67.731ZM20.9234 23.8001L21.0463 23.6899C21.8639 22.9671 20.6639 21.7751 19.8505 22.4937C16.128 25.7844 14.835 30.935 12.904 35.3248C12.4709 36.3118 13.9266 37.1741 14.3639 36.1786C16.2059 31.9898 17.4285 26.9789 20.9234 23.8001ZM65.6574 22.3605C64.6847 21.9221 63.8338 23.3381 64.7689 23.8043L64.8039 23.821C68.0912 25.3068 69.4898 28.6715 70.8292 31.7952C71.256 32.7928 72.7116 31.9326 72.2891 30.9435L72.0474 30.383C70.6497 27.1638 69.0196 23.8825 65.6574 22.3605ZM70.8096 20.3273C69.7786 19.9701 69.3371 21.6018 70.3596 21.9589C73.1462 22.929 75.0582 25.0214 76.6702 27.4139C77.2744 28.31 78.7385 27.4646 78.1279 26.56C76.2561 23.7829 74.0336 21.4517 70.8096 20.3273Z" fill="black"/>
</svg>
