<svg width="107" height="127" viewBox="0 0 107 127" fill="none" xmlns="http://www.w3.org/2000/svg">
<path fill-rule="evenodd" clip-rule="evenodd" d="M80.9052 17.827C69.6089 14.5102 30.7602 17.91 29.7996 18.6284C28.2275 19.9352 20.5808 24.0816 19.3909 25.0282C8.6321 36.4356 18.8886 53.3759 18.0993 67.1373C18.1496 72.0187 16.0703 76.4756 15.1146 81.1716C14.711 83.6326 14.8 86.1781 16.0822 88.3875C18.3364 92.3355 23.0969 93.1359 26.9686 94.7278C28.8951 95.5576 30.6951 96.7342 32.3451 98.0215C43.4544 107.853 49.6382 114.585 65.8481 112.367C65.931 113.142 66.6165 113.902 67.4665 113.556C69.4566 112.745 71.4326 111.885 73.4401 111.117C73.8691 112.151 75.1017 112.447 75.9366 111.533L75.9415 111.54C79.6574 108.524 82.0207 104.401 83.7759 99.9868C85.0042 97.4403 86.01 94.7832 86.7786 92.0471C86.8655 91.7374 86.8541 91.4608 86.7755 91.2226C90.3218 78.9974 91.6342 66.1127 90.7006 53.4196C90.5115 50.8008 90.0172 48.1473 90.1386 45.5174C90.2485 43.1414 91.2717 40.8939 92.0517 38.6811C96.0738 29.2741 89.9255 20.7888 80.9052 17.827Z" fill="white"/>
<path fill-rule="evenodd" clip-rule="evenodd" d="M82.3258 2.5531L82.4463 2.45971C83.7487 1.43753 84.9767 0.097872 86.8131 0.600223C88.3195 1.01236 89.08 2.25932 89.4033 3.76625C89.8617 3.28649 90.3075 2.78981 90.7427 2.27623C91.9258 0.881319 94.5688 1.60414 94.9216 3.38159C95.6357 6.96187 95.6716 10.6055 94.9765 14.1922C94.8709 14.7353 94.7462 15.2764 94.6004 15.8111C95.3927 14.8241 96.13 13.7948 96.7913 12.7106C97.5075 11.5334 99.1258 12.1167 99.2378 13.3742C99.2673 13.6997 99.2843 14.0294 99.2885 14.3612C99.7934 14.5388 100.142 15.0587 100.009 15.697C99.2737 19.2096 98.342 22.6736 97.2223 26.0785C99.0223 25.1232 101.04 24.5568 102.939 25.231C105.956 26.3046 106.674 29.5975 106.085 32.4317C105.343 35.9951 103.011 38.9772 100.003 40.9322C99.6455 41.469 99.2927 42.0101 98.9568 42.5617C98.9504 44.1194 98.6674 45.6728 98.0969 47.1163C97.4547 48.7374 96.3223 50.1386 94.9279 51.2038C94.4379 52.2714 93.1399 53.0512 92.0004 52.8351L91.9406 52.8228L91.9385 52.8249C92.23 53.8689 92.4814 54.9236 92.699 55.9803C94.3839 64.1676 93.5309 72.6901 91.9941 80.8312L91.9448 81.0909C90.5652 88.336 88.9596 95.8389 85.8392 102.566C83.0166 108.649 78.2314 113.998 71.3927 115.325C63.3476 116.887 54.4427 114.412 47.5237 110.285C45.0159 108.788 47.3145 104.845 49.8117 106.366C53.4159 108.56 57.3307 110.092 61.4716 110.9C65.342 111.652 69.6709 111.908 73.3828 110.348C78.5526 108.175 81.6244 102.868 83.5681 97.8721C84.7131 94.9237 85.5709 91.8803 86.3695 88.8242C87.3983 84.8952 88.3575 80.9408 89.0779 76.9421C90.4195 69.4835 90.8547 61.7375 89.435 54.2578C88.9828 51.8717 88.3427 49.4707 87.5082 47.1628C87.3772 47.0001 87.2526 46.8183 87.1406 46.6196C86.2681 45.0895 85.6659 43.35 85.0173 41.6952C84.449 40.7082 83.8279 39.7592 83.1688 38.8314C82.1832 38.0737 81.2445 37.2636 80.3847 36.3797C82.8821 34.762 85.0858 32.7369 86.6714 30.1571C86.9329 29.7317 86.7669 29.3251 86.4569 29.0957C85.1908 30.6802 83.5518 32.0221 81.8278 33.2109C80.9447 33.9676 79.9936 34.6473 78.9968 35.2615C78.2847 35.4024 77.5647 35.4992 76.8666 35.5787C74.8786 35.8048 72.88 35.7203 70.9026 35.4561C66.6265 34.8855 48.5424 29.9031 40.9195 31.8399C39.3316 32.2434 38.5828 33.6681 37.742 35.0059C37.0127 36.1696 36.0849 37.1329 34.972 37.926L34.8476 38.0135C32.6716 39.5204 28.2964 44.2876 26.4573 48.5425C24.0827 54.0359 21.8018 70.498 22.8518 70.6396C25.5983 71.0116 27.1195 72.4572 29.3568 74.0085C29.5047 74.11 29.418 74.3847 29.2279 74.315C27.7511 73.7824 26.154 73.4675 24.6054 73.2096C23.2047 72.975 21.73 72.9327 20.3779 73.4336C18.3033 74.203 17.2913 75.9424 16.8751 77.9037C16.7124 78.6709 16.6406 79.4719 16.6321 80.2645L16.6309 80.4943C16.632 82.9932 17.0978 85.7635 18.9117 87.6068C19.6828 88.3909 20.7286 88.9193 21.823 89.0651C23.0209 89.2257 23.7603 88.6847 24.861 88.4036C26.1286 88.0802 27.1173 88.915 26.999 90.0035C27.2673 90.2381 27.5272 90.4854 27.7849 90.7369L27.7852 90.7379L27.7871 90.739C27.9561 90.8151 28.1166 90.9165 28.2624 91.0391C28.5011 91.242 28.7018 91.4639 28.8624 91.7028C29.2194 91.7725 29.5617 91.9712 29.8427 92.3347C30.4216 93.0808 30.9561 93.8353 31.4526 94.6046C32.342 95.5493 33.2272 96.4962 34.0997 97.4578C35.15 98.6136 36.1724 99.7958 37.2014 100.971L37.7166 101.558C38.2723 102.19 38.8258 102.822 39.3793 103.456L39.5444 103.642C40.1013 104.266 40.528 104.726 40.5878 105.624C40.63 106.29 39.9138 106.742 39.3202 106.59C38.4048 106.354 37.9799 105.635 37.4316 104.922L36.6033 103.859L35.8237 102.858C35.4371 102.359 35.0462 101.862 34.6575 101.366C34.5413 102.281 33.5737 103.018 32.6906 103.059L32.4847 103.067C30.411 103.136 27.8908 102.843 26.3124 101.38C25.6026 102.097 24.7195 102.661 23.6314 102.999C21.1596 103.769 18.6328 102.406 17.6335 100.332C15.6962 101.163 13.5075 101.33 11.4138 100.719C10.2062 100.365 9.7886 98.8592 10.6301 97.9377L10.668 97.8974L10.6778 97.8864C10.5041 97.6605 10.4086 97.3841 10.3932 97.0829C10.3744 96.7173 10.6408 96.3296 10.5859 95.9883C10.3763 94.6866 8.25431 95.651 7.57994 95.9329C7.45107 95.9866 7.33022 96.0122 7.21741 96.0162C6.1748 96.3199 5.04093 94.9495 5.58705 93.8184C6.81029 91.2906 8.00396 88.7439 9.24198 86.2203C9.08565 86.2732 8.92508 86.3218 8.76663 86.3619C6.54198 86.9326 3.8441 85.8378 4.35748 83.1558C4.47579 82.5259 5.04621 82.0948 5.61241 81.9003C6.71522 81.5199 7.54339 81.7947 8.39269 81.4396C9.34973 81.0423 10.349 80.3131 11.1899 79.6262C12.0878 78.8949 12.8631 78.0728 13.5497 77.1809C13.8244 75.8853 14.2997 74.6468 15.0603 73.5816C15.1068 73.5182 15.1533 73.4548 15.2018 73.3935C10.3244 72.2301 10.963 67.4314 8.81156 63.1787L8.62979 62.8262C7.16857 59.9815 5.89377 56.7743 6.63072 53.535C6.7617 52.9623 6.95184 52.4149 7.19691 51.9034C6.80607 51.952 6.41311 51.9964 6.02227 52.0408C5.12438 52.1422 4.2117 50.984 4.56874 50.1323C4.75677 49.6863 4.96381 49.2552 5.18776 48.8367C5.80889 47.6827 6.57156 46.6344 7.46945 45.6876C5.961 45.6474 4.45043 45.6474 2.95888 45.4741C1.54973 45.3114 0.0687437 44.5399 0.112137 42.9147C0.155786 41.365 1.51487 40.192 2.77508 39.436C4.01543 37.7856 5.58874 36.414 7.36825 35.3946C7.01622 35.3154 6.65953 35.2568 6.29699 35.2207L6.11522 35.2046C5.09903 35.1243 4.18635 34.8453 3.26522 34.4205C2.44128 34.0401 2.45396 32.8861 2.99269 32.3049C4.73438 30.4213 7.34396 31.0347 9.37445 32.114C9.23308 31.9346 9.07821 31.7617 8.90947 31.5963L8.80656 31.4979C7.80896 30.5686 9.30621 29.0773 10.3004 30.0035C10.6146 30.2962 10.896 30.6143 11.147 30.9514L11.1709 30.9015C12.4845 28.236 14.4057 25.8502 16.6788 23.9384L17.213 23.4941C21.312 20.0688 22.5768 18.4453 28.0279 18.9497C27.7955 17.9591 27.8183 16.8447 27.8706 15.9284L27.8779 15.8048C28.0871 12.3598 29.3568 8.23631 32.7159 6.68922C33.5885 6.28977 34.5772 6.94285 34.3448 7.94253C34.1821 8.65056 33.9835 9.33956 33.7364 10.0095C34.4695 9.23811 35.2554 8.5174 36.0878 7.85376C39.4807 5.14848 44.0145 2.82151 48.4744 3.58238C50.9251 4.00296 52.8476 5.54159 54.899 6.8266C56.961 8.12007 59.2638 8.88727 61.6786 9.16414C65.0526 9.55302 68.4392 9.16202 71.7751 8.54488C74.0673 7.54519 76.292 6.37431 78.4638 5.11255C79.799 4.3369 81.0983 3.48938 82.3258 2.5531ZM22.4237 77.3774C23.1378 77.1935 23.9385 77.1956 24.6547 77.3753C26.5033 77.8402 28.223 79.3873 28.3308 81.3381C28.3794 82.2194 27.6695 83.0627 26.8456 83.2888C25.9118 83.5467 25.1089 83.0902 24.5639 82.3589C23.9787 81.5769 23.8329 80.7294 23.1167 80.0192L22.9516 79.8584C22.3428 79.276 21.4221 78.5231 20.5773 78.6581C20.4526 78.6772 20.3596 78.5081 20.4864 78.4405C21.1751 78.0643 21.6273 77.5803 22.4237 77.3774ZM32.0256 68.1901C32.3517 67.9238 32.7825 68.2362 32.6291 68.6191L32.6172 68.6466C32.2306 69.4624 32.6848 70.4198 33.1538 71.1025C33.5573 71.6922 32.7946 72.2523 32.258 71.9986C30.7496 71.2822 30.8277 69.1623 32.0256 68.1901ZM37.5398 43.6797C37.5123 43.481 37.7764 43.3986 37.844 43.5951C38.9701 46.8647 39.2933 49.7602 39.1095 53.2179L39.0922 53.5247C38.8933 56.8552 38.3102 60.3802 36.2954 63.1154C35.8285 63.7474 34.8736 63.3754 35.0278 62.5807C35.6468 59.3999 36.8363 56.3797 37.299 53.1608C37.7828 49.7961 38.0004 47.0465 37.5398 43.6797ZM27.0221 55.564C27.1869 54.6912 28.5284 53.7929 29.2066 54.67C29.4348 54.968 29.1664 55.3337 28.8918 55.4436C28.6341 55.545 28.4038 55.4055 28.1502 55.4562C27.9452 55.4977 27.7953 55.6256 27.6955 55.8006L27.6749 55.8388C27.4763 56.2192 26.9524 55.936 27.0221 55.564ZM26.4728 48.6106C26.9545 47.7187 28.0636 47.1502 29.0122 47.706C29.3249 47.8899 29.2024 48.4246 28.8221 48.4077L28.5968 48.3986C27.9205 48.3739 27.2441 48.3876 26.6756 48.8156C26.5489 48.9107 26.4094 48.7311 26.4728 48.6106ZM28.1662 24.2529C25.4642 23.0376 22.7771 24.1347 20.5709 25.8458C20.3883 25.9874 20.2998 26.1527 20.2804 26.3188C21.7533 25.745 23.3216 25.3688 24.8207 25.0583C26.0465 24.8043 27.2839 24.6329 28.5228 24.5653C28.4535 24.4408 28.3396 24.3309 28.1662 24.2529Z" fill="black"/>
</svg>
