<svg width="102" height="120" viewBox="0 0 102 120" fill="none" xmlns="http://www.w3.org/2000/svg">
<path fill-rule="evenodd" clip-rule="evenodd" d="M74.1686 19.4192C58.5555 11.4141 35.2913 12.2749 24.3058 27.4148C22.5574 30.2883 20.7825 33.4353 19.9214 36.6373C18.8414 40.7713 16.9307 46.9045 16.4877 52.8504C16.2304 56.3045 17.4006 59.6534 17.0831 62.6199C16.8321 64.9651 14.4316 64.2522 14.5291 66.502C14.7196 70.8972 14.8586 77.2935 17.0831 80.7528C19.1738 83.7421 23.0784 83.5587 25.3736 86.3784C27.5367 89.0336 29.4065 91.9794 32.1407 94.1047C37.8637 104.788 54.1962 107.213 65.2066 106.217C91.4401 102.047 91.1308 62.8234 90.7541 42.1912C90.8724 31.6302 83.1278 23.8126 74.1686 19.4192Z" fill="white"/>
<path fill-rule="evenodd" clip-rule="evenodd" d="M96.3506 43.4634C96.5526 43.6344 96.7533 43.8043 96.9397 43.9807C100.603 47.449 102.405 52.7116 101.706 57.6931C101.104 61.9899 98.501 66.4766 94.6897 68.7636C95.2665 69.4231 95.7121 70.2177 96.0165 70.9955C96.7623 72.9103 96.7094 74.9604 95.8961 76.8393C95.0658 78.7542 93.4094 81.079 91.527 82.0787C90.5954 82.5712 89.501 82.7421 88.4996 82.4232C87.8827 89.1695 86.0214 95.6094 81.194 100.794C77.3109 104.966 72.0186 107.863 66.3587 108.658C63.2825 109.087 60.1285 108.962 57.0799 108.377C55.6454 108.102 54.2339 107.698 52.8714 107.172L52.821 107.153C51.3228 106.574 49.817 105.992 48.7285 104.775C47.579 103.493 48.701 101.561 50.3867 101.929C51.3321 102.135 52.208 102.536 53.0868 102.939C53.687 103.214 54.2885 103.49 54.9144 103.704C56.3466 104.192 57.8404 104.571 59.3425 104.767C62.3489 105.164 65.4355 104.843 68.3383 103.991C73.0348 102.611 77.393 99.5764 80.2433 95.584C83.5221 90.9933 84.8637 85.4815 85.3515 79.9314C85.7657 75.2062 85.7534 70.451 85.7411 65.7034C85.7368 64.0315 85.7325 62.3605 85.7468 60.6922C85.7624 58.9091 85.7615 57.126 85.7606 55.3432C85.7598 53.7513 85.759 52.1597 85.77 50.5685C85.7764 49.684 85.7745 48.7999 85.7726 47.9163C85.7675 45.5885 85.7624 43.2634 85.9094 40.9394C85.7656 40.9117 85.6179 40.8504 85.4721 40.7428C84.6194 40.1235 83.8699 39.3577 83.1197 38.5912C82.5335 37.9922 81.9468 37.3927 81.3102 36.8624C79.844 35.6408 78.2531 34.5693 76.5968 33.6267C70.4003 30.0971 63.2341 28.5817 56.1397 28.6978C52.2376 28.7614 48.4095 29.2728 44.5961 30.0865L32.7735 33.2462C30.6398 31.7619 28.2596 30.6646 25.8969 29.5753C25.5717 29.4253 25.2467 29.2755 24.9228 29.1249C24.7335 29.8727 24.3054 30.6 23.896 31.2955C23.7025 31.6242 23.5132 31.9459 23.3552 32.2592C22.7022 33.5527 22.1003 34.8736 21.5679 36.222C20.4947 38.9358 19.6348 41.7486 18.9862 44.5957C18.3443 47.4179 17.9853 50.2816 17.6258 53.1486C17.6138 53.2446 17.6018 53.3405 17.5897 53.4365C17.5675 53.6142 17.545 53.7922 17.5224 53.9704C17.3607 55.2484 17.1975 56.5382 17.1271 57.8199C17.0971 58.3515 17.0951 58.8851 17.093 59.4179C17.092 59.6752 17.091 59.9323 17.0869 60.189C17.085 60.2839 17.078 60.3974 17.0702 60.5227C17.0337 61.109 16.9811 61.9545 17.3658 62.3724C17.4038 62.4126 17.444 62.4485 17.4902 62.4802C20.0447 61.7067 22.9813 62.5542 24.1496 65.1728C24.2235 65.3377 24.0418 65.4835 23.9003 65.3651C21.5193 63.37 17.3911 64.5049 16.0876 67.2144C15.4792 68.476 15.3883 70.0043 15.701 71.3569C15.9311 72.3476 16.401 73.235 16.8719 74.1242C17.1575 74.6636 17.4434 75.2035 17.6764 75.7676C18.0228 76.6068 18.1897 77.4396 18.3228 78.3315C18.3354 78.4158 18.347 78.5055 18.359 78.5984C18.4253 79.1133 18.5046 79.7282 18.8447 80.0899C19.1862 80.4535 19.7861 80.5641 20.3055 80.6598C20.4352 80.6837 20.5599 80.7066 20.6742 80.7324C21.4707 80.9121 22.2397 81.1298 22.9663 81.5102C24.8776 82.5095 26.16 84.4084 27.4095 86.2585C28.015 87.155 28.6128 88.0402 29.2707 88.806C30.4304 90.1563 31.6918 91.4244 33.0376 92.5913C33.3585 92.8696 33.7274 93.1355 34.1032 93.4064C35.2369 94.2237 36.4339 95.0865 36.5656 96.4738C36.6249 97.0846 36.0799 97.6869 35.5264 97.8391C34.275 98.1847 33.3463 97.4367 32.4326 96.7009C32.3405 96.6268 32.2485 96.5527 32.1564 96.4799C31.2249 95.7446 30.3271 94.9669 29.4712 94.1447C27.7771 92.5194 26.2517 90.725 24.8806 88.8229C24.6059 88.4415 24.3437 88.0292 24.0779 87.6113C23.3849 86.5217 22.6674 85.3936 21.6397 84.6741C20.9555 84.1959 20.1586 84.0013 19.3583 83.8058C18.461 83.5867 17.5595 83.3666 16.808 82.7445C15.5789 81.7266 15.4068 80.4469 15.2248 79.0941C15.1525 78.5564 15.0786 78.0073 14.9362 77.4584C14.709 76.5871 14.308 75.7861 13.9066 74.9841C13.4531 74.0783 12.999 73.1712 12.794 72.16C12.1052 68.7486 13.1383 64.5705 16.4658 62.8902C16.6665 62.7888 16.8735 62.6979 17.0827 62.6195C17.0193 62.5732 16.9602 62.5204 16.9073 62.461C16.5405 62.0635 16.3869 61.4006 16.2676 60.8858L16.2585 60.8465C15.9126 59.3692 15.7065 57.8394 15.5035 56.332C15.4834 56.1831 15.4634 56.0344 15.4433 55.8861C14.9827 52.5298 15.2256 49.1186 15.7644 45.7856C16.2693 42.6492 17.0616 39.5783 18.1433 36.594C17.7672 36.3341 17.4693 35.9494 17.3045 35.461C16.9989 34.5728 17.1902 33.669 17.3801 32.7722C17.412 32.6214 17.4439 32.4708 17.4733 32.3205C17.5346 32.0014 17.6024 31.6822 17.6721 31.3631C17.5116 21.0448 26.1672 12.4916 34.6642 7.76162C44.1947 2.45461 55.5735 0.22698 66.4052 1.40843C71.8285 2.00232 77.2369 3.34862 81.9947 6.09618C86.3341 8.59856 89.8853 12.2803 92.2221 16.7121C94.4468 20.9351 95.5707 25.7771 95.6951 30.5367C95.7587 32.9419 95.5221 35.3492 95.0594 37.7099C95.029 37.866 94.9964 38.0243 94.9635 38.1843C94.7478 39.2331 94.5173 40.3543 94.7594 41.3959C94.9682 42.2933 95.6667 42.8846 96.3506 43.4634ZM18.1689 69.9957C19.6119 69.9724 20.8374 70.2474 22.0921 71.0207C23.2943 71.7649 24.4119 72.8386 24.9548 74.1574C25.4048 75.2477 23.6006 75.9644 23.0724 74.95C22.9849 74.782 22.9011 74.616 22.8183 74.452C22.3873 73.5987 21.9857 72.8035 21.2555 72.1052C20.4295 71.3126 19.2358 70.5896 18.1353 70.2495C17.9957 70.2051 18.0231 69.9978 18.1689 69.9957Z" fill="black"/>
</svg>
