<svg width="101" height="124" viewBox="0 0 101 124" fill="none" xmlns="http://www.w3.org/2000/svg">
<path fill-rule="evenodd" clip-rule="evenodd" d="M82.6513 36.1278C81.1559 30.7392 81.3698 30.1564 79.1411 25.0094C71.751 10.0563 22.3653 15.063 17.3251 29.9894C14.5907 38.0871 15.2331 49.4913 14.5214 56.513C14.3035 60.2359 14.0896 63.959 13.8679 67.6816C13.7914 68.9672 13.7139 70.2527 13.6351 71.5381C13.4815 74.0405 13.3321 76.5429 13.1927 79.0462C12.2642 86.7575 16.138 87.5418 22.7826 87.3135C24.5392 91.5534 27.3844 95.0927 30.8988 97.9724C30.0506 100.281 33.1266 101.476 34.7859 102.399C43.814 107.441 54.9037 110.518 64.9036 107.682C67.8418 106.849 79.9758 103.963 83.7066 95.0303C85.5388 90.6436 89.2632 67.9265 84.3516 47.4914L82.6513 36.1278Z" fill="white"/>
<path fill-rule="evenodd" clip-rule="evenodd" d="M51.0851 0.979746C52.4813 0.732677 54.0428 0.827785 54.8433 2.19945C55.0166 2.49513 55.1264 2.79334 55.1792 3.08712C58.9947 2.22904 62.956 2.13604 66.8539 2.69823C68.0158 2.86499 68.4236 4.41419 67.9123 5.29996C67.8595 5.39084 67.8067 5.47939 67.7496 5.56626C68.9708 5.66538 70.1898 5.87673 71.3982 6.20242C72.2581 6.43491 73.0609 7.54872 72.6787 8.46176C72.6447 8.54207 72.6088 8.62238 72.5731 8.70248C74.4722 9.02184 76.287 9.7679 77.8736 10.9726C78.0637 11.1142 78.2391 11.2981 78.3849 11.5073C81.932 11.1077 85.5849 11.8412 88.7518 13.5532C89.6391 14.0327 90.068 15.4152 89.4658 16.2775C89.2778 16.5459 89.0813 16.8016 88.8701 17.0489C90.2475 17.5583 91.4665 18.3823 92.2884 19.7246C93.182 21.1808 93.4567 23.0555 92.9771 24.6575C93.9785 25.6784 94.5025 27.2421 94.1454 28.8104C93.8201 30.2414 92.9433 31.15 91.8194 31.6955C92.0475 32.393 91.8637 33.1855 91.3461 33.7242C90.5518 34.5506 89.6011 35.1847 88.5658 35.6012C88.5637 35.8697 88.4961 36.1465 88.3609 36.4044C87.4271 38.1964 85.4137 39.3865 83.3665 39.5662C84.0553 42.4594 84.6215 45.3889 85.1708 48.3013C86.147 53.4815 86.9032 58.7124 87.3637 63.9642L87.4196 64.6137C88.1699 73.5006 88.3443 82.8107 86.5377 91.5774C85.3863 97.1591 81.8961 101.864 77.2398 105.051C72.5053 108.293 66.7208 109.906 61.0292 110.161C58.1264 110.29 55.1963 110.045 52.3527 109.449C51.0025 109.166 49.6989 108.764 48.4166 108.253C47.037 107.701 45.9006 106.888 44.7342 105.972C44.1278 105.497 44.4745 104.375 45.1926 104.233C45.706 104.129 46.213 104.017 46.7243 103.924C47.1933 103.838 47.7048 104.307 47.6074 104.74L48.5966 104.995C48.9263 105.08 49.2558 105.166 49.5846 105.254L50.0771 105.389C51.4778 105.78 52.9102 106.11 54.3468 106.344C57.2708 106.82 60.313 106.831 63.2518 106.461C68.1933 105.841 73.2405 104.079 77.0835 100.83C78.968 99.2367 80.5377 97.3493 81.6764 95.1576C83.1236 92.3739 83.5609 89.2734 83.9243 86.1943C84.9743 77.2901 84.6511 68.3732 83.8356 59.4669C83.4299 55.037 82.8764 50.6156 82.2891 46.2047C81.987 43.9432 81.6616 41.6776 81.3935 39.4077C80.7954 39.247 80.225 38.9807 79.7137 38.594C79.3672 38.3319 79.1644 38.0273 79.0757 37.7169C78.5594 37.6194 78.0647 37.3361 77.708 36.8569L77.6623 36.7933C76.7264 35.4383 75.1083 34.6628 73.6102 34.0985C72.7018 33.7562 71.7764 33.4579 70.8553 33.1538C69.8961 32.8347 68.882 32.3634 67.8743 32.2408C66.7313 32.1055 65.5799 32.45 64.4264 32.3274C63.3785 32.2133 62.4553 31.8369 61.7013 31.0847C61.4372 30.8226 61.2088 30.5204 61.0271 30.1949C57.5095 30.9471 53.8144 29.9983 50.1595 30.2266C47.7553 30.3788 45.6342 31.8667 43.2046 31.8265C42.5412 31.816 41.8989 31.5835 41.432 31.1756C39.14 31.6131 36.8095 32.454 34.6546 33.1768C32.525 33.8914 30.4757 34.8531 28.3715 35.6329C28.3694 35.6351 28.3694 35.6351 28.3694 35.6372C28.0947 36.527 27.275 36.9114 26.4025 36.7552C23.5482 36.2459 21.144 34.445 18.3659 33.7857C17.6011 36.5735 16.7792 39.325 16.2175 42.1679C15.649 45.0359 15.2497 47.942 14.9856 50.8544C14.7194 53.7774 14.5926 56.7299 14.5863 59.6635C14.5842 61.1598 14.6222 62.6602 14.6729 64.1566C14.714 65.4102 14.9528 66.9953 14.5 68.2009L14.4595 68.3033H14.4574C14.4025 68.4789 14.1553 68.5846 14.0159 68.4218C13.1644 67.4325 12.9616 65.8582 12.725 64.6152C12.4377 63.1064 12.2539 61.5825 12.1062 60.0543C11.8102 56.9876 11.7447 53.9338 11.9011 50.8544C12.2074 44.7929 13.1792 38.3909 15.2539 32.6614C14.6159 32.7203 14.3306 31.78 14.2884 31.2495C14.2076 30.1834 14.3745 29.0521 14.5554 27.9829L14.7446 26.876C14.9239 25.8311 15.1137 24.8136 15.4694 23.7973C16.3231 21.3581 17.5504 19.0673 19.0799 16.9855C22.2004 12.7395 26.5252 9.52464 31.4497 7.67131C31.7581 7.55506 32.0497 7.55718 32.3074 7.64573C36.7884 5.23021 41.6053 3.37033 46.4982 2.04728C48.0109 1.63937 49.5426 1.25471 51.0851 0.979746ZM13.872 69.1255C15.9065 67.8491 20.1044 67.5152 21.2389 70.2351C21.2854 70.345 21.1544 70.4422 21.0572 70.4168L20.7796 70.3467C19.7131 70.0823 18.7916 69.9304 17.698 70.3684C16.7368 70.7531 15.803 71.3552 15.167 72.1837C13.6638 74.143 13.5008 76.8044 13.641 79.1811L13.648 79.2959C13.779 81.3817 14.3135 83.9221 16.3523 84.9535C17.3854 85.4755 18.503 85.4375 19.6248 85.429C20.903 85.4206 22.2086 85.5601 23.4297 85.9534C24.1121 86.173 24.4332 87.0776 23.867 87.6083C23.679 87.7837 23.4825 87.9483 23.2755 88.0963C23.8945 88.7559 24.503 89.4238 25.0924 90.1276C26.0917 91.3215 27.1544 92.4754 28.2635 93.5681C29.3368 94.6228 30.4734 95.6436 31.6987 96.5186C32.9875 97.4361 34.5297 98.0805 35.6452 99.2048C36.372 99.9363 36.2473 100.957 35.6452 101.697C34.1505 103.535 31.6062 101.602 30.1771 100.515L30.0044 100.384C28.5192 99.2598 27.1079 98.0466 25.9058 96.6179C24.6804 95.1596 23.6199 93.6083 22.8361 91.8689C22.3755 90.8459 22.0818 89.8803 21.9234 88.87C19.3544 89.986 16.1156 89.6307 13.8128 88.0603C10.7558 85.9764 9.89803 82.1512 9.88733 78.6595L9.88764 78.4525C9.91026 75.0585 10.8015 71.0517 13.872 69.1255ZM19.6682 74.0447L19.7624 74.0458C20.8938 74.0703 21.9028 74.478 22.8638 75.0397L22.9631 75.0983C23.8969 75.6542 25.2363 76.0999 25.7307 77.14C26.0265 77.7677 26.0053 78.4863 25.4898 79.006C24.556 79.9488 23.1469 79.7924 22.137 79.0567C21.3828 78.5053 20.8863 77.6789 20.1469 77.1207C18.7567 76.0684 16.5638 76.1276 15.1168 77.0385C15.0279 77.0956 14.9415 76.9878 14.9814 76.9033C15.87 75.0841 17.6312 74.0377 19.6682 74.0447Z" fill="black"/>
</svg>
