<?xml version="1.0" encoding="UTF-8"?>
<svg id="Layer_1" xmlns="http://www.w3.org/2000/svg" version="1.1" viewBox="0 0 108.77 123.02">
  <!-- Generator: Adobe Illustrator 29.4.0, SVG Export Plug-In . SVG Version: 2.1.0 Build 152)  -->
  <defs>
    <style>
      .st0 {
        fill: #fff;
      }

      .st0, .st1 {
        fill-rule: evenodd;
      }
    </style>
  </defs>
  <path class="st0" d="M96.76,74.37c-1.32-9.56-4.36-18.84-4.79-28.54-.26-4.15-.52-8.3-.78-12.46-.1-2.59-3.47-3.47-4.75-1.17-2.92-3.24-8.16-2.77-12.16-2.67-23.52.83-45.87,16.74-53.94,38.91-.19.53-.14,1.09.08,1.59-3.76,12.55,9.55,20.63,18.62,26.23,3.68,3.89,8.01,7.12,12.9,9.34,5.62,2.64,11.88,4.12,18.09,4.26,1.36.03,2.18-1.07,2.28-2.21,1.98-.46,5.37.07,6.42-1.96,11.95-5.19,19.74-18.35,18.02-31.32Z"/>
  <path class="st1" d="M91.17,40.47c-.03-.31.41-.32.51-.07.76,2.06,1.54,4.11,2.14,6.23.58,2.04,1,4.12,1.42,6.2.7,3.45,1.3,6.92,1.8,10.4,1.06-.83,2.45-.91,3.76-.26.61.3.85,1.1.7,1.73-.12.5-.26,1-.44,1.48.37.33.69.73.92,1.2.6,1.23.41,2.51-.13,3.68.04.07.08.14.12.21.78,1.52.36,2.88-.21,4.37-.43,1.11-.19,2.36-1.11,3.2-.32,1.03-.8,1.99-1.51,2.86-.16.29-.4.53-.68.7-.07,1.63-.24,3.25-.57,4.86-1.26,6.25-5.24,11.82-10.18,15.74-4.83,3.84-10.5,6.14-16.62,6.88-2.97.36-5.95.25-8.89-.27l-.37-.07c-2.72-.49-6.01-1.31-7.89-3.36-.99-1.08-.41-3.45,1.34-3.23.93.12,1.73.27,2.6.61.68.27,1.36.52,2.06.74,1.34.42,2.72.74,4.11.92,2.89.37,5.9.27,8.76-.29,5.2-1.03,10.25-3.39,14.2-6.96,4.59-4.14,7.28-9.5,7.67-15.68.44-6.89-.35-13.94-1.01-20.79-.34-3.56-.78-7.12-1.3-10.66-.51-3.46-.82-6.91-1.2-10.39ZM50.58,18.24l.22-.03c8.83-1.34,18.12-1.25,26.42,2.4,1.59.7,3.15,1.54,4.61,2.52,1.05-.11,2.11-.2,3.14-.21,1.31-.02,2.58.66,2.74,1.98,1.22.15,2.35.6,3.07,1.5.28.35.47.76.56,1.18.75.18,1.49.45,2.19.81.85.44,1.34,1.65,1.04,2.55-.07.2-.15.4-.24.6l-.07.15.04.05c.68,1.09.21,2.52-.83,3.17-.78.49-1.65.88-2.55,1.06.07.36.14.72.2,1.09.02.15-.17.25-.25.11,0,0,.32,1,.81,2.1.19.43-.42.82-.65.38-.62-1.17-1-2.36-1.56-3.56-.52-.03-1.03-.15-1.53-.38-.33-.15-.57-.4-.75-.7-.01.01-.02.03-.03.04-1.67,2.14-4.92,2.9-7.44,3.57-2.7.73-5.47,1.18-8.25,1.51-4.85.58-9.74.68-14.61.91-.32.01-.65.03-.97.05-1.98,1.74-4.53,2.82-7.14,3.14-1.33.17-2.89.12-4.38-.21-.54.55-1.22.96-1.96,1.17-.13,2.77-1.68,5.39-4.01,6.91l.04.16c.58,2.36.57,4.95-1.51,6.59-.28.22-.59.41-.91.57l.07.16c1.07,2.51,1.42,5.28-.6,7.36-.82.84-2.25.64-2.87-.32l-.03-.05c-.03-.06-.07-.11-.11-.17-.05.11-.14.21-.26.26-.77.33-1.07.09-1.77-.25-.65-.32-1.33-.55-2.03-.74-.57-.15-1.13-.25-1.71-.31-3.6,1.38-5.93,5.6-5.38,9.57.3,2.16,1.49,4.3,3.55,5.19.9.39,1.97.56,2.95.42,1.32-.18,2.34-1.01,3.71-.54.54.19.88.61.91,1.19.05.91-.27,1.6-.82,2.1.96.8,1.74,1.92,2.57,2.81,1.04,1.11,2.1,2.23,3.23,3.25,1.06.97,2.2,1.88,3.4,2.68l.13.08c1.5.98,3.4,1.85,3.47,3.9.02.62-.35,1.18-.86,1.5-1.89,1.17-3.96-.37-5.44-1.5-.6-.45-1.18-.93-1.74-1.41-.37.03-.78-.03-1.21-.22-.27-.12-.54-.26-.8-.41-.85.21-1.65.03-2.32-.42-.95.23-1.96.26-2.82.07-.78-.17-1.48-.54-2.06-1.04-1.2.38-2.54.31-3.73-.42-.71-.44-1.27-1.06-1.57-1.79-.15-.24-.25-.52-.26-.83v-.12c-1.04.02-2.07-.33-2.87-1.15-.74-.75-1.09-1.69-1.13-2.64-1.04-.3-1.99-.9-2.72-1.84-1.2-1.55-1.36-3.47-.74-5.18-.04-.09-.08-.18-.11-.28-.96-1.35-1.59-2.98-1.54-4.61,0-.25.04-.5.09-.75-.94-.5-1.64-1.38-1.71-2.5-.06-.88.26-1.73.83-2.38-.28-.66-.4-1.38-.31-2.1.09-.74.35-1.38.73-1.91,0-.19,0-.39.03-.59-.04-.2-.07-.4-.09-.61-.18-2.26,1.38-4.25,3.29-5.29.5-.27,1.04-.5,1.58-.69.39-.14.98-.19,1.33-.44-.01-.01.13-.2.15-.3.03-.12.06-.24.07-.37.06-.52.01-1.06,0-1.59-.05-2.39.03-4.79.28-7.16.47-4.4,1.62-8.71,3.86-12.56,1.88-3.22,4.46-5.95,7.42-8.21,5.89-4.5,13.23-6.94,20.5-8.07ZM23.29,73c-.77-1.84,2.84-1.86,3.8-1.77h.03c2.15.22,5.5,1.25,6.38,3.42.36.9-.71,1.87-1.57,1.57-.84-.29-1.32-.91-1.99-1.45-.18-.14-.36-.28-.55-.4.1.32.26.61.48.83l.05.05c1.04.93-.82,2.4-1.51,1.16-.37-.66-.51-1.38-.4-2.13.03-.22.09-.42.18-.61-.07-.03-.14-.07-.21-.1l-.12-.06c-.83-.38-4.36-1.85-4.33-.53,0,.15-.19.15-.23.03Z"/>
</svg>