<svg width="101" height="120" viewBox="0 0 101 120" fill="none" xmlns="http://www.w3.org/2000/svg">
<path fill-rule="evenodd" clip-rule="evenodd" d="M91.5223 30.4446C91.4513 27.9172 87.7767 26.8679 86.7151 29.3709C86.6492 29.4379 86.5775 29.5024 86.5104 29.5601C86.8427 29.2749 86.1478 29.7467 86.0348 29.805C85.938 29.8549 85.8392 29.8999 85.7405 29.9464C85.0577 23.5438 82.7396 16.6415 76.7498 13.4277C68.3954 9.37483 58.742 8.58375 49.5766 8.98637C44.9335 9.26197 39.572 10.0047 35.447 7.65486C34.1616 6.92275 33.1313 5.77025 31.6788 5.31775C27.0937 4.07691 25.0139 8.78707 25.6385 12.6605C23.6827 12.6759 21.7427 13.7591 20.8987 15.5425C20.403 16.5979 20.4117 17.7369 19.9843 18.7962C18.673 21.4825 16.7967 23.4134 17.8575 26.6703C15.9918 28.7941 17.0555 32.0094 18.561 34.0428C19.3044 35.1004 20.1899 36.1157 20.7345 37.2995C21.2631 38.433 20.4651 39.7771 20.0211 40.8517C16.738 48.6397 16.9256 57.2165 18.6922 65.34C15.1471 66.8788 14.0832 71.6891 16.3949 74.718C17.1903 75.7887 18.1606 76.186 19.2611 76.8448C20.6538 77.6116 19.5163 80.6829 19.9623 82.1662C20.5682 85.7873 23.864 88.0172 27.1228 85.6657C29.1907 85.3527 30.8587 91.3718 32.3604 92.8825C33.2855 94.0999 34.3127 95.193 35.4294 96.2018C38.7569 104.767 55.8075 109.11 64.2375 108.614C73.0653 107.689 79.0207 100.19 83.9796 93.5332C86.526 89.9866 88.1821 86.017 88.7844 81.6875C89.3895 77.3362 89.1248 72.9771 88.7158 68.6205C87.8566 59.3642 86.5011 46.0289 85.6258 36.6726C88.7889 36.412 91.6182 33.7179 91.5223 30.4446Z" fill="white"/>
<path fill-rule="evenodd" clip-rule="evenodd" d="M22.5671 24.8797C22.5641 24.8928 22.5686 24.9027 22.5715 24.9166C22.5722 24.9126 22.5728 24.9105 22.5739 24.9057C22.5713 24.8951 22.5694 24.8881 22.5671 24.8797Z" fill="#4F66AF"/>
<path fill-rule="evenodd" clip-rule="evenodd" d="M22.5662 25.0141C22.5546 25.0018 22.5381 24.9927 22.5216 24.9805C22.5212 24.9809 22.521 24.9813 22.5208 24.9817C22.5362 24.9919 22.551 25.0035 22.5662 25.0141Z" fill="#4F66AF"/>
<path fill-rule="evenodd" clip-rule="evenodd" d="M91.0191 31.6408C92.0582 30.7772 93.6949 31.5723 93.3429 32.994C92.9599 34.5424 91.301 35.6004 89.9315 36.2366C88.522 36.8911 87.1489 37.0173 85.6111 36.9459L85.5921 36.9416C86.0191 38.6542 86.2612 40.4344 86.5878 42.1573C87.0023 44.3431 87.4101 46.53 87.8117 48.7179C88.2002 50.8326 88.6914 52.9501 88.9899 55.0755C89.291 57.2209 89.58 59.3678 89.8758 61.5139C90.3694 65.0982 90.7678 68.6989 91.1879 72.2935L91.3881 73.9949C91.8088 77.5963 92.1476 81.202 91.3502 84.7858C90.603 88.1446 88.9196 91.2777 86.967 94.0815C85.0548 96.8269 82.9187 99.4667 80.5739 101.855C76.0508 106.46 70.4734 110.149 63.9334 110.833C61.1174 111.128 58.1098 110.8 55.4624 109.776L55.2866 109.707C52.6067 108.649 49.3249 106.836 48.6275 103.862C48.1992 102.038 50.0784 100.614 51.7261 101.479C52.4895 101.881 53.0635 102.339 53.6902 102.914L53.8014 103.016C54.3135 103.492 54.5106 103.638 55.1015 104.01C56.3136 104.773 57.222 105.134 58.5987 105.481C61.1368 106.12 63.8761 106.019 66.4527 105.263C71.9233 103.659 76.1672 99.4747 79.8029 95.2787C81.777 93.0002 83.6508 90.61 85.0958 87.9544C86.6121 85.1682 87.312 82.2429 87.27 79.0726C87.2225 75.4955 86.7283 71.9045 86.404 68.3443C86.0736 64.7148 85.7681 61.0865 85.4989 57.4519C85.2468 54.0435 85.2224 50.6196 85.1343 47.2006L85.117 46.5596C85.0652 44.7445 85.0293 42.9288 84.9881 41.1133C84.9473 39.3031 84.8041 37.4698 84.9904 35.6672C85.0037 35.5359 85.1806 35.5028 85.2237 35.6355C85.3335 35.9732 85.4296 36.3162 85.5205 36.6612C85.5344 36.6506 85.5501 36.6411 85.5691 36.6345C86.7741 36.2203 87.8839 35.3933 88.7882 34.5014C89.651 33.6503 90.1016 32.4035 91.0191 31.6408ZM25.0874 6.27925C25.8444 3.16902 29.2509 2.47431 31.7698 3.97215C32.9814 4.69244 33.9516 5.73122 35.0833 6.55676C36.2085 7.37764 37.4521 8.03684 38.7643 8.50245C41.3711 9.42732 44.1209 9.76357 46.8761 9.77562C53.5817 9.805 60.1502 7.91975 66.8658 8.13005C72.0621 8.29279 77.5775 9.82909 81.3467 13.5869C83.3772 15.6112 84.6856 18.2138 85.3874 20.9768C85.7154 22.2681 85.9599 23.5907 86.1528 24.9103L86.2 25.2401C86.3079 26.0113 86.4812 26.8278 86.4972 27.6072C86.5118 28.3072 86.3347 29.0398 86.2388 29.7326C86.0367 31.193 83.7755 31.0267 83.4505 29.7326C82.7107 26.7861 83.0204 23.7452 82.1162 20.809C81.3144 18.2051 79.7605 15.9284 77.509 14.3714C68.0107 7.80267 55.83 13.3035 45.3647 12.7924C42.8069 12.6675 40.2114 12.2721 37.7988 11.391C36.5546 10.9366 35.3297 10.3824 34.2017 9.68537C33.1682 9.04716 32.2729 8.2453 31.3162 7.50739L30.8941 7.1865C30.2383 6.69287 29.1218 5.92112 28.4601 6.57409C28.1722 6.85832 28.1547 7.50097 28.16 7.99173L28.1633 8.21353C28.1933 10.297 28.6177 12.3767 27.8383 14.3896C27.4828 15.3077 26.4947 15.8866 25.5549 15.3667L25.5064 15.3388C23.5186 14.1558 20.9069 16.5329 22.4339 18.5003L22.4814 18.5598C23.3406 19.6043 22.8825 21.4437 21.3448 21.4391L21.2895 21.4381C18.5497 21.3526 17.3342 24.7779 19.6957 26.2745L19.7683 26.3193C21.6856 27.4671 20.0039 30.2267 18.0389 29.2792C18.2054 29.3595 17.9159 29.3585 17.7503 29.5808C17.5912 29.7943 17.5794 29.979 17.6172 30.2487C17.7319 31.0658 18.4502 31.7544 19.0321 32.2713C20.3538 33.4458 21.9921 34.2567 23.6804 34.7505C30.4431 36.7283 37.3811 34.309 43.9701 32.8479C50.8395 31.3247 58.5981 30.7111 64.5888 35.0335C64.66 35.0846 64.5976 35.1989 64.5188 35.1533C60.2195 32.6556 54.9539 32.8773 50.2543 33.9013C44.0916 35.2442 37.9828 37.7438 31.6712 38.4024C33.4431 41.5316 34.1846 45.2275 33.7114 48.8067C33.3855 51.2706 32.4053 53.4078 31.2477 55.5735L31.0267 55.9863C29.9945 57.9303 29.195 59.7668 29.1822 62.0189C29.1697 64.2564 25.8446 64.7282 25.2809 62.5472C24.0013 57.5943 28.6631 53.6929 30.5652 49.6086C32.1909 46.1171 32.2409 42.0463 30.9254 38.4713C29.441 38.5907 27.945 38.6032 26.434 38.4683C25.1362 38.3523 23.801 38.1183 22.4996 37.748L21.979 39.9376C21.2892 42.8541 20.6501 45.7686 20.4564 48.7979C20.3138 51.0238 20.3214 53.2607 20.5384 55.4812C20.726 57.399 21.1219 59.2485 21.5248 61.1208C21.8705 61.5769 22.0471 62.275 21.9499 62.8311C24.1936 63.4774 25.9583 65.2485 26.6031 67.5943C26.6424 67.7372 26.4425 67.8175 26.3677 67.6936C24.8379 65.1545 20.8986 64.2201 18.4067 65.8976C16.027 67.4992 15.0883 70.7328 16.4354 73.2927C17.1439 74.6387 18.1944 75.5845 19.549 76.2359L19.8214 76.3638C20.5312 76.6999 21.1828 77.0661 21.6393 77.741C22.2315 78.6164 22.2515 79.5418 22.1955 80.5421L22.1713 80.9475C22.1339 81.6181 22.1255 82.3083 22.3251 82.9533L22.3705 83.0967C22.4231 83.2576 22.4785 83.3994 22.5746 83.5531C22.6033 83.5988 22.8729 83.8634 22.9608 83.9591L23.0715 83.9925L23.1953 83.9976C23.3327 83.9997 23.5131 83.9402 23.4539 83.9815L23.47 83.9722C23.5222 83.9398 23.5701 83.9054 23.6105 83.8749L23.6871 83.815C23.8665 83.5557 24.0913 83.3414 24.367 83.178L24.6305 83.0607C25.3147 82.3379 26.4873 82.7177 26.9778 83.4377C27.3309 83.9556 27.5208 84.482 27.5364 85.0013C27.5916 84.9128 27.7141 84.8644 27.7921 84.9635L28.2572 85.5564C30.0368 87.8311 31.7857 90.12 33.8079 92.1936C34.9219 93.3361 36.1202 94.4098 37.3728 95.3987C38.4423 96.243 40.4709 97.0555 40.5019 98.5935C40.5116 99.0927 40.1574 99.4463 39.7238 99.6158C38.3129 100.167 36.5693 98.2916 35.5502 97.379L35.467 97.3053C34.2197 96.2124 33.0814 95.0128 32.0309 93.7299C29.9907 91.2378 28.2847 88.3696 27.5328 85.2144C27.4976 85.7649 27.2614 86.3045 26.8016 86.8136C26.1896 87.4912 25.3519 87.9663 24.4572 88.1621C22.4301 88.6053 20.4509 87.8755 19.2448 86.1857C18.2254 84.7572 17.9252 82.8708 18.0568 81.145L18.073 80.938C18.0914 80.6612 18.115 80.1533 18.1866 79.9371L17.5483 79.5865C16.7658 79.1699 16.0405 78.6238 15.3896 78.0236C12.7735 75.6108 11.4609 71.6896 12.6569 68.2584C13.405 66.1119 14.977 64.2442 16.99 63.2734C16.6535 62.4956 16.541 61.5718 16.414 60.7545L16.3927 60.6193C16.1774 59.2785 15.9972 57.9208 15.9285 56.5639C15.8001 54.0298 15.9562 51.4721 16.3543 48.9674C17.0007 44.8991 18.3391 40.5846 20.7924 37.1717C18.9207 36.4282 17.1981 35.3518 15.8683 33.8571C14.4788 32.2952 13.593 30.0591 14.6675 28.0756C14.9413 27.57 15.2981 27.145 15.7082 26.8075C14.9971 25.4642 14.767 23.8765 15.2058 22.359C15.7302 20.5448 17.1539 19.1298 18.8738 18.4691C18.4562 16.7502 18.7976 14.9013 20.0738 13.4688C21.3397 12.0476 23.3056 11.53 25.125 11.8549C25.2237 10.0267 24.6484 8.08228 25.0874 6.27925ZM19.9843 70.4663C21.6524 69.6496 23.6295 69.7794 25.2957 70.5534L25.4086 70.607C27.2278 71.4895 29.6373 73.5514 29.059 75.7443C28.7206 77.0268 27.2962 77.4647 26.1917 76.9112C25.2691 76.4486 25.0587 75.6216 24.5958 74.7907C24.2685 74.2032 23.864 73.7439 23.3888 73.2715C22.3872 72.2763 21.2622 71.537 19.9843 70.9454C19.8 70.86 19.8064 70.5536 19.9843 70.4663ZM62.0169 26.1399C61.8605 26.0685 61.974 25.8236 62.1314 25.8684C66.3231 27.0659 70.2314 29.7538 72.5667 33.4848C72.7091 33.7124 72.7309 34.0871 72.5667 34.3124L72.4912 34.4147C72.384 34.5546 72.2784 34.6578 72.077 34.6891C71.6984 34.7478 71.3695 34.6491 71.1515 34.3124C68.8507 30.7563 65.9031 27.9182 62.0169 26.1399ZM90.0786 26.8441C90.4337 26.2424 91.3753 26.3635 91.5627 27.0381L91.5899 27.0969C91.6911 27.3268 91.645 27.3739 91.4563 27.2438C91.9236 27.6289 92.1351 28.2025 91.9922 28.8192C91.2207 32.1501 87.4494 34.5286 84.1616 34.2012C83.8747 34.1727 83.8356 33.8199 84.0957 33.7147C85.3605 33.2024 86.4832 32.3703 87.386 31.3493C88.2634 30.3568 88.6325 29.2212 89.1044 28.0226C89.2815 27.5726 89.557 27.2486 89.9451 27.0717C89.9964 27.0007 90.0412 26.9251 90.0786 26.8441ZM71.382 24.7036L71.4047 24.705C73.094 24.9233 74.5554 25.7573 75.7416 26.9794C76.8842 28.1562 78.3261 30.098 78.2025 31.825C78.1207 32.9699 76.4935 33.6244 75.8863 32.4527C75.524 31.7536 75.4418 30.9872 75.1881 30.2479C74.9553 29.5703 74.6337 28.927 74.2488 28.3236C73.4563 27.0804 72.3666 26.0272 71.2507 25.077C71.1201 24.9658 71.2111 24.7042 71.382 24.7036ZM28.0542 24.1962C27.6796 23.8395 28.0692 23.2312 28.5456 23.3517C31.0582 23.9881 33.5465 24.762 36.1588 24.839C37.4636 24.8772 38.761 24.7743 40.0535 24.6054L40.7079 24.5185C41.7159 24.3869 42.7411 24.2835 43.7374 24.4907C44.4016 24.6287 44.5314 25.4846 44.1175 25.9312C42.163 28.0403 38.3932 27.8387 35.8011 27.4832C32.9864 27.0968 30.1464 26.1901 28.0542 24.1962ZM73.4271 17.6223C73.2551 17.3837 73.5445 17.0071 73.8183 17.113C76.3153 18.0784 78.9323 20.592 79.6202 23.2219C79.8019 23.9166 78.9262 24.4411 78.4119 23.9254C77.4536 22.9644 76.7771 21.8293 75.9671 20.7491C75.1599 19.6722 74.2153 18.7159 73.4271 17.6223ZM32.5145 18.7968C32.3142 18.5967 32.5158 18.1981 32.8035 18.2999C34.4292 18.8759 36.0672 19.3742 37.7751 19.6357C39.5244 19.9032 41.2901 19.6999 43.0485 19.8083C43.7599 19.8521 44.2443 20.9591 43.4535 21.3036C39.9397 22.834 35.1672 21.4463 32.5145 18.7968ZM37.0033 15.3641C36.724 15.1574 36.8828 14.5902 37.2629 14.7485C38.8111 15.3933 40.3768 15.5518 42.0382 15.4855C42.6519 15.4607 42.781 16.4255 42.1829 16.5557C40.3464 16.9554 38.5041 16.4742 37.0033 15.3641Z" fill="black"/>
</svg>
