<?xml version="1.0" encoding="UTF-8"?>
<svg id="Layer_1" xmlns="http://www.w3.org/2000/svg" version="1.1" viewBox="0 0 103.11 121.38">
  <!-- Generator: Adobe Illustrator 29.4.0, SVG Export Plug-In . SVG Version: 2.1.0 Build 152)  -->
  <defs>
    <style>
      .st0 {
        fill: #fff;
      }

      .st0, .st1 {
        fill-rule: evenodd;
      }
    </style>
  </defs>
  <path class="st0" d="M17.06,27.89c1.1-1.18,2.5-2.05,4.03-2.33-1.4.7-2.77,1.43-4.03,2.33ZM14.91,38.03c-.19-.9-.32-1.8-.36-2.71.24.37.64.62,1.08.75-.28.64-.52,1.29-.71,1.96h-.01ZM88.23,52.08c-1.26-5.27-7.16-15.4-8.56-17.35-1.51-4.83,6.74-8.7,2.25-12.47-2.03-1.7-4.72-2.31-7.24-2.91-17.46-4.19-36.21-2.08-52.4,5.63-2.46-.52-5.03.49-6.82,2.27-8.41,8.46,3.05,23.72,5.56,33.26,4.3,10.63-4.56,12.42-3.61,21.42.74,4.65,5.44,5.88,9.42,6.58.64.15,1.49.17,1.69.84.64,3.93,2.85,7.67,5.81,10.21-.26.77-.06,1.7.85,2.37,8.27,6.15,18.71,9.23,29.03,8.68,12.3-.66,18.66-7.71,20.2-9.53,8.49-11.47,7.47-26.59,5.74-40.26-1.21-9.52.32.56-1.92-8.77v.03Z"/>
  <path class="st1" d="M50.3,8.26c.39-1.21,1.48-1.94,2.73-1.79,1.11.13,2.3,1.23,2.16,2.45-.03.23-.06.45-.1.66h0l-.03.08c-.08.39-.2.73-.37,1.06-.22.63-.42,1.26-.63,1.89.3-.01.6,0,.9.06.32-.81.64-1.62.95-2.43.34-.87.58-1.98,1.25-2.66.86-.86,2.35-1.04,3.4-.42,1.11.65,1.5,1.8,1.26,3.03-.12.63-.54,1.07-1.06,1.34l-.06.03-.4.95c.12-.05.25-.1.39-.14.22-.06.43-.1.63-.12.57-1.03,1.2-2.04,1.85-3.02.75-1.13,2.2-1.61,3.43-.9,1.09.64,1.68,2.32.9,3.43-.6.84-1.16,1.7-1.72,2.56.1.02.19.04.28.07.04-.06.09-.11.13-.17.61-.75,1.31-1.32,2.04-1.94.68-.59.99-1.51,1.88-1.96,1.12-.56,2.47-.29,3.14.82,1.43,2.39-.97,4.14-2.51,5.58,1.34-.83,2.73-1.6,4.16-2.26.8-.37,1.62-.73,2.45-1.04,1.23-.46,2.22-.31,3.23.54.45.38.67,1.21.47,1.76-.4,1.06-1.04,1.71-2.15,2.01-.78.22-1.58.36-2.36.59-1.31.38-2.58.83-3.82,1.41.09.06.17.11.25.18.92-.3,1.86-.56,2.8-.78,1.56-.37,3.15-.61,4.75-.77l.53-.05c1.92-.18,4.22-.52,5.39,1.31.39.6.43,1.6,0,2.2-.82,1.15-1.64,1.38-2.99,1.4,1.34.14,2.67.32,4,.52.91.14,1.83.3,2.74.47l.45.09c1.11.22,2.35.35,3.3.99,2.08,1.4,1.1,4.14-1.2,4.43-1.11.14-2.35-.33-3.44-.55-1.06-.21-2.13-.4-3.19-.57-.55-.09-1.11-.16-1.66-.23,1.13.16,2.25.39,3.34.72l.3.09c2.11.64,4.96,1.67,5.62,3.93.4,1.37-.69,2.57-2.02,2.65-1.23.07-2.25-.66-3.3-1.2-.76-.39-1.53-.69-2.35-.94-.85-.26-1.71-.48-2.58-.65.74.41,1.45.85,2.14,1.35l.32.23c1.83,1.36,4.61,3.47,3.97,6.03-.2.81-1.1,1.57-1.96,1.49-2.24-.21-3.48-2.6-5.17-3.88-.44-.33-.93-.66-1.43-.98,2.56,3.06,4.61,6.6,6.16,10.25,3.41,8.04,4.46,15.48,4.48,24.13v.27c0,4.77-.1,9.62-.57,14.37-.43,4.39-1.22,8.71-3.21,12.69-3.33,6.66-9.82,11.85-16.98,13.82-7.97,2.2-16.87.48-23.4-4.59-1.66-1.29.54-4.1,2.24-2.91,6.79,4.77,15.58,6.28,23.37,3.05,6.18-2.56,11.16-8.06,13.27-14.39,1.34-4.03,1.73-8.33,2.21-12.53l.03-.28c.51-4.39.8-8.81.8-13.23,0-8.21-1.19-14.97-4.8-22.42-1.7-3.51-3.9-6.75-6.53-9.6-.8.16-1.65-.07-2.45-.15-.41-.04-.82-.09-1.24-.12.42.27.83.56,1.24.84l.53.38c1.67,1.19,3.78,2.55,3.35,4.86-.12.62-.74,1.2-1.34,1.34-2.18.52-3.68-1.6-5.16-2.86-1.28-1.09-2.62-2.08-3.99-3.06-.31-.22-.62-.44-.94-.66.3.35.58.7.86,1.05l.41.53c1.26,1.57,3.07,3.61,1.95,5.65-.32.57-.99.96-1.65.94-2.25-.05-3.15-2.6-4.2-4.22-.91-1.38-1.9-2.69-2.92-3.99-.28-.36-.56-.71-.85-1.07-4.73.25-9.44.87-14.07,1.87-3.18.69-6.31,1.58-9.42,2.55l-.26.08c-1.68.54-3.41,1.23-4.62,2.42-.17.82-.04,1.68.13,2.5l.13.63c.53,2.62.89,5.18.62,7.87-.28,2.77-1.12,5.26-2.13,7.84-.48,1.21-.98.99-1.15,2.3-.13.99-.05,2.02.04,3.02l.07.85c.19,2.22.28,4.64-1.17,6.47-.23.28-.71.17-.87-.11-.06-.11-.13-.22-.2-.32-.7-1.02-1.78-1.6-3.01-1.82-.16-.03-.1-.24.04-.25,1.04-.12,2.02.14,2.86.67-.4-1.37-3.47-.71-4.48-.44h-.03c-1.26.35-2.45.9-3.5,1.67-2.11,1.56-3.33,4-3.27,6.63.06,2.58,1.39,4.97,3.68,6.21,1.1.6,2.36.88,3.61.87,1.31-.01,2.47-.59,3.78-.51.76.05,1.34.86.9,1.57-.29.47-.67.85-1.11,1.13,1.07,2.47,2.44,4.83,4.01,7,.87,1.21,1.86,2.32,2.95,3.34.85.79,2.69,1.71,2.59,3.04-.04.48-.28.77-.72.95-1.35.55-3-1.35-3.9-2.27l-.07-.07c-1.13-1.12-2.16-2.37-3.05-3.69-1.59-2.34-2.58-4.98-2.98-7.75-2.17.65-5.04.04-6.81-.76-5.56-2.52-7.38-10.01-4-15,.66-.97,1.47-1.79,2.41-2.46-.2-.11-.4-.26-.57-.44-.95-1.01-1.62-2.32-2.28-3.53l-.08-.14c-.59-1.07-1.15-2.15-1.67-3.25l-.19-.41c-1.16-2.5-2.18-3.6-3.01-6.23-.8-2.54-1.43-5.13-1.84-7.76l-.11-.7c-.24-1.53-.46-3.16-.29-4.71-1.19.39-2.38.63-3.55.04-.77-.38-1.2-1.5-.94-2.3.19-.59.51-1.05.92-1.42-.24-.12-.47-.28-.67-.45l-.18-.15c-.71-.62-.76-1.79-.33-2.56.04-.07.08-.15.12-.22.41-.73,1.26-1.21,2.09-1.2h.41c-.39-.09-.77-.22-1.14-.44-1.64-1.01-1.43-3.74.55-4.22.83-.2,1.75-.12,2.67.1-.03-.02-.07-.04-.1-.06-.69-.42-1.27-1.26-1.21-2.11.07-.94.38-1.61,1.21-2.11.72-.43,1.74-.47,2.46,0,.62.41,1.23.86,1.82,1.34-.59-.72-1.1-1.51-1.31-2.35-.26-1.04.17-2.18,1.11-2.73.75-.44,1.54-.39,2.24-.05-.04-.55.09-1.11.46-1.6.74-1.01,2.1-1.6,3.27-.86.15.1.36.26.56.47-.39-1.24-.04-2.55,1.3-3.11.81-.34,1.91-.17,2.62.42-.45-2.42,3.13-4.21,4.52-1.7.32.57.63,1.16.91,1.78l.1.23h.01l-.07-.17-.07-.17c-.39-.9-.88-1.83-1.01-2.81-.2-1.44.44-2.81,2.01-3.02.81-.11,1.71.26,2.25.9-.29-2.24,2.2-3.86,4-2.19.85.79,1.31,1.95,1.85,2.96.31.57.62,1.14.93,1.72.08-.09.16-.19.25-.28-.45-1.36-.81-2.76-1.1-4.16-.28-1.32.38-2.7,1.74-3.07,1.24-.34,2.79.42,3.07,1.74.19.93.42,1.85.68,2.76.17-.04.34-.07.51-.09,0-.17.03-.34.05-.52l.07-.61c.15-1.4.3-2.99,1.03-4.18,1.24-2.03,4.43-1.19,4.47,1.21.02,1.24-.49,2.47-.66,3.7-.08.53-.12,1.08-.15,1.62.34-1.8.81-3.57,1.35-5.32.06-.21.13-.42.2-.63l.02-.03ZM22.78,77.54c2.8-.43,5.36,1.13,7.02,3.32.3.4.1.96-.17,1.3-.2.25-.46.28-.76.31-.34.04-.78-.23-.93-.53-1.07-2.13-2.97-3.48-5.16-4.31-.04-.01-.05-.09,0-.1h0ZM26.66,39.37l.08-.09c.57-.59-.33-1.49-.9-.9-.6.62-.99,1.37-1.38,2.14-.36.73.73,1.37,1.09.64l.17-.33c.26-.52.54-1.03.93-1.46h0ZM18.8,38.16c.8-.14.46-1.36-.34-1.22-1.04.17-2.07.37-3.1.55-.8.14-.46,1.36.34,1.22,1.04-.17,2.07-.37,3.1-.55ZM66.62,29.81c-.78-.26-1.11.97-.34,1.22,1.07.36,2.12.72,3.13,1.21.73.36,1.37-.74.64-1.09-1.11-.54-2.27-.95-3.44-1.34h.01ZM18.61,28.17c-.76-.3-1.09.92-.34,1.22l2.74,1.1c.76.3,1.09-.92.34-1.22l-2.74-1.1ZM76.18,25.19l-.1-.06c-.69-.45-1.32.65-.64,1.09.4.26.89.44,1.26.75l.08.07c.59.56,1.49-.33.9-.9-.43-.41-.99-.64-1.49-.95h-.01Z"/>
</svg>